<svg width="265" height="199" viewBox="0 0 265 199" fill="none" xmlns="http://www.w3.org/2000/svg">
<path fill-rule="evenodd" clip-rule="evenodd" d="M90.5762 91.6411C91.3887 99.8452 92.2013 108.049 93.0138 116.254C97.4376 113.729 101.862 111.205 106.286 108.68V127.371V132.283C106.286 132.718 106.027 134.211 106.286 134.588C106.504 134.907 108.125 134.916 108.509 134.97C111.01 135.32 113.517 135.632 116.028 135.909C122.645 136.64 129.728 137.687 136.371 136.847C142.145 136.117 147.743 134.063 153.018 131.674C154.871 130.835 156.697 129.937 158.489 128.977C158.869 128.774 160.249 128.293 160.455 127.879C160.624 127.541 160.228 126.352 160.175 125.996C159.952 124.498 159.729 122.998 159.506 121.499L156.393 100.567L162.275 106.44C162.735 106.9 163.61 108.206 164.248 108.41C164.715 108.56 165.873 108.097 166.335 108.008C169.665 107.366 172.995 106.724 176.326 106.083C177.101 105.933 178.85 105.939 179.504 105.47C179.856 105.217 179.873 104.704 179.997 104.217C180.809 101.035 181.622 97.8527 182.434 94.6706C182.58 94.0975 183.397 92.2903 183.189 91.7131C183.115 91.5062 182.754 91.3647 182.534 91.2298C177.508 88.16 172.481 85.0899 167.455 82.0199C164.701 80.3381 161.948 78.6564 159.194 76.9746C158.041 76.27 156.624 75.0008 155.317 74.6067C154.506 74.3619 153.326 74.5453 152.486 74.5212C150.78 74.4725 149.074 74.4239 147.368 74.3752C147.101 74.3676 146.166 74.1772 145.941 74.3346C145.754 74.4655 145.831 74.6481 145.77 74.9602C145.62 75.7224 145.619 76.5443 145.545 77.3181C145.486 77.9391 145.603 79.0778 145.324 79.6398C145.145 79.999 145.372 79.8559 145.13 80.0295C144.842 80.2362 143.922 80.1696 143.58 80.2094C141.908 80.4036 140.236 80.5978 138.564 80.792C136.577 81.0227 134.567 81.456 132.57 81.2564C129.543 80.9542 126.279 80.9691 123.306 80.3314C122.534 80.1656 122.255 79.7304 121.66 79.1354C120.497 77.974 119.345 76.7991 118.169 75.6499C117.593 75.0868 117.84 75.1822 117.246 75.3959C116.501 75.6634 115.746 76.3093 115.072 76.7198C112.49 78.2926 109.908 79.8653 107.326 81.4381L91.5626 91.0402C91.2338 91.2406 90.905 91.4407 90.5762 91.6411Z" fill="#6951FF"/>
<path fill-rule="evenodd" clip-rule="evenodd" d="M241.351 92.6611C238.101 104.998 231.566 118.449 218.399 122.382C215.198 123.338 212.083 124.059 208.759 123.695C208.442 123.661 208.177 123.705 207.876 123.711C207.337 123.721 207.803 123.915 207.198 123.728C206.726 123.583 206.285 123.218 205.794 123.057C204.487 122.63 203.094 122.547 201.766 122.202C198.504 121.353 195.141 120.305 191.98 119.135C190.491 118.584 189.123 117.816 187.723 117.078C186.3 116.328 184.791 115.862 183.352 115.173C182.215 114.629 180.266 113.92 179.466 112.9C178.613 111.812 179.793 109.496 180.13 108.339C181.277 104.403 182.643 100.524 183.505 96.5095C186.481 99.9587 190.612 102.095 194.888 103.472C197.208 104.22 199.595 104.76 202.008 105.099C204.199 105.405 206.563 105.777 208.759 105.341C210.418 105.012 212.499 104.25 213.683 102.984C214.105 102.533 214.612 101.704 214.376 101.048C214.075 100.215 213.199 100.607 212.725 99.9855C212.313 99.444 212.377 98.1774 212.246 97.518C212.013 96.3509 211.693 95.2158 211.303 94.0924C210.545 91.9111 209.601 89.7249 209.375 87.4038C209.179 85.39 209.637 83.4857 210.642 81.7384C211.116 80.9123 212.308 78.6651 213.472 78.7583C214.75 78.8608 213.027 84.2457 212.97 85.3442C212.747 89.6987 213.331 94.3385 215.566 98.1552C216.421 99.6166 217.658 101.318 219.485 101.499C221.42 101.691 222.981 100.168 223.902 98.6282C226.149 94.8703 225.016 89.7138 223.878 85.7752C222.482 80.9429 218.838 77.6121 216.534 73.2723C219.974 73.6182 221.816 75.8032 223.581 78.5757C225.525 81.6278 227.038 85.2924 227.784 88.8438C228.161 90.6381 227.9 92.4399 227.903 94.2518C227.904 94.8537 227.903 97.0746 228.885 96.987C229.934 96.8935 230.294 94.3889 230.448 93.6249C230.801 91.8723 231.184 90.1196 231.491 88.3584C232.034 85.2423 232.276 82.0509 232.927 78.9565C233.037 78.4334 233.256 76.982 234.039 77.3739C234.642 77.6756 234.546 79.9203 234.568 80.442C234.622 81.7278 234.698 83.0133 234.709 84.3005C234.724 86.208 234.344 88.1825 234.53 90.0784C234.652 91.3173 235.317 92.686 236.141 91.0153C236.958 89.3585 237.125 87.2921 237.581 85.5104C238.06 83.6397 238.554 81.7413 239.57 80.0799C239.852 79.6189 240.155 78.8871 240.781 79.1039C241.236 79.2616 241.572 80.3404 241.713 80.7212C242.348 82.4417 242.24 84.3547 242.2 86.156C242.151 88.363 241.914 90.5212 241.351 92.6611ZM177.986 95.8625C177.813 95.8064 177.075 95.7365 176.892 95.7205C176.677 95.7018 176.921 95.3066 176.402 95.4191C176.502 95.6674 176.68 95.833 176.936 95.9162C176.156 96.1802 175.58 95.5283 175.046 95.4443C174.536 95.3641 174.514 95.4443 174.01 95.9834C173.465 95.3177 173.567 95.733 173.118 95.7332C172.955 95.7335 172.948 95.9801 172.682 95.9506C172.45 95.9246 172.426 95.5728 172.288 95.5313C171.544 95.3058 170.778 96.4398 169.933 95.4562C169.728 96.4797 167.384 95.1977 166.481 95.3776C165.536 95.5657 165.944 95.9048 165.18 95.3253C164.451 94.7732 164.654 95.1399 163.807 95.5918C163.827 95.5812 163.329 95.9175 163.376 95.923C162.789 95.8544 162.823 95.2481 162.08 95.2803C161.294 95.3145 160.958 95.9305 160.239 95.1725C160.083 95.7403 160.051 95.4955 159.682 95.6386C159.479 95.6869 159.302 95.6335 159.15 95.479C159.104 95.6351 159.002 95.7308 158.846 95.766C158.444 95.8021 157.69 95.8579 157.326 95.6647C156.779 95.3744 157.219 95.263 156.839 94.9367C156.669 95.8365 156.296 95.6452 155.51 95.7292C154.911 95.7934 154.778 95.6094 154.206 95.5199C153.641 95.4318 152.912 95.6508 152.362 95.7441C152.135 95.7828 151.831 95.9411 151.6 95.8856C151.391 95.8354 151.302 95.6736 151.177 95.6313C151.026 95.5804 151.058 95.4481 150.797 95.3841C150.617 95.3402 150.295 95.5091 150.115 95.5384C148.832 95.7465 147.6 95.7487 146.376 95.244C146.979 96.3032 144.967 95.7313 144.608 95.2928C144.16 95.9951 143.618 95.4993 142.714 95.5541C141.844 95.6069 140.535 95.8734 140.183 94.7898C140.114 95.0098 139.62 95.6492 139.423 95.7468C138.853 96.0295 138.785 95.6113 138.255 95.4411C137.533 95.2091 137.683 95.6492 137.236 95.7387C136.48 95.8899 136.072 95.3579 135.404 95.0752C135.376 95.5148 135.362 95.7853 134.981 96.059C134.645 94.8331 133.443 96.1593 133.65 94.5209C133.192 94.8185 132.549 95.0472 132.419 95.6492C133.183 95.4389 132.5 95.9387 132.469 95.9552C132.368 96.0081 132.026 95.5289 131.947 95.4614C131.925 95.6874 131.904 95.9135 131.882 96.1395C131.578 95.9872 131.292 95.7145 131.045 95.5779C130.822 95.4549 131.141 95.1987 130.765 95.1811C130.566 95.1716 130.359 95.6012 130.151 95.6378C129.833 95.6937 129.986 95.237 129.853 95.2524C129.65 95.2757 129.319 95.5725 129.166 95.5668C128.662 95.5481 129.003 95.3139 128.619 95.2066C127.933 95.0144 127.977 95.4633 127.484 95.6251C126.355 95.9956 126.469 94.2908 125.32 95.4278C125.046 95.6999 124.869 96.12 124.493 96.0964C123.713 96.0476 123.987 95.124 124.145 94.6716C124.309 94.7524 121.298 96.2989 121.322 96.2384C121.341 95.8674 121.814 95.5815 121.391 95.2521C121.045 95.9945 120.681 96.0075 119.883 96.1457C119.495 96.213 119.419 96.3027 119.004 96.1414C118.739 96.039 118.562 95.6172 118.299 95.5939C118.335 95.5972 117.852 95.9644 117.778 95.9975C117.343 96.1937 117.067 95.9712 116.644 96.052C116.283 96.1208 116.141 96.4276 115.782 96.3436C115.303 96.2317 115.584 95.6595 114.925 95.8191C114.7 95.8736 114.564 96.3078 114.209 96.3975C113.656 96.5377 112.977 96.2764 112.393 96.4127C111.928 96.5211 111.584 96.5669 111.178 96.5894C110.85 96.6079 110.985 96.3528 110.381 96.6539L110.125 96.0086C109.823 96.2805 109.52 96.552 109.218 96.8239C109.161 96.5802 109.125 96.3336 109.109 96.0837C108.659 96.5352 108.091 96.6122 107.485 96.6529C106.829 96.6968 106.34 96.8399 105.702 96.9599C105.5 96.9976 104.98 97.058 104.814 96.9876C104.838 96.9979 104.503 96.8586 104.604 96.8851C104.561 96.7965 104.521 96.7065 104.483 96.6149C104.427 96.3601 104.244 96.349 103.934 96.5813C103.774 96.5566 103.463 96.3466 103.304 96.3984C102.892 96.5317 102.948 96.8513 102.538 96.8044C102.271 96.7737 102.136 96.3805 101.858 96.3536C101.434 96.313 101.067 96.7878 100.684 96.8914C101.846 96.5759 99.177 96.8206 100.007 96.8423C99.4628 96.8282 98.8979 96.8011 98.3949 97.045C98.1172 96.855 98.4545 96.4732 98.1737 96.316C97.919 96.1734 97.8995 96.5499 97.8697 96.5583C98.0303 96.5127 97.9501 96.8331 97.7893 96.89C97.2885 97.0675 96.8879 96.6163 96.8619 96.1685C96.4363 96.809 96.3169 96.5515 95.6911 96.5911C95.0738 96.6301 94.5416 96.9537 93.9241 96.9477C92.703 96.9361 91.8743 96.5116 91.4666 95.4213C92.7679 95.5798 94.0776 94.7431 95.35 94.9402C95.7682 95.005 96.0294 95.3191 96.3957 95.2633C96.8473 95.1947 97.1624 94.7022 97.7411 94.6491C99.0178 94.5323 100.276 94.6461 101.562 94.4504C103.097 94.2165 104.699 94.078 106.25 94.1919C107.447 94.2799 108.417 93.8219 109.632 93.7338C111.203 93.6194 112.786 93.5991 114.36 93.5167C115.976 93.4319 117.716 93.1739 119.328 93.2565C119.831 93.2823 120.264 93.3316 120.764 93.3015C120.975 93.2888 121.175 93.1454 121.397 93.1668C121.685 93.1947 121.809 93.4902 122.108 93.4799C122.617 93.4625 123.161 93.0432 123.766 93.0318C124.761 93.0131 125.751 93.0153 126.748 92.9586C127.626 92.9088 128.566 92.7039 129.44 92.715C130.056 92.7226 130.209 93.2478 130.568 93.3021C131.214 93.3994 134.481 91.5401 134.764 93.2088C136.465 92.0447 138.746 93.0305 140.639 92.8118C143.072 92.5307 145.549 92.7811 147.998 92.6811C150.49 92.5792 153.053 92.6735 155.535 92.9085C156.564 93.0058 157.557 93.0972 158.588 93.0381C159.047 93.0118 159.579 92.8944 160.038 93.0004C160.15 93.0261 161.002 93.6211 160.896 93.6381C161.362 93.2202 161.047 93.1589 161.866 93.1375C162.497 93.121 163.094 93.2573 163.722 93.2945C164.849 93.3611 165.984 93.205 167.109 93.2394C168.048 93.2682 168.966 93.4067 169.909 93.4134C170.927 93.4208 172.128 93.4495 172.864 94.2696C172.787 94.0122 172.709 93.7547 172.631 93.4972C173.767 93.5861 174.889 93.9913 176.037 93.8018C175.746 94.0799 175.452 94.3073 175.341 94.7152C175.96 94.6366 176.379 94.2046 177.031 94.2011C177.578 94.1978 177.692 94.4724 178.27 94.1176C178.341 94.5523 178.412 94.9871 178.483 95.4215C179.284 95.2332 178.759 94.6364 178.817 94.0984C179.468 94.2938 180.019 94.0694 179.762 95.0052C179.564 95.7267 178.664 96.0823 177.986 95.8625ZM176.861 103.9C176.582 104.684 174.168 104.236 173.597 104.153C172.859 104.046 172.016 103.876 171.336 103.792C171.255 103.684 171.157 103.592 171.043 103.516C170.958 103.635 170.85 103.719 170.719 103.769C170.407 103.837 170.406 104.159 169.996 104.088C169.977 104.564 170.308 104.294 170.562 104.467C169.923 104.895 170.215 104.402 169.857 104.41C169.768 104.284 169.644 104.234 169.486 104.261C169.284 104.314 169.097 104.4 168.927 104.521C168.767 104.689 168.631 104.698 168.517 104.547C168.408 104.437 168.274 104.369 168.117 104.344C167.488 104.446 167.312 104.725 166.603 104.68C165.59 104.614 164.495 104.881 163.498 104.741C162.88 104.654 161.848 103.683 161.568 104.629C161.14 103.928 160.46 103.451 160.051 102.734C161.956 102.624 163.86 102.493 165.767 102.424C167.436 102.364 169.262 102.552 170.822 102.473C172.283 102.399 173.83 102.238 175.322 102.104C176.904 101.963 177.427 102.31 176.861 103.9ZM127.167 104.015C127.859 104.207 128.518 103.773 129.188 103.91C129.41 103.955 129.869 104.359 129.97 104.367C130.155 104.382 130.698 103.985 130.931 103.932C132.404 103.597 134.189 103.633 135.662 103.839C136.443 103.947 136.562 103.59 137.244 103.417C137.952 103.236 138.958 103.375 139.704 103.325C141.458 103.208 143.212 103.292 144.954 103.163C146.743 103.032 148.523 102.96 150.313 102.868C151.532 102.806 154.461 102.11 155.471 103.015C156.305 103.761 155.231 105.057 154.398 105.353C153.775 105.573 153.476 105.108 153.013 105.152C152.487 105.203 152.67 105.825 152.2 105.248C151.909 105.822 150.077 105.577 149.552 105.615C148.408 105.698 147.441 105.928 146.662 104.861C146.715 105.168 146.768 105.476 146.82 105.784C145.788 105.232 144.68 105.409 143.784 105.601C143.34 105.696 141.978 106.354 141.497 106.07C141.166 105.875 141.749 105.541 141.191 105.375C140.898 105.287 140.394 105.773 140.036 105.749C139.047 105.681 139.328 105.016 138.356 105.862C138.027 105.577 137.918 105.094 137.961 104.679C137.255 105.281 137.314 106.284 136.052 106.1C135.582 106.032 135.496 105.552 135.251 105.464C134.728 105.275 134.669 105.614 134.217 105.883C134.046 105.984 133.838 106.147 133.637 106.167C133.224 106.208 133.158 106.018 133.101 106.025C132.827 106.055 132.48 106.195 132.154 106.095C131.862 106.005 131.776 105.489 131.26 105.609C130.767 105.725 130.763 106.06 130.852 106.562C130.366 106.512 130.071 106.241 129.707 105.947C129.34 106.804 128.566 106.094 128.138 106.818C127.58 106.152 127.223 106.335 126.531 105.685C126.565 105.956 126.599 106.228 126.633 106.499C126.093 106.395 125.853 106.014 125.392 106.518C124.945 105.685 123.59 106.872 122.894 106.068C122.584 107.086 120.531 106.842 119.664 106.86C118.896 106.876 118.327 106.813 117.577 106.991C116.913 107.149 115.994 107.312 115.37 107.24C114.962 107.193 114.516 107.118 114.009 107.174C113.276 107.253 112.644 107.632 111.885 107.453C110.743 107.183 110.043 105.683 111.315 105.024C112.186 104.573 113.754 104.74 114.712 104.657C116.3 104.519 118.079 104.229 119.669 104.361C120.909 104.464 122.039 104.168 123.305 104.043C124.257 103.949 125.819 103.779 126.44 104.723C126.678 104.448 126.654 103.873 127.167 104.015ZM109.786 116.938C109.616 116.089 116.875 115.621 117.595 115.566C119.108 115.449 120.624 115.366 122.141 115.328C123.387 115.296 124.55 115.534 125.797 115.343C126.961 115.164 128.366 114.798 129.38 115.622C129.529 114.495 133.898 115.044 134.729 115.047C138.348 115.06 141.811 115.069 145.311 114.844C147.311 114.716 149.435 114.544 151.436 114.644C152.339 114.689 153.065 114.93 153.963 114.721C154.548 114.585 155.179 114.302 155.738 114.702C156.394 115.171 156.673 116.763 156.222 117.427C155.893 117.911 155.602 117.857 155.077 117.773C154.27 117.645 153.67 117.458 152.847 117.787C152.98 117.733 152.296 117.886 152.352 117.882C151.42 117.951 150.141 118.603 149.337 117.852C149.659 117.908 150.127 117.334 149.721 117.286C149.417 117.251 149.223 117.578 148.985 117.687C148.172 118.061 147.755 117.944 147.27 117.159C146.29 118.007 146.184 117.772 145.754 116.728C145.423 116.983 145.352 117.586 145.091 117.784C145.052 117.814 145.213 118.18 145.025 118.165C144.85 118.151 144.793 117.865 144.659 117.842C144.573 117.828 144.528 117.577 144.446 117.562C144.357 117.545 144.265 117.705 144.165 117.701C143.895 117.688 143.126 118.261 143.402 117.457C142.994 117.976 142.818 117.645 142.671 117.173C142.2 117.531 141.729 117.889 141.258 118.246C141.039 117.638 140.662 117.804 140.188 118.016C140.331 117.593 140.241 117.193 139.883 117.487C139.675 117.657 139.536 118.198 139.323 118.428C138.463 117.557 138.151 117.795 136.963 117.909C136.509 117.952 135.945 118.036 135.541 117.762C135.184 117.521 134.983 116.637 134.374 117.351C134.509 117.192 134.297 118.412 134.259 118.606C133.991 118.425 133.762 118.202 133.575 117.938C133.224 118.632 132.304 118.009 131.55 118.151C130.363 118.374 129.139 118.75 128.09 117.867C128.016 118.152 127.157 118.515 127.156 118.526C127.207 118.021 127.525 118.199 126.875 118.103C126.755 118.085 126.619 118.301 126.506 118.324C126.118 118.404 125.665 118.328 125.274 118.317C123.647 118.27 122.159 118.631 120.552 118.761C120.011 118.805 119.369 118.892 118.861 118.688C118.337 118.477 118.351 118.238 117.822 118.374C117.989 118.331 117.49 118.855 117.518 118.835C117.446 118.887 117.149 118.631 117.044 118.651C117.013 118.762 116.982 118.874 116.951 118.986C116.823 118.97 116.696 118.954 116.568 118.938C116.219 118.985 115.904 118.632 115.576 118.62C115.636 118.622 114.69 118.974 114.733 118.996C114.073 118.666 114.263 118.762 113.425 118.962C112.633 119.152 111.845 119.108 111.032 119.226C108.669 119.569 110.077 118.385 109.786 116.938ZM107.699 128.752C107.255 128.122 108.437 127.904 108.815 127.848C109.436 127.757 110.26 127.939 110.674 127.84C111.304 127.69 111.912 127.333 112.622 127.236C113.517 127.113 114.42 127.093 115.319 127.017C115.618 126.991 115.989 126.888 116.28 126.905C116.714 126.931 116.894 127.161 117.245 127.162C117.841 127.165 118.578 126.789 119.189 126.72C119.972 126.631 120.763 126.589 121.55 126.55C123.208 126.468 124.849 126.502 126.507 126.5C127.263 126.499 129.275 125.715 129.652 126.594C130.176 125.928 131.52 126.018 132.27 125.999C133.59 125.965 134.896 125.838 136.214 125.777C137.343 125.724 138.605 125.966 139.714 125.796C140.325 125.703 140.528 125.507 141.221 125.596C141.735 125.661 142.52 125.389 142.962 125.509C142.939 125.503 143.514 125.859 143.334 125.87C143.532 125.858 143.52 125.996 143.738 125.934C144.024 125.854 143.892 125.494 144.485 125.367C145.409 125.167 146.641 125.398 147.601 125.347C148.532 125.297 149.461 125.276 150.394 125.28C150.823 125.282 151.353 125.18 151.771 125.263C151.976 125.304 152.41 125.571 152.584 125.544C153.075 125.468 153.325 125.126 153.989 125.148C154.742 125.171 155.419 125.161 156.168 125.104C156.893 125.048 157.009 124.945 157.368 125.548C157.724 126.146 157.823 126.925 157.167 127.332C157.593 127.304 158.117 127.874 157.615 128.189C157.305 128.384 156.683 127.944 156.312 127.976C155.855 128.015 155.496 128.257 154.999 128.272C154.475 128.288 153.944 128.419 153.428 128.429C152.891 128.44 152.484 128.2 151.975 128.302C151.526 128.392 151.479 128.76 150.939 128.437C150.67 128.276 150.625 127.682 150.259 127.676C149.768 127.669 149.964 128.303 149.682 128.596C149.606 127.69 148.906 129.19 148.628 128.089C148.372 128.455 147.422 128.966 146.962 128.672C146.543 128.405 146.682 127.799 146.507 127.363C146.216 128.147 145.436 128.96 145.507 127.533C145.128 128 144.104 127.926 144.36 128.742C144.052 128.736 143.979 128.296 143.719 128.262C143.495 128.234 143.317 128.406 143.282 128.403C143.405 128.414 142.915 128.577 142.907 128.578C143.239 128.511 141.95 128.396 142.169 128.398C141.87 128.395 141.504 128.64 141.154 128.64C140.836 128.639 140.519 128.513 140.204 128.477C139.388 128.384 139.558 128.563 139.046 128.82C138.856 128.914 138.809 129.075 138.539 129.055C138.341 129.04 138.266 128.781 138.244 128.779C137.964 128.75 138.171 128.657 137.737 128.7C137.687 128.786 137.637 128.871 137.588 128.957C137.431 129.157 137.228 129.207 136.978 129.107C136.336 129.245 134.206 129.842 134.415 128.737C134.088 128.896 133.762 129.056 133.435 129.215C133.296 128.324 131.522 129.506 131.126 129.565C130.618 129.642 130.571 129.447 130.091 129.343C130.004 129.324 129.831 129.61 129.628 129.569C129.101 129.463 129.007 129.41 128.916 128.838C128.541 129.54 128.228 129.226 127.546 129.342C127.396 129.368 127.299 129.664 127.083 129.613C126.927 129.576 126.922 129.291 126.815 129.254C126.718 129.221 126.733 128.996 126.59 128.964C126.427 128.927 125.869 129.384 125.709 129.455C125.348 129.614 124.755 129.877 124.403 129.798C123.968 129.701 124.162 129.378 123.546 129.414C122.575 129.471 122.17 130.297 121.567 128.996C121.294 129.517 121.329 129.659 120.891 129.831C120.567 129.958 119.748 129.825 119.322 129.809C117.503 129.742 115.714 130.362 113.91 130.2C113.117 130.128 112.449 129.97 111.649 130.099C110.808 130.236 109.985 130.437 109.132 130.517C108.699 130.558 107.792 130.683 107.58 130.128C107.392 129.64 108.091 129.307 107.699 128.752ZM111.267 148.766C108.908 150.345 106.953 152.5 104.787 154.325C102.615 156.156 100.891 158.19 98.9377 160.216C97.1315 162.089 95.4723 163.862 93.2888 165.277C91.9071 166.173 90.6745 167.276 89.2552 168.12C88.1921 168.753 86.5817 169.585 87.1004 167.65C87.632 165.667 88.6134 163.663 89.4656 161.811C90.677 159.178 91.8979 156.57 93.2087 153.987C93.7013 153.017 93.9769 152.051 94.7582 151.278C95.6082 150.437 96.2035 149.338 97.1345 148.544C101.05 145.2 106.952 147.783 111.267 148.766ZM118.669 149.9C117.598 150.461 116.401 150.6 115.266 150.971C114.3 151.287 113.401 151.849 112.361 151.891C113.308 151.18 114.121 150.215 115.188 149.675C116.388 149.069 117.477 149.51 118.669 149.9ZM165.647 154.575C161.71 153.247 158.045 151.29 154.21 149.714C153.548 149.442 148.372 147.737 148.477 146.926C152.104 146.261 155.84 145.121 159.477 146.364C162.785 147.496 165.476 150.209 168.037 152.48C168.705 153.073 172.837 155.771 172.467 156.63C172.211 157.226 170.22 157.063 169.75 156.942C169.143 156.784 168.793 156.415 168.316 156.01C167.52 155.333 166.639 154.91 165.647 154.575ZM158.379 132.382C158.977 131.832 159.335 130.997 159.906 130.489C160.64 129.836 161.825 130.154 162.627 130.493C165.034 131.511 167.092 133.221 169.484 134.282C172.136 135.459 174.431 137.031 176.823 138.65C179.009 140.131 181.372 141.357 183.603 142.77C185.877 144.21 188.422 145.147 190.727 146.536C193.073 147.95 195.409 149.369 197.663 150.927C201.683 153.706 205.868 156.559 208.842 160.509C210.37 162.539 211.801 164.842 212.922 167.122C213.942 169.194 215.048 172.071 213.727 174.228C212.458 176.298 210.295 177.929 208.465 179.474C207.771 180.059 207.112 180.77 206.213 181.023C205.121 181.331 203.845 181.246 202.721 181.337C196.712 181.825 191.113 181.365 185.19 180.29C179.48 179.254 173.745 178.673 167.991 177.953C164.744 177.547 161.499 177.073 158.296 176.397C156.927 176.107 155.535 175.774 154.195 175.38C153.025 175.036 152.042 174.278 150.839 173.977C145.734 172.703 139.894 172.215 134.84 170.071C139.312 168.213 144.065 167.09 148.648 165.546C153.472 163.92 158.184 162.557 163.268 162.095C165.885 161.857 168.226 161.189 170.743 160.49C173.142 159.823 175.646 159.619 178.11 159.32C179.205 159.187 182.332 159.386 182.695 157.954C183.235 155.822 180.163 155.576 178.854 155.767C176.996 156.038 175.464 156.501 174.042 154.977C172.59 153.421 171.18 151.827 169.702 150.291C166.961 147.441 164.136 144.146 160.262 142.867C155.536 141.308 150.055 142.788 145.339 143.675C140.358 144.612 135.385 145.508 130.497 146.87C128.473 147.434 125.863 148.676 123.762 148.477C121.692 148.28 119.347 147.941 117.347 147.344C116.441 147.074 115.697 146.573 114.887 146.106C113.834 145.499 112.68 145.11 111.562 144.638C109.302 143.684 107.098 142.806 104.66 142.431C102.606 142.115 100.425 141.928 98.435 142.647C96.4826 143.354 94.7525 144.792 93.3903 146.328C91.9106 147.997 90.6875 149.868 89.4748 151.732C88.8925 152.627 88.1819 153.408 87.5787 154.283C87.0725 155.018 86.7769 155.834 86.2411 156.549C85.0422 158.146 84.2282 160.19 83.5016 162.049C82.6943 164.113 81.7975 166.569 81.9902 168.814C82.063 169.663 82.1391 170.788 82.4675 171.575C82.8852 172.576 83.4807 172.55 84.3391 172.928C85.814 173.577 86.2276 175.37 88.1334 175.02C89.9212 174.692 91.4715 173.219 92.7758 172.045C94.4758 170.515 96.1028 168.901 97.7295 167.294C99.3987 165.644 101.044 163.814 102.372 161.874C102.894 161.109 103.302 160.247 103.92 159.551C104.706 158.664 105.59 158.558 106.658 158.205C116 155.119 125.387 152.141 135.02 150.103C137.329 149.615 139.655 148.985 141.922 148.335C144.327 147.646 145.572 148.374 147.557 149.686C151.703 152.428 156.604 154.359 161.221 156.147C162.674 156.71 164.989 156.746 166.125 157.857C159.389 158.883 152.97 160.859 146.473 162.827C143.27 163.797 140.029 164.638 136.814 165.565C133.597 166.493 130.503 167.695 127.331 168.742C124.173 169.783 120.837 170.207 117.649 171.168C114.395 172.148 111.154 172.822 107.814 173.418C104.441 174.02 101.091 174.714 97.707 175.253C96.1575 175.5 94.6082 175.756 93.0757 176.095C91.5763 176.427 90.1277 177.223 88.6207 177.407C81.8908 178.23 75.2931 180.065 68.5896 181.102C63.5842 181.876 54.8763 182.956 51.6305 177.935C48.3665 172.884 52.3708 166.993 55.9437 163.382C58.164 161.138 60.6591 159.163 63.2769 157.406C66.0785 155.526 68.7739 153.495 71.576 151.617C77.9174 147.368 84.7937 143.902 91.6066 140.488C94.8768 138.849 98.0362 137.091 101.217 135.293C102.796 134.4 103.67 135.84 104.918 136.819C105.899 137.59 107.702 139.488 109.075 138.61C109.128 138.926 109.181 139.242 109.234 139.559C109.636 139.375 110.039 139.192 110.441 139.009C110.711 139.717 110.68 140.157 111.435 140.53C111.898 140.758 112.887 141.033 113.329 140.631C113.42 140.911 113.51 141.19 113.6 141.47C113.986 141.441 114.061 140.335 114.134 140.076C114.796 141.043 115.712 141.852 116.875 142.125C116.881 142.062 116.686 141.267 116.695 141.262C117.063 141.037 117.527 142.002 117.722 142.209C118.37 142.894 118.756 142.788 119.471 142.235C119.523 142.291 119.765 142.923 119.8 142.911C119.955 142.862 120.248 142.303 120.281 142.252C120.236 142.988 121.657 143.136 122.159 142.978C122.046 142.762 121.934 142.547 121.821 142.331C123.569 142.098 124.255 143.955 125.933 143.861C127.174 143.791 126.179 143.52 126.881 142.988C127.494 142.524 127.603 143.539 127.663 143.507C127.78 143.385 127.871 143.244 127.935 143.085C128.162 143.954 129.969 144.734 129.783 143.305C130.493 143.589 130.998 144.061 131.785 144.161C132.741 144.282 133.762 144.079 134.716 144C136.771 143.829 138.709 143.409 140.562 142.468C141.66 141.909 142.829 141.403 143.862 140.729C144.726 140.166 146.365 138.454 147.516 139.191C147.221 138.322 148.608 139.127 148.653 138.008C148.875 138.176 149.098 138.344 149.321 138.512C149.455 138.219 149.417 137.757 149.596 137.502C149.842 137.151 149.962 137.358 150.172 137.16C150.406 136.94 150.611 136.349 150.892 136.18C151.181 136.007 151.522 136.214 151.834 136.062C152.308 135.832 154.349 133.581 154.004 135.509C154.882 135.211 154.205 134.939 154.314 134.354C154.535 133.182 155.071 134.025 155.604 134.127C156.479 134.295 156.461 133.572 156.948 133.047C157.394 132.567 158.23 132.353 157.942 131.52C158.271 131.697 158.341 132.045 158.379 132.382ZM105.686 107.35C104.997 108.117 104.481 107.789 103.716 107.676C103.634 107.402 103.494 107.364 103.296 107.562C103.069 107.693 102.825 107.779 102.564 107.819C101.936 107.974 101.284 107.908 100.67 108.143C100.687 107.937 100.903 107.571 100.765 107.363C100.119 107.809 99.7187 108.093 98.9255 108.102C98.2828 108.109 97.1548 107.618 96.6212 108.205C96.6047 107.976 96.5882 107.748 96.5719 107.519C96.3107 107.65 96.0833 107.824 95.8898 108.042C95.8532 107.704 95.8329 107.448 95.609 107.174C95.1846 108.047 94.7195 108.068 93.8946 107.734C94.0102 107.781 93.069 107.229 93.105 107.382C92.8075 106.128 97.5048 106.232 97.998 106.182C99.2295 106.058 100.461 105.986 101.694 105.872C102.864 105.765 103.737 105.582 104.547 106.558C104.186 105.149 107.599 105.219 105.686 107.35ZM51.8281 85.4884C51.9575 87.6195 52.4318 89.8849 51.6031 91.936C50.9369 93.5847 49.608 95.4467 48.1765 96.5228C45.2452 98.7257 42.7607 96.03 42.3527 93.0673C41.9274 89.9773 42.7704 86.2015 45.4312 84.2961C47.0211 83.1578 48.5606 83.2366 50.3911 83.6109C50.821 83.699 51.5189 83.6651 51.7647 84.0923C51.8224 84.1923 51.7707 85.4865 51.8281 85.4884ZM90.7593 113.883C90.2531 114.138 89.7233 114.288 89.2769 114.636C89.1218 114.757 89.069 115.032 88.9044 115.133C88.605 115.318 88.177 115.196 87.8649 115.349C87.3483 115.601 86.978 115.962 86.364 116.195C85.4523 116.54 84.6529 117.014 83.7912 117.463C82.3554 118.212 80.8145 118.855 79.3134 119.464C78.5557 119.772 76.4602 120.371 76.5327 121.481C76.3632 121.527 76.19 121.156 75.8362 121.185C75.3502 121.226 74.7084 121.788 74.2041 121.926C73.2606 122.184 72.5303 122.207 72.5303 123.41C72.2301 123.206 72.1537 122.706 71.7542 122.64C71.3045 122.566 71.1153 123.051 70.7555 123.202C70.3318 123.38 69.805 123.209 69.3854 123.398C69.2019 123.592 68.9981 123.762 68.7736 123.906C68.5454 123.932 68.3183 123.926 68.0923 123.885C67.2016 124.074 66.3819 124.409 65.4891 124.583C64.6191 124.753 64.0232 124.815 64.389 125.844C63.4583 126.026 63.2309 125.038 62.1808 125.399C60.8936 125.842 59.6905 126.161 58.3467 126.431C57.6616 126.569 56.9456 126.876 56.2552 126.948C55.7628 127 55.3032 126.823 54.8183 126.878C54.2339 126.944 53.7642 127.214 53.1594 127.224C52.5858 127.235 51.9835 127.132 51.4201 127.03C51.4997 127.257 51.5993 127.475 51.719 127.683C51.3294 127.602 51.1497 127.133 50.8194 127.064C50.4729 126.991 50.1624 127.349 49.8738 127.27C49.7509 127.236 49.8327 126.857 49.6129 126.785C49.4125 126.719 49.3281 126.797 49.1294 126.765C49.063 126.755 48.232 126.71 48.0996 126.78C47.8681 126.903 48.1023 127.133 48.0563 127.167C47.2747 127.745 47.2653 127.433 46.9169 126.829C46.4052 125.942 45.7883 126.502 44.8584 126.346C43.8221 126.173 43.0057 126.631 41.9856 126.566C40.8855 126.495 39.5926 125.672 38.6199 125.191C36.5195 124.153 34.4713 123.171 32.7073 121.599C29.2591 118.525 26.4537 114.745 24.7997 110.418C23.0225 105.769 22.6857 100.921 22.8284 95.9885C22.9142 93.0223 23.1516 90.058 23.6191 87.1265C23.941 85.11 24.0084 81.5267 26.2818 80.6084C26.6727 85.3298 25.4394 90.141 26.2171 94.8318C26.4513 96.2447 27.0225 98.1273 28.1034 99.1737C29.7038 100.723 30.0782 98.4837 30.2231 97.2467C30.4924 94.9497 30.9929 92.6651 31.3473 90.3789C31.7014 88.0936 31.9515 85.7827 32.4439 83.5215C32.6234 82.697 34.0712 76.6592 35.1337 76.9451C34.9188 81.3375 34.3478 85.6543 34.3254 90.0629C34.3164 91.8311 34.1581 93.6988 34.4134 95.4554C34.5447 96.3593 35.3679 99.0119 36.7837 98.7908C38.0939 98.5861 36.6535 96.7176 36.5311 95.9972C36.2071 94.09 36.6202 91.717 36.9223 89.8239C37.494 86.2413 38.7696 82.5721 40.8546 79.5782C42.722 76.8974 45.5972 74.3454 49.0609 74.818C50.5408 75.0202 51.6954 75.3878 52.4391 76.7391C53.0224 77.7997 55.3208 79.0047 53.9889 80.3325C52.7764 81.5413 50.8153 80.5737 49.4675 80.2856C47.8172 79.9327 46.0487 80.3572 44.6686 81.3242C42.3007 82.983 40.9513 85.9486 40.5108 88.73C39.9171 92.4803 41.504 102.297 47.3489 100.097C51.2317 98.6349 54.1562 93.3774 53.8302 89.3523C53.6995 87.741 53.0695 84.6821 55.2988 84.2471C58.1548 83.6898 58.5582 86.8382 58.2691 88.8839C57.8486 91.8599 56.2758 94.6271 54.4764 96.98C52.9082 99.0306 51.0842 100.313 49.1971 102.007C48.6383 102.508 47.2133 103.635 47.4526 104.568C47.7149 105.59 49.9545 105.88 50.8514 106.049C55.2877 106.879 60.2907 106.115 64.7195 105.535C73.8221 104.343 82.805 101.407 90.269 96.0097C90.5706 99.3494 90.9507 102.678 91.0906 106.03C91.1586 107.657 91.1759 109.307 91.3619 110.926C91.4764 111.921 91.8903 113.311 90.7593 113.883ZM65.5195 125.52C65.1621 125.707 65.5484 124.576 65.4491 124.95C65.9829 125.142 66.0065 125.332 65.5195 125.52ZM103.28 85.103C103.847 84.4777 105.397 82.9903 105.889 84.4018C106.072 83.8001 106.095 82.909 106.802 83.7215C107.083 82.7233 110.186 82.8168 110.955 82.7726C113.416 82.632 115.887 82.5566 118.339 82.3121C123.379 81.8099 128.506 82.069 133.564 82.0525C134.659 82.049 135.751 81.9896 136.838 82.1484C137.888 82.3018 138.99 82.732 140.059 82.5748C141.01 82.4349 141.634 82.1728 142.612 82.285C143.783 82.4192 144.92 82.5146 146.101 82.5103C151.327 82.4913 156.55 82.703 161.776 82.7111C162.795 82.7127 164.015 82.5138 164.971 82.9464C165.325 83.1068 165.712 83.6405 165.982 83.699C166.292 83.766 166.108 83.2824 166.523 83.5009C167.079 83.7931 166.649 84.6918 166.281 84.8344C166.501 84.749 165.885 84.665 165.946 84.6617C165.654 84.6775 165.404 84.9019 165.09 84.8878C164.611 84.8669 164.211 84.575 163.825 84.3181C163.818 84.423 164.03 85.1225 163.788 85.1577C163.58 85.1884 163.385 84.4986 163.364 84.3381C162.195 85.3694 160.956 84.7945 159.505 84.9252C158.476 85.0179 156.33 85.7044 155.612 84.63C155.582 84.8585 155.491 85.0585 155.337 85.2301C155.132 85.5426 154.955 85.516 154.805 85.1496C154.754 85.152 154.254 85.2607 154.245 85.2599C153.893 85.232 153.437 85.1057 153.079 85.0751C152.525 85.0279 152.627 85.4309 152.186 85.4374C151.945 85.441 151.33 85.093 150.91 85.0713C150.182 85.0333 149.439 85.342 148.721 85.2485C148.227 85.1843 147.78 84.7821 147.295 84.7664C146.691 84.7463 146.495 85.2071 146.016 84.5598C145.918 84.5333 145.858 84.9141 145.819 84.9206C145.828 84.919 145.363 84.9878 145.308 85.0092C145.212 85.0458 144.841 85.216 144.728 85.2179C144.483 85.2225 144.35 85.0474 144.091 85.0434C143.663 85.036 142.295 85.4133 142.333 84.6205C140.804 85.1873 139.499 84.9664 137.929 85.1003C137.208 85.1621 136.756 85.0656 136.071 84.9333C135.213 84.7677 134.643 84.9759 133.787 85.0179C132.964 85.0583 132.705 84.7103 132.011 84.3961C131.737 84.2723 131.556 84.1088 131.22 84.1777C131.029 84.217 131.165 84.5395 131.108 84.5615C130.813 84.6753 130.607 84.5547 130.203 84.5823C129.456 84.6333 129.159 85.2575 128.391 84.6715C128.646 84.6406 128.901 84.6092 129.157 84.5783C128.422 84.2671 127.454 84.1083 127.631 85.2415C127.005 85.1537 127.547 84.7273 127.239 84.5747C126.932 84.4224 126.587 84.6775 126.199 84.8035C125.176 85.1355 124.322 84.9707 123.255 84.9111C122.042 84.8433 119.205 85.8329 118.336 84.5482C118.31 84.8189 118.02 85.5732 117.633 85.5377C117.507 85.5261 117.858 84.7254 117.898 84.6406C117.699 85.0648 116.79 85.1453 116.342 85.3653C116.392 85.1374 116.442 84.9095 116.492 84.6818C116.077 85.1247 115.874 84.8544 115.385 85.0024C115.171 85.0672 114.861 85.5085 114.678 85.535C114.465 85.2878 114.197 85.1816 113.875 85.216C113.66 85.1623 113.445 85.1518 113.231 85.1846C112.372 85.2469 111.589 85.7242 110.734 85.3992C109.995 85.1173 109.709 84.3929 109.268 85.5456C109.152 85.3407 109.036 85.1358 108.92 84.9309C108.777 85.1534 108.633 85.3756 108.49 85.5979C107.931 85.2315 107.896 85.0192 107.252 85.1539C107.101 85.2141 106.946 85.2057 106.787 85.1285C106.75 85.2415 106.712 85.3542 106.674 85.467C106.659 85.7508 106.574 85.8445 106.421 85.748C106.292 85.7017 106.176 85.6315 106.072 85.5372C105.646 85.5697 105.102 85.6819 104.645 85.6198C104.468 85.5963 103.362 85.0122 103.28 85.103ZM116.317 77.4731C116.367 77.5501 116.417 77.627 116.467 77.704C115.776 78.0694 115.613 77.8596 115.542 77.1262C115.879 77.1327 115.937 77.7271 116.317 77.4731ZM116.745 77.0427C117.078 77.1896 117.46 77.4782 117.774 77.0915C117.985 77.7054 116.417 78.5431 116.745 77.0427ZM118.897 77.3137C119.596 77.7864 117.918 77.4064 117.921 77.4072C118.223 77.1289 118.548 77.0977 118.897 77.3137ZM124.911 74.6785C125.151 75.8884 125.812 75.8539 126.88 75.2915C128.437 74.4711 128.699 73.1276 128.808 71.5233C128.912 69.9852 129.1 69.3898 130.686 69.7109C131.794 69.9351 132.73 69.7467 133.846 69.7158C135.037 69.683 135.457 69.8649 135.553 71.0905C135.649 72.3177 135.867 73.2496 136.758 74.1835C137.663 75.133 138.871 75.7 140.047 76.2312C140.652 76.5041 141.22 76.7979 141.89 76.857C142.149 76.8801 143.499 76.7093 143.527 77.1365C143.548 77.4576 141.679 78.3634 141.48 78.4713C140.613 78.9429 139.749 79.366 138.801 79.6517C136.623 80.3092 134.312 80.348 132.055 80.3081C128.416 80.2442 123.387 78.7049 121.211 75.4764C122.444 75.2105 123.678 74.9443 124.911 74.6785ZM124.584 64.2C124.009 63.7167 123.636 62.9868 123.157 62.4147C122.916 62.126 122.739 62.0341 122.51 61.8897C122.268 61.7376 122.132 61.9528 121.93 61.5953C121.409 60.6714 123.017 59.3712 121.312 59.0156C120.735 58.895 119.346 59.3523 119.178 58.5256C118.94 57.3566 121.171 57.2802 121.696 56.6869C122.739 55.5074 122.031 53.5077 122.667 52.1468C123.268 50.8578 124.822 50.6287 126.048 50.2414C127.757 49.7021 129.486 49.3893 131.22 48.9575C132.433 48.6559 134.448 47.4435 135.573 48.5147C133.837 48.9001 134.846 49.505 136.003 49.8465C137.314 50.2336 138.703 50.3845 140.061 50.4924C141.459 50.6033 142.883 50.6244 144.264 50.3458C145.542 50.088 146.968 48.9779 148.307 49.2622C147.564 50.5542 145.351 51.26 144.006 51.5985C143.32 51.7709 142.881 51.7169 142.973 52.5715C143.062 53.3998 143.783 54.2302 143.945 55.093C144.16 56.2348 143.972 57.284 143.566 58.3578C143.166 59.4143 143.073 59.5523 143.422 60.5619C143.967 62.1339 142.796 63.8712 141.715 65.0128C137.341 69.6285 128.97 67.8801 124.584 64.2ZM135.699 36.6135C135.716 36.6607 135.701 36.6428 135.699 36.6135V36.6135ZM137.061 48.2621C136.879 48.3976 135.835 48.6816 135.879 48.2734C135.937 47.7265 136.878 47.9241 137.061 48.2621ZM139.441 37.2133C139.196 37.0307 138.51 37.1057 139.012 36.4132C139.175 36.7179 139.309 36.9656 139.441 37.2133ZM122.968 32.8359C123.28 32.0241 123.626 31.269 123.767 30.405C123.854 29.8726 123.681 29.2647 124.425 29.1812C123.477 28.7676 123.467 27.1352 123.411 26.289C123.334 25.1236 122.966 23.5632 123.478 22.4785C124.004 21.3643 124.713 21.3828 124.927 22.7097C125.011 23.2293 124.69 23.3974 124.63 23.7592C124.511 24.475 124.748 24.3181 125.21 23.7727C125.401 24.327 125.474 25.1599 126.25 25.1247C126.198 24.9748 125.901 24.6441 126 24.4579C126.152 24.172 126.898 24.6089 126.992 24.675C127.673 25.1509 127.82 25.5854 127.335 26.1858C128.007 26.2581 127.443 26.8463 127.876 26.9997C128.538 27.2336 128.094 26.1253 128.023 25.9304C128.425 26.0876 128.561 26.2671 128.816 26.5853C128.965 26.8048 129.102 27.0327 129.225 27.2685C129.362 27.6989 129.644 27.8068 130.071 27.5922C130.928 27.861 132.111 27.819 132.88 28.289C133.231 28.5036 133.357 28.9733 133.65 29.1517C133.98 29.3525 134.422 29.2615 134.776 29.3875C134.647 29.6818 134.752 29.8412 135.091 29.8661C135.354 29.8903 135.609 29.9496 135.856 30.0439C136.04 29.9049 136.241 29.7951 136.457 29.7152C136.603 29.9718 136.809 30.0353 137.075 29.906C137.865 30.054 138.245 30.3529 138.747 30.7998C139.198 31.201 138.831 31.2335 139.325 31.198C139.524 31.1836 139.872 30.847 140.326 30.9126C140.587 30.9636 140.839 31.0441 141.081 31.1541C141.344 31.3785 141.622 31.4067 141.917 31.2389C142.395 31.4728 142.443 31.8872 143.026 31.9439C143.671 32.0068 143.464 31.2023 143.907 32.3369C144.503 31.134 144.722 33.0502 145.338 33.205C145.976 33.3655 146.045 32.8481 146.592 33.4134C146.755 33.5828 146.746 33.8628 146.93 34.0425C147.231 34.3366 147.639 34.2778 147.901 34.6789C147.755 34.455 147.935 35.4722 147.932 35.4386C147.973 35.8874 147.574 36.3902 148.391 36.352C148.382 36.3992 147.989 36.9713 147.913 36.9065C147.894 36.8412 147.878 36.7751 147.866 36.7081C147.778 36.7458 147.739 37.2909 147.755 37.3871C147.824 37.3979 147.853 37.3464 147.84 37.2326C147.706 37.653 147.908 37.9199 147.65 38.3189C147.485 38.5739 147.033 38.7656 146.793 38.923C146.214 39.303 145.647 39.6841 145.081 40.0885C143.763 41.0317 142.287 42.1689 140.627 42.3657C141.461 41.5472 146.258 38.4495 143.852 37.5603C143.406 37.3955 142.593 37.2394 142.127 37.2047C141.546 37.1616 140.946 37.4939 140.306 37.2865C139.533 37.0366 139.824 36.3105 139.353 36.0501C138.351 35.4974 138.587 36.797 138.272 37.1375C137.941 36.7897 138.012 36.6206 137.489 36.5891C136.957 36.5572 136.831 37.048 136.211 36.7423C135.358 36.3208 135.809 35.4814 134.598 35.4616C134.618 35.2773 134.794 34.7624 134.563 34.6187C134.251 35.0228 134.493 35.4747 134.203 35.8636C134.059 36.0587 133.745 36.2143 133.515 36.2775C132.978 36.4249 132.902 36.7073 132.989 35.8988C132.591 36.6157 131.371 36.3208 130.645 36.2487C129.465 36.1314 128.211 35.908 127.08 35.5297C126.033 35.1795 125.475 34.5781 124.612 34.0309C124.286 33.8238 124.13 33.9029 123.662 33.7745C123.2 33.6476 122.75 33.4018 122.968 32.8359ZM125.458 20.1425C125.636 20.0352 125.764 21.6367 125.548 21.9359C125.153 21.3107 124.452 20.3935 125.458 20.1425ZM126.027 19.5037C126.6 18.9852 126.202 20.3244 126.097 20.549C125.884 20.413 125.672 20.2769 125.46 20.1409C125.731 19.9747 125.798 19.7105 126.027 19.5037ZM147.641 17.3454C152.934 18.4561 158.178 20.5322 162.423 23.9489C166.29 27.0609 169.019 31.4764 170.549 36.1731C172.137 41.0482 171.604 46.457 167.825 50.188C165.834 52.1533 163.206 53.3391 160.701 54.4961C159.5 55.0504 158.264 55.5122 157.059 56.0538C156.194 56.4427 155.137 57.065 154.15 56.9571C154.654 56.427 155.385 56.4161 155.994 56.092C156.731 55.7001 157.333 54.9479 157.968 54.4108C158.598 53.8774 159.997 52.1978 160.966 52.6043C160.831 51.7096 161.851 51.2941 162.31 50.7041C162.796 50.0799 162.831 49.35 163.726 49.1456C162.765 48.3932 163.059 46.9741 163.268 45.9499C163.536 44.64 163.66 43.4374 163.765 42.1044C163.955 39.7012 164.108 36.6398 162.781 34.5271C162.35 33.8411 161.801 33.2107 161.417 32.4982C160.953 31.6395 161.056 30.8836 161.056 29.9423C160.209 30.5115 160.03 29.3509 159.672 28.7852C159.404 28.3608 159.051 28.1237 158.964 27.5897C158.901 27.2011 159.323 27.1355 159.092 26.7281C158.808 26.9422 158.695 27.274 158.552 27.5819C158.29 27.4772 158.598 27.113 158.448 26.9945C158.444 26.9913 157.939 26.772 157.964 26.8037C157.64 26.392 157.535 25.7087 157.376 25.2187C156.781 25.5201 156.892 25.4846 156.228 24.981C156.111 24.8924 155.527 24.4853 155.472 24.3522C155.215 23.7299 155.666 24.0985 155.54 23.7123C155.178 22.6029 153.15 22.8127 152.989 21.1505C152 21.7785 151.623 20.8887 151.038 20.2558C150.439 19.6075 149.434 19.3581 149.487 18.3298C149.176 18.4363 148.865 18.5426 148.554 18.6486C148.715 17.6997 147.306 17.7601 146.795 17.2787C147.079 17.2823 147.36 17.3045 147.641 17.3454ZM148.447 76.1163C148.937 75.6775 148.788 76.2613 149.104 76.1946C149.374 76.1374 149.427 75.9333 149.686 75.8707C150.753 75.613 152.347 75.9369 153.468 75.8813C154.767 75.8171 156.994 76.0867 157.613 77.6064C157.986 78.5217 157.417 78.2103 156.79 78.1423C156.304 78.0897 155.872 78.1881 155.391 78.1832C155.153 78.2198 154.916 78.2163 154.68 78.1721C154.564 78.0962 154.496 77.9894 154.475 77.8517C153.806 77.7504 153.095 78.1463 152.354 78.1661C151.365 78.1924 150.486 78.0027 149.734 77.3349C149.435 77.7802 149.232 78.0011 148.694 78.0509C148.68 78.0523 148.155 77.8409 148.074 77.8197C147.967 77.7918 147.695 78.0176 147.487 77.9531C147.855 77.3671 147.909 76.5974 148.447 76.1163ZM216.008 81.405C216.182 80.7976 216.328 80.1824 216.487 79.5709C218.929 82.3506 221.066 86.0717 222.027 89.6366C222.652 91.9531 223.624 96.1506 220.646 97.3453C218.221 98.3186 216.868 94.8299 216.255 93.1115C214.9 89.3184 214.9 85.2645 216.008 81.405ZM106.763 37.8492C106.794 37.843 105.182 38.7805 105.714 38.0213C105.927 37.7161 106.736 37.5014 107.095 37.5014L106.763 37.8492ZM105.212 38.2465C105.026 38.4035 104.838 38.5585 104.647 38.7113C104.465 38.423 104.282 38.1346 104.1 37.8462C104.46 37.6944 105.987 37.5806 105.212 38.2465ZM104.076 67.3958C103.739 67.1673 103.472 67.2887 103.37 67.6722C103.37 67.2906 103.569 66.404 103.874 66.3008C104.072 66.2338 103.218 65.2242 103.458 64.96C104.068 65.3093 103.703 65.6441 103.882 66.0951C103.962 66.2986 104.205 66.491 104.258 66.6474C104.348 66.9128 104.712 67.8253 104.076 67.3958ZM102.424 65.1239C102.078 65.2123 102.683 65.7826 102.683 66.0346C102.682 66.2252 102.453 66.3715 102.359 66.6322C102.154 67.1974 102.506 67.579 101.927 68.0102C101.927 66.7721 101.096 63.4915 102.692 62.8882C101.914 62.2748 102.553 61.5669 103.164 62.3008C103.751 63.0066 103.377 64.88 102.424 65.1239ZM101.592 60.2383C101.278 59.1254 100.333 58.7362 99.2539 58.8021C99.295 58.2323 99.7268 57.4108 100.039 58.4378C100.167 58.1342 100.256 57.7382 100.548 57.5371C101.041 59.081 103.495 59.9339 101.967 61.6067C101.842 61.1506 101.721 60.6936 101.592 60.2383ZM98.7392 58.885C93.0544 59.2972 85.0733 60.4768 80.524 56.1194C77.5579 53.2781 77.7162 48.8535 80.1134 45.6967C81.4813 43.8954 83.3486 42.627 85.2241 41.4187C85.9477 40.9523 86.5609 40.6444 87.3554 40.3763C87.484 40.3625 87.605 40.3912 87.7181 40.4625C87.7628 40.2706 87.8708 40.1286 88.043 40.0359C88.3497 39.8716 88.7869 39.8131 88.9637 39.4721C88.775 40.1123 88.6781 40.7715 88.6088 41.4339C88.4555 41.2556 88.3026 41.0772 88.1496 40.8989C88.0219 42.1052 86.765 41.3751 86.0146 41.5258C86.5089 42.2099 86.8624 42.4584 86.9049 43.3626C86.5368 42.6828 85.7669 42.2359 85.0511 42.0169C85.4398 43.1666 85.7146 43.8491 85.3232 45.1099C84.8505 44.84 84.8186 44.1917 84.2452 44.0364C84.0939 44.7882 84.0671 45.6225 83.8733 46.3521C82.4049 45.6824 82.5481 47.4861 83.1377 48.3786C83.4512 48.8535 83.6053 49.4031 83.8849 49.859C84.5711 50.977 84.0498 49.305 84.8126 49.3844C84.6413 50.5637 84.5817 50.681 85.4447 51.5446C86.2869 52.3867 86.7238 53.5551 87.6247 54.3463C87.8854 54.0129 87.4753 53.6641 87.4393 53.345C88.2777 53.4857 88.6702 54.3262 89.4761 53.5817C89.8275 54.2666 90.2078 55.0209 91.0495 55.1615C90.4932 54.1039 92.118 54.8211 92.5346 54.9713C92.8508 55.0851 93.4168 55.1756 93.5389 55.2195C94.2254 55.4675 93.7547 55.0225 94.1713 55.8353C94.7831 55.6507 95.014 55.1431 95.7457 55.5719C96.3408 55.9207 96.3421 56.5181 96.478 57.13C96.6199 56.7297 96.7631 56.3297 96.9198 55.9348C97.0795 56.002 97.7495 56.7392 97.6764 56.7427C99.2444 56.6658 99.1889 57.6393 98.7392 58.885ZM90.7574 38.9274C91.0722 38.7065 91.4566 39.0005 91.8102 38.9214C92.2996 38.8122 92.5776 38.3929 93.1245 38.3479C92.9723 38.8341 92.6867 38.7886 92.4453 39.1705C92.363 39.3006 92.4057 39.6128 92.3326 39.6876C91.7198 40.3153 91.5081 39.8031 90.8825 39.328C90.9369 39.9009 91.047 40.082 90.5073 40.2356C90.0186 40.375 89.2122 39.8619 88.9658 39.4683C89.1735 39.0526 90.3806 39.1919 90.7574 38.9274ZM94.658 38.0319C95.1889 38.0825 94.5495 39.6486 93.7888 38.1294C94.0752 38.0671 94.3651 38.0346 94.658 38.0319ZM97.3876 37.7291C98.2246 37.5584 101.017 36.7626 101.328 38.0657C101.384 38.0332 101.591 37.2976 101.688 37.3873C102.074 37.747 102.118 38.2238 102.088 38.7233C101.621 37.7497 101.787 38.6048 101.47 38.5382C101.388 38.5205 101.261 38.675 101.052 38.6113C100.777 38.5276 100.58 37.9435 100.407 37.7457C100.119 38.1576 99.7609 38.688 99.1829 38.6523C98.7739 38.6271 98.1147 37.5738 98.6445 38.7268C98.3335 38.6241 97.9734 38.3915 97.6269 38.4381C97.239 38.4905 97.0373 38.8734 96.6737 38.9352C95.8676 39.0718 95.746 38.2961 95.2227 37.8749C95.9444 37.8329 96.6748 37.8744 97.3876 37.7291ZM102.452 37.7167C102.511 37.4494 103.244 37.3415 103.43 37.4264C103.886 37.6332 103.717 37.9061 103.634 38.3604C103.296 38.2004 102.958 38.0408 102.62 37.8809C103.124 38.6929 102.211 38.8108 102.452 37.7167ZM244.253 85.2811C244.193 83.335 244.137 81.3554 243.643 79.4609C243.298 78.135 242.45 75.7574 240.846 75.5273C238.426 75.1801 237.086 79.9617 236.409 81.6031C236.273 79.6706 236.392 77.6138 235.662 75.7797C235.077 74.3098 233.601 72.9178 232.329 74.5684C231.198 76.0374 230.98 78.206 230.683 79.9734C230.297 82.2636 230.065 84.5715 229.783 86.8756C228.678 84.7401 228.485 82.2956 227.611 80.0761C226.787 77.9818 225.49 75.9816 224.241 74.1188C223.221 72.5972 221.98 71.1667 220.382 70.2365C218.99 69.4269 216.558 68.5512 215.232 69.8958C214.125 71.0176 214.299 72.5188 214.356 73.9345C214.382 74.5649 214.481 74.9972 213.926 75.3148C213.654 75.471 213.228 75.3902 212.929 75.4737C212.447 75.6084 212.076 75.8366 211.668 76.1399C208.807 78.2664 207.488 82.0986 207.081 85.5152C206.564 89.8442 208.251 93.5552 209.703 97.5161C209.935 98.1473 210.67 99.4865 210.568 100.191C210.457 100.963 209.488 100.983 208.834 100.999C206.859 101.048 204.794 100.901 202.829 100.717C198.15 100.279 193.475 98.0267 189.286 96.0157C188.522 95.6487 187.44 95.4386 186.816 94.8608C186.23 94.3176 186.075 93.4471 185.569 92.8239C184.326 91.295 183.535 89.9903 181.705 89.0666C179.842 88.1261 177.941 87.2569 176.123 86.2267C173.875 84.9523 171.798 83.338 169.644 81.911C165.641 79.2598 161.664 76.3532 157.42 74.0987C155.448 73.0509 153.244 72.8812 151.196 72.0234C149.202 71.1881 146.754 71.187 144.673 71.7144C143.66 71.9716 142.97 72.5809 142.038 72.9785C140.945 73.4447 140.054 72.9303 139.092 72.3738C137.624 71.5239 136.167 70.1389 138.259 69.222C138.969 68.9108 139.858 68.7929 140.478 68.3037C141.139 67.7825 141.669 66.8209 142.206 66.168C143.401 64.7166 144.114 63.0456 145.862 62.1431C147.795 61.1449 150.087 60.8733 152.148 60.2209C154.381 59.5143 156.568 58.6741 158.76 57.8491C162.709 56.3627 166.814 54.758 169.651 51.486C172.099 48.6632 173.166 45.0197 173.067 41.319C172.865 33.7536 168.812 26.0757 162.998 21.3456C155.868 15.5455 146.797 13.6114 137.791 13.7127C133.564 13.7604 128.52 14.3136 124.993 16.8817C121.947 19.0998 121.44 22.9794 121.894 26.4815C122.077 27.9028 122.706 29.7783 121.703 31.0308C121.143 31.7314 120.136 31.9049 119.38 32.3418C118.43 32.8906 117.593 33.4167 116.518 33.707C111.949 34.9407 107.137 34.5111 102.466 34.4428C94.6846 34.329 86.7087 36.4357 80.9038 41.9188C76.2162 46.3461 74.8105 54.6948 80.5276 59.011C85.1467 62.4979 92.3919 62.1144 97.8383 61.5062C99.5273 61.3173 100.689 61.043 100.692 63.1093C100.697 65.3665 100.323 67.7256 100.899 69.9416C101.806 73.4314 105.159 73.5146 108.124 72.7631C109.688 72.3665 111.201 71.7703 112.686 71.1458C114.865 70.23 116.862 68.8832 119.014 67.969C120.473 67.3494 121.565 69.3532 122.859 67.9641C123.098 67.7074 123.143 67.3247 123.503 67.1933C124.068 66.9876 125.016 67.7091 125.512 67.9373C126.254 68.2791 127.003 68.5303 127.299 69.3532C127.577 70.1229 127.455 71.3469 127.189 72.1063C126.612 73.7569 125.057 73.4306 123.637 73.3203C121.162 73.1276 118.703 72.7191 116.228 72.5476C114.008 72.3936 111.928 73.0571 110.013 74.1521C105.99 76.4518 102.699 80.1097 99.2116 83.1179C97.4166 84.6661 95.6813 86.3384 93.7292 87.6865C92.8806 88.2727 91.9612 88.8116 91.2235 89.5401C90.4915 90.2627 90.4111 90.9197 90.1607 91.8813C89.7149 93.5934 87.5008 94.4304 86.1166 95.3337C84.1594 96.6111 82.0844 97.5123 79.8903 98.2961C75.2436 99.9559 70.5603 101.115 65.7024 101.972C63.324 102.391 60.9653 102.667 58.5636 102.893C56.4935 103.089 54.2921 103.726 52.2244 103.217C52.8199 102.251 53.8752 101.671 54.697 100.924C55.7566 99.9616 56.6578 98.8211 57.4596 97.6394C59.0205 95.3383 60.1153 92.8692 60.3668 90.0781C60.5934 87.5661 60.3335 84.5612 58.8178 82.4393C58.2942 81.7061 57.2585 81.5066 56.7899 80.8464C56.324 80.1899 56.5016 79.06 56.2466 78.2946C55.5972 76.348 53.67 73.9358 51.974 72.8053C50.134 71.5784 47.4423 71.1276 45.3167 71.767C41.379 72.9514 38.9602 77.1595 37.1583 80.5607C36.174 78.4895 37.8224 75.4168 35.8995 73.7206C34.2777 72.2898 32.9905 75.0614 32.448 76.2472C29.9017 81.8134 29.3235 87.7171 28.2566 93.6728C27.8219 93.2443 28.0447 92.1445 28.0855 91.6333C28.1616 90.6817 28.1546 89.7482 28.1565 88.7926C28.1616 86.3785 28.6104 83.9533 28.4047 81.5413C28.2859 80.1471 27.8414 77.2072 25.8156 77.6704C24.0977 78.0634 23.0217 80.4791 22.4819 81.956C21.7033 84.0863 21.5235 86.1953 21.572 88.4457C21.6256 90.9321 21.1519 93.3779 21.0371 95.8609C20.814 100.684 21.0344 105.465 22.4182 110.12C24.6843 117.742 29.8947 124.076 36.8487 127.9C40.68 130.007 44.9304 131.34 49.3005 131.627C51.6686 131.782 53.9548 131.501 56.3026 131.256C58.6196 131.014 60.9488 130.902 63.2617 130.619C68.4128 129.987 73.432 128.356 78.1139 126.162C80.5785 125.007 82.896 123.589 85.3202 122.357C86.2929 121.863 86.9501 121.245 87.7801 120.558C88.6031 119.877 88.831 119.824 89.7669 119.824C89.4924 119.089 90.2937 118.863 90.6502 118.398C90.6302 118.624 90.6101 118.849 90.5901 119.074C90.8619 118.485 91.115 118.49 91.3492 119.091C91.5806 118.418 91.752 117.726 92.0313 117.07C93.0998 117.611 93.01 118.897 94.4388 117.958C95.6155 117.186 96.6976 116.274 97.8971 115.517C100.63 113.793 102.986 111.548 105.726 109.843C105.726 111.504 105.843 113.179 105.621 114.831C105.41 116.402 104.823 117.871 104.357 119.374C103.497 122.149 103.437 125.115 102.484 127.862C102.09 128.999 101.062 129.951 100.768 131.058C100.467 132.188 101.161 133.093 99.9983 133.835C99.1786 134.358 98.154 134.578 97.2463 134.895C95.8616 135.377 94.547 136.059 93.1992 136.636C86.877 139.345 80.7103 142.104 74.853 145.746C69.2942 149.203 63.6505 152.773 58.5441 156.878C54.1123 160.441 49.6324 165.047 48.5536 170.859C47.5067 176.496 50.2959 182.547 55.8963 184.404C58.8083 185.369 62.1004 185.249 65.1329 185.291C68.396 185.336 71.8538 184.55 75.0619 183.981C78.4501 183.38 81.7801 182.439 85.1781 181.903C88.4382 181.388 91.4285 180.237 94.6353 179.528C98.0508 178.772 101.554 178.362 104.988 177.683C106.535 177.377 108.049 176.926 109.6 176.642C111.297 176.332 113.013 176.216 114.694 175.806C117.954 175.009 121.076 173.724 124.35 172.983C125.822 172.65 127.272 172.203 128.745 171.892C130.101 171.605 131.157 170.843 132.516 171.469C133.614 171.974 134.489 172.841 135.528 173.445C136.876 174.229 138.297 174.931 139.702 175.605C142.525 176.959 145.452 177.895 148.404 178.912C151.504 179.981 154.549 181.199 157.761 181.905C161.054 182.628 164.413 182.829 167.729 183.401C174.519 184.573 181.252 185.098 188.145 185.141C191.629 185.163 195.112 184.75 198.588 184.799C201.665 184.842 204.34 185.536 207.154 183.9C211.65 181.286 216.865 177.349 216.755 171.63C216.654 166.45 213.547 161.501 210.633 157.416C207.094 152.455 202.047 148.961 197.102 145.539C191.831 141.892 185.911 139.371 180.371 136.188C177.537 134.56 174.925 132.808 171.848 131.651C170.38 131.099 168.947 130.459 167.496 129.864C166.328 129.386 164.642 129.121 163.642 128.328C163.019 127.832 162.959 127.082 162.794 126.346C162.429 124.717 161.856 123.171 161.301 121.6C160.228 118.565 159.515 115.475 159.054 112.292C158.615 109.258 157.64 106.103 158.145 103.02C161.467 106.234 164.882 109.323 168.281 112.452C169.555 113.624 170.806 114.822 172.086 115.987C173.048 116.862 174.25 118.162 175.59 118.421C177.302 118.753 176.677 116.86 177.852 116.566C178.57 116.387 180.736 118.212 181.304 118.573C184.903 120.858 188.889 122.306 192.848 123.861C196.999 125.492 201.269 126.941 205.736 127.351C209.862 127.731 214.081 127.244 218.063 126.12C225.993 123.881 231.828 118.569 236.11 111.684C240.99 103.838 244.54 94.6469 244.253 85.2811Z" fill="#323232"/>
<path fill-rule="evenodd" clip-rule="evenodd" d="M123.06 68.177C123.058 68.1793 123.046 68.2052 123.046 68.2052C123.061 68.1949 123.066 68.1855 123.06 68.177Z" fill="#323232"/>
<path fill-rule="evenodd" clip-rule="evenodd" d="M123.442 68.2782C123.413 68.0282 123.348 67.7835 123.25 67.5439C122.988 67.9601 122.753 68.1384 123.098 68.5791C123.212 68.4788 123.327 68.3785 123.442 68.2782Z" fill="#323232"/>
<path fill-rule="evenodd" clip-rule="evenodd" d="M141.728 127.759C142.021 127.446 141.508 127.328 141.313 127.324C141.332 127.659 141.166 128.463 141.625 128.618C141.515 128.315 141.549 128.028 141.728 127.759Z" fill="#323232"/>
<path fill-rule="evenodd" clip-rule="evenodd" d="M133.982 62.3793C133.477 63.3538 134.592 63.6561 135.237 63.1854C135.723 62.8314 136.01 61.9291 136.09 61.3502C136.348 59.4769 135.037 57.6938 134.384 56.0317C134.215 55.602 133.983 54.1286 133.439 54.0881C132.815 54.0416 132.768 55.3987 132.76 55.7489C132.736 56.8048 133.016 57.8802 133.344 58.8768C133.696 59.9514 134.571 61.2412 133.982 62.3793Z" fill="#323232"/>
<path fill-rule="evenodd" clip-rule="evenodd" d="M136.382 58.4708C138.322 60.198 139.873 57.3213 139.738 55.6197C139.704 55.198 139.42 53.6436 138.62 54.2094C138.218 54.4935 138.561 55.4171 138.369 55.8225C137.441 57.7884 136.548 54.7392 135.923 54.4997C135.163 54.208 135.087 55.2068 135.088 55.7406C135.09 56.8003 135.594 57.769 136.382 58.4708Z" fill="#323232"/>
<path fill-rule="evenodd" clip-rule="evenodd" d="M129.341 58.7391C129.798 58.0196 130.36 57.0547 130.422 56.1927C130.518 54.853 129.737 54.9648 129.095 55.8996C128.641 56.5599 128.3 57.6799 127.298 57.4015C126.061 57.0582 126.439 55.3949 125.747 54.6045C123.998 56.9533 127.307 61.9405 129.341 58.7391Z" fill="#323232"/>
<path fill-rule="evenodd" clip-rule="evenodd" d="M131.962 65.9271C132.685 66.0835 134.571 66.0258 133.917 64.9184C133.093 63.5233 130.353 65.5792 131.962 65.9271Z" fill="#323232"/>
<path fill-rule="evenodd" clip-rule="evenodd" d="M157.3 24.3262C157.432 23.9319 157.251 23.8603 156.935 23.5498C156.636 23.8257 157.019 24.116 157.3 24.3262Z" fill="#323232"/>
<path fill-rule="evenodd" clip-rule="evenodd" d="M170.791 95.7388C171.268 95.8146 171.422 95.5623 171.251 94.9815C170.498 94.9328 170.345 95.1852 170.791 95.7388Z" fill="#323232"/>
<path fill-rule="evenodd" clip-rule="evenodd" d="M144.735 34.8201C145.261 35.0607 145.059 35.5544 145.05 35.9717C145.321 35.6771 145.869 35.1384 145.646 34.7152C145.303 34.0627 144.405 34.6695 144.735 34.8201Z" fill="#323232"/>
<path fill-rule="evenodd" clip-rule="evenodd" d="M126.807 26.6073C126.726 26.4508 126.646 26.2942 126.566 26.1377C126.239 26.4 125.734 27.0936 126.254 27.4316C126.467 27.1732 126.651 26.8984 126.807 26.6073Z" fill="#323232"/>
<path fill-rule="evenodd" clip-rule="evenodd" d="M133.122 31.211C133.776 31.7245 133.462 30.1483 133.443 30.0195C133.345 30.2044 132.791 30.9515 133.122 31.211Z" fill="#323232"/>
<path fill-rule="evenodd" clip-rule="evenodd" d="M132.759 30.4105C132.709 30.2803 132.658 30.15 132.608 30.0195C132.343 30.2653 132.018 30.7672 132.456 31.0547C132.577 30.8533 132.677 30.6387 132.759 30.4105Z" fill="#323232"/>
<path fill-rule="evenodd" clip-rule="evenodd" d="M136.918 35.8233C136.971 35.8727 137.025 35.9221 137.078 35.9717C137.294 35.536 137.048 35.2086 136.641 35.1953C136.67 35.4399 136.762 35.6493 136.918 35.8233Z" fill="#323232"/>
<path fill-rule="evenodd" clip-rule="evenodd" d="M119.37 84.8398C119.63 84.6629 119.866 84.4612 120.078 84.2349C119.309 83.7649 119.77 84.7834 118.845 84.158C118.645 84.4336 118.971 85.0504 119.37 84.8398Z" fill="#323232"/>
<path fill-rule="evenodd" clip-rule="evenodd" d="M151.677 127.583C151.969 127.134 152.022 127.147 151.623 126.807C151.29 127.361 151.324 127.219 151.677 127.583Z" fill="#323232"/>
<path fill-rule="evenodd" clip-rule="evenodd" d="M90.5762 56.177C90.7353 56.343 90.8945 56.5091 91.0536 56.6748C91.1279 56.4577 91.5331 55.844 91.2579 55.6396C91.0308 55.8188 90.8033 55.9979 90.5762 56.177Z" fill="#323232"/>
<path fill-rule="evenodd" clip-rule="evenodd" d="M96.2368 57.8192C95.9827 57.7768 95.375 57.5914 95.2344 57.8276C95.6062 58.1323 96.445 57.8541 96.2368 57.8192Z" fill="#323232"/>
</svg>
