<svg width="265" height="199" viewBox="0 0 265 199" fill="none" xmlns="http://www.w3.org/2000/svg">
<path fill-rule="evenodd" clip-rule="evenodd" d="M74.79 128.929C80.4508 125.94 86.1113 122.951 91.7718 119.962C97.1394 131.929 110.615 139.607 123.567 136.776C126.724 136.086 129.854 134.525 131.37 131.514C132.51 129.25 132.553 126.59 132.036 124.15C131.602 122.094 130.792 119.924 129.467 118.269C127.803 116.189 125.244 114.593 123.173 112.961C119.965 110.432 116.727 107.941 113.481 105.462C113.055 105.137 111.87 104.553 111.632 104.053C111.432 103.634 111.632 102.618 111.632 102.16V100.003C116.342 101.722 121.595 102.667 126.601 102.41C134.935 101.98 141.626 95.9463 147.569 90.5876C148.629 89.6321 149.671 88.6563 150.688 87.6551C150.882 87.4631 151.375 86.7538 151.647 86.7003C152.011 86.6285 152.967 87.2307 153.301 87.3653C154.458 87.8303 155.615 88.2952 156.772 88.7605C159.589 89.8927 162.42 90.8175 164.963 92.4807C175.755 99.5385 187.237 108.168 192.143 120.532C194.931 127.56 196.594 135.064 197.609 142.548C197.747 143.568 198.102 144.839 197.925 145.859C197.601 147.728 196.54 149.708 195.899 151.488C195.086 153.748 194.272 156.009 193.459 158.27C193.369 158.519 193.258 159.149 193.049 159.306C192.615 159.632 191.164 159.521 190.642 159.578C187.646 159.908 184.642 160.242 181.631 160.407C178.926 160.556 176.402 159.863 173.821 159.092C172.385 158.663 170.959 158.199 169.541 157.714C169.222 157.605 167.662 157.312 167.48 156.991C167.4 156.85 167.668 156.189 167.705 156.034C167.94 155.05 168.157 154.06 168.362 153.069C169.81 146.069 170.876 138.733 170.265 131.576C169.628 124.12 165.489 118.229 160.275 113.128C158.356 111.252 156.315 109.497 154.179 107.876C153.805 107.591 153.121 106.851 152.648 106.756C152.267 106.679 151.982 106.997 151.603 107.245C150.504 107.962 149.406 108.68 148.307 109.397C148.012 109.59 146.861 110.098 146.754 110.438C146.664 110.724 147.134 111.67 147.212 111.946C147.545 113.111 147.842 114.286 148.111 115.468C149.872 123.209 150.695 131.683 148.531 139.426C146.488 146.738 141.769 153.318 135.437 157.481C128.888 161.788 121.27 162.854 113.668 161.371C100.147 158.733 86.2849 150.8 78.9211 138.844C77.0357 135.783 75.6113 132.437 74.79 128.929Z" fill="#6951FF"/>
<path fill-rule="evenodd" clip-rule="evenodd" d="M196.404 145.427C195.879 149.589 194.018 153.545 191.715 157.007C191.411 156.405 191.778 155.908 190.937 155.793C190.373 155.716 189.626 156.115 189.069 156.21C187.004 156.561 184.836 156.291 182.772 156.07C183.307 155.49 184.014 155.02 183.747 154.077C183.546 153.364 182.673 153.087 182.332 152.428C182.797 152.227 184.075 153.244 184.523 153.417C184.301 152.857 183.546 151.857 183.708 151.243C183.827 150.792 184.412 150.878 183.925 150.299C183.702 150.498 182.99 151.458 182.602 151.219C182.978 150.88 182.703 150.695 182.869 150.355C182.996 150.091 183.11 149.964 183.287 149.734C183.745 149.14 184.045 148.38 183.463 147.683C183.268 147.45 182.934 147.499 182.752 147.236C182.576 146.982 182.612 146.683 182.564 146.398C182.511 146.078 182.537 145.717 182.448 145.403C182.265 144.755 182.195 144.765 182.508 144.097C182.187 144.373 181.865 144.648 181.544 144.924C181.385 144.248 181.266 143.531 180.937 142.912C180.825 142.703 180.229 142.15 180.256 141.932C180.179 142.567 179.669 141.818 179.462 141.766C178.807 141.601 177.651 142.247 177.152 142.646C175.774 143.747 174.951 145.845 174.081 147.348C173.125 148.999 172.165 150.831 171.913 152.728C171.85 153.201 171.835 154.194 171.301 154.432C171.014 154.56 169.817 154.216 169.52 154.044C168.796 153.625 169.049 152.996 169.33 152.331C169.694 151.471 170.021 150.733 170.189 149.799C170.389 148.682 170.533 147.552 170.707 146.431C171.071 144.079 171.437 141.716 171.624 139.342C171.684 138.582 171.589 137.826 171.617 137.084C171.643 136.437 172.139 135.689 171.864 134.917C171.77 134.652 171.573 134.59 171.586 134.366C171.594 134.227 171.949 134.358 171.996 134.175C172.089 133.818 171.748 133.454 171.662 133.123C171.523 132.601 171.629 132.119 171.709 131.597C172.032 129.471 171.434 127.235 170.864 125.191C170.248 122.982 169.411 120.857 168.552 118.735C167.796 116.867 167.477 114.839 166.587 113.025C165.818 111.458 164.978 109.902 163.592 108.888C162.957 108.423 162.498 107.72 161.893 107.207C161.533 106.901 161.147 106.572 160.713 106.376C160.295 106.186 159.794 106.297 159.413 106.117C158.883 105.868 158.294 105.242 157.728 104.998C157.239 104.787 156.677 104.643 156.22 104.2C155.599 103.6 155.483 103.2 154.612 103.085C154.107 103.019 153.607 103.048 153.25 102.546C151.834 100.562 155.652 97.6968 153.885 95.6268C153.181 96.3365 152.88 97.3459 152.541 98.2588C152.096 99.4545 151.469 100.462 150.765 101.521C149.532 103.376 147.693 105.257 147.163 107.469C146.3 106.262 145.814 105.542 144.511 106.736C144.266 106.195 144.589 105.165 144.101 104.818C143.244 104.206 141.61 105.728 141.142 106.281C139.313 108.443 138.291 111.076 137.286 113.706C136.843 114.868 136.366 116.339 136.931 117.541C137.432 118.604 138.621 119.188 139.635 119.644C141.071 120.29 142.259 120.256 143.784 120.417C144.484 120.491 145.115 120.797 145.782 120.441C146.36 120.133 146.772 119.517 147.274 119.109C147.392 119.493 147.698 119.831 148.087 119.491C148.658 121.887 149.226 124.232 149.088 126.716C148.962 128.995 148.763 131.283 148.356 133.53C147.937 135.847 147.447 138.202 146.534 140.381C145.631 142.538 144.246 144.437 142.985 146.389C142.602 145.606 142.144 145.993 141.589 146.361C141.369 145.892 141.652 145.534 141.346 145.119C141.148 145.003 140.972 144.859 140.817 144.688C140.763 144.355 140.688 144.026 140.591 143.703C140.099 143.904 139.889 144.142 139.665 144.614C138.923 143.307 138.398 143.473 137.017 143.557C135.168 143.67 134.577 145.27 133.965 146.774C133.819 147.132 133.549 147.583 133.518 147.979C133.495 148.259 133.743 148.729 133.71 148.874C133.64 149.171 133.371 148.923 133.298 149.07C133.031 149.609 132.963 150.374 132.821 150.959C132.442 152.523 132.327 155.052 130.786 155.942C129.497 156.687 127.646 156.863 126.201 157.144C123.926 157.585 121.518 157.665 119.206 157.677C117.14 157.688 114.67 157.937 112.709 157.158C112.422 157.045 111.062 156.405 111.379 156.079C111.517 155.938 112.261 156.172 112.414 156.253C112.311 156.198 112.234 155.564 112.181 155.42C111.987 154.886 111.838 154.867 111.47 154.463C110.652 153.565 111.756 153.979 111.682 153.336C111.667 153.212 110.792 153.532 110.817 153.524C110.845 153.329 111.025 152.923 110.932 152.727C111 152.871 110.428 151.664 110.496 151.939C110.364 151.405 110.735 150.879 110.659 150.364C110.55 149.633 110.015 149.779 109.597 149.346C109.453 149.198 109.396 148.897 109.255 148.727C109.194 148.653 108.97 148.64 108.947 148.6C108.794 148.334 108.804 148.29 108.964 147.731C108.654 147.866 107.837 148.429 107.522 148.122C107.141 147.753 107.939 147.32 107.279 147.066C107.013 146.963 106.861 147.25 106.623 147.259C106.464 147.265 106.433 146.872 106.234 146.976C105.879 147.16 105.787 147.935 105.63 148.271C104.743 146.008 101.884 149.728 101.356 150.601C100.867 151.41 100.84 153.007 99.6324 152.883C98.9986 152.818 98.2708 152.124 97.7654 151.785C97.024 151.287 96.2315 150.873 95.4652 150.414C92.0639 148.376 88.857 146.129 85.8453 143.547C84.7373 142.597 83.2543 141.418 83.1068 139.945C83.0477 139.356 82.9763 138.818 82.8128 138.221C82.4839 137.02 82.0492 137.232 81.0894 136.578C81.4737 135.818 82.0228 135.779 81.9893 134.86C81.962 134.114 81.6762 133.369 81.4255 132.68C81.1053 131.802 80.9506 130.814 80.0123 130.57C79.013 130.311 78.8534 130.797 78.192 131.499C78.2603 131.12 78.5657 130.162 78.1419 129.918C77.5516 129.578 77.2331 130.831 76.7698 130.967C76.3709 130.076 75.0209 128.689 75.9657 127.804C76.4424 127.358 77.3685 127.186 77.9595 126.916C78.8379 126.514 79.6907 126.054 80.5437 125.601C84.3352 123.59 88.0173 121.395 91.7781 119.329C92.4412 120.865 93.0331 122.436 93.7972 123.927C94.4345 125.17 95.5742 126.347 95.5282 127.819C95.4807 129.351 94.7873 130.858 94.6217 132.391C94.512 133.405 94.6638 133.805 95.7801 133.453C95.8767 134.152 97.0032 135.165 97.6041 135.521C98.5711 136.093 99.5341 135.044 100.209 134.395C100.685 134.848 100.786 135.517 101.18 136.023C101.377 135.81 101.348 135.207 101.474 135.109C101.594 135.014 102.016 135.222 102.103 135.219C102.235 135.215 102.123 134.841 102.229 134.837C102.57 135.676 103.356 134.272 104.112 134.848C104.021 134.407 104.145 134.255 104.523 134.045C104.719 134.957 105.52 134.528 106.212 134.629C107.441 134.807 108.641 135.496 109.849 135.809C112.338 136.452 114.688 136.809 117.251 136.767C118.276 136.751 118.707 136.907 119.312 137.708C119.542 138.012 119.653 138.394 120.052 138.538C120.637 138.749 120.671 138.356 121.145 138.245C121.627 138.131 121.374 138.01 121.828 138.249C122.108 138.396 122.273 138.862 122.501 139.08C123.147 139.698 123.834 139.932 124.374 139.085C124.476 139.395 124.593 139.49 124.836 139.694C124.801 139.206 124.728 138.229 125.534 138.46C126.136 138.633 125.856 139.499 126.71 139.348C127.189 139.264 127.588 138.572 127.874 138.223C128.267 137.745 128.284 138.401 128.361 137.585C128.407 137.101 128.091 136.499 127.899 136.077C128.617 136.225 128.745 136.984 129.458 137.051C130.257 137.126 130.666 136.064 131.44 136.269C131.365 136.09 131.076 135.494 131.203 135.318C131.399 135.047 131.679 135.69 131.984 135.63C132.317 135.563 132.686 134.659 132.616 134.354C132.477 133.747 131.772 133.9 131.504 133.419C131.259 132.979 131.475 132.173 131.463 131.696C131.448 131.047 131.297 130.388 131.41 129.739C131.528 129.057 131.872 128.493 132.341 127.989C132.668 127.639 133.576 127.098 132.78 126.695C134.19 126.174 133.357 124.717 133.467 123.506C133.536 122.753 133.839 122.205 133.671 121.396C133.471 120.427 132.954 119.526 132.42 118.708C131.888 117.892 131.34 117.135 130.549 116.558C130.334 116.413 130.12 116.268 129.905 116.123C129.757 115.916 129.57 115.855 129.346 115.943C128.982 115.666 128.916 115.441 128.647 115.044C127.971 114.048 126.773 113.556 125.779 112.964C124.825 112.395 123.994 111.614 122.994 111.125C122.999 111.128 121.943 110.672 122.032 110.791C121.668 110.304 122.038 109.702 122.02 109.177C122 108.639 121.677 108.401 121.527 107.937C121.347 107.385 121.67 106.698 121.345 106.204C121.218 106.012 120.97 105.958 120.815 105.788C120.553 105.499 120.436 105.11 120.158 104.826C119.884 105.148 119.611 105.471 119.338 105.793C119.016 105.009 118.952 104.805 118.291 105.55C117.282 106.687 116.71 106.197 115.888 105.14C115.616 104.791 115.3 104.722 115.097 104.465C114.773 104.057 115.121 103.343 114.659 102.986C114.39 102.779 114.013 102.989 113.786 102.631C113.507 102.192 113.962 101.54 113.705 101.047C117.569 102.27 121.511 103.246 125.594 102.948C129.56 102.66 133.611 101.687 137.251 100.076C143.566 97.2799 149.726 92.6813 152.208 86.0116C152.83 86.7417 152.7 88.0733 153.386 88.7433C154.406 89.7391 154.314 87.7487 154.314 87.1149C155.132 87.3338 156.298 87.6805 156.365 88.6768C156.432 89.6836 155.527 90.7325 155.209 91.6481C154.889 92.5684 154.729 93.6329 154.807 94.605C154.846 95.0908 154.936 95.594 155.179 96.0235C155.475 96.5483 155.805 96.5221 156.203 96.7619C156.138 96.7226 156.701 97.1035 156.685 97.0994C157.871 97.3845 158.823 98.276 160.098 97.9533C160.919 97.7453 161.712 97.1445 162.015 98.3461C162.586 97.9623 162.657 97.6655 162.641 97.0994C162.634 96.8543 162.286 96.6449 162.635 96.5675C162.751 96.5418 163.183 97.0671 163.352 97.1157C163.82 97.2496 164 97.0615 164.226 96.7097C164.356 96.5066 164.365 95.1359 164.52 95.107C164.851 95.0456 165.541 96.4569 165.725 96.7097C165.725 92.6631 169.946 97.353 171.259 98.2469C172.327 98.9741 173.488 99.6186 174.384 100.568C175.525 101.777 175.195 102.479 174.425 103.786C173.572 105.233 172.955 106.918 172.179 108.427C171.79 109.184 171.323 110.093 171.334 110.972C171.338 111.269 171.509 111.575 171.493 111.863C171.47 112.28 171.268 112.457 171.1 112.822C170.618 113.872 171.05 115.126 172.07 115.646C172.723 115.98 173.394 116.19 174.026 116.576C174.692 116.983 175.352 117.422 176.164 117.45C176.689 117.468 176.978 117.327 177.485 117.484C177.829 117.591 178.116 117.9 178.514 117.861C179.31 117.783 179.894 116.904 180.712 116.723C181.317 116.589 182.103 116.667 182.489 116.073C182.967 115.336 182.056 114.602 182.783 113.923C182.984 114.298 183.117 114.724 183.164 115.146C183.379 114.58 183.465 114.125 183.782 113.617C184.113 113.087 184.301 112.742 184.295 112.073C184.285 110.872 183.704 109.753 183.413 108.61C184.43 108.666 185.268 110.419 185.711 111.154C186.529 112.509 187.376 113.847 188.189 115.206C189.21 116.91 190.508 118.785 191.164 120.668C191.757 122.367 190.323 123.46 189.533 124.842C188.599 126.476 188.316 128.041 187.806 129.794C187.398 131.196 187.352 132.753 188.496 133.817C189.007 134.292 189.657 134.568 190.293 134.826C191.052 135.134 191.252 135.698 192.066 135.86C192.716 135.989 193.435 136.054 194.1 136.033C195.238 135.997 194.824 135.622 195.455 134.904C195.258 135.578 195.924 136.218 196.109 136.837C196.368 137.702 196.428 138.658 196.534 139.553C196.769 141.516 196.65 143.472 196.404 145.427ZM181.173 163.397C180.151 163.165 178.628 163.305 177.709 162.796C177.072 162.444 177.361 162.104 177.625 161.438C178.341 159.634 180.335 159.433 182.101 159.925C181.792 161.082 181.483 162.24 181.173 163.397ZM183.014 176.95C186.255 178.706 189.792 180.589 192.4 183.228C193.013 183.848 194.67 185.225 194.449 186.24C194.218 187.299 192.136 187.094 191.366 187.066C187.64 186.929 184.15 185.995 180.811 184.357C177.619 182.791 174.541 181.189 172.219 178.424C171.278 177.304 169.555 175.576 169.75 173.978C169.944 172.391 171.574 171.188 172.438 169.943C173.285 168.722 174.336 166.052 175.918 165.647C176.607 165.471 177.3 165.86 177.943 166.056C178.557 166.242 179.486 166.241 180.011 166.653C180.963 167.397 180.582 169.115 179.583 169.595C178.918 169.914 178.144 170.052 177.447 170.284C176.663 170.544 172.705 171.737 174.179 173.088C175.205 174.028 177.032 172.88 178.131 172.618C178.696 172.484 179.603 172.31 179.938 172.954C180.265 173.582 179.673 174.234 179.157 174.525C178.392 174.959 177.413 174.891 176.749 175.529C176.207 176.049 176.067 176.666 176.811 176.98C178.787 177.815 180.951 175.832 183.014 176.95ZM142.341 146.902C142.227 146.459 142.518 146.207 142.979 146.401C142.878 146.69 142.665 146.857 142.341 146.902ZM110.196 156.496C109.779 156.439 109.947 155.913 110.118 155.652C110.395 155.868 110.421 156.149 110.196 156.496ZM81.1702 138.243C80.6401 137.652 81.4408 136.629 82.2369 137.108C81.9775 137.498 81.4553 137.79 81.1702 138.243ZM79.2477 113.497C78.3899 111.969 78.3293 108.651 76.0997 108.449C75.2801 108.375 73.8216 109.402 73.118 108.917C72.4801 108.477 73.0362 106.26 72.1074 106.294C70.7985 106.341 71.4706 108.906 70.8799 109.541C70.5418 109.905 69.7789 110.051 69.3071 109.988C68.59 109.892 68.5282 109.568 68.5101 108.895C68.4963 108.397 68.8571 106.404 67.7377 106.735C66.9225 106.976 67.1194 108.726 67.0387 109.348C66.7391 111.66 63.376 111.552 61.6138 111.748C60.5446 111.866 55.5328 112.665 56.6464 110.455C57.1173 109.52 58.272 108.743 59.058 108.092C60.3956 106.984 61.9238 106.111 63.5184 105.432C66.4841 104.171 69.8257 103.5 73.0415 103.94C76.6621 104.435 79.6435 106.222 82.0605 108.917C82.56 109.474 83.9702 110.762 83.4302 111.555C83.1301 111.996 82.0908 112.106 81.6256 112.27C80.7832 112.568 79.9622 112.953 79.2477 113.497ZM84.5772 114.613C85.8075 114.147 86.0868 115.682 86.5605 116.511C86.9662 117.222 87.8654 118.3 87.3934 119.134C86.9645 119.893 85.6525 120.345 84.9141 120.665C83.9475 121.085 82.937 121.396 81.9724 121.819C81.4669 120.615 81.029 119.38 80.4957 118.189C80.1949 117.517 79.5781 116.593 80.1073 115.921C80.9835 114.81 83.3556 115.075 84.5772 114.613ZM118.701 69.179C118.796 67.7996 119.699 68.2514 120.048 69.2004C120.427 70.2311 120.47 71.4563 120.5 72.5433C120.523 73.3722 120.352 74.6682 119.561 73.4601C118.801 72.2997 118.608 70.5238 118.701 69.179ZM123.564 74.7398C123.427 76.4097 122.475 75.2549 122.126 74.3644C121.618 73.065 121.229 71.3854 121.415 69.9856C121.63 68.3703 122.418 69.3845 122.769 70.3726C123.267 71.7703 123.288 73.2931 123.564 74.7398ZM125.631 73.3776C124.559 73.6683 122.887 67.3436 124.335 67.1277C125.539 66.9483 126.688 73.0912 125.631 73.3776ZM129.924 74.0368C129.914 75.4403 128.757 74.3338 128.352 73.7673C127.61 72.7297 127.026 71.1809 126.984 69.9067C126.944 68.7105 127.468 67.7389 128.305 69.0271C129.236 70.4583 129.622 72.3856 129.924 74.0368ZM120.557 57.8347C121.601 54.9035 122.904 52.2086 124.645 49.6288C124.958 49.1658 125.271 48.6383 125.696 48.27C126.041 47.9715 126.537 47.8968 126.861 47.6058C127.514 47.0211 127.015 46.4343 126.38 46.1279C125.313 45.6127 123.415 45.6875 124.16 43.9756C125.189 41.6105 127.856 42.9288 128.906 44.5363C129.331 43.5325 130.078 43.7773 130.989 43.7087C132.349 43.6058 133.629 42.9533 135.004 42.9763C136.278 42.9977 137.452 43.6179 138.729 43.6405C140.151 43.6659 141.339 43.7249 142.723 44.1236C142.002 45.5843 141.107 47.0288 139.736 47.9596C139.982 47.5032 140.838 46.2778 140.071 45.9393C139.552 45.7105 138.444 46.669 138.003 46.8903C137.985 46.4727 137.832 46.0512 137.582 45.7168C136.235 46.6597 136.689 48.2782 137.838 49.1649C136.833 49.6892 135.782 50.1498 134.653 50.3201C133.54 50.4885 132.42 50.226 131.313 50.4145C129.369 50.745 127.917 52.4877 127.607 54.4C127.439 55.4378 128.006 58.0487 128.849 56.0245C129.017 55.6203 129.104 55.1435 129.371 54.7882C129.811 54.2022 130.149 54.4087 130.794 54.549C131.329 54.6655 132.267 54.7824 132.47 55.3752C132.652 55.9071 132.177 56.6217 131.908 57.0264C130.986 58.4156 129.608 59.6165 127.943 59.9312C127.001 60.1093 119.814 59.9222 120.557 57.8347ZM122.799 38.8118C122.195 38.4063 122.649 37.35 122.721 36.8099C122.828 37.0077 122.935 37.2052 123.042 37.4029C122.967 36.137 123.14 35.1143 123.41 33.8855C123.512 33.4189 123.475 33.0222 123.496 32.5548C123.508 32.2874 123.458 32.0977 123.569 31.9368C123.71 31.7303 123.88 32.3311 123.872 32.2782C124.517 31.5005 123.993 31.3357 124.182 30.5532C124.184 30.5433 124.775 29.9114 124.84 29.7923C125.151 29.2237 125.214 29.0046 125.752 28.6746C126.298 28.34 126.114 28.671 126.41 27.9554C126.695 27.2663 126.677 26.7904 126.842 26.0688C127.097 26.2549 127.354 26.2603 127.614 26.0853C127.373 26.0186 127.244 25.8606 127.228 25.6107C127.893 25.5427 128.482 24.8975 129.087 25.1201C128.934 24.8587 128.829 23.3616 129.326 23.3645C129.342 23.5991 129.342 23.8335 129.326 24.0679C129.746 23.4346 130.404 22.4977 130.921 22.0192C131.312 21.6579 131.201 21.7635 131.679 21.7125C132.09 21.6689 132.095 21.8234 132.448 21.4544C132.309 21.0739 132.413 20.8324 132.76 20.7308C132.867 20.6842 132.974 20.6376 133.081 20.5908C133.572 20.2918 133.754 19.9536 134.141 19.5576C134.442 19.2492 135.08 19.1176 135.306 18.8097C135.55 18.4788 135.37 17.7409 135.694 17.4895C136.049 17.2138 136.072 17.5729 136.418 17.5402C136.468 17.5356 136.968 17.2684 137.07 17.2342C137.809 16.9843 138.493 16.8838 139.118 16.3143C139.328 16.1231 139.476 15.757 139.679 15.6092C140.014 15.3644 140.415 15.4124 140.757 15.1969C140.866 15.1285 141.03 14.8235 141.158 14.7111C141.536 14.3797 142.055 14.2152 142.523 14.0693C143.493 13.7675 144.407 13.4678 145.345 13.0616C147.359 12.1888 149.581 11.4492 151.719 10.9452C151.965 10.8872 152.598 10.921 152.781 10.8018C152.916 10.7135 153.033 10.4134 153.067 10.3942C153.466 10.1615 154.11 9.90039 154.659 9.74412C156.268 9.28503 156.324 10.1617 155.298 11.0903C154.388 11.9146 153.288 12.4899 152.353 13.2778C150.829 14.5626 149.839 16.4577 148.833 18.1429C150.183 18.7983 152.119 18.1344 153.491 17.8498C154.188 17.7054 154.928 17.6901 155.615 17.6904L155.835 17.5642C156.011 17.4453 156.125 17.4938 156.178 17.71C156.204 17.9874 156.339 18.0318 156.584 17.843C156.714 17.7535 156.849 17.6739 156.99 17.6042C157.242 17.4608 157.628 17.001 157.95 17.0578C158.426 17.1415 158.14 17.3742 158.447 17.4921C159.153 17.7627 159.495 17.1187 160.154 17.0156C160.38 16.9802 160.701 17.1553 160.95 17.1284C161.154 17.0534 161.345 16.9515 161.519 16.8229C161.695 16.8188 161.818 16.9032 161.889 17.0755C162.426 17.0792 163.416 16.951 163.463 16.2719C163.841 16.9869 164.059 16.7436 164.649 16.4111C164.649 17.2675 166.499 16.5376 167.006 16.5359C168.311 16.5317 169.437 16.0161 170.675 16.6807C168.488 17.6596 166.01 18.0937 163.892 19.2048C162.935 19.7073 161.702 21.1282 162.412 22.2823C162.834 22.9673 163.618 22.9284 164.31 22.8464C165.19 22.7423 165.922 23.0726 166.822 23.0359C168.648 22.9619 170.892 24.3506 172.469 22.8668C173.157 23.8051 173.97 23.8015 175.004 23.859C175.484 23.8857 178.476 24.4067 178.353 24.9868C178.284 25.3132 176.853 25.8259 176.638 25.9218C175.827 26.2816 174.987 26.5641 174.127 26.7817C172.576 27.175 171.05 27.1508 169.485 27.3937C168.348 27.5703 166.94 28.2192 167.251 29.6624C167.525 30.9332 169.03 30.6469 170.006 30.5581C171.073 30.461 172.1 30.3385 173.173 30.3858C174.034 30.4239 175.816 30.37 176.358 31.2183C173.967 32.9406 170.97 33.3873 168.12 33.7452C164.825 34.1587 161.556 34.6811 158.332 35.4897C158.575 35.0029 159.644 33.2311 159.222 32.7023C158.705 32.0545 157.155 34.6673 156.756 35.0187C153.365 38.011 148.72 40.0413 144.564 41.7007C145.932 40.0068 147.995 38.8503 149.667 37.4769C150.818 36.5318 152.911 34.9881 152.149 33.2333C147.871 35.9031 144.273 40.7127 138.876 41.0276C140.804 39.6222 143.026 38.5414 144.611 36.7073C144.982 36.2785 146.206 34.6401 145.447 34.0512C144.85 33.5878 143.794 35.2206 143.377 35.5743C140.448 38.0617 136.424 40.1677 132.775 41.3336C131.464 41.7524 129.662 42.4646 128.458 41.55C126.842 40.323 125.583 40.2834 123.761 41.2625C123.58 40.4642 123.556 39.3196 122.799 38.8118ZM161.35 95.265V96.278C160.802 96.2239 161.048 95.6455 160.718 95.3795C160.929 95.3414 161.139 95.3031 161.35 95.265ZM160.661 94.0915C160.827 94.6821 160.827 94.6821 160.128 94.6154C160.371 94.3759 160.501 94.248 160.661 94.0915ZM163.303 94.9187C163.703 94.6989 163.363 96.0162 162.727 95.3346C162.92 95.1958 163.112 95.0573 163.303 94.9187ZM164.718 93.0159C164.643 93.4507 164.569 93.8855 164.494 94.3201C164.261 94.127 164.027 93.9338 163.794 93.7404C164.102 93.499 164.41 93.2575 164.718 93.0159ZM195.091 133.411C195.592 133.107 195.694 134.268 195.748 134.488C195.418 134.306 194.301 133.888 195.091 133.411ZM95.5883 45.2133C94.7188 46.4137 93.8515 47.624 93.1363 48.9249C92.7391 49.6477 92.449 50.704 91.7272 51.1873C91.0847 51.6175 90.0263 51.6833 89.3053 51.8634C87.8587 52.2239 86.4239 52.6347 85.017 53.1295C80.2155 54.8186 75.6567 57.692 72.2817 61.5373C70.6559 63.3897 69.2982 65.5235 68.5343 67.8801C67.6585 70.5813 67.954 73.4132 67.6328 76.1937C67.5558 76.8618 67.4156 79.2436 66.6275 79.5447C65.6575 79.9155 65.3829 77.5681 65.2659 76.9537C65.1191 76.1826 64.712 70.9057 63.1912 71.3937C62.2639 71.6912 62.2581 74.7687 62.2014 75.5024C62.0723 77.169 61.8824 78.8229 61.5656 80.4658C61.3184 81.746 60.9902 83.0158 60.6833 84.2832C60.4138 85.3969 60.1212 86.7337 59.2791 87.5728C58.6603 84.1793 58.5595 80.3671 59.7194 77.0777C60.0367 76.1777 62.0304 71.5613 60.2672 71.1144C59.2144 70.8472 58.3793 73.3623 58.0943 74.0267C57.1393 76.2513 56.3812 78.5581 55.5568 80.8327C55.0155 82.3262 54.4669 85.0196 53.1402 86.0577C52.6568 82.308 53.6796 78.5703 54.924 75.0686C55.1463 74.4433 57.9102 68.2104 55.5166 68.8857C54.21 69.2545 53.2957 72.044 52.7585 73.1216C51.4424 75.7613 49.8251 78.5057 47.6235 80.5015C47.5199 78.412 48.8556 76.1998 49.3521 74.1929C49.9229 71.886 50.6764 69.7403 51.8965 67.6894C54.1557 63.8924 57.1059 60.301 60.0195 56.9908C63.0275 53.5735 66.4567 50.5307 70.1943 47.9334C73.9463 45.3262 77.8917 43.672 82.3316 42.656C87.3028 41.5187 92.6972 40.8466 97.6748 42.3122C96.9794 43.2794 96.287 44.2488 95.5883 45.2133ZM177.814 50.1765C177.734 50.1925 177.654 50.2085 177.574 50.2245C177.508 49.8351 177.442 49.4456 177.377 49.0561C177.873 49.3476 177.452 49.846 177.814 50.1765ZM157.005 46.8119C162.883 44.2209 169.079 42.3078 175.347 40.9308C179.608 39.9947 184.44 39.5339 188.592 41.1752C193.386 43.0698 195.374 48.1508 195.584 53.0079C195.83 58.6694 193.906 64.0385 191.134 68.8917C190.468 70.0572 186.911 77.1003 185.416 76.316C185.92 74.9361 189.456 67.1546 187.114 66.4657C185.767 66.0697 184.723 69.8992 184.259 70.7608C183.944 71.3451 181.796 75.435 181.08 75.0848C181.756 72.9042 182.582 70.6548 182.517 68.3356C182.468 66.5839 181.554 65.7594 180.589 67.5739C178.482 71.5356 176.265 75.5993 173.199 78.9114C172.909 76.4553 174.224 73.7435 175.023 71.4769C175.65 69.6978 176.49 67.9252 176.69 66.0289C176.798 65.0018 176.767 62.9723 175.234 63.3285C173.9 63.6386 172.823 65.1666 171.768 65.9574C172.566 64.4508 173.335 62.9243 174.251 61.4841C175.035 60.2498 175.975 59.1239 176.754 57.8864C177.101 57.3353 177.294 56.7998 177.514 56.2179C177.73 55.6438 178.057 55.3247 178.426 54.8023C178.701 54.4136 178.851 54.0841 178.934 53.656C178.965 53.4964 178.855 53.2581 178.872 53.0773C178.902 52.7599 179.234 52.6755 179.124 52.311C179.707 53.1212 179.546 51.5287 179.535 51.2334C179.497 50.1947 179.916 49.07 179.397 48.104C178.305 46.0677 175.1 46.4627 173.206 46.6093C170.491 46.8192 167.095 47.437 164.771 48.9067C164.177 49.2823 163.803 49.0678 163.159 49.3563C162.569 49.6203 161.969 49.894 161.364 50.1512C159.792 50.819 158.291 51.6472 156.74 52.3625C156.822 51.2004 157.086 50.0668 156.902 48.9057C156.824 48.408 156.329 47.1094 157.005 46.8119ZM198.348 136.963C197.833 133.522 197.251 130.118 196.333 126.759C195.895 125.154 195.549 123.517 195.089 121.92C194.723 120.65 193.606 120.007 193.055 118.824C191.757 116.043 190.566 113.288 189.002 110.626C187.367 107.845 185.415 105.394 183.094 103.158C178.387 98.6218 172.949 95.156 167.686 91.3387C164.984 89.3788 162.182 87.6718 159.167 86.2358C157.951 85.6568 156.783 85.1946 155.497 84.818C154.165 84.4278 153.499 83.9719 153.006 82.6332C151.993 79.8839 150.094 78.984 147.5 77.9391C146.326 77.4667 145.259 76.812 144.103 76.3095C142.9 75.7871 141.628 75.3867 140.509 74.6886C135.42 71.5135 142.215 64.9043 144.917 62.5246C145.97 61.5975 147.161 60.646 148.502 60.1855C149.892 59.7084 151.786 59.4277 153.257 59.2969C154.255 59.2083 155.669 59.674 156.498 58.8805C157.167 58.2411 156.909 57.2174 156.826 56.4089C156.596 54.1404 158.459 53.963 160.334 53.5621C163.264 52.9359 166.003 51.6185 168.938 50.96C170.81 50.5395 176.01 49.2811 176.04 52.4418C176.063 54.838 174.271 57.248 173.145 59.2064C172.264 60.7375 171.324 62.2177 170.393 63.7163C169.696 64.8371 169.065 66.0668 169.076 67.421C169.084 68.4911 169.514 69.5478 170.769 69.3896C172.18 69.2118 173.237 67.8146 174.409 67.1383C174.457 68.602 173.35 70.2389 172.925 71.6171C172.423 73.2422 171.983 74.9317 171.7 76.6099C171.519 77.6807 171.022 81.8045 173.189 81.2755C174.65 80.9189 175.909 79.0354 176.76 77.9231C177.656 76.7514 178.46 75.5182 179.271 74.2875C179.778 75.7936 176.626 78.7071 178.226 80.0642C179.933 81.5129 182.889 76.3842 183.721 75.4369C183.865 76.5876 182.242 79.1361 184.079 79.6639C185.378 80.0376 187.151 78.2655 187.969 77.4315C189.466 75.9074 189.648 73.7556 190.582 71.9108C191.65 69.7987 193.021 67.8738 194.011 65.713C197.131 58.904 198.717 48.8164 193.797 42.3935C190.476 38.0569 184.715 37.3064 179.62 37.7075C173.823 38.1639 168.152 39.9289 162.728 41.9521C159.087 43.3107 155.504 44.8319 151.942 46.386C149.313 47.533 146.697 48.7096 144.089 49.9035C142.827 50.481 141.598 51.1058 140.371 51.7522C139.358 52.2856 138.155 52.9055 136.975 52.6015C137.824 51.3123 139.511 50.885 140.731 50.0593C142.173 49.0824 142.972 47.4132 143.501 45.7981C144.07 44.0586 144.574 43.6431 146.321 43.1889C148.068 42.7349 149.703 42.0028 151.263 41.0975C154.923 38.9743 158.968 37.7606 163.128 37.1023C166.808 36.5199 170.7 36.2576 174.137 34.6998C176.695 33.5402 179.914 30.974 176.8 28.3958C179.004 26.7921 182.913 24.1138 179.49 21.4908C176.838 19.4576 172.831 19.6151 169.668 19.6151C170.123 18.6962 171.579 18.3802 172.398 17.8806C173.408 17.2643 174.656 16.5973 175.006 15.3823C175.58 13.3957 173.412 12.8165 171.9 12.6173C166.152 11.8603 159.692 12.4293 154.247 14.4302C154.531 13.4283 155.947 12.6901 156.739 12.1527C157.796 11.4366 158.84 10.6533 159.611 9.61892C160.018 9.0732 160.321 8.48332 160.402 7.80148C160.489 7.0665 160.41 7.37709 160.189 7.18224C159.373 6.46254 158.225 6.00952 157.116 5.96123C153.922 5.82171 151.084 7.32492 148.053 8.06281C146.713 8.38893 145.462 8.52287 144.179 9.10159C142.632 9.79945 141.038 10.4092 139.507 11.1389C138.796 11.4781 138.127 11.8833 137.409 12.2056C136.758 12.4977 136.607 12.8643 136.082 13.3086C135.6 13.7163 135.065 13.5146 134.519 13.8197C133.763 14.2411 133.044 14.9764 132.341 15.5007C129.608 17.5426 127.026 19.8871 124.858 22.5303C121.116 27.093 117.399 34.1621 119.952 40.1422C120.549 41.5384 121.956 41.9875 122.305 43.5111C122.612 44.8464 122.66 46.172 123.054 47.4901C123.453 48.8256 121.853 50.0782 121.171 51.1655C120.103 52.8665 119.637 54.7912 119.036 56.685C118.849 56.1755 118.785 55.3162 118.261 55.0161C117.625 54.6528 117.617 55.4109 117.16 55.0692C116.623 54.6676 116.188 53.0996 115.875 52.4751C115.459 51.6421 115.031 50.8141 114.552 50.0153C112.596 46.7534 109.582 44.233 106.311 42.3513C99.6319 38.5089 91.5894 38.0974 84.1478 39.4934C76.6744 40.8951 70.1846 44.6169 64.4051 49.4677C61.2043 52.154 58.381 55.1304 55.8404 58.4498C53.3449 61.7105 50.7667 64.8866 48.9311 68.5831C47.9003 70.6587 46.9669 72.81 46.3903 75.0611C45.9427 76.8079 45.5077 78.9289 46.0771 80.7005C46.5644 82.2168 47.9728 83.0311 49.3942 82.0457C50.6413 81.1809 51.1978 79.6187 52.0494 78.422C52.2204 80.4049 49.8083 87.7052 53.3228 88.0488C55.9179 88.3029 56.8695 82.3267 57.4193 80.5959C57.7877 82.9251 57.0921 85.4411 57.9666 87.6905C58.3907 88.7819 59.7155 90.7578 60.8371 89.1898C61.3392 88.4878 61.3762 87.4866 61.556 86.6696C61.7819 85.6403 62.0653 84.6239 62.2893 83.5936C62.8539 80.997 63.1685 78.3606 63.6047 75.7412C64.3383 77.4427 64.2 80.5415 66.0186 81.5956C67.8629 82.6645 68.6922 79.6081 68.9027 78.371C69.2563 76.2913 69.0872 74.1606 69.3919 72.0731C69.7009 69.9579 70.4534 68.0509 71.5922 66.2473C75.6441 59.8317 83.2427 54.9848 90.8885 54.6647C90.4763 56.2512 88.1227 60.3391 91.1959 60.4063C91.8888 60.4216 92.5238 60.2973 93.2262 60.3728C94.0901 60.4655 95.1177 60.9083 95.9811 60.846C96.5047 60.8079 96.4846 60.5892 97.0216 60.9027C97.5842 61.2311 97.6583 61.7176 98.2735 60.9513C98.737 61.8129 99.8179 62.0425 100.636 62.4183C100.646 62.1958 100.655 61.9733 100.665 61.7506C101.172 62.4724 101.721 62.602 102.498 62.9553C102.996 63.1812 103.346 63.1116 103.794 63.2283C104.337 63.3695 104.608 63.6694 105.097 63.947C105.627 64.2481 106.556 64.2113 106.963 64.6835C107.682 65.5187 106.57 66.9287 106.169 67.6426C105.041 69.6493 104.298 71.9743 103.809 74.214C103.684 74.7852 103.565 75.1889 103.657 75.7555C103.737 76.2486 103.884 75.8924 103.793 76.3782C103.761 76.55 103.442 76.9115 103.385 77.0353C102.902 78.0845 102.973 79.4753 102.948 80.607C102.887 83.3121 103.23 85.8703 103.966 88.4715C104.29 89.6122 104.575 90.8017 104.982 91.9147C105.361 92.9486 105.935 93.5805 105.733 94.6984C105.3 97.096 107.807 97.7463 109.176 99.2483C109.795 99.9289 109.906 100.798 110.046 101.674C110.246 102.938 110.662 104.099 111.176 105.27C112.076 107.322 113.31 110.002 115.003 111.517C115.764 112.198 116.462 112.952 117.328 113.461C117.733 113.699 118.239 114.28 118.69 114.392C119.117 114.498 118.964 114.044 119.428 114.42C119.783 114.707 119.764 115.135 120.257 115.462C120.73 115.774 121.239 116.036 121.737 116.306C122.749 116.855 123.842 117.374 124.763 118.068C125.655 118.74 126.544 119.448 127.44 120.126C128.264 120.75 128.844 121.527 129.11 122.538C130.281 126.982 126.176 130.737 122.674 132.596C118.142 135 113.005 134.493 108.344 132.743C103.511 130.928 98.7399 127.599 95.8612 123.258C95.1458 122.179 94.4204 121.023 93.8779 119.845C93.5209 119.071 93.4185 118.118 92.9384 117.407C91.8616 115.812 89.5489 118.098 88.4293 118.697C86.7807 111.729 83.6152 103.862 76.2557 101.368C69.2795 99.0042 60.5385 101.813 56.0058 107.566C54.9375 108.922 53.4086 111.12 54.1281 112.935C54.7542 114.515 56.8148 114.872 58.3006 115.03C60.4189 115.256 62.6482 114.985 64.6926 114.409C65.2177 114.262 66.1172 113.841 66.6742 114.003C67.5396 114.256 67.5069 115.516 67.9438 116.172C68.3858 116.836 69.0271 116.766 69.1766 115.914C69.319 115.101 68.5711 114.336 69.2039 113.613C69.5561 113.211 70.7448 112.879 71.2396 113.192C71.6535 113.454 71.6905 114.277 72.0194 114.655C72.9262 115.699 73.0248 114.007 73.2105 113.294C73.4896 112.221 74.7088 111.387 75.8921 111.867C76.6327 112.167 76.8178 113.306 77.0096 113.994C77.4015 115.399 77.6713 116.755 78.2019 118.124C78.6069 119.169 80.323 122.077 79.5001 123.096C78.9917 123.726 77.7083 124.078 76.9706 124.321C75.9425 124.659 74.709 124.862 73.7654 125.394C73.3217 125.645 72.343 126.328 72.2059 126.845C71.9739 127.722 73.0398 127.761 73.5358 127.317C75.0873 131.923 76.9195 136.455 79.7694 140.426C82.629 144.41 86.3418 147.714 90.2549 150.631C97.908 156.336 106.91 160.136 116.444 161.041C121.32 161.504 126.362 161.097 130.978 159.404C131.498 159.213 132.026 158.991 132.577 158.902C133.075 158.82 133.587 158.993 134.07 158.913C134.696 158.809 134.528 158.567 134.926 158.232C135.293 157.923 135.867 157.816 136.274 157.549C138.301 156.218 140.139 154.348 141.723 152.525C144.7 149.103 147.65 144.836 149.053 140.486C150.462 136.116 150.529 131.473 150.953 126.941C151.215 124.138 150.372 121.535 149.911 118.795C149.44 115.99 148.89 113.232 148.242 110.466C147.985 109.372 147.983 108.581 148.841 107.785C149.509 107.165 150.343 106.677 151.231 107.1C152.161 107.542 153.004 108.508 153.853 109.107C154.729 109.726 155.139 110.551 156.011 109.521C156.011 110.415 156.441 110.684 157.194 110.978C158.203 111.372 159.145 111.794 160.058 112.394C162.033 113.692 163.525 115.656 164.639 117.718C165.827 119.916 167.195 122.166 168.02 124.531C168.92 127.109 169.033 130.014 169.123 132.721C169.218 135.551 169.246 138.401 169.085 141.228C168.932 143.903 168.783 146.906 167.995 149.476C167.126 152.31 164.313 155.521 168.118 157.411C170.787 158.737 174.022 158.417 176.648 159.782C176.309 160.324 176.081 160.938 175.712 161.462C175.247 162.124 174.834 162.118 174.116 162.383C172.802 162.868 173.438 163.658 173.303 164.699C173.183 165.623 171.948 166.676 171.359 167.355C170.471 168.377 169.554 169.39 168.838 170.545C167.286 173.048 167.287 175.776 168.708 178.334C169.958 180.583 171.743 183.14 173.938 184.536C176.334 186.06 179.158 187.375 181.788 188.433C184.153 189.385 186.655 189.993 189.184 190.3C191.08 190.53 193.689 190.752 195.206 189.324C196.597 188.015 196.927 185.933 196.275 184.193C194.746 180.114 190.077 177.66 186.682 175.35C187.758 174.974 189.175 174.847 190.011 173.99C191.056 172.919 190.091 172 188.891 172.012C187.85 172.023 186.789 172.362 185.8 172.663C184.92 172.93 183.305 173.677 182.414 173.139C181.237 172.427 182.525 171.709 183.161 171.388C184.354 170.784 184.288 170.016 183.133 169.387C181.267 168.371 183.941 168.327 184.22 167.411C184.573 166.253 183.103 165.139 183.206 163.876C183.304 162.669 183.676 160.551 184.617 159.689C185.266 159.094 186.378 159.146 187.193 159.014C188.511 158.801 189.802 158.408 191.073 158.003C191.46 160.277 193.268 158.233 193.981 157.325C195.325 155.615 195.881 153.546 196.59 151.526C197.388 149.251 198.067 147.017 198.49 144.638C198.95 142.045 198.734 139.551 198.348 136.963Z" fill="#323232"/>
<path fill-rule="evenodd" clip-rule="evenodd" d="M109.154 164.214C108.784 164.631 107.014 164.055 106.529 163.994C105.087 163.814 103.735 163.86 102.308 163.5C101.215 163.224 99.6136 162.614 98.5488 162.777C98.4593 162.791 98.5638 163.088 98.4114 163.086C98.2135 163.084 98.1078 162.938 97.9097 162.862C97.4404 162.682 97.0703 162.275 96.5771 162.63C96.3439 161.528 95.9417 162.493 95.3882 162.485C94.8045 162.477 95.0181 161.782 94.4064 161.692C93.9204 161.621 93.7177 161.922 93.1804 161.715C92.4361 161.427 91.9083 161.01 91.0912 160.81C90.1671 160.584 89.5564 160.26 88.7059 159.883C87.9623 159.553 87.1381 159.449 86.3842 159.138C84.4333 158.335 82.5228 157.341 80.6696 156.335C77.1445 154.423 73.6641 152.624 70.4958 150.13C69.3361 149.217 68.5183 148.206 67.5993 147.069C66.9755 146.297 65.9019 144.816 64.7358 145.062C65.0086 144.306 64.281 143.649 63.8021 143.183C63.0623 142.462 62.4312 141.701 61.8192 140.864C61.2433 140.077 60.8388 139.282 60.4816 138.381C60.2106 137.699 60.0358 137.017 59.2927 137.7C57.8125 139.06 59.7128 141.744 60.5338 142.939C61.8918 144.915 63.2433 146.924 64.8596 148.7C67.8736 152.012 71.3085 155.027 75.1738 157.293C77.1711 158.465 79.2753 159.5 81.4422 160.316C83.3779 161.045 85.2896 161.428 87.276 161.95C88.4596 162.261 89.5856 162.671 90.7934 162.888C91.2629 162.972 91.7249 163.086 92.2024 163.11C92.3261 163.117 92.5302 162.954 92.6088 162.961C92.799 162.978 92.9441 163.152 93.2218 163.213C93.5529 163.286 93.8812 163.255 94.1393 163.365C94.2443 163.41 94.5034 163.737 94.7779 163.839C95.2247 164.004 95.5704 164.08 96.0283 163.941C96.4163 163.823 96.7314 163.418 97.1666 163.459C97.1059 163.719 97.0449 163.979 96.984 164.239C97.4269 164.07 97.6335 164.224 98.0399 164.145C97.9612 164.16 98.8906 163.946 98.7972 163.921C98.8616 163.939 99.1013 164.378 99.3318 164.487C100.284 164.939 101.446 164.602 102.453 164.678C103.486 164.756 104.499 164.908 105.54 164.983C106.306 165.038 109.906 165.503 109.985 164.19C109.706 164.125 109.429 164.133 109.154 164.214Z" fill="#323232"/>
<path fill-rule="evenodd" clip-rule="evenodd" d="M206.193 43.5889C206.491 41.0438 205.645 38.9191 204.987 36.5274C204.447 34.5674 203.778 32.6153 202.412 31.0432C201.17 29.6156 199.292 27.7906 197.28 27.6937C195.716 27.6185 194.647 28.8432 196.012 29.977C197.373 31.1078 198.61 31.8388 199.687 33.3138C200.927 35.0131 201.862 36.9312 202.556 38.9118C203.82 42.5198 204.538 46.7746 203.343 50.4811C203.224 50.8485 202.756 51.8995 203.225 52.1946C203.761 52.5322 204.175 51.724 204.322 51.3779C204.459 51.0551 205.073 48.0017 205.619 48.4092C205.584 47.9891 205.403 47.7925 205.429 47.3772C205.444 47.1372 205.651 46.7962 205.67 46.4852C205.732 45.4663 206.077 44.5884 206.193 43.5889Z" fill="#323232"/>
<path fill-rule="evenodd" clip-rule="evenodd" d="M112.117 30.2783C113.759 30.3138 113.816 26.6296 114.327 25.6301C114.567 25.1609 114.817 24.5964 115.083 24.1588C115.289 23.8193 115.542 23.7681 115.693 23.4984C116.198 22.6027 115.847 21.8908 115.62 21.0249C116.217 20.929 116.419 20.9315 116.633 20.3352C116.697 20.1592 116.545 19.8397 116.671 19.7072C116.843 19.5248 117.135 19.6236 117.311 19.4705C117.357 19.4304 117.34 19.0462 117.395 18.9021C117.521 18.5763 117.621 18.4515 117.863 18.2025C118.188 17.8671 119.072 17.6848 118.779 17.098C118.998 17.0888 119.206 17.0379 119.405 16.9452C119.468 16.6522 118.872 16.7636 118.921 16.5952C119.024 16.2381 119.584 15.7682 119.939 15.6953C119.636 15.5376 119.333 15.3797 119.031 15.2217C119.791 15.0616 119.77 14.6101 120.544 15.1227C120.459 14.4072 121.435 13.7506 121.857 13.2899C122.652 12.424 123.542 11.6894 124.421 10.9099C125.186 10.2323 125.892 9.50983 126.606 8.78081C126.971 8.40773 127.341 8.0402 127.761 7.72821C128.189 7.40946 128.524 7.47201 128.918 7.25419C129.546 6.90647 129.927 6.20111 130.559 5.84662C130.844 5.68677 130.966 5.86763 131.173 5.66745C131.367 5.4803 131.542 4.86333 131.429 4.62451C130.955 3.61948 127.527 6.28539 126.989 6.63191C120.453 10.8428 115.191 16.6469 112.328 23.9296C111.939 24.9192 109.722 30.2257 112.117 30.2783Z" fill="#323232"/>
<path fill-rule="evenodd" clip-rule="evenodd" d="M110.244 164.849C110.69 164.751 111.138 164.654 111.797 164.51C110.619 163.864 110.522 163.897 110.244 164.849Z" fill="#323232"/>
<path fill-rule="evenodd" clip-rule="evenodd" d="M133.335 48.3888C134.212 48.3059 136.124 47.401 135.835 46.1674C135.568 45.0288 134.535 46.2558 133.828 46.1273C133.073 45.9905 132.723 44.3773 132.088 46.0226C131.747 46.906 132.25 48.4916 133.335 48.3888Z" fill="#323232"/>
</svg>
