<svg width="265" height="199" viewBox="0 0 265 199" fill="none" xmlns="http://www.w3.org/2000/svg">
<path fill-rule="evenodd" clip-rule="evenodd" d="M168.989 163.766C159.812 165.772 150.635 167.779 141.458 169.786C140.166 170.068 138.875 170.351 137.583 170.633C137.967 158.785 138.351 146.937 138.736 135.089C138.791 133.378 138.847 131.667 138.902 129.956C136.776 131.818 134.544 133.603 132.509 135.565C129.905 138.075 127.4 140.674 124.72 143.109C120.108 147.299 115.264 151.362 109.924 154.598C104.121 158.112 97.4282 160.374 90.6908 161.155C88.2091 161.442 85.9621 161.372 83.5037 161.116C81.3643 160.893 79.2253 160.67 77.0857 160.447C76.2242 160.357 75.3623 160.267 74.5006 160.177C74.2923 160.156 73.6148 160.204 73.4488 160.064C73.1472 159.81 72.9899 158.655 72.8711 158.288C72.376 156.761 71.884 155.233 71.3953 153.703C70.0667 149.548 68.7566 145.386 67.4916 141.21C66.4085 137.635 65.2694 134.045 64.4605 130.395C64.3657 129.967 64.158 129.407 64.1931 128.965C64.2441 128.319 63.9382 128.455 64.7896 128.446C66.7912 128.424 68.9075 128.91 70.911 129.053C72.974 129.199 75.0413 129.286 77.1097 129.307C88.0621 129.418 100.668 128.231 109.541 121.136C112.515 118.757 115.504 116.007 117.809 112.949C121.059 108.637 122.831 102.895 123.263 97.5739C123.748 91.5949 122.741 85.4283 121.273 79.6405C120.975 78.4693 121.042 78.0311 121.298 76.8055C121.51 75.7881 121.721 74.7706 121.933 73.7531C121.992 73.4708 122.055 72.2837 122.289 72.1097C122.697 71.8054 124.667 72.1395 125.145 72.1456L131.08 72.2198C134.902 72.2676 138.723 72.3154 142.545 72.3632C144.53 72.3881 146.512 72.6984 148.485 72.9037C152.713 73.3432 156.941 73.783 161.169 74.2225C162.016 74.3107 162.863 74.3989 163.711 74.4869C163.168 79.3013 162.625 84.1155 162.081 88.9297C161.677 92.5199 163.089 96.0791 163.841 99.5885C165.537 107.494 167.188 115.515 167.817 123.589C168.409 131.191 168.402 138.875 168.595 146.495C168.741 152.251 168.873 158.008 168.989 163.766Z" fill="#6951FF"/>
<path fill-rule="evenodd" clip-rule="evenodd" d="M109.987 18.4659C109.987 18.0239 110.118 17.7144 110.366 17.3481C110.939 17.8459 111.836 20.3142 112.79 18.7207C112.98 18.4037 112.989 17.2233 113.64 17.5916C113.946 17.7646 113.862 18.5976 113.84 18.88C113.763 19.8852 113.307 21.2876 112.011 21.2304C110.688 21.172 109.951 19.5655 109.987 18.4659Z" fill="#323232"/>
<path fill-rule="evenodd" clip-rule="evenodd" d="M110.785 16.2578C108.585 16.6637 109.463 14.6838 111.074 14.5195C111.671 14.4585 112.702 14.4905 112.56 15.3729C112.435 16.1533 111.366 16.1503 110.785 16.2578Z" fill="#323232"/>
<path fill-rule="evenodd" clip-rule="evenodd" d="M104.69 22.7825C103.997 22.8483 102.856 21.8713 104.006 21.7522C104.537 21.6973 105.653 22.6908 104.69 22.7825Z" fill="#323232"/>
<path fill-rule="evenodd" clip-rule="evenodd" d="M225.466 34.3596C224.936 34.7655 223.348 33.4599 222.829 33.2292C220.807 32.3306 218.483 31.8336 216.31 31.4462C212.009 30.6794 207.601 30.2476 203.234 30.11C200.57 30.026 198.049 30.1191 195.414 30.4033C194.758 30.4739 190.321 31.2147 190.212 29.9977C190.021 27.8607 201.76 27.9622 202.877 27.9658C207.959 27.9832 212.549 28.5476 217.486 29.6554C218.821 29.9551 227.033 33.1597 225.466 34.3596Z" fill="#323232"/>
<path fill-rule="evenodd" clip-rule="evenodd" d="M85.1368 69.668C82.4639 70.4591 79.4144 70.3512 76.9066 69.0768C76.4759 68.8578 75.4288 68.3925 75.9836 67.8458C76.5804 67.2577 78.2518 68.2553 78.9026 68.3831C82.0616 69.0032 86.0666 67.7743 88.3041 65.4696C89.4147 64.3262 90.0414 62.8809 90.3059 61.3241C90.4566 60.4363 90.534 59.4972 90.4797 58.5971C90.4225 57.6436 90.0327 56.6185 90.2936 55.6694C91.4588 56.3607 91.4725 58.1811 91.5554 59.3565C91.6601 60.8387 91.6509 62.2637 91.2349 63.7079C90.3786 66.6812 88.08 68.797 85.1368 69.668Z" fill="#323232"/>
<path fill-rule="evenodd" clip-rule="evenodd" d="M37.3809 148.867C37.4658 149.094 37.5458 149.306 37.6391 149.555C37.9994 148.893 37.9994 148.893 37.3809 148.867ZM40.7404 166.166C42.0774 166.784 43.5669 165.124 44.2785 164.199C45.4649 162.657 45.9926 160.88 46.4603 159.024C46.9778 156.97 47.5755 154.94 48.0563 152.877C48.2702 151.957 48.4749 151.035 48.7152 150.121C48.9143 149.365 49.656 148.018 49.3437 147.233C48.8159 145.905 46.2232 145.54 46.3999 143.759C46.5621 142.123 49.4152 143.871 50.1002 144.218C51.6651 145.011 50.8514 144.01 50.0954 143.43C49.5225 142.99 46.858 141.087 48.2528 140.127C49.158 139.504 51.127 141.401 51.8771 141.751C52.665 142.118 52.9519 142.022 53.5905 141.375C54.0449 140.915 54.7204 140.332 55.0715 139.804C55.939 138.499 54.7769 135.942 54.5983 134.447C54.5585 134.114 54.8088 132.291 54.5764 132.075C54.271 131.791 52.9633 131.991 52.4827 131.919C50.7593 131.659 49.0591 131.464 47.3331 131.248C46.1928 131.106 42.8014 130.246 42.1302 131.43C41.5974 132.368 41.768 134.169 41.7678 135.172C41.767 137.283 41.7604 139.35 41.5607 141.468C41.1244 146.095 40.7971 150.718 40.3767 155.345C40.1725 157.59 39.7503 159.81 39.5385 162.055C39.4071 163.447 39.1995 165.454 40.7404 166.166ZM66.7012 132.001C67.9669 135.168 69.0141 138.432 70.1092 141.66C70.6156 143.153 71.0827 144.66 71.5965 146.15C72.0887 147.578 72.8805 148.863 73.2864 150.323C74.0529 153.079 74.6978 155.817 75.6057 158.526C75.7365 158.917 75.6597 159.78 75.8942 160.056C76.1825 160.395 77.4588 160.345 77.9109 160.402C79.7599 160.635 81.6275 160.814 83.4931 160.736C81.7476 158.534 79.7897 156.513 77.7827 154.543C76.0253 152.819 73.6517 150.861 73.3656 148.234C72.985 144.743 76.6256 145.444 78.8908 145.656C82.0506 145.951 85.6322 147.233 88.7947 146.522C86.6028 143.557 83.2805 141.345 80.529 138.931C79.4558 137.99 78.3269 136.955 77.7788 135.6C77.4997 134.91 77.361 134.114 77.5504 133.38C77.7804 132.491 78.291 132.329 79.0314 131.908C74.6414 131.908 70.2015 131.751 66.0196 130.243C65.8534 130.944 66.4659 131.412 66.7012 132.001ZM86.328 159.979C87.0947 161.022 88.4758 160.738 89.6126 160.672C91.2817 160.575 92.9462 160.372 94.5847 160.038C96.2387 159.7 97.898 159.247 99.4761 158.641C99.8079 158.513 100.841 158.222 100.962 157.822C101.073 157.461 100.435 156.719 100.297 156.443C99.8541 155.561 99.6346 153.989 100.634 153.36C101.46 152.84 102.678 153.361 103.511 153.606C104.744 153.97 106.215 154.704 107.467 154.146C109.065 153.433 110.647 152.408 112.15 151.51C109.436 149.043 106.771 146.527 103.988 144.136C101.439 141.946 98.3683 139.425 96.7752 136.408C96.1752 135.271 95.7867 133.661 96.5225 132.477C97.1822 131.416 98.5126 131.379 99.6341 131.476C102.965 131.765 106.247 132.593 109.525 133.21C110.628 133.418 117.725 135.065 117.744 133.274C117.748 132.887 117.013 132.007 116.825 131.7C116.399 131.003 115.963 130.313 115.502 129.638C114.429 128.066 113.262 126.56 112.105 125.049C111.521 124.287 110.774 122.698 109.657 122.868C109.147 122.945 108.636 123.512 108.225 123.806C107.516 124.313 106.781 124.781 106.027 125.217C102.978 126.976 99.6114 127.87 96.219 128.7C95.4498 128.888 91.7762 129.266 91.4154 130.025C91.2352 130.404 91.6501 131.3 91.6609 131.71C91.677 132.328 91.5409 132.969 91.202 133.492C90.2177 135.01 88.0654 134.93 86.4804 134.885C84.4669 134.828 82.4054 134.728 80.4013 134.974C82.3951 136.82 84.464 138.582 86.5453 140.327C88.0121 141.557 89.6466 142.722 90.7992 144.27C91.786 145.595 92.5203 147.851 91.26 149.279C89.9112 150.807 86.8705 150.13 85.1598 149.869C83.1653 149.566 81.1884 149.194 79.2112 148.798C78.5413 148.664 77.8495 148.509 77.1647 148.473C76.3458 148.43 76.0456 148.383 76.613 149.144C78.0225 151.033 80.1426 152.391 81.6268 154.235C82.3257 155.104 83.1407 155.796 83.8756 156.63C84.7913 157.668 85.5098 158.866 86.328 159.979ZM113.765 149.656C114.728 150.636 115.816 149.242 116.597 148.604C117.768 147.645 118.91 146.654 120.099 145.717C122.349 143.943 124.692 142.297 126.808 140.356C127.475 139.744 128.571 139.059 128.774 138.122C129.032 136.926 128.411 135.857 129.046 134.654C130.248 132.377 132.734 134.24 134.355 132.929C135.188 132.256 135.775 131.279 136.431 130.445C137.212 129.453 138.21 128.49 138.66 127.295C139.128 126.052 139.189 125.457 138.318 124.407C137.38 123.275 136.241 122.241 135.488 120.967C134.97 120.09 134.546 118.8 135.361 117.951C136.02 117.265 137.16 117.449 138.012 117.502C139.252 117.579 140.486 117.695 141.706 117.941C142.67 118.136 144.51 118.645 145.435 118.116C147.617 116.868 143.694 113.653 142.825 112.699C140.883 110.567 138.847 108.525 136.828 106.467C134.961 104.565 133.075 102.661 131.322 100.652C130.017 99.1558 128.488 97.0448 129.188 94.9334C129.755 93.2219 131.664 93.1678 133.184 93.2866C135.41 93.4612 137.624 93.8258 139.84 94.0904C141.492 94.2877 144.67 94.9083 146.079 93.5948C147.536 92.2375 144.426 88.2046 143.623 86.9965C141.924 84.4435 139.967 82.074 137.939 79.7787C136.955 78.6638 135.951 77.5661 134.947 76.4689C134.075 75.5158 133.276 74.3151 132.274 73.4968C131.178 72.6018 129.542 72.7069 128.2 72.5723C126.788 72.4302 125.286 72.221 123.866 72.226C122.574 72.2306 122.893 73.4762 122.839 74.5559C122.826 74.8147 122.477 77.1092 122.87 77.1454C122.913 76.6344 122.955 76.1235 122.998 75.6125C124.102 76.0659 124.921 77.0416 125.777 77.8346C126.631 78.6258 127.791 79.4315 128.152 80.5949C129.169 83.8794 125.11 82.7144 123.409 82.3808C123.791 86.1116 124.745 89.7378 125.27 93.4432C125.491 94.9959 125.401 96.4013 125.229 97.9453C125.131 98.8255 125.143 99.7138 125.035 100.593C124.95 101.291 124.626 102.089 124.756 102.79C124.993 104.074 126.612 105.421 127.332 106.507C128.287 107.949 129.13 109.51 129.571 111.192C130.369 114.229 129.01 116.412 125.835 116.704C124.403 116.836 122.818 116.614 121.4 116.412C120.18 116.238 118.623 115.333 117.51 116.152C117.055 116.486 116.741 117.08 116.342 117.489C115.763 118.082 115.112 118.612 114.473 119.138C113.87 119.634 112.221 120.515 112.384 121.275C112.506 121.848 113.5 122.667 113.836 123.091C114.278 123.647 114.716 124.205 115.142 124.773C116.225 126.216 117.256 127.705 118.19 129.249C119.32 131.116 120.906 134.453 118.995 136.388C117.888 137.509 116.05 137.311 114.639 137.09C112.715 136.79 110.804 136.403 108.914 135.936C107.023 135.47 105.115 135.144 103.201 134.789C101.565 134.486 99.6637 133.906 98.0289 134.506C102.805 140.07 108.642 144.442 113.765 149.656ZM141.63 123.92C142.244 123.202 142.873 122.404 143.416 121.627C143.917 120.912 143.876 120.6 143.032 120.377C142.506 120.238 141.923 120.374 141.387 120.311C140.829 120.246 140.272 120.066 139.725 119.943C139.112 119.805 138.423 119.594 137.789 119.596C137.076 119.598 137.005 119.533 137.364 120.175C137.856 121.056 138.808 121.825 139.487 122.559C139.914 123.02 140.935 124.733 141.63 123.92ZM140.84 134.009C141.163 134.721 143.491 134.199 143.866 133.71C144.685 132.64 142.59 130.149 142.039 129.248C141.209 129.799 140.921 130.527 140.872 131.489C140.837 132.155 140.564 133.404 140.84 134.009ZM139.963 169.346C141.354 169.484 143.177 168.681 144.451 168.24C146.216 167.63 148.051 167.194 149.871 166.788C153.528 165.971 157.308 165.857 160.975 165.074C158.644 162.04 155.827 159.426 153.458 156.424C152.6 155.336 151.337 153.776 151.735 152.283C152.126 150.819 153.637 151.143 154.759 151.48C156.264 151.933 157.719 152.563 159.19 153.112C159.886 153.371 162.994 154.865 163.569 153.896C163.957 153.242 161.75 150.808 161.429 150.387C160.227 148.814 158.923 147.325 157.608 145.846C155.156 143.088 152.372 140.266 150.476 137.084C149.054 134.698 148.578 130.932 152.417 131.083C154.002 131.145 155.617 131.637 157.164 131.96C158.593 132.259 160.704 132.919 162.162 132.55C163.697 132.162 161.932 129.869 161.449 129.113C160.428 127.514 159.229 126.021 158.104 124.495C156.894 122.853 155.604 121.246 154.472 119.549C153.768 118.493 152.627 116.651 153.266 115.316C154 113.784 156.522 114.731 157.756 114.964C160.095 115.404 162.388 116.137 164.79 116.137C164.766 114.931 163.531 113.87 162.82 113.014C161.754 111.729 160.655 110.485 159.489 109.289C158.668 108.448 157.771 107.079 156.812 106.43C155.83 105.768 155.249 107.863 154.863 108.642C152.049 114.323 148.974 119.893 145.179 124.989C144.416 126.015 143.294 126.844 143.935 128.154C144.602 129.516 145.481 130.708 145.738 132.246C145.927 133.382 145.828 134.96 144.954 135.823C144.107 136.659 142.863 136.47 141.817 136.797C140.706 137.144 141.019 138.13 141.009 139.116C140.992 140.841 140.971 142.566 140.982 144.291C140.991 145.825 141.012 147.358 141.03 148.891C141.049 150.512 141.444 151.662 141.886 153.189C142.117 153.983 142.196 154.805 141.941 155.604C141.722 156.291 141.363 156.423 140.941 156.908C140.119 157.854 140.382 159.651 140.281 160.854C140.209 161.715 139.006 169.252 139.963 169.346ZM143.386 187.782C143.736 188.222 144.992 188.081 145.482 188.113C146.412 188.174 147.344 188.174 148.275 188.225C150.261 188.333 152.221 188.609 154.213 188.644C155.85 188.673 157.547 188.753 159.12 188.865C159.895 188.92 160.767 188.584 161.521 188.741C162.264 188.897 162.548 189.114 163.352 189.049C165.357 188.889 167.407 189.091 169.415 189.14C171.272 189.186 173.146 189.045 175.006 189.021C177.099 188.993 179.196 189.069 181.289 189.091C183.528 189.114 185.814 188.981 188.025 189.406C187.82 188.465 187.834 187.356 187.074 186.652C186.296 185.931 185.005 185.768 184.003 185.65C182.545 185.479 181.099 185.44 179.643 185.377C178.734 185.339 177.859 185.03 176.955 184.927C175.659 184.78 174.263 184.865 172.957 184.844C172.509 184.837 172.211 184.671 171.8 184.608C171.317 184.535 170.846 184.658 170.32 184.53C169.229 184.263 168.116 183.984 167.057 183.628C166.411 183.411 166.438 183.226 165.908 183.731C165.576 184.047 165.372 184.645 165.092 185.017C164.629 185.631 163.801 186.366 163.088 185.626C162.331 184.843 163.142 183.965 162.974 183.152C162.844 182.524 161.652 181.973 161.057 182.21C160.234 182.537 159.99 184.24 159.108 184.432C157.999 184.675 158.298 182.995 158.449 182.37C158.842 180.734 158.701 180.681 157.395 179.591C156.4 178.761 156.122 178.437 154.887 179.058C153.643 179.683 152.284 179.955 150.896 180.104C149.258 180.281 147.73 180.096 146.127 179.768C145.372 179.614 143.902 179.035 143.409 179.828C142.853 180.721 143.424 182.909 143.445 183.944C143.46 184.714 143.507 185.507 143.433 186.276C143.395 186.673 143.104 187.426 143.386 187.782ZM163.484 164.442C164.636 164.342 165.764 164.036 166.912 163.897C167.331 163.847 168.23 163.862 168.576 163.566C168.999 163.203 168.801 163.239 168.714 162.712C168.304 160.206 168.147 157.779 168.207 155.232C168.253 153.326 168.624 150.361 167.489 148.704C166.152 146.751 164.119 145.306 162.763 143.346C162.029 142.286 161.006 139.442 163.328 139.518C164.252 139.548 165.24 140.134 166.137 140.351C167.406 140.659 167.484 140.35 167.372 139.199C167.108 136.496 167.186 133.782 166.911 131.079C166.628 128.299 166.324 125.518 166.012 122.741C165.86 121.392 165.791 119.964 165.529 118.635C165.275 117.343 164.021 118.038 162.924 117.985C160.018 117.846 157.194 116.063 154.274 116.342C156.708 120.913 160.86 124.384 163.222 129.015C164.038 130.616 164.798 133.119 162.785 134.188C160.542 135.379 157.118 133.87 154.81 133.486C154.002 133.352 150.793 132.414 150.644 133.664C150.564 134.338 151.87 135.912 152.196 136.399C152.94 137.507 153.797 138.536 154.601 139.6C156.209 141.725 158.121 143.574 159.788 145.654C161.242 147.468 163.026 149.246 164.198 151.258C165.297 153.147 165.509 156.551 162.417 156.179C159.251 155.798 156.497 153.327 153.27 153.254C154.919 155.429 156.802 157.41 158.633 159.429C159.513 160.401 160.378 161.386 161.213 162.398C161.748 163.045 162.482 164.529 163.484 164.442ZM167.804 144.729C167.735 143.824 167.953 143.319 167.133 142.823C166.604 142.504 165.354 142.008 164.774 142.227C164.993 142.482 167.499 145.48 167.767 145.238C167.833 145.075 167.846 144.905 167.804 144.729ZM163.436 103.123C163.285 101.383 162.935 99.6628 162.86 97.9165C162.809 96.7359 162.977 95.1649 162.178 94.1802C161.211 95.9907 160.561 97.949 159.595 99.7605C159.181 100.536 158.72 101.284 158.293 102.051C158.001 102.575 157.144 103.701 157.211 104.326C157.326 105.393 159.446 106.923 160.133 107.684C161.596 109.308 163.028 110.96 164.522 112.556C164.32 109.394 163.709 106.277 163.436 103.123ZM163.478 74.852C163.074 74.2845 160.258 74.5528 159.65 74.4986C157.737 74.3294 155.659 74.1786 153.807 73.6645C156.746 77.3036 159.388 81.2432 161.114 85.6125C161.77 83.8274 162.201 81.9689 162.601 80.1125C162.805 79.1682 162.98 78.2202 163.131 77.2661C163.2 76.8346 163.739 75.2196 163.478 74.852ZM154.502 101.483C155.29 101.876 157.677 95.9952 157.783 95.3434C156.651 95.6022 152.143 95.8135 151.878 97.2429C151.754 97.9107 152.525 98.7167 152.862 99.1997C153.274 99.7909 153.851 101.158 154.502 101.483ZM147.349 95.4969C145.682 97.5872 142.57 97.1647 140.243 96.8677C138.666 96.6662 137.105 96.3952 135.534 96.1634C133.983 95.9344 132.102 95.5111 130.598 96.1502C133.037 99.581 136.176 102.418 139.141 105.376C140.66 106.894 142.128 108.461 143.589 110.034C145.022 111.578 146.165 113.52 147.685 114.95C148.975 112.592 150.196 110.199 151.44 107.816C151.962 106.815 152.635 105.914 153.171 104.925C153.762 103.835 153.852 103.334 153.099 102.346C151.977 100.876 150.399 98.8846 150.625 96.9099C150.888 94.6043 153.626 94.3511 155.418 93.8538C156.319 93.604 157.352 93.4144 158.176 92.9594C159.222 92.3809 159.269 91.426 159.615 90.3898C160.034 89.1355 160.418 88.3208 159.976 87.0015C159.608 85.9038 159.057 84.814 158.548 83.7767C157.479 81.596 156.141 79.5883 154.723 77.6223C153.791 76.3302 152.692 73.7521 151.024 73.407C149.841 73.1622 148.349 73.2628 147.135 73.1957C145.721 73.1176 144.304 73.0735 142.889 73.0122C139.956 72.8852 136.815 72.6076 133.896 72.9948C137.333 76.7139 140.808 80.3401 143.866 84.3907C145.835 86.9994 150.036 92.1266 147.349 95.4969ZM160.504 67.3611C158.911 64.4028 157.43 61.4774 155.271 58.894C153.405 56.6597 151.711 54.3285 149.774 52.1468C145.709 47.5694 140.434 44.1867 135.516 40.6302C134.403 39.8253 132.98 39.3867 131.759 38.6848C130.248 37.8166 128.629 37.092 126.994 36.4917C124.028 35.4032 120.622 34.8476 117.464 35.0687C113.973 35.3127 111.339 36.5469 109.172 39.2716C107.047 41.9421 106.718 44.8902 106.66 48.2468C106.633 49.8417 106.613 51.446 106.629 53.0412C106.644 54.6201 106.849 55.618 107.815 56.8343C108.611 57.8351 110.287 58.3405 111.43 58.8032C112.986 59.4325 114.442 60.1341 115.893 60.9807C116.521 61.347 118.012 62.7254 118.786 62.5791C119.927 62.3634 120.207 60.3369 120.32 59.4377C120.745 56.0738 120.7 52.6337 120.494 49.2534C120.389 47.5224 119.584 44.9216 120.04 43.17C120.229 42.4423 120.661 42.1843 121.195 42.8268C121.855 43.6216 122.018 45.487 122.188 46.4456C122.789 49.8217 122.749 53.2157 122.769 56.6296C122.777 57.9862 123.534 58.6896 124.03 59.8983C124.664 61.4436 125.183 63.0563 125.496 64.6983C125.678 65.6513 125.806 66.6223 125.792 67.5946C125.785 68.1285 125.522 68.9778 125.727 69.485C126.124 70.4692 128.594 69.9189 129.421 69.9004C133.111 69.8183 136.79 69.6216 140.485 69.574C147.966 69.4779 155.499 70.5899 162.825 72.0019C162.066 70.4478 161.325 68.8843 160.504 67.3611ZM157.289 51.5672C157.876 51.663 159.844 52.7402 160.185 52.0573C160.475 51.4737 159.038 49.3836 158.823 48.8269C158.325 47.5343 158.204 46.0912 157.911 44.7418C157.726 43.8915 157.708 42.2109 157.248 41.4533C156.735 40.6062 155.537 41.0316 154.686 41.057C153.235 41.1003 151.771 41.0995 150.319 41.0945C148.843 41.0892 147.368 41.0506 145.892 41.0551C144.383 41.0596 142.892 40.809 141.395 40.809C141.563 41.3517 142.265 41.6165 142.706 41.8719C143.385 42.2656 143.957 42.7333 144.553 43.2471C145.948 44.4505 147.339 45.4125 148.509 46.8483C149.567 48.1462 151.044 49.5341 152.356 50.5777C153.059 51.1362 153.54 51.0913 154.391 51.0839C155.41 51.0752 156.295 51.4045 157.289 51.5672ZM160.904 48.6753C161.27 49.799 161.305 50.129 162.493 50.0493C164.021 49.9463 165.552 49.8505 167.083 49.7395C170.574 49.4868 174.068 48.9648 177.559 48.7886C180.536 48.6384 183.751 48.2787 186.709 48.589C188.089 48.7337 189.561 48.4551 190.969 48.5103C192.669 48.5771 194.384 48.57 196.011 49.0936C197.366 49.5304 198.498 49.7665 199.466 50.8962C200.442 52.0338 201.108 53.4677 201.757 54.8062C203.014 57.4015 203.999 60.79 206.211 62.7555C206.77 63.2519 207.724 64.0949 208.537 64.0014C209.874 63.8474 209.464 62.0747 209.347 61.1756C208.951 58.1454 207.762 55.5266 206.875 52.6327C206.609 51.7676 206.084 49.4826 207.457 49.1641C208.446 48.9349 209.999 51.1109 210.567 51.6952C211.817 52.9823 213.042 54.2311 214.44 55.3642C215.594 56.2995 216.754 57.3331 218.349 57.1324C217.586 55.0719 216.744 53.0768 215.493 51.2587C214.42 49.6981 212.611 48.2935 211.94 46.4984C211.434 45.1466 211.882 43.3023 213.453 44.4917C214.818 45.5245 215.999 46.788 217.394 47.8023C219.225 49.133 221.303 50.236 223.473 50.8941C224.191 51.1116 225.465 51.5334 226.153 51.0139C227.18 50.2394 226.133 48.6233 225.557 47.9114C220.154 41.2349 211.169 38.8406 202.971 38.3373C200.834 38.2061 198.612 38.4168 196.466 38.4472C194.43 38.4754 192.541 38.725 190.529 39.0228C186.353 39.641 182.168 40.1438 178.01 40.7615C176.897 40.9268 175.576 41.2542 174.468 41.2112C174.012 41.1935 173.774 41.071 173.319 41.193C172.931 41.2973 172.651 41.5056 172.218 41.5756C169.754 41.9733 167.246 42.1283 164.749 42.1602C163.548 42.1753 162.335 42.1526 161.143 41.9952C160.441 41.9025 159.722 41.6104 159.525 42.4449C159.375 43.0742 159.873 44.2662 160.044 44.8722C160.393 46.111 160.513 47.4754 160.904 48.6753ZM116.236 27.0938C116.656 27.1096 117.348 27.1727 117.485 26.6475C117.742 25.658 116.42 26.262 116.175 25.639C115.903 24.9456 116.833 24.766 117.243 24.6541C118.08 24.4254 117.865 24.4742 117.888 23.6049C117.909 22.8029 118.167 22.0725 118.493 21.3461C118.944 20.3368 118.968 20.3878 117.954 20.2718C116.249 20.077 115.876 18.5694 115.245 17.1901C114.856 16.3391 114.425 15.5088 114.183 14.5996C114.035 14.048 114.056 13.1713 113.517 12.8605C112.79 12.4406 111.096 12.8747 110.33 12.9756C109.049 13.1441 107.702 13.3353 106.477 13.7654C105.426 14.1343 105.026 14.9899 104.079 15.1415C103.467 15.2392 99.7821 15.0081 100.266 16.1381C100.568 16.8421 101.99 16.4399 102.515 16.4188C103.184 16.3921 104.001 16.2923 104.665 16.4233C105.328 16.5545 105.39 16.803 105.649 17.464C105.027 17.4331 102.702 17.0853 102.194 17.5429C101.743 17.9488 102.076 18.3938 102.529 18.543C103.414 18.8342 104.61 18.2691 105.538 18.5121C106.199 18.685 106.153 18.7085 106.425 19.3727C106.567 19.7191 106.729 20.0735 106.789 20.4461C107.13 22.5507 105.202 20.917 104.4 20.4509C102.933 19.5982 101.343 19.7574 101.628 21.8061C101.722 22.4839 102.087 23.077 102.556 23.5658C103.217 24.2548 103.388 24.3847 103.422 25.4257C103.451 26.3214 103.355 27.2797 103.672 28.1398C104.021 29.087 104.765 29.8942 105.346 30.7028C106.044 31.6741 106.766 32.6334 107.44 33.6221C107.73 34.048 108.144 35.1202 108.703 35.2622C109.229 35.3956 110.045 34.5506 110.48 34.3087C111.537 33.7224 112.697 33.3409 113.783 32.8162C112.873 32.0065 112.063 31.0881 111.172 30.2748C110.476 29.6397 110.116 29.5187 110.345 28.4463C110.86 26.0407 114.477 27.0278 116.236 27.0938ZM102.555 77.6463C99.6795 80.4331 95.4037 82.1751 91.514 82.8765C87.4395 83.6111 82.7931 84.1554 78.8238 82.7347C74.754 81.2778 70.9485 79.1832 67.503 76.5769C67.0794 76.2563 62.3336 71.619 61.9514 71.9847C63.3612 74.0975 64.8406 76.1581 66.3351 78.2109C67.0694 79.2194 69.6083 82.6906 68.1484 83.9462C67.1815 84.7781 65.5367 83.4379 64.7428 82.9005C62.8316 81.6068 60.7025 80.9102 58.3796 80.9102C59.4528 82.882 61.0844 84.6281 61.9572 86.7108C62.3694 87.695 62.1595 87.6237 61.2279 87.3562C60.0621 87.0216 58.7399 86.6345 57.5234 86.5795C56.9576 86.5539 55.809 86.8029 55.7132 87.5423C55.6217 88.2498 57.1222 89.5841 57.5411 90.0906C59.0759 91.9481 60.6402 93.7104 62.5377 95.208C66.1802 98.0824 70.504 99.9356 74.9049 101.312C79.4009 102.718 84.2061 103.142 88.8023 102.01C91.0796 101.449 93.1686 100.688 95.2082 99.553C96.1317 99.0391 97.1028 98.8062 97.9909 98.202C98.9135 97.5746 99.8485 96.9485 100.79 96.3511C102.73 95.1211 103.932 93.8837 105.285 92.0352C105.83 91.2918 106.577 90.7407 107.096 90.0087C107.667 89.2023 108.255 88.3807 108.788 87.532C111.246 83.6177 113.654 79.4101 115.087 74.9972C115.825 72.722 116.327 70.3815 116.947 68.0731C117.16 67.2787 117.947 65.7508 117.783 64.9441C117.625 64.1659 116.394 63.8501 115.785 63.52C114.006 62.5569 112.221 61.7019 110.486 60.6778C108.088 59.2627 108.513 62.1643 108.358 63.8395C107.896 68.8201 106.224 74.0907 102.555 77.6463ZM122.835 79.5503C123.341 79.9841 124.621 80.2535 125.268 80.0554C124.63 79.1043 123.646 78.4803 122.819 77.715C122.729 78.241 122.329 79.1169 122.835 79.5503ZM119.747 113.391C120.912 113.476 122.127 113.826 123.281 113.835C124.311 113.843 125.614 113.927 126.615 113.706C129.375 113.095 127.743 110.595 126.783 108.964C126.251 108.062 125.579 107.255 125.025 106.368C124.892 106.154 124.521 105.282 124.224 105.253C123.788 105.21 123.653 105.925 123.442 106.363C122.874 107.549 122.348 108.774 121.703 109.921C121.053 111.074 120.147 112.109 119.747 113.391ZM89.8848 130.942C89.6461 129.615 85.7675 130.963 84.89 131.121C84.6384 131.166 81.5996 131.537 81.627 131.801C82.6327 131.876 90.1815 132.593 89.8848 130.942ZM37.1422 160.561C36.548 160.82 36.5691 158.928 36.5416 158.676C36.4862 158.17 36.4166 157.26 36.6735 156.815C36.8621 156.489 36.9175 156.655 37.0188 156.569C37.8483 155.865 36.8465 155.564 36.6601 155.003C36.6026 154.831 36.5973 154.355 36.683 154.211C36.9278 153.799 36.9958 154.107 37.2868 153.934C37.4819 153.818 37.8778 154.105 37.7634 153.576C37.6689 153.14 37.3356 153.408 37.1686 153.271C36.5337 152.752 36.5983 152.071 36.7002 151.241C36.7967 150.453 36.8898 149.609 37.1216 148.863C37.2406 148.48 37.4028 148.653 37.3899 148.201C37.383 147.964 37.0246 147.731 37.0127 147.434C36.9985 147.066 37.3403 146.474 37.3596 146.085C37.3849 145.574 37.3896 145.13 37.3326 144.648C37.2978 144.352 37.2195 144.245 37.2031 143.885C37.1881 143.546 37.2622 143.148 37.2693 142.795C37.2894 141.792 37.4231 140.784 37.5993 139.824C37.7027 139.674 37.7839 139.512 37.8438 139.339C37.8027 139.159 37.7338 138.991 37.6376 138.833C37.6109 138.375 37.6196 137.927 37.6252 137.461C37.6354 136.598 37.4709 135.779 37.4205 134.928C37.4057 134.676 37.3063 134.254 37.4817 134.021C37.6154 133.843 38.083 133.887 38.1345 133.716C38.2822 133.226 37.8399 133.518 37.7441 133.27C37.6674 133.071 37.7064 132.81 37.6937 132.61C37.6581 132.069 38.436 128.395 39.1096 128.872C38.8411 128.682 39.3678 127.417 39.5387 127.203C40.1739 126.406 40.5531 127.308 41.0683 127.868C41.7891 128.652 42.4166 128.148 43.3529 127.971C44.5122 127.752 45.7861 127.829 46.9612 127.855C48.1658 127.881 49.3875 127.949 50.5873 128.055C51.8792 128.169 53.1305 128.56 54.4353 128.54C56.3692 128.511 58.3284 128.556 60.2607 128.487C60.6474 128.473 61.5832 128.513 61.7454 128.021C61.8063 127.837 61.4574 127.448 61.4049 127.245C61.3036 126.853 61.2965 126.339 61.469 125.956C61.9899 124.8 63.0739 125.744 63.8375 126.164C64.988 126.797 66.1805 127.335 67.4513 127.678C72.5197 129.042 78.4991 128.966 83.6746 128.322C88.93 127.668 94.1255 126.084 99.2495 124.787C103.928 123.603 108.246 120.978 111.837 117.765C115.498 114.49 118.387 109.948 120.196 105.389C122.21 100.309 120.745 95.1948 120.693 89.9992C120.668 87.4082 120.092 84.8795 119.934 82.2966C119.781 79.7916 119.996 77.4409 120.746 74.989C120.938 74.3645 121.207 73.7371 121.346 73.098C121.476 72.5062 121.247 72.0314 121.323 71.4735C121.486 70.2788 122.806 70.4 123.383 69.512C123.905 68.7079 123.367 67.4565 123.182 66.5943C122.86 65.097 122.46 63.6179 122.092 62.1318C121.712 63.0167 121.358 63.8994 121.128 64.8372C121.069 65.0775 121.064 65.5016 120.899 65.7149C120.781 65.8694 120.481 65.8493 120.387 65.9917C120.07 66.4717 120.107 66.9531 120.052 67.5705C119.945 68.7681 119.751 69.9524 119.555 71.1373C118.893 75.1184 118.389 79.0419 116.826 82.7999C113.946 89.7254 110.054 96.1695 104.3 101.082C101.692 103.308 98.3757 104.692 95.2193 105.865C91.4544 107.264 87.8731 108.022 83.8313 107.659C80.017 107.317 76.2049 106.132 72.7109 104.595C69.2696 103.081 66.0386 101.749 63.1003 99.3106C59.9605 96.7047 56.825 93.5594 54.6653 90.0721C53.8777 88.8001 52.4756 86.1763 52.8193 84.5834C53.26 82.5409 56.3958 83.8879 57.5284 84.3109C56.5755 82.7503 54.0246 79.9712 55.2928 78.0248C57.1441 75.1842 61.9894 78.0609 63.9734 79.1138C62.951 77.0326 61.3883 75.2842 60.2805 73.2536C59.7319 72.2475 58.215 68.156 60.4435 67.9344C61.1182 67.8673 61.8345 68.6382 62.3112 69.0245C63.2364 69.775 64.1543 70.5339 65.0719 71.2936C67.0775 72.9541 69.1945 74.3663 71.5045 75.5687C76.1271 77.9748 80.5989 79.2527 85.8493 78.7409C90.3229 78.3052 95.256 76.9447 98.7347 73.9937C100.824 72.2218 102.485 70.2617 103.558 67.7152C104.743 64.9032 105.498 61.8144 106.327 58.8806C105.042 58.5494 104.141 58.7414 104.389 57.2119C104.687 55.3785 104.621 53.5234 104.632 51.6625C104.655 47.805 104.726 43.9049 105.932 40.2032C106.147 39.5444 106.336 38.8655 106.705 38.2724C107.162 37.5409 107.585 37.4321 106.998 36.6346C105.868 35.0993 104.694 33.7869 103.856 32.0226C103.42 31.105 103.015 30.2061 102.478 29.3484C101.596 27.942 100.444 26.91 99.3136 25.6916C98.0157 24.2933 96.9989 22.9743 96.3316 21.1781C96.0198 20.3397 95.5949 19.5055 95.4337 18.6198C95.2417 17.5638 95.4411 16.4835 95.5321 15.427C95.8336 11.922 97.01 9.09353 100.454 7.72407C103.253 6.61102 106.47 6.13174 109.405 6.99234C112.955 8.03382 114.638 11.1506 116.328 14.1668C116.805 15.0174 117.099 15.9173 117.531 16.7806C117.974 17.6655 118.434 17.6668 119.251 18.0259C120.869 18.7373 120.732 20.7894 120.03 22.1383C119.137 23.8523 119.317 25.8381 118.548 27.6275C117.76 29.4598 116.537 29.9703 114.672 30.3809C115.383 30.946 116.031 31.6849 116.937 31.9265C118.038 32.2196 119.37 31.94 120.509 31.9561C122.874 31.9894 125.265 32.3099 127.511 33.0662C129.718 33.8088 131.695 34.9971 133.747 36.0605C134.684 36.5467 135.559 37.2401 136.63 37.3811C137.669 37.5182 138.717 37.2618 139.762 37.3962C142.054 37.6911 144.568 37.3193 146.906 37.2684C149.423 37.2134 151.95 37.2486 154.463 37.0642C155.549 36.9848 156.621 36.8704 157.71 36.9652C158.7 37.051 159.29 36.8179 160.146 37.4957C160.715 37.9462 161.168 39.049 161.839 39.1992C162.554 39.3595 163.962 38.9111 164.667 38.8047C167.04 38.4466 169.432 37.9732 171.79 37.5367C172.896 37.332 173.937 36.9591 175.052 36.7666C176.202 36.5678 177.397 36.5031 178.533 36.2472C180.372 35.8331 182.358 35.6789 184.275 35.4143C186.52 35.1046 188.829 34.4513 191.093 34.3686C200.566 34.0227 211.185 33.46 219.585 38.7155C221.557 39.9495 223.583 41.5252 225.103 43.2905C226.499 44.9121 228.212 47.0574 228.568 49.2183C228.887 51.147 228.654 54.5261 226.077 54.5496C223.563 54.5725 220.98 53.071 218.818 51.959C219.741 54.1748 222.549 58.921 220.112 61.0726C217.597 63.2931 212.967 58.4749 211.306 56.928C211.634 59.2957 213.978 67.8998 209.542 68.0332C205.214 68.1631 202.702 62.8242 201.16 59.6545C200.346 57.9811 199.738 56.0151 198.417 54.6533C197.088 53.2841 195.245 53.3296 193.446 53.1545C189.074 52.7291 184.725 52.7069 180.327 52.6015C174.761 52.4684 169.295 53.3861 163.722 52.8677C163.792 53.943 163.384 55.9 162.295 56.3117C160.691 56.9185 158.724 56.0463 157.081 56.0463C157.192 56.7038 158.127 57.3965 158.521 57.8927C159.228 58.7823 159.836 59.7364 160.404 60.7187C161.514 62.6375 162.695 64.5594 163.483 66.6392C163.879 67.6854 164.218 68.7644 164.504 69.846C164.668 70.4679 164.665 71.3974 164.998 71.9472C165.411 72.6306 166.046 72.2361 166.57 72.7719C167.324 73.5448 166.537 73.9515 166.299 74.6328C166.041 75.3698 166.365 76.6183 166.266 77.4285C166.119 78.6451 165.963 79.8701 165.761 81.0787C165.392 83.2879 164.61 85.3313 164.086 87.4879C163.589 89.5337 164.934 91.6969 165.378 93.6759C165.893 95.973 166.192 98.2968 166.721 100.589C167.28 103.01 167.539 105.503 167.925 107.955C168.301 110.35 168.843 112.717 169.21 115.114C169.911 119.682 170.356 124.334 170.908 128.921C171.198 131.325 171.42 133.761 171.442 136.184C171.462 138.453 171.782 140.669 171.828 142.934C171.878 145.334 171.906 147.736 172.01 150.135C172.112 152.507 171.818 154.87 171.71 157.239C171.659 158.368 171.621 159.499 171.638 160.629C171.652 161.583 171.914 162.699 171.677 163.633C171.21 165.479 168.613 166.588 166.984 167.125C164.991 167.782 162.888 168.235 160.848 168.721C159.855 168.957 158.848 169.158 157.838 169.307C157.445 169.364 156.989 169.341 156.622 169.508C156.07 169.76 156.179 169.633 156.149 170.262C156.102 171.278 156.4 172.391 156.554 173.387C156.697 174.305 156.515 175.813 156.87 176.635C157.273 177.57 160.114 178.336 160.809 177.701C161.3 177.254 161.44 176.408 162.018 176.032C162.849 175.489 163.232 176.249 163.228 177.066C163.225 177.682 162.759 178.424 163.319 178.874C163.804 179.264 164.826 179.06 165.294 178.739C166.075 178.204 167.694 174.893 168.09 177.709C168.184 178.373 167.898 179.145 168.46 179.649C168.987 180.121 170.257 180.1 170.921 180.184C171.982 180.318 172.91 180.363 173.981 180.34C175.176 180.314 176.305 180.595 177.48 180.648C179.31 180.73 181.147 180.978 183.019 181.014C184.93 181.051 187.013 181.551 188.482 182.848C190.17 184.338 189.823 186.179 189.501 188.174C189.288 189.493 190.97 190.918 189.272 192.072C188.591 192.535 187.46 192.437 186.677 192.444C185.338 192.457 184.015 192.301 182.675 192.375C172.914 192.919 163.116 192.514 153.358 192.192C151.078 192.117 148.711 192.221 146.45 191.945C145.443 191.823 144.444 191.647 143.435 191.539C142.571 191.447 141.541 191.599 140.716 191.318C138.674 190.624 140.859 188.51 141.022 187.303C141.338 184.959 141.204 182.476 141.219 180.114C141.235 177.604 141.219 175.093 141.219 172.582C140.134 172.658 137.087 173.462 136.236 172.53C135.533 171.759 136.73 170.15 136.789 169.224C137.028 165.452 136.947 161.675 137.232 157.899C137.525 154.005 137.489 150.146 137.611 146.251C137.741 142.091 138.037 137.946 138.037 133.78C134.999 136.997 132.098 140.531 128.721 143.399C127.274 144.627 125.698 145.69 124.187 146.836C122.485 148.126 120.9 149.562 119.208 150.864C116.059 153.288 112.315 154.705 108.989 156.86C105.627 159.039 102.039 160.833 98.1679 161.911C93.9364 163.09 89.4491 163.482 85.0704 163.256C82.9696 163.147 80.8793 162.877 78.8103 162.5C77.9478 162.342 77.0941 162.137 76.2313 161.982C75.0109 161.763 74.4161 161.968 73.2735 162.191C71.7722 162.485 71.3984 160.291 70.9532 159.236C70.1324 157.29 69.7771 155.164 69.0507 153.174C67.7805 149.694 66.6099 146.253 65.486 142.714C65.231 141.911 65.0611 140.518 64.1042 140.405C63.4582 140.329 62.3457 141.05 61.7124 141.249C60.6112 141.595 59.5675 141.75 58.4207 141.779C57.454 141.803 57.3385 142.165 56.7342 142.853C56.1803 143.484 55.1802 143.846 55.3682 144.762C55.4795 145.304 56.0553 145.723 56.1629 146.336C56.5491 148.535 54.3427 146.634 53.5673 146.153C53.0975 147.19 56.6464 148.341 55.3532 149.809C54.7199 150.527 53.3995 149.436 52.7694 149.156C51.2997 148.506 51.0763 150.276 50.6849 151.423C49.9667 153.529 49.4859 155.739 48.9354 157.894C48.4053 159.97 47.974 162.092 47.1374 164.074C46.3917 165.841 45.0932 166.994 44.1659 168.589C43.7096 169.374 43.2055 169.94 42.219 169.977C41.5517 170.002 40.3173 169.74 39.687 169.485C39.0917 169.244 38.4462 168.512 38.03 168.053C37.4521 167.415 37.5663 166.798 37.0984 166.017C37.1187 166.409 37.206 166.774 37.2271 167.157C36.3731 166.484 37.2245 165.426 37.0694 164.573C37.0206 164.303 36.7424 164.077 36.7265 163.794C36.7197 163.677 36.9676 163.41 36.9842 163.249C37.004 163.057 37.0196 162.5 36.9652 162.358C36.9259 162.256 36.5973 161.736 36.6044 161.83C36.5994 161.761 36.4833 161.653 36.5456 161.425C36.6398 161.082 37.1857 161.021 37.1422 160.561Z" fill="#323232"/>
</svg>
