<svg width="265" height="199" viewBox="0 0 265 199" fill="none" xmlns="http://www.w3.org/2000/svg">
<path fill-rule="evenodd" clip-rule="evenodd" d="M95.0243 66.101C97.2294 71.7359 99.4341 77.3707 101.639 83.0056C102.455 85.0894 101.986 87.6136 102.059 89.8237C102.206 94.3232 102.416 98.7969 104.631 102.807C106.699 106.551 109.244 110.07 111.846 113.459C115.377 108.445 120.851 104.524 126.116 101.564C129.743 99.5244 133.707 97.7121 137.864 97.1246C139.157 96.9419 140.583 96.8182 141.865 97.1557C141.692 95.1728 141.66 93.1592 141.809 91.1746C142.044 88.0644 142.856 85.9527 145.217 83.8759C146.418 82.8198 147.712 81.8677 149.03 80.9635C149.5 80.6408 150.885 80.0686 151.169 79.5658C151.418 79.124 151.192 77.8516 151.226 77.3291C151.342 75.4984 151.626 73.6631 152.162 71.9064C153.177 68.5854 154.975 65.5179 156.098 62.2192C154.425 61.98 152.752 61.7412 151.079 61.5021C149.946 61.34 149.196 60.8628 148.469 61.6917C145.953 64.5612 143.807 67.8662 141.507 70.9114C139.991 72.9193 138.515 74.9371 136.799 76.783C134.055 79.7327 129.117 84.5087 125.069 80.7917C122.99 78.8834 122.674 75.6058 122.633 72.9599C122.577 69.3584 123.126 65.756 123.75 62.2192C117.626 61.6358 111.316 62.6376 105.311 63.7719C101.859 64.424 98.4155 65.1792 95.0243 66.101Z" fill="#6951FF"/>
<path fill-rule="evenodd" clip-rule="evenodd" d="M129.078 44.7559C124.569 44.7559 122.613 50.7208 128.047 50.6646C132.286 50.6206 134.522 44.7559 129.078 44.7559ZM127.352 51.8051C120.585 51.8051 123.067 43.6571 129.103 43.6358C136.551 43.6095 133.26 51.804 127.352 51.8051ZM200.983 156.656C198.238 157.224 195.481 157.814 192.81 158.674C191.172 159.201 189.314 160.711 188.427 158.502C188.06 157.587 187.911 156.618 187.468 155.73C186.957 154.707 186.285 153.77 185.574 152.879C183.955 150.851 182.261 148.717 180.419 146.896C176.844 143.361 173.49 139.461 169.149 136.901C168.034 136.244 167.108 135.19 166.033 134.432C164.877 133.617 163.717 132.81 162.533 132.039C160.106 130.46 157.633 128.95 155.125 127.503C156.387 125.973 158.129 124.942 159.746 123.834C161.475 122.649 163.176 121.41 164.882 120.193C165.63 119.66 165.993 119.523 166.827 119.981C167.595 120.403 168.346 120.931 169.08 121.411C170.878 122.588 172.477 123.974 173.909 125.576C176.993 129.027 180.602 131.813 184.036 134.892C187.52 138.016 190.992 141.3 193.952 144.934C195.538 146.881 197.1 148.913 198.475 151.015C199.202 152.126 199.818 153.298 200.452 154.463C200.698 154.916 202.007 156.444 200.983 156.656ZM153.488 124.504C153.404 124.705 153.216 124.882 152.999 124.734C152.941 124.694 153.107 123.746 153.116 123.632C153.182 122.815 153.195 121.994 153.182 121.175C153.159 119.629 153.027 118.088 152.927 116.546C152.725 113.422 152.692 110.286 152.329 107.175C153.104 107.558 154.161 108.115 154.702 108.82C155.146 109.398 155.08 109.904 155.087 110.614C155.111 112.758 155.446 114.891 155.6 117.028C155.663 117.89 155.7 118.752 155.926 119.59C156.117 120.299 156.548 121.085 156.359 121.837C156.036 123.118 154.397 123.719 153.488 124.504ZM157.746 111.101C158.685 111.743 159.76 112.116 159.953 113.362C160.14 114.57 159.884 115.677 160.3 116.863C160.547 117.566 161.076 118.427 160.644 119.114C160.193 119.831 159.062 120.197 158.404 120.697C158.274 119.132 158.384 117.559 158.27 115.995C158.15 114.358 157.746 112.747 157.746 111.101ZM162.416 114.7C163.234 115.356 164.053 116.013 164.871 116.67C164.052 117.115 163.234 117.561 162.416 118.007V114.7ZM150.283 127.263C149.679 127.751 148.644 127.176 148.127 126.821C147.321 126.266 147.179 125.77 147.256 124.811C147.446 122.435 147.011 120.143 146.62 117.798C145.741 112.537 145.027 107.237 144.602 101.919C146.13 102.653 148.148 103.476 149.103 104.961C149.72 105.919 149.539 107.145 149.51 108.235C149.47 109.722 149.345 111.206 149.348 112.694C149.355 115.62 149.683 118.545 149.765 121.471C149.8 122.698 149.795 123.957 150.382 125.071C150.515 125.321 151.198 126.064 151.216 126.27C151.251 126.652 150.566 127.029 150.283 127.263ZM142.851 123.667C140.907 122.656 140.664 120.057 140.205 118.157C139.565 115.508 138.951 112.803 138.581 110.102C138.216 107.446 138.283 104.754 137.869 102.103C137.778 101.521 137.198 100.227 137.442 99.6492C137.75 98.9184 138.903 98.9373 139.552 98.8263C140.146 98.7243 141.261 98.0898 141.644 98.6252C141.963 99.0703 141.656 100.087 141.58 100.564C141.232 102.788 141.58 105.032 141.834 107.257C142.483 112.944 143.012 118.632 143.978 124.278C143.603 124.074 143.23 123.864 142.851 123.667ZM139.535 129.453C139.479 128.442 139.423 127.43 139.366 126.42C139.957 126.642 140.547 126.864 141.138 127.087C140.673 127.917 140.257 128.806 139.535 129.453ZM137.472 131.97C136.921 132.543 136.433 133.295 135.672 133.611V125.459C136.318 125.555 137.043 125.384 137.307 126.092C137.509 126.633 137.238 127.473 137.316 128.066C137.444 129.043 138.283 131.128 137.472 131.97ZM133.685 119.98C133.119 115.424 132.953 110.829 132.215 106.293C132.048 105.266 131.857 104.27 131.606 103.26C131.447 102.622 131.117 101.846 131.528 101.246C132.161 100.324 133.937 100.35 134.907 100.121C134.79 107.265 135.125 114.55 137.624 121.319C136.8 121.224 133.824 121.102 133.685 119.98ZM133.366 135.606C132.308 136.372 131.351 137.482 130.052 137.839C129.971 134.598 129.923 131.356 129.797 128.117C129.768 127.363 129.748 126.602 129.671 125.852C129.639 125.532 129.424 124.874 129.578 124.553C129.973 123.731 131.422 124.292 132.02 124.664C132.845 125.177 132.753 126.022 132.74 126.927C132.724 128.082 132.742 129.192 132.827 130.347C132.903 131.371 132.998 132.363 133.179 133.373C133.239 133.711 133.721 135.348 133.366 135.606ZM128.289 139.118C127.006 139.822 126.532 138.48 125.944 137.596C125.541 136.989 124.896 136.414 124.734 135.678C124.57 134.938 124.936 134.189 124.998 133.458C125.148 131.703 124.579 129.892 124.358 128.162C124.107 126.197 124.015 124.204 124.015 122.223C124.984 122.664 126.719 122.681 127.068 123.875C127.223 124.405 127.016 125.089 126.984 125.63C126.93 126.541 126.96 127.461 126.949 128.373C126.905 131.991 127.052 135.523 129.063 138.666C128.807 138.82 128.549 138.971 128.289 139.118ZM124.174 141.319C122.003 142.238 119.915 143.41 117.623 144.015C115.33 144.62 112.993 145.167 110.669 145.638C105.806 146.624 100.81 147.201 95.8423 147.042C93.411 146.964 91.0187 146.644 88.6167 146.277C86.1843 145.904 84.0785 145.028 81.7766 144.223C77.3019 142.657 72.7154 141.642 68.473 139.455C67.4493 138.927 66.4532 138.35 65.4364 137.81C64.8963 137.523 64.2328 137.4 64.2033 136.717C64.173 136.009 64.9372 134.71 65.2403 134.075C65.7097 133.093 66.4343 132.313 67.1693 131.521C68.4159 130.178 69.5861 128.181 71.0982 127.146C71.932 126.575 72.2747 126.924 73.0065 127.432C73.97 128.102 75.12 128.579 76.1987 129.037C80.6359 130.918 85.6794 132.058 90.4528 132.615C95.1524 133.163 99.7987 133.696 104.478 132.578C107.126 131.945 109.612 130.881 112.115 129.832C112.942 129.485 113.873 128.723 114.629 129.318C115.439 129.956 115.921 131.273 116.583 132.08C118.166 134.012 120.132 135.516 121.716 137.443C122.1 137.911 125.287 140.847 124.174 141.319ZM61.9539 132.073C61.2515 133.109 60.6191 134.229 60.4185 135.481C59.0694 134.399 58.1487 134.033 59.2338 132.323C60.2477 130.725 61.1491 129.096 62.0727 127.441C62.4497 126.765 63.0095 125.973 62.8871 125.153C62.7476 124.219 61.9156 123.8 61.1064 124.222C60.5316 124.521 60.0989 125.312 59.7198 125.818C59.0363 126.732 58.4413 127.702 57.8606 128.683C57.4295 129.412 57.0214 130.592 56.4189 131.151C56.0134 131.527 55.501 131.547 55.3933 130.811C55.2976 130.157 56.2683 129.004 56.5576 128.484C57.0294 127.636 57.5485 126.808 57.9189 125.908C58.3032 124.976 58.5544 121.887 56.7025 123.423C56.0633 123.952 55.5253 124.976 55.0437 125.646C54.3033 126.678 53.6079 127.743 52.9674 128.839C51.8368 128.084 50.7607 126.89 49.3964 126.565C48.0996 126.256 46.9351 127.433 45.8282 127.975C44.105 128.82 42.4779 129.844 40.837 130.834C39.3725 131.718 37.8148 132.41 36.3783 133.345C33.8794 134.972 30.8361 137.115 27.6975 136.149C26.454 135.766 25.0809 134.978 24.4052 133.825C23.4921 132.268 23.7253 130.192 23.1379 128.506C24.8016 129.427 26.5552 128.364 28.0225 127.571C29.6669 126.682 31.3725 125.923 33.0981 125.206C36.665 123.724 40.3636 122.431 43.8741 120.833C50.7338 117.71 56.5167 112.674 63.4 109.621C65.019 114.315 67.6938 118.64 71.2379 122.125C67.8538 125.153 64.5159 128.295 61.9539 132.073ZM116.142 113.372C115.224 112.938 114.106 112.847 114.743 111.649C115.196 110.798 116.18 110.206 116.801 109.482L117.567 114.106C117.093 113.86 116.625 113.6 116.142 113.372ZM121.341 115.919C121.224 113.614 120.936 111.238 120.086 109.079C119.837 108.446 119.41 107.7 119.766 107.042C120.13 106.369 121.202 106.001 121.863 105.72C122.367 109.647 122.61 113.643 123.778 117.449C122.916 117.213 121.401 117.097 121.341 115.919ZM122.056 131.722C122.061 131.792 122.065 131.861 122.069 131.931C121.185 131.494 120.196 130.819 119.736 129.912C119.254 128.961 119.511 127.868 119.518 126.851C119.524 125.677 119.324 124.542 119.107 123.393C118.862 122.098 119.015 120.884 119.098 119.581C119.808 120.061 120.875 120.4 121.343 121.165C121.832 121.965 121.551 123.008 121.454 123.877C121.166 126.461 121.38 129.211 122.056 131.722ZM130.331 119.772C128.624 119.533 127.716 119.188 127.415 117.414C127.047 115.236 126.658 113.07 126.36 110.881C126.083 108.848 125.13 106.74 125.035 104.712C124.968 103.284 127.365 102.776 128.451 102.245C129.031 108.091 129.32 113.976 130.331 119.772ZM112.896 110.302C112.707 110.737 112.549 111.186 112.376 111.628C111.171 109.839 109.983 108.089 108.58 106.447C107.28 104.926 106.196 103.372 105.53 101.473C104.808 99.4153 104.146 97.2306 103.928 95.0534C103.708 92.8583 103.91 90.6066 103.961 88.4059C103.99 87.1272 104.706 83.8988 103.704 82.8569C103.335 82.4742 102.753 82.6038 102.337 82.2495C101.766 81.7643 101.581 80.7698 101.345 80.1029C99.859 75.9009 98.549 71.5716 96.3599 67.6652C99.2793 66.4158 102.583 65.788 105.659 65.0238C108.888 64.2213 112.243 63.7257 115.558 63.4498C117.159 63.3168 118.762 63.2604 120.368 63.2723C121.671 63.2821 122.975 63.0642 122.534 64.7243C121.866 67.2328 121.383 69.8026 121.414 72.4104C121.46 76.2182 122.435 81.2721 126.315 83.0075C132.359 85.7103 137.126 79.2158 140.22 75.0984C142.383 72.2204 144.469 69.3745 146.336 66.2854C146.947 65.2756 147.468 63.7187 148.632 63.2148C150.075 62.5899 152.157 63.0231 153.682 63.0231C153.566 64.8623 153.449 66.4023 152.652 68.0943C151.879 69.7337 151.246 71.3843 150.727 73.1208C150.229 74.7817 150.003 76.3326 149.797 78.0289C149.614 79.5364 148.07 79.0038 146.967 79.436C144.378 80.4499 142.983 83.5205 141.959 85.8886C141.305 87.4018 140.629 88.9509 140.35 90.5864C140.017 92.5431 140.257 94.5343 140.332 96.5016C139.886 96.5965 139.396 96.2355 138.975 96.1359C138.333 95.9843 137.632 95.9796 136.978 96.0223C135.536 96.1168 134.075 96.3743 132.668 96.6951C129.627 97.3892 126.751 98.6412 123.997 100.085C119.533 102.426 114.979 105.52 112.896 110.302ZM97.9269 80.1989C93.3616 81.77 88.7277 83.2348 83.9662 84.0854C81.6244 84.5036 79.2814 84.4143 76.9155 84.3442C75.8283 84.3118 74.884 84.1325 73.8302 83.9089C73.0282 83.7386 71.6906 83.3233 70.946 83.802C70.5123 82.3735 68.2207 82.3471 67.0458 82.117C66.0899 81.9299 65.2483 81.4478 64.3091 81.2214C63.9567 81.1365 63.6132 81.151 63.3014 80.9729C63.002 80.8021 62.833 80.4142 62.5214 80.2628C62.0737 80.0454 61.53 80.0309 61.2 79.7214C60.4351 79.0043 59.5792 78.3659 58.8218 77.6371C58.0568 76.9019 57.694 75.9517 57.1722 75.0397C56.5625 73.973 55.6156 72.9233 55.1661 71.788C55.3636 71.9236 55.5597 72.0608 55.7549 72.2C55.648 70.8646 55.2818 69.6905 55.3747 68.3065C55.4208 67.6236 55.3514 67.1857 55.265 66.5398C55.199 66.0465 55.2632 65.6405 55.2704 65.0882C55.2901 63.6134 55.7771 62.2633 56.0087 60.8234C56.0858 60.3451 56.1265 59.8319 56.1474 59.3586C56.1663 58.9262 55.8972 58.3506 55.9482 57.8846C56.1503 57.9873 56.3325 58.118 56.4945 58.2769C56.0406 57.1669 57.4978 55.8471 57.6593 54.7874C57.9023 53.1935 56.3847 52.7893 55.1017 52.98C53.3748 53.2367 51.7796 54.2571 50.2339 55.0037C48.1175 56.0264 46.0125 57.0538 43.9385 58.1612C41.5057 59.4601 39.3815 61.1828 36.9867 62.5086C36.6834 62.6765 35.5667 63.4017 35.3644 62.7969C35.1848 62.2607 36.4324 61.29 36.7354 61.011C38.2918 59.5778 40.0373 58.3079 41.7836 57.1162C42.9898 56.2927 44.2538 55.5565 45.4887 54.7775C46.8155 53.9406 48.6752 52.9965 49.1958 51.3975C49.6244 50.0818 49.1268 48.8862 47.6434 49.264C45.7237 49.7531 43.8011 51.0983 42.0388 51.9919C40.2782 52.885 38.4908 53.7289 36.7411 54.6427C36.3509 54.8464 34.8527 55.9002 35.105 55.0583C35.309 54.3774 36.4867 53.556 36.9947 53.0907C37.747 52.4011 38.5397 51.7564 39.3559 51.1439C41.081 49.8491 42.914 48.7027 44.7755 47.6166C45.9173 46.9505 47.1465 46.2476 47.2071 44.766C47.3103 42.2245 45.0027 43.5733 43.6712 44.0774C41.89 44.7513 40.0443 45.2365 38.2586 45.8993C36.6306 46.5033 34.9865 47.1593 33.2506 47.38C32.3624 47.4931 31.041 47.527 31.2548 46.2867C31.4843 44.9575 33.3825 44.0448 34.4195 43.4519C36.194 42.4372 38.0125 42.0508 39.9832 41.6085C42.1288 41.1269 44.245 40.6086 46.4149 40.2354C50.8117 39.479 55.0437 39.2116 59.4856 39.6156C61.5215 39.8006 63.5905 39.6024 65.6038 39.7887C66.9426 39.9124 67.9472 40.7457 68.6749 41.8238C70.4479 44.4516 71.1924 48.0345 70.9075 51.1395C70.4942 55.6377 68.5315 59.429 66.8541 63.5249C65.578 66.6404 64.6259 70.9694 68.0479 73.0913C69.6637 74.0933 71.4882 74.0234 73.2979 73.76C75.7396 73.4044 78.1448 72.8389 80.5305 72.2184C85.2452 70.992 89.9135 69.6142 94.568 68.1789C94.773 68.99 99.2182 79.7546 97.9269 80.1989ZM123.244 73.1068C123.417 70.6959 123.502 68.3181 123.927 65.9334C124.065 65.157 124.127 64.2948 124.803 63.7813C125.472 63.2738 126.465 63.2575 127.226 62.9444C129.247 62.1126 130.898 60.2015 132.426 58.6956C134.003 57.1408 135.028 55.3694 135.771 53.2921C136.366 51.6307 137.31 49.0071 136.208 47.3731C135.351 46.1011 133.953 45.6544 134.393 43.8222C134.769 42.256 136.327 41.3743 137.679 42.4281C138.525 43.0865 139.475 44.6855 139.475 42.5117C143.08 43.3098 146.805 42.0487 149.955 40.3379C150.57 40.0033 151.325 39.4722 151.951 39.9994C152.365 40.3477 152.5 41.0338 152.953 41.4204C153.426 41.8244 154.169 42.0487 154.315 42.7247C154.428 43.2456 154.099 44.0572 153.959 44.5388C153.6 45.766 153.117 47.0206 152.135 47.879C151.71 48.2506 150.252 49.5076 149.705 48.9757C149.074 48.3616 150.444 46.3703 148.703 47.5105C148.08 47.9186 147.887 47.9383 147.622 48.6836C147.31 49.5591 147.168 50.4884 147.044 51.405C146.367 51.1837 145.292 50.4635 144.601 50.987C143.946 51.4831 144.292 52.5212 144.831 52.9526C145.384 53.3953 146.511 53.4782 147.158 53.1935C148.193 52.7383 148.198 51.5748 148.419 50.619C149.003 51.0427 149.394 51.7942 150.234 51.6501C147.682 54.6761 144.321 56.7718 140.329 56.7785C138.525 56.7816 137.843 57.4754 137.483 59.2349C137.116 61.0322 137.126 62.9918 137.123 64.8149C137.121 66.3027 137.175 67.8252 137.63 69.2547C137.931 70.2021 138.518 71.1252 138.889 69.5759C139.089 68.7441 138.947 67.7889 138.939 66.9378C138.934 66.4026 138.754 65.4254 139.104 64.9849C139.493 64.4953 140.396 64.7652 140.937 64.7601C142.074 64.7492 143.162 64.3248 144.299 64.3248C142.618 66.8004 140.715 69.115 139.106 71.6405C137.461 74.2229 135.462 76.6486 133.039 78.5445C131.014 80.1283 128.196 80.9458 125.898 79.4031C123.927 78.0799 123.081 75.3865 123.244 73.1068ZM154.562 50.4146C155.296 51.4617 152.928 53.5229 152.019 53.5071C152.251 53.1342 154.103 49.7596 154.562 50.4146ZM156.175 64.7484C156.444 63.9744 157.967 64.0383 158.599 64.0176C159.977 63.9723 161.358 63.9689 162.737 63.9265C166.508 63.8111 170.276 63.5388 174.051 63.5991C177.958 63.6615 181.869 63.2899 185.769 63.4257C189.475 63.5546 193.166 63.8993 196.809 64.5973C203.483 65.8762 210.421 67.6996 215.755 72.1808C220.547 76.2058 224.117 82.0306 223.362 88.4685C222.896 92.4383 222.726 96.6079 221.223 100.361C219.944 103.55 217.261 105.527 214.491 107.364C214.454 106.6 216.491 101.651 214.317 102.408C213.616 102.652 213.21 103.617 212.827 104.196C212.157 105.211 211.439 106.204 210.712 107.18C209.393 108.951 207.879 110.626 205.933 111.721C205.179 112.145 202.781 113.393 202.355 112.024C202.002 110.89 204.291 108.594 204.831 107.727C205.308 106.957 205.691 106.214 205.511 105.298C205.442 104.946 205.229 104.621 205.15 104.268C205.085 103.983 205.16 103.545 205.031 103.284C204.166 101.539 203.245 104.562 202.972 105.108C202.026 106.996 199.824 108.225 198.111 109.308C195.98 110.655 193.872 112.114 191.398 112.75C192.946 110.099 194.529 107.465 195.935 104.734C197.244 102.192 198.071 99.2494 199.601 96.89C199.859 96.4915 200.034 96.0598 200.239 95.5824C200.367 95.285 200.558 94.2718 200.727 94.0943C200.823 93.9934 201.358 93.9551 201.568 93.7509C201.827 93.4999 201.972 93.1021 202.103 92.7755C202.259 92.3873 202.858 91.0359 202.7 90.5965C202.668 90.5047 202.24 90.5445 202.166 90.375C202.079 90.1763 202.142 90.0313 202.133 89.8287C202.113 89.3613 202.409 89.0083 202.059 88.5614C203.826 88.5614 202.18 83.8111 201.878 82.9475C201.542 81.9876 200.979 81.2982 200.72 80.3619C200.404 79.2196 199.526 78.2184 198.742 77.3558C197.957 76.4928 197.139 75.4636 196.256 74.7126C195.342 73.9347 194.107 73.4945 193.069 72.9054C192.605 72.6428 192.11 72.2939 191.578 72.1873C191.405 72.2385 191.234 72.2921 191.062 72.3475C190.863 72.2429 190.685 72.1086 190.531 71.9446C189.537 71.4283 188.564 71.2422 187.446 71.1071C181.921 70.4394 176 70.3191 170.453 70.7878C167.571 71.031 164.641 71.3085 161.803 71.8737C158.864 72.459 155.972 73.2064 153 73.637C153.671 70.5474 155.14 67.7183 156.175 64.7484ZM172.165 26.8433C172.675 26.7755 172.461 27.4704 172.296 27.6795C172.082 27.4334 172.038 27.1546 172.165 26.8433ZM243.747 173.789C243.33 171.779 241.898 169.705 240.247 168.503C238.21 167.02 235.911 167.003 233.518 167.124C230.775 167.262 228.111 167.741 225.41 168.2C222.665 168.667 219.964 169.069 217.3 169.904C216.233 170.239 215.148 170.521 214.096 170.898C213.311 171.18 212.403 171.719 212.011 170.694C211.296 168.832 214.044 168.022 215.138 167.237C215.734 166.809 216.525 166.19 215.778 165.527C214.894 164.744 213.397 165.498 212.496 165.822C211.664 166.121 210.821 166.225 211.032 164.897C211.173 164.014 212.318 163.443 212.959 162.927C213.747 162.294 216.514 160.427 214.739 159.48C212.849 158.473 211.788 160.986 210.173 161.116C208.752 161.229 208.761 157.734 208.364 156.777C207.36 154.359 204.847 157.004 203.718 155.546C203.253 154.945 203.413 153.863 203.24 153.159C202.953 151.998 202.289 150.859 201.754 149.796C200.567 147.443 199.196 145.183 197.662 143.041C196.13 140.9 194.433 139.06 192.501 137.281C190.564 135.496 188.875 133.468 186.97 131.65C183.177 128.033 178.806 125.057 174.92 121.528C174.023 120.713 173.168 119.864 172.121 119.239C171.159 118.666 169.569 118.356 168.803 117.54C168.305 117.01 168.387 116.264 168.145 115.612C167.735 114.506 166.751 113.757 165.909 112.984C161.992 109.391 157.895 105.821 153.296 103.119C151.065 101.808 148.806 100.177 146.413 99.1899C145.639 98.8708 144.594 98.7388 143.957 98.1547C143.291 97.5424 143.165 96.4723 142.912 95.6447C141.348 90.5114 144.571 85.1953 148.484 82.0058C149.181 81.4385 150.184 80.9703 150.631 80.1761C151.121 79.3061 151.145 78.1899 151.668 77.3054C152.636 75.667 155.272 75.8929 156.936 75.5208C166.984 73.2729 178.908 72.4024 188.757 75.9884C192.895 77.4951 196.45 80.0312 198.033 84.2549C198.748 86.1611 199.124 88.2286 199.064 90.266C198.998 92.5361 198.167 94.6422 197.407 96.7565C196.493 99.2988 195.471 101.804 194.287 104.233C193.219 106.426 191.864 108.399 190.685 110.521C189.952 111.839 188.79 114.27 190.467 115.36C191.804 116.23 193.926 115.722 195.245 115.085C197.217 114.134 198.676 112.426 200.402 111.125C200.41 112.414 199.263 113.568 199.786 114.872C200.304 116.167 201.712 115.999 202.824 115.683C204.094 115.322 205.41 114.762 206.572 114.139C208.041 113.352 209.097 112.145 210.344 111.075C212.535 109.195 215.447 108.565 217.794 106.935C220.22 105.25 221.896 102.699 222.919 99.9626C224.103 96.7932 224.587 93.3948 224.995 90.0528C225.399 86.7465 225.597 83.4876 224.502 80.2856C222.419 74.1958 218.194 69.3937 212.515 66.3816C200.532 60.0255 186.996 60.2856 173.835 60.6344C170.228 60.7302 166.617 60.7786 163.016 61.0149C161.36 61.1236 159.701 61.2586 158.056 61.4817C157.554 61.5498 156.432 61.9333 155.985 61.5223C155.64 61.2056 155.842 60.539 155.53 60.1567C154.786 59.2479 153.127 59.4815 152.136 59.6027C150.885 59.7551 149.411 59.782 148.286 60.3917C147.204 60.9779 146.828 62.2058 145.488 62.2242C143.998 62.2444 142.44 61.8901 140.939 61.8332C139.758 61.7884 138.709 61.3816 139.841 60.0879C140.703 59.1014 142.148 59.1073 143.321 58.884C145.489 58.4712 150.419 54.8453 152.043 57.3595C152.489 58.0494 152.457 58.2996 153.314 58.6014C154.106 58.8806 155.005 59.0162 155.835 59.1524C157.379 59.4055 159.175 59.6091 160.686 59.0703C163.034 58.2326 163.52 55.5945 164.068 53.4598C166.576 54.792 170.363 55.4108 172.839 53.6691C174.92 52.2054 175.668 49.137 175.579 46.7284C175.552 46.0121 175.457 45.2774 175.202 44.6032C174.966 43.9783 174.329 43.3284 174.352 42.6333C174.373 42.028 174.944 41.5022 175.206 40.9947C175.595 40.2416 175.782 39.3472 175.859 38.5077C176.141 35.4258 173.838 33.7061 171.444 32.2882C172.85 30.6144 174.423 28.9439 174.3 26.599C174.186 24.411 172.457 22.8882 170.673 21.8619C169.078 20.944 167.469 20.5886 165.68 20.3661C164.9 20.269 164.602 20.349 164.727 19.5447C164.825 18.906 165.284 18.3385 165.426 17.7063C166.251 14.0224 162.61 12.6203 159.664 12.2994C154.813 11.7709 150.315 12.7587 146.374 15.6215C143.494 9.55802 133.892 12.5496 131.216 17.2487C130.865 17.8649 130.606 18.5344 130.485 19.2347C130.404 19.7033 130.658 20.8084 130.424 21.1645C129.968 21.8588 128.151 21.2015 127.51 21.2346C126.337 21.2949 125.08 21.903 124.133 22.5666C120.128 25.3708 120.331 31.1328 121.292 35.3652C118.718 35.7144 116.117 37.8434 116.065 40.5806C116.039 41.9543 116.537 43.5039 117.34 44.6144C118.163 45.7515 119.663 46.5113 119.817 48.0231C119.979 49.6137 119.643 50.5466 120.973 51.7458C121.947 52.6252 123.237 53.3356 124.468 53.7809C127.35 54.8233 130.63 54.4538 133.43 53.3293C132.007 55.5759 129.729 57.5784 127.511 59.0204C126.517 59.6673 125.347 60.4986 124.226 60.901C123.009 61.3378 121.503 60.5757 120.246 60.4704C114.595 59.9976 108.776 61.0257 103.338 62.4299C97.4528 63.9495 91.6347 65.619 85.7933 67.3073C82.9013 68.1432 80.014 69.0262 77.0923 69.7531C74.8985 70.2989 72.4548 70.779 70.1878 70.3923C68.2551 70.0624 67.3072 68.7591 67.9298 66.8037C68.7502 64.228 70.3508 61.8259 71.3428 59.296C73.1776 54.6163 74.0867 49.24 72.4822 44.3677C71.8324 42.3947 70.9077 40.1042 69.1386 38.8755C68.2034 38.2259 67.0329 37.8429 66.0182 37.3297C64.7289 36.6776 63.3433 36.2055 61.9487 35.8342C56.3457 34.3423 50.4344 35.0397 44.8386 36.189C39.7842 37.2272 31.932 38.6995 29.6746 44.1154C28.9026 45.9673 28.6221 49.0979 30.5413 50.3898C32.1932 51.5013 34.6868 50.7821 36.2934 49.9428C34.7277 51.7437 32.7834 53.4606 32.028 55.7982C31.7623 56.6211 31.5576 57.757 32.0946 58.5199C32.8751 59.6285 34.2021 58.9766 35.2505 58.7166C34.0207 60.3027 32.2498 62.8313 33.5052 64.8587C34.8941 67.1013 37.694 65.598 39.4224 64.6615C41.987 63.272 44.6613 62.1005 47.2309 60.7193C48.6074 59.9797 49.9572 59.1948 51.1577 58.1881C52.1517 57.3546 52.9949 56.4698 54.3667 56.3691C52.5764 59.7486 50.8117 63.2635 50.8443 67.1823C50.8749 70.8315 52.3075 75.1696 54.2433 78.26C56.2688 81.4936 59.5389 83.4842 62.9898 84.9143C66.7477 86.4717 70.5809 87.5231 74.6628 87.6921C82.6195 88.0216 91.197 86.1684 98.0635 82.1002C98.5772 81.7959 98.5956 81.6895 99.0764 82.042C99.6926 82.4933 100.187 84.1193 100.572 84.8017C101.702 86.8032 101.368 88.4858 101.155 90.6799C100.776 94.5767 101.628 98.5139 102.826 102.203C104.024 105.889 106.014 108.807 108.506 111.739C109.624 113.055 110.787 114.093 112.298 114.937C113.94 115.855 115.341 116.655 115.978 118.523C116.509 120.08 116.423 121.411 115.684 122.877C115.493 123.256 115.127 124.416 114.777 124.68C114.444 124.932 114.356 124.707 114.047 124.789C113.483 124.939 113.322 125.022 112.866 125.455C111.647 126.611 109.843 126.918 108.264 127.39C106.092 128.039 103.856 128.67 101.582 128.785C97.6637 128.983 93.1866 128.96 89.4145 127.832C85.6155 126.694 81.6783 126.04 78.0231 124.452C76.3612 123.73 75.5952 123.36 75.2424 121.551C75.0551 120.592 74.7867 120.517 73.9827 120.241C73.0593 119.924 72.6895 119.487 72.1453 118.648C71.1714 117.146 70.2442 115.622 69.3392 114.078C68.2055 112.145 66.7868 110.371 65.72 108.405C65.0824 107.23 64.5982 105.164 62.9375 105.118C61.9518 105.091 60.8781 105.808 59.9925 106.172C58.9129 106.617 57.8244 107.04 56.7471 107.49C52.6 109.224 48.8967 111.828 45.107 114.216C40.9708 116.823 36.2404 118.665 31.8611 120.861C29.8177 121.885 27.8665 123.061 25.9988 124.379C24.791 125.231 22.4332 126.161 22.6097 127.854C22.0121 127.527 21.2645 126.958 20.6928 127.636C20.2208 128.196 20.5445 129.225 20.6633 129.862C21.0538 131.957 21.5184 134.092 22.7952 135.848C24.8177 138.631 28.6723 140.912 32.1849 140.411C36.4787 139.799 39.9224 136.745 43.6122 134.738C44.96 134.005 46.3129 133.323 47.5895 132.472C48.3418 131.971 49.6668 130.889 50.6552 131.02C52.1629 131.218 50.9023 133.002 50.4893 133.697C50.0522 134.434 49.687 135.21 49.2968 135.973C48.8592 136.827 48.1317 137.781 47.8809 138.706C47.7223 139.292 47.7997 140.181 48.529 140.328C49.2706 140.477 49.9054 139.516 50.2817 139.041C50.9018 138.256 51.4181 137.397 51.9504 136.553C52.3036 135.992 52.7397 134.923 53.3362 134.572C54.8814 133.664 53.1916 136.576 52.9141 136.973C52.5661 137.473 52.0614 138.075 51.9773 138.691C51.8534 139.598 52.5919 140.473 53.5412 140.256C54.2725 140.089 54.7658 139.327 55.1772 138.766C55.4417 138.405 56.2321 136.998 56.7445 136.985C57.0612 136.977 57.8609 138.078 58.1078 138.316C58.8256 139.01 59.6765 139.483 60.5691 139.916C64.7017 141.918 68.4593 144.483 72.7702 146.147C76.8889 147.737 81.1835 148.989 85.4698 150.023C87.7306 150.567 89.8438 151.161 92.175 151.353C94.5339 151.547 96.8588 151.45 99.2205 151.401C104.039 151.301 108.581 150.301 113.211 149.026C121.433 146.76 129.158 143.041 135.522 137.283C137.167 135.795 138.655 134.161 140.063 132.45C140.675 131.707 141.315 130.97 141.833 130.158C142.179 129.615 142.493 128.684 143.102 128.374C144.041 127.896 146.205 129.409 147.051 129.829C147.978 130.288 148.927 130.889 149.937 131.129C150.317 131.219 150.686 131.226 151.058 131.356C151.429 131.485 151.867 131.892 152.29 131.801C153.867 131.461 151.283 128.426 153.595 129.963C157.288 132.419 160.741 135.356 164.223 138.101C165.094 138.788 165.988 139.392 166.919 139.994C167.791 140.558 168.46 141.326 169.294 141.937C171.122 143.272 172.845 144.698 174.507 146.236C176.154 147.76 177.733 149.372 179.473 150.791C181.179 152.181 182.508 153.787 183.944 155.444C185.345 157.061 186.39 158.92 187.385 160.804C186.553 160.514 185.855 160.02 185.398 161.103C185.104 161.801 185.355 162.758 185.545 163.452C186.155 165.677 187.435 167.674 188.204 169.846C189.08 172.319 190.374 174.693 191.103 177.21C191.747 179.437 191.596 181.902 192.518 184.059C193.275 185.831 196.033 185.421 197.626 185.579C200.173 185.832 202.689 186.119 205.25 186.198C210.576 186.363 215.972 186.767 221.299 186.561C226.144 186.374 230.978 186.077 235.807 185.66C237.128 185.546 240.069 185.281 240.373 183.546C240.57 182.425 239.573 182.594 238.818 182.664C237.743 182.763 236.655 182.747 235.576 182.766C230.405 182.854 225.328 182.925 220.167 182.531C214.889 182.129 209.614 182.029 204.333 181.833C201.953 181.744 199.64 181.702 197.267 181.81C196.558 181.842 195.688 181.927 195.291 181.241C194.893 180.552 194.948 178.912 194.769 178.136C194.142 175.436 192.766 173.045 191.84 170.451C190.907 167.834 189.978 165.227 188.786 162.713C192.605 162.042 196.419 161.286 200.185 160.359C201.718 159.981 203.336 159.728 204.824 159.215C206.468 158.647 206.505 158.957 206.819 160.512C207.092 161.867 207.403 162.831 206.164 163.733C204.878 164.671 203.304 165.232 202.145 166.344C201.087 167.36 201.3 168.816 203 168.606C204.681 168.398 206.609 167.131 208.132 166.424C208.345 167.346 208.543 168.002 207.947 168.798C207.316 169.641 206.354 170.179 205.641 170.943C205.115 171.507 204.563 172.334 205.428 172.88C206.317 173.442 207.204 172.708 207.869 172.2C208.373 171.815 209.202 170.966 209.872 171.442C210.569 171.938 210.2 173.196 210.612 173.873C211.308 175.016 211.788 174.17 212.466 173.687C213.557 172.909 215.781 173.125 217.08 173.017C218.639 172.888 220.16 172.601 221.709 172.41C223.554 172.182 225.413 172.171 227.256 171.908C230.084 171.504 233.189 170.353 236.027 171.075C240.452 172.201 242.597 176.949 241.895 181.229C241.757 182.072 241.075 183.933 241.861 184.656C242.598 185.334 243.128 184.116 243.396 183.534C244.798 180.481 244.407 176.973 243.747 173.789Z" fill="#323232"/>
<path fill-rule="evenodd" clip-rule="evenodd" d="M192.383 51.9189C198.462 51.3014 204.755 52.6725 210.619 54.1693C215.884 55.5129 221.003 57.7232 224.562 61.9785C225.122 62.6477 225.746 64.1156 226.504 64.546C227.667 65.2064 227.542 63.5833 227.251 62.9239C226.313 60.7951 224.214 58.5537 222.509 57.0201C218.449 53.3668 213.031 51.6728 207.775 50.6275C204.581 49.9924 201.297 49.6361 198.039 49.6309C196.416 49.6286 194.796 49.8084 193.211 50.1676C192.707 50.282 191.974 50.3863 191.71 50.9098C191.413 51.4981 191.678 51.9903 192.383 51.9189Z" fill="#323232"/>
<path fill-rule="evenodd" clip-rule="evenodd" d="M49.6043 88.9366C51.2445 90.647 53.4432 91.8495 55.7739 92.2791C56.9894 92.503 58.8674 92.8407 59.9875 92.1404C60.5537 91.7867 60.8529 91.0954 60.489 90.4567C60.0566 89.6977 58.9238 89.7262 58.1816 89.6216C55.4387 89.2363 53.186 88.4863 51.0939 86.6086C49.1737 84.8853 47.8717 82.684 46.9473 80.2923C46.517 79.1779 46.3283 78.0442 46.0416 76.8928C45.8793 76.2412 45.4526 74.7185 44.7489 75.8256C43.648 77.5579 45.0649 81.0749 45.6951 82.75C46.5674 85.0703 47.8888 87.1471 49.6043 88.9366Z" fill="#323232"/>
<path fill-rule="evenodd" clip-rule="evenodd" d="M115.418 26.2792C116.979 24.6726 117.752 22.5436 119.533 21.0843C119.866 20.8125 121.141 20.2411 121.126 19.7474C121.107 19.0978 120.354 19.2101 119.963 19.3369C118.039 19.9606 114.391 24.2244 115.418 26.2792Z" fill="#323232"/>
<path fill-rule="evenodd" clip-rule="evenodd" d="M144.895 49.5408C145.534 49.0245 147.079 47.6995 146.973 46.7738C146.875 45.9058 146.16 46.1245 145.6 46.4736C145.359 46.624 144.808 47.2554 144.447 47.09C144.08 46.9221 144.36 46.9806 144.217 46.6672C144.019 46.2303 144.343 45.0366 143.498 45.3787C142.996 45.5821 142.746 46.771 142.711 47.228C142.624 48.3734 143.415 50.7377 144.895 49.5408Z" fill="#323232"/>
<path fill-rule="evenodd" clip-rule="evenodd" d="M139.827 53.5047C139.936 54.171 140.867 55.4489 141.656 54.766C142.287 54.2205 141.546 53.5952 141.269 53.0691C141.091 52.728 140.85 51.513 140.347 51.5332C139.563 51.5645 139.748 53.0194 139.827 53.5047Z" fill="#323232"/>
<path fill-rule="evenodd" clip-rule="evenodd" d="M137.013 45.6396C137.209 44.9879 136.485 42.4642 135.531 43.2295C134.751 43.8547 135.695 44.5089 136.054 44.9364C136.228 45.145 136.792 46.3745 137.013 45.6396Z" fill="#323232"/>
</svg>
