<svg width="24" height="24" viewBox="0 0 24 24" fill="none" xmlns="http://www.w3.org/2000/svg">
<path d="M9.26318 18.9105L9.38218 19.2555C9.79418 20.4525 11.0982 21.0885 12.2952 20.6765C13.4922 20.2645 14.1282 18.9605 13.7162 17.7635L13.5972 17.4185" stroke="#323232" stroke-width="1.5" stroke-linecap="round" stroke-linejoin="round"/>
<path d="M10.6792 5.10455L10.3802 4.23655C10.0502 3.27955 9.00718 2.77055 8.04918 3.10055C7.09218 3.43055 6.58318 4.47355 6.91218 5.43055L7.21118 6.29855" stroke="#323232" stroke-width="1.5" stroke-linecap="round" stroke-linejoin="round"/>
<path d="M5.2482 11.6666C4.4332 9.30056 5.6912 6.72156 8.0572 5.90656L9.7712 5.31656C12.1372 4.50156 14.7162 5.75956 15.5312 8.12556L16.4412 10.7696C16.6142 11.2716 16.9792 11.6836 17.4552 11.9156L18.2702 12.3126C18.7472 12.5456 19.1122 12.9576 19.2842 13.4586C19.6242 14.4456 19.0992 15.5216 18.1122 15.8616L7.9772 19.3516C6.9902 19.6916 5.9142 19.1666 5.5742 18.1796C5.4012 17.6776 5.4352 17.1286 5.6672 16.6516L6.0642 15.8366C6.2972 15.3596 6.3302 14.8106 6.1572 14.3086L5.2482 11.6666V11.6666Z" stroke="#323232" stroke-width="1.5" stroke-linecap="round" stroke-linejoin="round"/>
</svg>
