<svg width="24" height="24" viewBox="0 0 24 24" fill="none" xmlns="http://www.w3.org/2000/svg">
<path fill-rule="evenodd" clip-rule="evenodd" d="M20.926 15.9989V8.00095C20.926 7.28595 20.545 6.62595 19.926 6.26895L13 2.26995C12.381 1.91295 11.619 1.91295 11 2.26995L4.07397 6.26895C3.45497 6.62595 3.07397 7.28695 3.07397 8.00095V15.9979C3.07397 16.7129 3.45497 17.3729 4.07397 17.7299L11 21.7299C11.619 22.0869 12.381 22.0869 13 21.7299L19.926 17.7309C20.545 17.3739 20.926 16.7129 20.926 15.9989V15.9989Z" stroke="#323232" stroke-width="1.5" stroke-linecap="round" stroke-linejoin="round"/>
<path d="M6.16998 12.6299L9.16998 14.3699" stroke="#323232" stroke-width="1.5" stroke-linecap="round" stroke-linejoin="round"/>
<path d="M3.34198 7.00098L12 12L20.658 7.00098" stroke="#323232" stroke-width="1.5" stroke-linecap="round" stroke-linejoin="round"/>
<path d="M12 22V12" stroke="#323232" stroke-width="1.5" stroke-linecap="round" stroke-linejoin="round"/>
<path d="M7.66998 9.5001L16.6 4.3501" stroke="#323232" stroke-width="1.5" stroke-linecap="round" stroke-linejoin="round"/>
</svg>
