<svg width="24" height="24" viewBox="0 0 24 24" fill="none" xmlns="http://www.w3.org/2000/svg">
<path d="M17.39 1.76001L16.31 2.84001" stroke="white" stroke-width="1.5" stroke-linecap="round" stroke-linejoin="round"/>
<path d="M8.31 1.76001L9.31 2.76001" stroke="white" stroke-width="1.5" stroke-linecap="round" stroke-linejoin="round"/>
<path d="M12.85 1V2.41" stroke="white" stroke-width="1.5" stroke-linecap="round" stroke-linejoin="round"/>
<path d="M14.582 22.545C16.691 22.799 18.89 22.123 20.508 20.504C22.202 18.81 22.937 16.381 22.468 14.032L21.226 7.82395C21.081 7.09795 20.443 6.57495 19.702 6.57495C18.844 6.57495 18.148 7.27095 18.148 8.12895V9.61195" stroke="white" stroke-width="1.5" stroke-linecap="round" stroke-linejoin="round"/>
<path d="M15.37 8.03899L13.552 6.22099C12.966 5.63499 12.016 5.63499 11.431 6.22099C10.845 6.80699 10.845 7.75699 11.431 8.34199" stroke="white" stroke-width="1.5" stroke-linecap="round" stroke-linejoin="round"/>
<path d="M6.78202 7.93696C6.19602 7.35096 6.19602 6.40096 6.78202 5.81596C7.36802 5.22996 8.31802 5.22996 8.90302 5.81596L12.792 9.70496L14.913 11.826V9.13697C14.913 8.27897 15.609 7.58297 16.467 7.58297C17.208 7.58297 17.846 8.10596 17.991 8.83196L19.11 14.429C19.58 16.778 18.845 19.207 17.15 20.901C14.352 23.699 9.81502 23.699 7.01702 20.901L4.30702 18.19L1.83202 15.715C1.24602 15.129 1.24602 14.179 1.83202 13.594C2.41802 13.008 3.36802 13.008 3.95302 13.594" stroke="white" stroke-width="1.5" stroke-linecap="round" stroke-linejoin="round"/>
<path d="M7.13602 16.7759L2.54002 12.1799C1.95402 11.5939 1.95402 10.6439 2.54002 10.0589C3.12602 9.47288 4.07602 9.47288 4.66102 10.0589" stroke="white" stroke-width="1.5" stroke-linecap="round" stroke-linejoin="round"/>
<path d="M9.257 14.654L3.247 8.644C2.661 8.058 2.661 7.108 3.247 6.523C3.833 5.937 4.783 5.937 5.368 6.523L11.378 12.533" stroke="white" stroke-width="1.5" stroke-linecap="round" stroke-linejoin="round"/>
</svg>
