<svg width="24" height="24" viewBox="0 0 24 24" fill="none" xmlns="http://www.w3.org/2000/svg">
<path d="M11.9977 12C11.7611 12 11.5691 12.192 11.5714 12.4286C11.5714 12.6651 11.7634 12.8571 12 12.8571C12.2366 12.8571 12.4286 12.6651 12.4286 12.4286C12.4274 12.192 12.2354 12 11.9977 12Z" fill="#323232" stroke="#323232" stroke-width="1.5" stroke-linecap="round" stroke-linejoin="round"/>
<path d="M16.5691 12C16.3326 12 16.1406 12.192 16.1428 12.4286C16.1428 12.6651 16.3348 12.8571 16.5714 12.8571C16.808 12.8571 17 12.6651 17 12.4286C16.9988 12.192 16.8068 12 16.5691 12Z" fill="#323232" stroke="#323232" stroke-width="1.5" stroke-linecap="round" stroke-linejoin="round"/>
<path d="M7.42631 12C7.18973 12 6.99773 12.192 7.00002 12.4286C7.00002 12.6651 7.19202 12.8571 7.42859 12.8571C7.66516 12.8571 7.85716 12.6651 7.85716 12.4286C7.85602 12.192 7.66402 12 7.42631 12Z" fill="#323232" stroke="#323232" stroke-width="1.5" stroke-linecap="round" stroke-linejoin="round"/>
</svg>
