<svg width="259" height="194" viewBox="0 0 259 194" fill="none" xmlns="http://www.w3.org/2000/svg">
<path fill-rule="evenodd" clip-rule="evenodd" d="M53.236 97.0913C53.5686 99.3232 54.4046 101.285 55.1102 103.374C55.4437 104.362 55.9639 105.369 56.4745 106.276C56.805 106.864 57.224 108.26 57.8304 107.445C57.9311 107.87 57.7988 108.079 57.9388 108.472C58.1361 109.028 59.16 109.72 59.6052 110.148C60.0343 110.56 60.5062 110.877 60.9682 111.241C61.0595 111.313 61.2492 111.254 61.3231 111.338C61.461 111.494 61.3323 111.711 61.3905 111.784C62.1143 112.692 63.3702 113.337 64.3114 114.005C65.6565 114.959 66.9951 115.912 68.306 116.912C69.3421 117.702 70.3304 118.535 71.358 119.326C71.8503 119.705 72.2226 120.081 72.5886 120.575C73.0427 121.188 73.1113 121.216 72.7955 121.849C72.2305 122.981 71.212 123.712 70.5317 124.728C69.7565 125.887 69.2578 127.183 68.2045 128.149C67.7334 127.089 67.1248 128.639 67.9069 128.475C67.5435 129.551 66.7315 130.468 66.1896 131.48C65.549 132.677 64.8488 133.764 64.0905 134.888C64.0132 134.61 63.9361 134.331 63.8585 134.052C63.1211 134.228 63.7116 134.768 63.7659 134.992C63.812 135.182 63.9722 135.202 63.8579 135.614C63.7721 135.924 63.4743 136.188 63.2855 136.445C62.8607 137.024 62.4652 137.62 62.0642 138.215C61.6693 138.801 61.5315 139.284 61.277 139.856C61.05 140.367 60.841 140.27 60.4752 140.646C60.0969 141.035 59.7206 141.712 59.3837 142.159C58.381 143.491 57.48 145.017 56.7954 146.532C56.1429 147.977 54.9382 148.992 54.3874 150.524C54.1058 151.306 54.0028 152.129 53.7587 152.919C53.5304 153.657 53.1566 154.343 53.0153 155.109C52.8979 155.745 52.9735 156.482 52.9166 157.04C52.87 157.495 52.6791 158.194 52.7356 158.836C52.8554 160.19 53.4174 161.364 54.0881 162.491C51.0277 163.527 47.5458 163.818 44.3347 163.742C42.6937 163.704 40.8236 163.689 39.2178 164.068C38.2892 164.287 37.576 164.56 36.6006 164.484C35.6261 164.407 34.6525 164.316 33.6784 164.232C33.9628 163.66 34.8914 162.939 35.4127 162.5C35.7136 162.246 36.2098 162.186 36.44 161.942C36.7038 161.661 36.7843 160.962 36.8782 160.625C37.6006 158.036 38.1339 155.424 38.5864 152.777C39.3856 148.098 39.6955 143.334 39.9907 138.626C40.012 138.288 40.1777 137.878 40.1692 137.557C40.1558 137.037 40.0521 136.745 40.0916 136.25C40.1167 135.937 40.4912 135.518 40.475 135.242C40.4606 134.998 40.0436 135.184 40.0443 134.818C40.0453 134.293 40.7968 133.537 40.9538 133.066C41.0143 132.883 40.7907 132.639 40.7686 132.434L40.7675 132.398C40.7772 132.403 40.9425 131.66 40.9493 131.63C41.0041 131.392 41.2188 131.317 41.208 131.019C41.1987 130.762 40.8212 130.426 41.0251 130.159C41.1645 129.977 41.6717 130.269 41.7862 130.062C41.9336 129.795 41.286 128.882 41.3577 128.469C41.4748 127.796 41.9559 127.113 42.1196 126.421C42.1925 126.113 42.1118 125.631 42.3514 125.376C42.7422 124.961 43.0822 125.386 43.6461 125.248C43.071 124.76 42.9594 124.333 43.1294 123.621C43.2621 123.066 43.5268 122.448 44.1351 123.003C44.0444 122.174 44.0476 122.045 44.6676 121.416C44.9683 121.111 45.2925 120.599 45.652 120.393C45.7608 120.279 45.8698 120.165 45.9787 120.051C46.1261 120.204 46.3014 120.291 46.5044 120.311C48.2431 120.219 49.1116 119.863 50.7087 120.905C51.3822 121.344 52.0536 121.673 52.6326 122.245C53.2783 122.882 53.7991 123.633 54.4909 124.229C55.2642 124.896 56.0274 125.443 56.7172 126.207C57.2875 126.839 57.8362 127.555 58.6004 127.941C58.6588 127.027 58.1584 126.21 57.7208 125.411C57.6684 125.316 57.2875 125.059 57.2958 125.087C57.2495 124.927 57.425 124.789 57.3706 124.647C58.0331 125.245 58.7178 126.133 59.4765 126.581C60.7148 127.312 60.1647 125.885 59.9283 125.152C59.2548 123.06 58.0345 121.056 56.6238 119.367C54.1553 116.414 50.0375 113.117 46.0968 114.976C42.1912 116.819 40.1337 119.913 39.0131 124.028C37.7125 128.806 37.1155 133.37 36.9919 138.319C36.9209 141.152 36.6316 143.962 36.3334 146.779C36.0422 149.528 35.9231 152.506 35.3676 155.206C35.0191 154.699 34.8135 154.316 34.6395 153.747C34.5688 153.517 34.6576 153.291 34.5369 153.065C34.4813 152.961 34.1992 152.973 34.1466 152.878C33.7139 152.099 33.106 151.026 32.9072 150.129C32.8023 149.656 32.8981 149.38 32.6954 148.95C32.5051 148.547 32.4093 148.929 32.3369 148.431C32.3267 148.362 32.6457 148.249 32.5474 147.926C32.2991 147.112 32.1239 147.884 32.0047 147.879C31.759 147.868 32.314 146.198 32.2702 145.936C32.2199 145.634 32.0791 145.799 32.0104 145.579C31.9486 145.38 31.873 145.093 31.8265 144.818C31.6857 143.977 31.3667 143.703 31.3522 142.793C31.335 141.696 30.9276 140.989 30.7452 139.94C30.7114 139.747 30.9227 139.53 30.8845 139.361C30.8053 139.01 30.5502 138.718 30.451 138.346C30.2437 137.569 30.6575 136.899 30.5999 136.15C30.6092 136.273 30.3671 135.599 30.352 135.54C30.2647 135.197 30.3021 134.739 30.2331 134.366C30.1681 134.016 29.9525 133.55 30.1456 133.223C30.2775 132.999 30.5742 133.06 30.7469 132.811C30.1124 132.607 30.2456 132.829 30.0164 132.13C29.7977 131.463 29.7764 130.904 30.5011 131.345C30.318 130.895 29.9771 130.342 29.9028 129.86C29.835 129.419 29.9973 128.993 29.9508 128.554C29.8265 127.379 29.464 126.665 30.1326 125.525C29.2518 125.075 29.6331 123.509 29.4965 122.656C29.3486 121.731 28.988 120.847 29.6832 120.24C28.8017 119.607 29.2499 117.556 29.2662 116.577C29.282 115.64 29.2087 114.69 29.2197 113.601C29.2263 112.986 29.0528 112.563 28.9058 111.955C28.7161 111.17 28.909 110.569 28.8442 109.81C28.7926 109.208 28.5647 108.602 28.5339 107.96C28.5022 107.306 28.5568 106.571 28.4644 105.928C28.3875 105.395 28.2601 105.014 28.2467 104.439C28.2429 104.268 28.1596 103.962 28.1947 103.804C28.1934 103.81 28.4324 103.255 28.4307 103.5C28.4377 102.589 27.981 101.699 28.2204 100.589C28.4173 99.6777 28.5823 99.8271 29.5028 99.8836C30.229 99.9282 30.955 99.976 31.6827 99.9788C32.6253 99.9826 35.6567 99.3298 36.3389 99.9932C36.9039 100.543 36.5756 103.144 36.614 103.929C36.6762 105.208 35.4503 105.599 35.1104 106.905C34.4624 109.395 35.5329 112.681 38.4538 112.894C41.1785 113.093 43.7923 110.855 43.4182 108.105C43.2681 107.002 42.7589 105.8 41.7978 105.155C40.8682 104.53 38.8933 105.001 38.2459 104.248C37.9438 103.896 38.0636 102.53 38.0286 102.072C37.9776 101.405 37.6718 100.071 38.1118 99.7554C38.6086 99.3983 40.1432 99.3913 40.7103 99.3898C41.5141 99.3877 42.2456 99.3886 43.0431 99.2538C44.8082 98.9553 46.5679 98.9674 48.3019 98.5768C50.0235 98.1893 51.6141 97.784 53.236 97.0913ZM74.2719 97.0913C74.6304 97.0825 75.4008 100.047 75.6039 100.569C76.1589 101.998 76.3863 103.44 76.6951 104.942C77.0121 106.485 77.2963 108.053 77.707 109.573C78.0155 110.716 77.9463 111.822 78.3614 112.972C78.2516 113.684 78.3502 114.914 77.5628 115.22C76.8508 115.496 76.3881 114.821 76.1237 114.235C75.4097 112.654 75.639 110.543 75.3787 108.842C75.0715 106.834 75.0534 104.856 74.8125 102.846C74.6003 101.075 73.8815 98.8373 74.2719 97.0913ZM43.1915 56.4744C43.9722 57.3545 45.1187 56.9851 46.1471 56.8875C45.7108 57.8779 45.0845 58.9376 45.0612 60.0465C45.0493 60.6217 45.3592 61.1324 45.3558 61.6812C45.3522 62.2254 44.9101 62.7332 44.7004 63.2384C43.7587 65.5052 43.531 68.5762 43.4957 71.0104C43.4231 76.0461 44.9324 81.4097 48.1425 85.3579C48.82 86.1909 49.5814 86.9607 50.4326 87.6181C50.8955 87.9754 53.0275 88.8239 53.1273 89.3257C53.3206 90.2972 51.1328 90.2013 50.5354 90.2883C49.2793 90.4712 48.0374 90.7338 46.7793 90.903C41.7376 91.58 36.7607 92.1208 31.678 91.8473C31.1156 91.8171 30.0641 92.0969 29.5326 91.8719C28.908 91.608 29.1211 91.0824 29.1362 90.468C29.175 88.8906 28.948 87.3392 28.8154 85.7721C28.7081 84.5043 28.9987 84.6734 29.9294 83.9718C30.8917 83.2462 31.8326 81.8991 32.1468 80.7445C33.042 81.4654 32.3936 81.8531 32.5211 82.7781C32.6766 83.9064 33.4403 83.7214 33.944 82.9662C34.7253 81.7949 34.6563 79.9436 33.9259 78.773C33.2719 77.7249 30.938 76.1153 29.6139 76.5947C27.8522 77.233 29.7696 79.3743 30.6032 79.8382C30.3976 80.4308 29.2596 80.9517 28.7525 81.277C28.0485 81.7287 27.135 81.9907 26.3212 82.2409C24.1499 82.908 22.0398 83.005 19.799 82.6779C17.6458 82.3639 15.18 81.6637 13.7909 79.9011C13.1901 79.1389 12.6378 77.9786 13.2141 77.0241C13.7333 76.1637 15.0169 76.1043 15.648 75.2708C15.9206 74.9112 16.0516 74.4339 16.3021 74.0855C16.7096 73.5194 16.5456 73.6201 17.3116 73.6851C18.5516 73.7901 19.8738 73.8698 21.0949 73.5716C22.0126 73.3473 22.9063 72.9282 23.8043 72.6609C24.7575 72.3771 25.6612 71.7804 26.3983 71.1374C28.0984 69.654 29.7629 68.0418 31.337 66.425C32.902 64.8179 33.9043 62.7495 35.3692 61.0452C37.0296 59.1141 38.6261 56.6456 41.0595 55.5825C42.4576 54.9719 42.4321 55.6176 43.1915 56.4744ZM49.1033 62.894C49.3401 63.1413 49.1893 64.559 49.4152 65.0113C50.2825 66.7493 51.7996 66.3655 53.3691 66.0003C53.5043 67.393 53.6091 68.9618 54.1718 70.2598C54.4233 70.8394 54.8206 71.3371 55.0235 71.9429C55.1519 72.3267 55.1002 72.8139 55.2454 73.1707C55.4023 73.5564 55.8001 73.8536 56.0326 74.2339C56.3135 74.6932 56.4608 75.1219 56.8304 75.5239C57.6394 76.4031 58.7378 77.1483 59.3568 78.1971C59.6109 78.6274 59.6556 78.9464 59.6479 79.4477C59.6453 79.6275 59.5187 80.2875 59.5751 80.4206C59.7814 80.9086 60.5235 81.0346 60.6054 81.665C60.6519 82.0193 60.4587 81.9769 60.3929 82.2721C60.3142 82.6272 60.3706 82.8709 60.2405 83.2665C60.0339 83.8944 59.1226 85.0759 59.2171 85.6167C57.8763 86.3539 55.5184 86.8211 54.0162 86.4845C52.4801 86.1404 50.9445 84.3987 49.9533 83.2576C47.6262 80.579 46.2714 76.3482 46.1442 72.8443C46.0797 71.0662 46.3169 69.2797 46.4008 67.5047C46.4481 66.5045 46.2343 63.6874 47.0828 62.9869C47.2726 62.8303 48.937 62.7202 49.1033 62.894ZM36.5829 66.2481C34.5131 66.3666 32.7365 69.6029 33.1195 71.4934C33.4342 73.045 33.9648 71.8452 34.3678 71.1787C34.8435 70.392 35.7042 69.4404 36.7261 69.6423C37.8617 69.8669 38.1513 71.2483 38.6144 72.1241C39.4588 73.7213 39.7218 72.0063 39.909 71.0369C39.7601 69.1411 39.0631 66.1063 36.5829 66.2481Z" fill="#6951FF"/>
<path fill-rule="evenodd" clip-rule="evenodd" d="M161.352 162.955C160.273 163.29 159.261 163.783 158.222 164.223C157.041 164.723 156.217 164.81 154.928 164.808C149.938 164.801 144.999 165.057 140 165.158C138.634 165.185 137.248 165.199 135.882 165.174C135.331 165.164 134.79 165.101 134.241 165.056C133.887 165.027 132.341 165.239 132.135 165.115C131.555 164.767 131.899 162.524 131.829 161.805C131.707 160.558 131.39 159.355 130.95 158.183C129.373 153.988 126.722 149.895 123.371 146.902C127.903 145.001 132.847 142.494 137.877 143.622C139.792 144.052 142.331 144.614 143.318 146.465C144.371 148.441 145.293 150.613 146.497 152.505C147.842 154.619 149.27 156.431 151.217 158.016C151.986 158.642 155.858 162.487 155.27 159.519C155.081 158.567 154.384 157.682 153.828 156.905C153.544 156.51 152.018 155.214 152.256 154.756C152.522 154.242 155.275 153.88 155.865 153.717C157.083 153.379 158.295 153.019 159.509 152.665C159.07 153.491 156.682 156.617 158.208 157.416C158.768 157.71 160.218 156.67 160.832 156.487C161.878 156.176 162.835 156.381 163.863 156.689C163.837 157.193 162.845 157.2 162.515 157.544C162.033 158.048 161.694 159.407 162.072 160.011C162.777 161.136 165.503 159.988 166.722 160.415C165.352 161.827 163.202 162.382 161.352 162.955ZM93.2566 116.514C93.2708 116.543 93.2449 116.583 93.081 116.725C93.0309 116.546 92.9418 116.507 92.8324 116.556C92.9204 116.46 92.9932 116.41 93.081 116.725C93.1501 116.665 93.2074 116.591 93.2566 116.514ZM93.6734 115.921C93.6408 116.029 93.5663 116.08 93.4526 116.077C93.4585 116.058 93.4641 116.041 93.4685 116.027C93.544 115.791 93.6446 115.831 93.6111 115.398C93.6562 115.471 93.6906 115.544 93.6654 115.617C93.7373 115.727 93.7396 115.828 93.6734 115.921ZM81.5432 136.278C81.6584 136 81.6887 135.678 81.8374 135.423C81.6919 135.681 81.6895 136.001 81.5432 136.278ZM128.43 164.938C126.623 164.866 124.863 164.898 123.057 164.977C119.198 165.145 115.322 165.169 111.471 165.479C109.587 165.63 107.776 165.688 105.886 165.624C104.234 165.569 102.576 165.627 100.929 165.489C99.1202 165.337 97.4269 164.838 95.6017 164.811C93.8567 164.785 91.7784 164.583 90.0858 164.838C89.7935 164.882 89.6361 165.068 89.2914 165.113C88.8148 165.175 88.1443 164.981 87.6567 164.948C86.8008 164.891 85.8546 164.985 85.0195 164.786C84.7327 164.718 84.5318 164.612 84.2538 164.5C84.0026 164.399 83.4399 164.321 83.3018 164.285C84.0976 163.989 82.3322 163.385 82.1899 163.352C82.1541 163.472 82.2334 163.641 82.3638 163.804C81.912 163.458 82.3959 163.586 81.6571 163.235C81.3463 163.088 80.759 162.993 80.4107 162.954C80.0756 162.916 79.8946 162.955 79.7421 162.947C79.7731 162.913 79.8034 162.867 79.8329 162.806C80.0794 162.298 79.3281 161.718 78.906 162.059C78.9548 162.159 79.0339 162.342 79.1296 162.522C79.1253 162.518 79.1217 162.514 79.1175 162.509C78.9609 162.328 78.6665 161.866 78.3734 161.556C78.745 161.351 78.2904 161.072 78.1191 160.787C78.0018 160.851 77.8717 160.906 77.8045 160.995C77.9021 160.792 78.1441 160.607 78.0022 160.212C77.9617 160.098 77.8543 159.928 77.7197 159.808C77.8476 159.908 77.9806 160.019 78.1528 159.995C77.9375 159.669 77.8584 159.547 77.7763 159.22C77.7186 158.991 78.0404 158.769 77.7347 158.561C77.7441 158.345 77.873 157.35 77.3321 157.697C77.3321 157.697 77.3321 157.697 77.3319 157.697C77.3321 157.697 77.3321 157.696 77.3323 157.696C77.6785 156.639 78.2673 155.547 78.7049 154.513C79.7243 152.105 80.7722 149.679 81.8389 147.293C83.6028 143.344 85.4445 139.406 87.474 135.564C89.4861 131.755 91.6828 128.071 93.5818 124.21C95.4136 120.485 97.5504 116.92 99.3949 113.201C100.264 111.449 101.428 110 101.724 107.965C101.82 107.305 101.851 105.931 100.851 106.178C100.202 106.339 99.2929 107.963 98.8738 108.491C98.4983 107.976 96.3797 104.95 95.8117 106.753C95.3243 108.298 98.3753 108.972 97.158 110.528C97.0373 110.683 96.5373 110.839 96.3732 110.981C96.0535 111.259 95.7612 111.749 95.5143 112.084C94.9518 112.848 94.4864 113.66 93.9663 114.45C93.8686 114.598 93.5109 114.935 93.4834 115.109C93.4687 115.201 93.5464 115.296 93.607 115.392C93.1839 115.766 92.6502 116.096 92.5511 116.702C92.5804 116.715 92.6076 116.717 92.6334 116.712C92.2402 117.123 91.7424 118.119 91.6711 118.222C91.1412 118.992 90.6211 119.798 90.0974 120.61C89.8145 121.049 89.3194 121.565 89.1569 122.059C89.1007 122.229 89.2653 122.535 89.1117 122.695C88.7079 123.114 88.3131 123.025 88.0111 123.869C87.8923 124.202 87.8817 124.667 87.6906 124.952C87.3843 125.409 86.9461 125.625 86.6597 126.117C86.1169 127.051 85.466 128.076 85.1238 129.018C85.1226 129.022 85.1224 129.026 85.1209 129.03C85.1092 128.956 85.0931 128.876 85.074 128.788C84.8801 129.136 84.6865 129.484 84.4928 129.832C84.8279 129.767 85.0074 129.676 85.0891 129.527C85.0795 129.577 85.0636 129.628 85.0331 129.682C84.8617 129.761 84.6814 129.811 84.4928 129.832C84.3628 130.046 84.2412 130.265 84.1278 130.488C84.0722 130.601 83.8853 131.289 83.8066 131.81C83.7778 131.608 83.7487 131.426 83.7455 131.402C83.4997 131.875 83.2539 132.347 83.008 132.82C83.4541 132.477 83.4291 132.419 83.8537 132.411C83.3183 132.421 82.5083 133.172 82.4338 133.894C82.4217 134.011 82.4936 134.139 82.5573 134.26C82.5426 134.258 82.528 134.256 82.511 134.255C81.9504 134.207 82.1144 134.32 81.9019 134.787C81.9831 134.754 82.455 134.57 82.6324 134.427C82.6517 134.488 82.6549 134.544 82.6249 134.592C82.486 134.813 81.3508 134.67 82.0798 135.16C81.474 134.753 81.1713 136.088 81.3775 136.547C81.2144 136.782 81.0201 136.999 80.8375 137.216C80.3884 137.751 80.1403 138.157 79.8461 138.808C79.3453 139.917 78.7478 141.017 78.2003 142.105C77.9924 142.518 77.7502 142.871 77.4952 143.254C77.043 143.936 77.1226 143.766 77.4793 144.508C77.3455 144.464 77.1474 144.57 76.9558 144.722C77.06 144.546 77.1928 144.415 77.4793 144.508C77.0267 143.566 76.6381 144.714 76.4298 145.253C76.4391 145.253 76.4468 145.251 76.4555 145.25C76.4271 145.292 76.4056 145.329 76.3927 145.359C76.1799 145.797 75.929 146.065 76.1106 146.524C76.1628 146.269 76.3702 146.071 76.4582 145.852C76.3341 146.387 75.7494 147.028 75.5729 147.383C75.4263 147.677 75.4055 147.987 75.2252 148.307C75.056 148.608 74.9035 148.811 74.7734 149.155C74.1447 150.819 73.8386 152.673 73.442 154.421C72.973 156.487 72.78 158.682 72.6797 160.797C72.6504 161.411 72.6343 161.954 72.8559 162.538C72.8882 162.623 73.2333 163.073 73.2244 163.237C73.1767 164.097 71.5591 163.919 70.937 163.894C69.9479 163.854 69.2746 164.014 68.3246 164.151C67.4482 164.278 66.588 164.208 65.698 164.423C64.2198 164.78 62.0187 165.345 60.5895 164.561C59.8987 164.182 59.0284 163.084 58.527 162.468C57.9097 161.709 57.7021 160.937 57.5915 159.97C57.4028 158.317 57.3898 156.491 57.9653 154.911C60.6392 147.57 65.2261 140.897 69.182 134.217C72.8939 127.947 77.0553 122.005 80.7749 115.753C82.7412 112.449 85.1069 109.179 87.4456 106.124C89.8361 103.002 91.5419 99.6055 93.2273 96.0718C94.9741 96.997 96.8233 97.9483 98.7768 98.3665C99.8874 98.6042 100.99 98.5321 102.11 98.6089C102.935 98.6654 103.626 98.8602 104.467 98.8815C108.153 98.9752 112.412 98.5342 115.936 97.4468C116.781 97.186 117.537 96.9153 118.33 96.5395C119.341 96.0597 119.615 95.8561 119.672 96.9714C119.784 99.1305 120.136 101.229 120.303 103.376C120.465 105.468 120.886 107.531 121.26 109.599C121.449 110.646 121.652 111.692 121.807 112.744C121.925 113.543 122.28 114.653 122.139 115.452C121.984 116.333 121.147 117.227 120.669 117.979C120.183 118.742 119.695 119.503 119.211 120.267C118.303 121.699 117.399 123.058 116.327 124.373C114.339 126.809 112.646 129.357 110.761 131.872C108.759 134.544 107.095 137.43 105.131 140.128C104.093 141.554 103.032 142.899 102.352 144.504C101.788 145.836 100.653 147.061 99.9585 148.379C99.0468 150.11 97.8872 151.695 96.9819 153.434C96.3498 154.649 95.1294 155.884 95.0012 157.296C94.7866 159.664 97.0415 157.298 97.5633 156.637C98.2633 155.751 99.0309 154.201 100.083 153.721C100.834 153.378 101.931 153.415 102.746 153.147C103.601 152.866 104.439 152.574 105.302 152.317C106.983 151.815 108.604 151.107 110.238 150.471C111.929 149.811 113.619 149.146 115.279 148.413C116.047 148.074 116.694 147.9 117.515 147.752C117.868 147.689 119.131 147.092 119.41 147.143C119.877 147.228 120.521 148.6 120.875 148.952C121.421 149.496 122.035 149.941 122.546 150.526C123.55 151.678 124.615 152.906 125.486 154.159C127.433 156.957 129.254 160.014 129.946 163.384C130.257 164.897 129.894 164.997 128.43 164.938ZM77.7977 161.281C77.7858 161.255 77.7784 161.231 77.7735 161.207C77.7797 161.231 77.7852 161.254 77.7977 161.281C78.0283 161.144 78.0894 161.216 78.1129 161.328C77.9969 161.254 77.8887 161.227 77.7977 161.281ZM77.2609 159.718C77.2513 159.676 77.2471 159.637 77.2456 159.6C77.249 159.639 77.252 159.679 77.2609 159.718C77.3871 159.634 77.4923 159.658 77.5935 159.718C77.4857 159.66 77.3697 159.646 77.2609 159.718ZM77.4925 158.696C77.5633 158.691 77.6439 158.652 77.7347 158.561C77.6603 158.636 77.5901 158.715 77.5262 158.797C77.5273 158.787 77.529 158.777 77.5296 158.766C77.5311 158.747 77.515 158.722 77.4925 158.696ZM54.5378 150.132C54.013 151.367 53.7945 152.72 53.3487 153.985C53.0078 154.953 52.8716 155.91 52.7823 156.922C53.0933 157.151 53.0863 157.353 52.7613 157.527C52.7382 157.747 52.7304 157.968 52.7378 158.189C52.6534 158.834 52.7779 159.395 52.9486 160.013C53.2193 160.993 53.5623 161.697 54.0656 162.543C51.0108 163.579 47.5305 163.87 44.3254 163.795C42.5931 163.754 40.65 163.751 38.962 164.177C37.1444 164.637 35.5506 164.445 33.6834 164.284C33.9562 163.736 34.9987 162.82 35.5266 162.439C35.7954 162.245 36.2374 162.212 36.4413 161.994C36.7321 161.685 36.7662 161.084 36.8791 160.678C37.5994 158.089 38.1324 155.479 38.5849 152.831C39.382 148.164 39.7523 143.386 39.9873 138.683C40.0073 138.285 40.213 137.839 40.2031 137.462C40.1899 136.967 40.0482 136.805 40.0881 136.308C40.114 135.983 40.5034 135.543 40.4752 135.254C40.4574 135.074 40.0141 135.23 40.0408 134.876C40.0822 134.331 40.7885 133.613 40.9488 133.124C41.0201 132.906 40.7543 132.689 40.7626 132.452C40.7603 132.52 40.938 131.717 40.9446 131.688C40.9983 131.457 41.2146 131.36 41.203 131.077C41.1921 130.82 40.8173 130.484 41.0203 130.217C41.2256 129.948 41.6509 130.356 41.7803 130.12C41.9275 129.853 41.2806 128.941 41.3525 128.527C41.4783 127.804 41.9714 127.025 42.1645 126.29C42.2368 126.014 42.1203 125.674 42.3448 125.435C42.7355 125.02 43.0744 125.446 43.6378 125.307C43.0789 124.832 42.9558 124.375 43.1217 123.68C43.2562 123.116 43.5156 122.506 44.1261 123.063C44.0457 122.328 43.9596 122.254 44.4879 121.64C44.944 121.11 45.5351 120.476 46.0811 120.07C46.8971 119.463 48.1997 119.15 49.1675 119.079C50.2238 119.001 51.5224 119.567 52.3218 120.364C53.2942 121.334 54.5518 122.041 55.655 122.968C56.833 123.958 57.8444 125.134 58.9762 126.183C59.2085 126.398 59.6363 127.001 59.9952 126.897C60.5806 126.728 60.1078 125.855 59.9795 125.467C59.067 122.706 57.4269 119.924 55.1709 118.04C54.0075 117.068 52.85 115.839 51.4976 115.131C50.405 114.559 49.5517 114.649 48.3901 114.608C47.3972 114.574 47.1932 114.515 46.3078 114.932C45.6802 115.228 45.0587 115.517 44.4665 115.878C43.5194 116.456 42.5427 117.159 41.8427 118.033C39.9793 120.359 39.252 123.317 38.5197 126.152C37.7139 129.269 37.1593 132.316 37.0615 135.551C36.9622 138.843 36.8095 142.086 36.4845 145.365C36.3155 147.07 36.121 148.771 35.9004 150.471C35.6972 152.037 35.6866 153.721 35.3705 155.259C34.9724 154.68 34.8487 154.233 34.629 153.609C34.4807 153.188 34.3303 153.203 34.1157 152.893C33.6609 152.237 33.0924 150.993 32.9134 150.184C32.8038 149.689 32.9051 149.441 32.7019 149.005C32.6392 148.871 32.2979 148.976 32.2432 148.763C32.2039 148.61 32.4177 148.492 32.4082 148.44C32.3859 148.319 32.7179 148.185 32.4311 147.806C32.0236 147.268 32.2321 147.943 32.0122 147.934C31.8289 147.926 32.3789 146.068 32.3142 145.798C32.2913 145.703 31.9795 145.69 31.9545 145.602C31.8787 145.334 31.8959 144.945 31.8221 144.655C31.6416 143.945 31.3737 143.66 31.3606 142.849C31.3432 141.778 30.9457 141.019 30.7543 139.997C30.7174 139.801 30.934 139.588 30.8935 139.418C30.8114 139.072 30.555 138.769 30.4606 138.403C30.2788 137.698 30.5214 136.703 30.4718 136.13C30.4281 135.628 30.2873 134.814 30.1946 134.19C30.0438 133.176 30.3148 133.507 30.756 132.869C30.1443 132.672 30.2222 132.845 30.0266 132.189C29.8011 131.43 29.8219 130.983 30.5106 131.403C30.3276 130.952 29.9878 130.401 29.9131 129.918C29.8437 129.47 30.0079 129.058 29.961 128.612C29.8338 127.408 29.4573 126.754 30.1426 125.584C29.2617 125.134 29.6454 123.582 29.5073 122.716C29.3586 121.781 28.9974 120.909 29.6938 120.3C28.9777 119.785 29.2613 118.31 29.2643 117.521C29.2655 117.164 29.3869 116.535 29.3561 116.217C29.3347 115.994 29.1826 115.844 29.1385 115.584C28.9758 114.621 29.3351 113.667 29.119 112.708C28.8752 111.628 28.8468 110.707 28.7632 109.649C28.6824 108.623 28.5236 107.557 28.4553 106.505C28.4048 105.725 28.1 104.88 28.2404 104.072C28.2514 104.008 28.4374 103.433 28.4427 103.563C28.4341 103.355 28.2826 103.098 28.2756 102.974C28.2258 102.038 28.2079 101.275 28.248 100.326C28.2461 100.326 28.244 100.325 28.2421 100.326C28.3581 100.255 28.4207 100.109 28.4256 99.8805C29.302 99.7959 30.2608 100.01 31.1465 100.033C32.101 100.059 33.0526 100.011 34.006 99.967C34.6194 99.9387 35.9413 99.6485 36.4084 100.16C36.7467 100.53 36.534 102.437 36.5564 102.933C36.5832 103.52 36.8801 104.439 36.5369 104.952C36.324 105.27 35.8427 105.397 35.5945 105.746C35.4435 105.959 35.3207 106.315 35.2405 106.546C34.9981 107.242 34.9015 107.992 34.9387 108.727C35.1137 112.165 37.8726 113.744 40.9703 112.358C43.6688 111.152 44.4024 107.501 42.0839 105.456C41.5381 104.974 40.9563 104.852 40.2597 104.733C39.817 104.658 38.6088 104.704 38.3195 104.388C38.0323 104.075 38.1023 103.099 38.0705 102.692C38.0194 102.04 37.7568 101.07 37.8991 100.441C37.6658 99.9165 37.8215 99.6946 38.3666 99.7752C38.5393 99.7405 38.7119 99.7058 38.8844 99.6711C39.3192 99.5924 39.7464 99.4974 40.188 99.4672C40.9751 99.4133 41.7426 99.5065 42.5301 99.4014C43.3026 99.2982 44.0599 99.1053 44.8339 99.0055C45.6562 98.8993 46.464 99.0173 47.2778 98.8779C48.9671 98.589 50.7821 98.2005 52.3626 97.5374C52.7859 97.3599 53.5033 96.8485 53.9729 96.9329C54.5354 97.0342 54.3851 97.3914 54.5471 97.9257C55.4456 100.889 57.3126 103.817 59.2886 106.173C61.154 108.397 63.613 110.191 65.837 112.056C67.1853 113.187 68.4801 114.376 69.732 115.612C70.6404 116.509 71.6153 117.912 72.7887 118.429C73.0562 118.439 74.0875 118.321 74.276 118.514C74.4937 118.736 74.4803 118.861 74.3935 118.999C74.6428 118.344 73.4568 118.454 72.7887 118.429C72.8644 118.556 73.6147 120.059 73.8003 119.223C73.908 119.287 74.0158 119.351 74.1235 119.416C73.5903 120.592 72.8998 121.771 72.1498 122.824C71.6032 123.592 70.8971 124.147 70.4065 124.943C69.7873 125.947 69.2715 126.989 68.4871 127.883C66.9228 129.668 66.052 132.067 64.6882 134.047C64.0327 134.999 63.6906 135.883 63.0084 136.83C62.475 137.571 61.6108 138.509 61.2999 139.362C61.1758 139.703 61.309 139.999 61.0816 140.314C60.938 140.514 60.5125 140.731 60.3119 140.938C59.515 141.76 58.8935 142.933 58.2684 143.9C57.6026 144.93 57.1387 145.998 56.5747 147.071C55.9963 148.172 55.0388 148.952 54.5378 150.132ZM33.7984 154.831C33.3839 154.837 33.2286 154.839 33.1824 154.658C33.1688 154.603 33.1646 154.532 33.1665 154.44C33.1646 154.532 33.1688 154.603 33.1824 154.658C33.2286 154.839 33.3839 154.837 33.7984 154.831V154.831ZM33.8501 153.289C33.893 153.405 33.6348 153.602 32.9486 153.529C33.6282 153.601 33.8883 153.406 33.8501 153.289ZM32.163 157.159C32.2245 157.214 32.2841 157.27 32.3422 157.329C32.2843 157.27 32.2245 157.214 32.163 157.159ZM27.8838 165.252C27.3251 165.057 25.8715 164.712 24.9251 164.304C25.3472 164.423 25.7867 164.52 25.9557 164.579C26.5982 164.803 27.2409 165.028 27.8838 165.252C28.7942 161.974 32.2124 160.725 35.1372 159.515C33.7281 159.456 33.2248 158.235 32.3732 157.361C33.2231 158.232 33.7345 159.456 35.1372 159.515C32.2128 160.725 28.7942 161.975 27.8838 165.252ZM24.6867 161.952C24.6546 162.006 24.6228 162.061 24.5908 162.12C24.5036 162.283 24.1753 163.012 24.0374 163.49C24.0096 162.998 24.3017 162.423 24.6867 161.952ZM27.9046 99.721C27.9568 99.7003 27.9988 99.6969 28.037 99.6999C27.884 99.7068 27.8425 99.8881 27.8359 100.14C27.7031 99.9987 27.6715 99.8141 27.9046 99.721ZM38.5206 107.295C39.5167 107.789 40.4833 108.076 41.4335 108.674C40.2678 109.579 36.5458 111.041 36.657 108.243C36.6701 107.918 36.8608 107.042 37.1586 106.848C37.6117 106.553 38.1256 107.099 38.5206 107.295ZM27.1179 94.2699C31.5042 95.7987 36.6141 95.4208 41.0723 94.6752C45.862 93.8742 50.6443 93.4025 55.2842 91.9031C55.2889 92.5484 55.5691 93.2242 55.057 93.7562C54.6557 94.1733 53.7856 94.2522 53.2553 94.4277C51.8681 94.8871 50.6767 95.5563 49.2267 95.8309C47.6026 96.1384 45.9801 96.1323 44.342 96.3142C43.7487 96.3802 43.1909 96.4861 42.6336 96.5932C41.862 96.6048 41.2575 96.7093 40.4871 96.9229C37.7313 96.9358 34.9942 97.0175 32.2499 96.6896C30.8562 96.523 29.4776 96.3188 28.0802 96.1767C26.7715 96.0437 27.0638 95.4802 27.1179 94.2699ZM25.4399 82.5113C22.8568 83.2239 20.1927 83.0107 17.6511 82.1949C15.8134 81.6052 13.3754 80.7412 12.9889 78.5074C12.7338 77.0338 13.6181 76.7667 14.658 76.155C15.1557 75.8623 15.3977 75.6412 15.7324 75.1454C15.9309 74.8508 16.1095 74.1118 16.3324 73.9104C16.8757 73.4193 18.5902 73.8504 19.4401 73.8125C20.7068 73.756 21.5655 73.3307 22.7308 72.9554C24.7891 72.2924 26.0917 71.4884 27.6895 69.9714C29.2439 68.4959 31.0689 66.995 32.3257 65.2562C33.733 63.309 35.0799 61.4143 36.6131 59.5572C37.7491 58.1811 39.8102 55.4266 41.8486 55.4393C42.8718 55.4456 42.7204 56.4095 43.533 56.8992C44.275 57.3463 45.2456 57.0352 46.0609 56.9577C45.5235 58.178 44.7779 59.4329 45.0418 60.8136C45.1896 61.5869 45.2683 61.8538 44.9658 62.5856C44.6894 63.254 44.3906 63.8465 44.2194 64.5622C43.5527 67.3519 43.2373 70.4915 43.5169 73.344C44.0009 78.282 45.6951 83.3802 49.4011 86.8662C50.2459 87.6608 51.1752 88.2962 52.2098 88.8191C53.242 89.3406 53.3275 89.8838 52.0489 90.1167C49.5585 90.5704 47.0303 90.8804 44.5221 91.2172C42.017 91.5535 39.4677 91.905 36.9416 91.9566C35.6921 91.9822 34.45 92.1377 33.2006 92.0491C32.5785 92.0048 31.9602 91.8938 31.3364 91.8767C30.7917 91.8616 29.9784 92.1334 29.4715 91.919C28.678 91.5835 29.0725 89.2641 29.0144 88.4586C28.9474 87.5343 28.3634 85.801 28.7102 84.9272C28.9539 84.3139 29.8484 84.0566 30.3119 83.5793C31.0723 82.7958 31.7916 81.8671 32.0819 80.7989C33.0449 81.5752 32.2164 82.0731 32.5087 83.0196C32.8277 84.0524 33.4159 83.7278 33.8764 83.0192C34.6451 81.8362 34.5936 80.0081 33.8584 78.8287C33.4329 78.1466 32.7416 77.6339 32.0325 77.2692C31.4585 76.9742 30.1884 76.3955 29.5529 76.6518C27.8283 77.3479 29.6639 79.4049 30.5405 79.8932C30.3299 80.5009 28.836 81.3776 28.2665 81.6372C27.4204 82.0227 26.3481 82.2609 25.4399 82.5113ZM49.1115 63.672C49.1342 64.003 49.1694 64.3192 49.2789 64.6358C49.502 65.2816 49.9483 65.841 50.5632 66.1606C51.7561 66.781 54.1755 65.8878 55.2242 65.1559C55.2242 67.3741 55.6223 69.1385 56.2595 71.2428C56.8759 73.2788 58.1375 74.9356 59.2108 76.7432C59.7674 77.6806 60.2784 78.6483 61.0642 79.418C61.863 80.2001 61.996 80.5001 61.9231 81.6534C61.8032 83.5532 60.8973 84.849 59.1849 85.6356C57.8283 86.3867 55.0269 86.9969 53.5489 86.3693C51.9952 85.7094 50.4818 84.001 49.4755 82.6861C47.1896 79.6989 46.0302 75.1994 46.1691 71.4854C46.2415 69.5509 46.3439 67.5714 46.5293 65.6439C46.6642 64.2397 46.615 62.2208 48.6604 62.8536C49.3211 63.058 49.0583 62.9055 49.1115 63.672ZM56.9597 89.6118C57.1569 89.2106 58.8926 88.8074 59.1949 89.0426C59.6533 89.3997 59.6724 91.4813 59.8334 92.0738C60.0887 93.0144 60.4247 93.9438 60.8294 94.8306C61.6789 96.6911 62.8977 98.6125 64.3437 100.062C65.8423 101.562 67.5642 102.602 69.3837 103.678C69.9036 103.986 70.4069 104.357 70.941 104.636C71.1652 104.753 71.5805 104.808 71.757 104.984C72.1937 105.42 71.9918 106.315 71.9867 106.882C71.9657 109.157 71.9733 111.357 72.2752 113.601C70.4924 112.223 68.8816 110.474 67.2944 108.867C65.6301 107.182 63.4872 106.07 61.9091 104.285C60.4733 102.662 59.3432 100.77 58.2883 98.8927C57.8263 98.0702 56.9461 97.0215 56.9145 96.06C56.8801 95.0231 57.3536 93.9256 57.3591 92.8517C57.3627 92.092 56.6667 90.2085 56.9597 89.6118ZM78.3677 112.83C78.2593 113.517 78.3458 114.989 77.3892 115.137C76.7306 115.239 76.3254 114.615 76.0841 114.092C75.355 112.511 75.596 110.404 75.3239 108.706C75.0023 106.702 74.9947 104.726 74.7461 102.718C74.527 100.949 73.7958 98.7159 74.1944 96.9718C74.5556 96.9629 75.5315 100.376 75.7421 100.917C76.1757 102.031 76.6748 102.969 77.0498 104.124C77.5466 105.654 77.9774 107.115 78.2062 108.716C78.3672 109.841 78.9709 111.839 78.3677 112.83ZM83.6594 105.284C82.7666 106.668 81.8026 108.11 80.5446 109.265C80.5446 108.619 80.0612 106.52 80.3889 106.021C80.7792 105.427 82.9942 105.399 83.6594 105.284ZM49.0297 50.775C49.7882 50.4311 50.6345 50.3228 51.3994 49.9675C52.1307 49.6278 52.6739 49.4228 53.4857 49.3562C56.3068 49.125 59.1794 49.8463 61.7897 50.635C63.2263 51.069 64.3596 52.0202 65.5731 52.8443C66.8284 53.6964 67.5167 54.4386 68.0633 55.8807C69.2392 58.983 69.963 61.9162 70.4307 65.1875C70.9054 68.5065 70.1345 71.8613 70.1827 75.1873C70.2298 78.4685 70.4644 81.8846 71.5082 85.0089C72.3151 87.4246 73.7453 91.313 76.7594 91.5539C79.6208 91.7825 82.0414 88.8362 83.2242 86.6244C86.3515 80.7763 87.5266 74.0915 87.6963 67.5283C88.1377 65.3319 88.3904 62.9638 89.1557 60.8576C90.0066 62.1867 90.7007 63.6132 91.4832 64.9831C92.3418 66.487 92.2866 67.7138 92.2122 69.4224C92.1545 70.7509 91.6853 72.0204 91.5145 73.3434C91.3175 74.8707 90.9556 76.3597 90.8687 77.9023C90.7666 79.7213 90.8682 81.5591 90.7147 83.3735C90.5859 84.8993 90.2487 86.4317 90.0039 87.9434C89.7661 89.4123 89.7368 90.8587 89.7718 92.323C89.8058 93.7403 90.2964 95.1168 91.4988 95.8753C89.7116 98.078 87.4836 101.322 84.4896 101.844C83.4859 102.019 82.5484 102.155 81.5319 102.229C80.7056 102.289 79.7398 102.753 79.0271 102.238C77.8003 101.352 77.5585 99.3782 77.0948 98.0871C76.7741 97.1941 73.5943 89.8802 71.9205 91.9524C71.6223 92.3215 71.6927 93.6764 71.6471 94.1963C71.5814 94.9459 71.6117 95.7082 71.5877 96.4603C71.5572 97.4179 71.4721 98.3887 71.5387 99.346C71.5792 99.9232 71.9263 100.546 71.2717 100.686C70.6659 100.814 69.3885 99.6121 68.9476 99.3007C68.356 98.883 67.7182 98.5695 67.1187 98.167C65.8866 97.3398 64.9092 96.2983 64.0323 95.1179C63.1497 93.93 62.3638 92.5971 61.7665 91.2407C61.4632 90.5524 61.2155 89.8472 60.9622 89.1403C60.9677 89.156 60.5861 88.2647 60.6071 88.2023C60.6744 88.003 61.4812 87.672 61.6804 87.5151C63.957 85.7206 64.4128 81.2581 63.8077 78.6481C63.4414 77.0689 62.2298 75.6814 61.369 74.3368C60.5378 73.0381 59.6584 71.7659 58.9686 70.3837C58.2082 68.861 57.6206 67.2622 56.9384 65.705C56.6093 64.9535 56.2143 64.5669 56.706 63.8786C57.0072 63.4567 57.6308 63.2839 57.8991 62.8221C58.1693 62.3574 58.1973 61.4608 57.7112 61.1288C57.1794 60.7652 56.4067 61.273 55.9195 61.471C55.2693 61.7349 54.6199 61.8629 53.9564 62.066C53.2032 62.2967 52.525 62.8069 51.7254 62.8069C52.1553 61.328 54.0132 61.4682 54.616 60.093C55.0277 59.153 54.9741 57.404 53.6902 57.249C52.9611 57.161 52.3861 57.7164 51.8442 58.0891C51.1306 58.5794 50.5921 58.671 49.7564 58.8245C49.4486 58.8812 48.9488 59.1693 48.657 59.0714C48.1833 58.9127 48.4567 59.0107 48.7047 58.6219C49.0734 58.0439 49.9453 57.4793 50.4724 57.0574C51.6575 56.1087 53.2999 55.4249 54.3265 54.3219C55.0051 53.5926 55.3385 51.1405 54.0493 50.7492C53.5322 50.5921 52.6909 51.1044 52.1844 51.2609C51.3283 51.5255 50.4561 51.7361 49.6115 52.038C48.111 52.5739 46.6701 53.2106 45.1478 53.6916C46.0151 52.4585 47.6624 51.3952 49.0297 50.775ZM99.7699 50.4136C99.7699 51.2609 100.094 52.8718 99.7284 53.6421C99.3989 54.3358 97.3985 54.7225 96.692 54.9875C94.4041 55.8458 92.1352 56.8014 89.7964 57.5121C92.2067 53.9471 95.7884 51.8774 99.7699 50.4136ZM99.4327 38.902C98.8398 39.7523 97.8094 40.9053 96.6035 40.5034C95.3039 40.0702 94.2858 38.0826 94.9497 36.8214C95.5171 35.7439 97.1359 35.0679 98.1356 35.9172C98.3537 36.1022 98.496 36.576 98.7047 36.7209C98.8388 36.8136 99.0511 36.5652 99.2146 36.6647C99.6982 36.9578 99.8843 37.6736 100.582 37.6137C100.905 37.5862 101.939 36.744 102.151 36.5286C102.717 35.9523 102.52 35.3617 102.609 34.6043C102.733 33.5609 103.453 33.4008 104.283 32.8625C105.073 32.3498 105.708 31.5852 106.489 31.0913C107.421 30.5016 106.887 31.2493 107.739 31.3233C107.893 31.3367 108.236 30.8267 108.503 30.8352C108.848 30.8462 108.998 31.0761 109.196 31.3267C109.625 31.8714 109.309 32.0423 110.057 32.1692C110.597 32.2608 110.932 31.869 111.393 31.8767C111.771 31.4496 112.33 30.5579 113.005 30.8212C113.463 30.9995 113.626 31.9558 113.724 32.3551C114.095 33.8689 114.067 35.6479 114.081 37.2004C113.213 36.5917 113.1 36.1826 112.829 35.2012C112.652 34.5635 112.226 33.6265 111.762 34.5844C111.63 34.8562 111.743 35.2731 111.656 35.5718C111.555 35.9182 111.313 36.0889 111.275 36.4669C111.184 37.3836 111.936 37.6979 112.584 38.1442C111.979 38.7958 110.237 38.3041 110.702 39.6954C111.193 41.1656 113.079 40.3515 114.02 39.9826C114.823 43.0197 111.258 44.4832 109.086 45.3138C107.811 45.8013 107.312 46.0731 107.137 47.5603C106.986 48.8348 107.158 50.1401 107.626 51.3307C107.814 51.8078 107.993 52.4601 108.249 52.9018C108.466 53.2759 108.898 53.302 109.044 53.5107C109.581 54.2806 109.194 55.9514 109.131 56.8755C108.96 59.4022 108.172 61.7032 107.833 64.169C107.659 65.4301 107.139 66.6107 106.916 67.8572C106.711 69.0008 106.63 70.0804 105.666 70.8981C103.726 72.5413 102.227 70.1146 101.555 68.5196C100.598 66.2476 100.503 63.2616 100.66 60.839C100.832 58.2054 102.038 55.6753 102.102 53.0613C102.17 50.2657 101.748 47.6117 101.047 44.9088C100.741 43.7275 100.296 42.6699 99.918 41.5277C99.6091 40.5939 100.12 39.7506 99.4327 38.902ZM104.473 11.246C104.473 11.2481 104.473 11.25 104.474 11.2521C104.461 11.2384 104.449 11.2253 104.436 11.2092C104.45 11.2259 104.462 11.2373 104.473 11.246ZM104.531 10.9841C104.502 10.7868 104.439 10.5385 104.395 10.4268C104.5 10.4913 104.62 10.5455 104.624 10.6131C104.635 10.8073 104.579 10.8987 104.531 10.9841ZM107.41 11.4827C107.389 11.4941 107.37 11.5066 107.35 11.5176C107.301 11.5176 107.261 11.5074 107.225 11.4916C107.239 11.4945 107.254 11.4968 107.271 11.4981C107.318 11.5015 107.364 11.4945 107.41 11.4827ZM108.914 10.9875C108.645 10.9854 108.361 10.9602 108.046 11.0967C108.096 11.0666 108.146 11.0398 108.196 11.0218C108.338 10.9719 108.636 10.9774 108.914 10.9875ZM93.6524 84.8644C93.7103 83.5998 93.7095 83.2201 94.7045 82.4047C95.5341 81.7249 96.3365 81.0115 97.1745 80.3419C99.0303 78.8587 101.013 77.2885 103.123 76.181C104.305 75.5606 107.531 74.3104 106.716 76.7595C105.946 79.0707 104.462 81.1236 103.184 83.177C101.881 85.2701 100.578 87.3649 99.2246 89.4257C98.6358 90.3221 98.0147 91.2013 97.4513 92.1136C96.8971 93.0116 96.84 93.6172 95.7033 93.2454C94.8774 92.9751 93.9441 92.6457 93.1648 92.2942C92.4805 91.9854 92.5214 91.7967 92.5026 90.9936C92.9264 88.9172 93.5542 87.0132 93.6524 84.8644ZM98.9476 59.5593C98.6599 60.7163 96.5965 60.854 95.4834 61.0784C95.292 61.1169 94.3225 61.4302 94.1415 61.3227C93.7843 61.1106 93.96 60.4974 93.8079 60.2004C92.9745 58.5752 92.9622 60.6531 92.7249 61.1423C92.0752 62.4829 91.0797 59.799 90.7149 59.1418C90.434 58.6361 90.1331 58.3789 90.4239 57.9544C90.6659 57.6009 92.0128 57.3583 92.4264 57.2058C93.9347 56.6494 95.4392 56.0827 96.9435 55.5154C97.5911 55.2711 99.5854 53.9921 99.5635 55.2214C99.3485 56.6358 99.2916 58.1756 98.9476 59.5593ZM97.8198 73.3745C97.1851 73.5714 95.4615 74.3612 94.8197 73.9887C94.2777 73.6744 94.6521 72.5722 94.713 71.9986C94.8279 70.9173 94.8112 69.7409 94.7497 68.6563C94.6591 67.0543 94.5257 66.9278 96.1085 66.4969C96.72 66.3303 98.5872 65.4282 99.0415 65.9368C99.2537 66.1744 99.1639 66.9297 99.2106 67.2176C99.3118 67.8405 99.4857 68.4494 99.7135 69.0376C100.107 70.0544 100.682 70.9672 101.284 71.8712C100.205 72.5341 99.0258 72.9999 97.8198 73.3745ZM94.2364 62.0467C94.5104 61.6533 95.8743 61.5973 96.3252 61.5021C97.1221 61.3337 97.9195 61.1673 98.7166 60.9991C98.7594 61.9687 99.3082 64.5009 98.6099 65.2004C98.2173 65.594 96.9039 65.6953 96.3479 65.8319C95.7421 65.9808 95.1353 66.127 94.5286 66.2731C94.4599 65.3387 94.4027 64.4036 94.303 63.4717C94.2665 63.129 94.0136 62.3667 94.2364 62.0467ZM94.3937 74.8472C94.8131 74.3652 95.9479 74.3791 96.5787 74.2319C97.5835 73.9971 98.5359 73.6767 99.487 73.2797C100.019 73.0576 101.068 72.2972 101.656 72.4899C101.821 72.5438 102.166 73.222 102.291 73.3493C102.506 73.5671 102.783 73.7148 103.031 73.8867C103.716 74.3607 104.132 74.5082 104.94 74.6687C100.715 76.3989 97.3207 79.477 93.8263 82.3167C93.5784 82.109 93.716 80.2528 93.7434 79.8268C93.7939 79.0364 93.8278 78.2361 93.8872 77.4429C93.9358 76.7912 93.9483 75.3593 94.3937 74.8472ZM107.223 91.6798C107.095 92.3997 107.076 93.3886 106.767 94.0538C106.484 94.6631 106.518 94.6206 105.765 94.6388C104.812 94.6619 103.72 94.8211 102.798 94.5318C103.622 92.716 104.307 90.7428 105.433 89.0862C105.787 88.5661 106.47 87.2342 107.21 87.3135C107.953 87.3932 107.79 88.1371 107.731 88.6752C107.621 89.6799 107.399 90.6846 107.223 91.6798ZM110.932 63.356C111.504 59.439 111.455 55.6096 111.455 51.6649C112.368 51.7854 113.373 51.7095 114.252 51.9673C113.968 52.8718 113.149 53.6876 113.96 54.5463C114.783 55.4186 116.703 55.801 117.815 56.1221C119.119 56.4983 120.447 56.9582 121.787 57.1817C122.389 57.282 123.044 57.3795 123.652 57.263C124.613 57.0785 124.698 56.8236 125.33 57.8129C125.333 57.8182 125.339 57.8262 125.342 57.8319C125.159 57.7272 124.58 57.7903 124.735 57.7947C124.757 57.8744 124.791 57.9537 124.811 58.0276C124.64 57.8875 124.263 57.7695 124.211 57.7602C123.582 57.6498 122.784 57.9315 122.179 58.0711C120.821 58.3844 119.473 58.7258 118.158 59.1896C117.051 59.5801 115.955 60.0173 114.899 60.5302C114.084 60.9261 112.201 61.6235 111.944 62.5935C111.451 64.4535 116.371 65.8668 117.571 66.4965C118.704 67.0911 118.346 67.9729 118.359 69.1542C118.373 70.4372 118.489 71.7082 118.4 72.9884C118.331 73.9804 118.255 73.8267 117.264 73.8089C116.522 73.7956 115.78 73.7657 115.039 73.8097C113.993 73.8719 112.919 74.0166 111.937 74.3965C110.469 74.9646 107.648 77.6694 110.459 78.4937C111.616 78.8332 113.108 78.709 114.294 78.6271C115.323 78.5561 116.935 78.0884 117.928 78.4416C118.445 78.2953 118.632 78.4831 118.488 79.0051C118.511 79.3632 118.535 79.7211 118.559 80.0787C118.607 80.7989 118.655 81.5189 118.703 82.2391C118.801 83.7127 118.899 85.1865 118.997 86.6602C118.135 85.4395 116.948 83.0312 115.11 83.3064C113.533 83.5425 112.601 85.9852 112.093 87.2458C111.68 88.27 111.413 89.3436 111.134 90.4096C110.866 91.4348 110.768 92.8841 110.277 93.8131C109.794 94.7281 109.123 94.4209 108.134 94.5151C106.897 94.6327 107.396 93.9414 107.592 92.8919C107.891 91.2931 108.951 88.5348 107.929 87.0447C106.625 85.1426 104.782 88.667 104.281 89.6188C103.813 90.5086 103.413 91.4308 103.054 92.3697C102.823 92.9757 102.636 94.2843 102.038 94.6157C101.306 95.0223 100.145 94.3725 99.4728 94.1599C98.6831 93.9104 97.82 93.8061 97.0091 93.6428C99.3179 90.0331 101.719 86.4776 103.959 82.8254C105.079 80.9995 106.492 79.0823 107.107 77.0167C107.223 76.6254 107.366 76.2516 107.319 75.8354C107.278 75.4803 106.743 74.9219 106.777 74.6755C106.827 74.3102 107.562 74.0052 107.905 73.6213C109.098 72.2873 109.398 70.6997 109.768 69.0038C110.171 67.1581 110.66 65.2205 110.932 63.356ZM115.439 52.1613C117.198 51.7829 119.196 52.792 120.667 53.6065C121.637 54.144 124.226 55.2675 124.326 56.5838C124.299 56.2268 121.918 56.4495 121.447 56.4611C119.435 56.026 117.29 55.4395 115.413 54.5725C114.729 54.2567 113.926 53.9475 114.175 53.137C114.339 52.6044 114.941 52.2685 115.439 52.1613ZM113.4 78.0558C112.288 77.992 108.252 78.0358 110.283 76.0232C111.555 74.7628 113.896 74.4893 115.588 74.4826C116.194 74.4802 116.791 74.5276 117.393 74.5894C117.558 74.609 117.723 74.6285 117.888 74.6482C118.393 74.5479 118.55 74.7565 118.361 75.2734C118.451 75.5759 118.596 77.3697 118.33 77.622C117.977 77.9566 116.853 77.809 116.439 77.8414C115.422 77.9207 114.42 78.062 113.4 78.0558ZM119.302 93.3029C116.378 93.738 113.458 94.293 110.493 94.3393C110.935 92.1804 111.451 90.0264 112.257 87.9698C112.772 86.6557 113.707 83.8183 115.51 83.9579C116.948 84.0693 118.627 86.5316 119.029 87.7892C119.551 89.4288 119.302 91.5977 119.302 93.3029ZM126.813 60.4872C126.755 60.7863 125.442 61.3244 125.162 61.4873C123.137 62.6622 121.333 64.404 120.122 66.3836C119.987 65.6196 120.008 64.1707 119.367 63.628C118.239 62.6726 118.471 64.8129 118.336 65.4667C118.209 66.0798 118.366 65.9806 117.837 66.0352C117.367 66.0834 116.169 65.205 115.736 64.9838C114.538 64.3719 113.39 63.706 112.239 63.0114C113.192 61.4386 116.003 60.7167 117.604 60.0877C119.905 59.1835 122.173 58.7209 124.607 58.3465C125.014 58.558 125.067 58.0821 125.371 57.9755C125.388 57.951 125.394 57.9303 125.395 57.911C125.752 58.4417 126.9 60.0416 126.813 60.4872ZM129.792 81.6816C130.925 86.881 131.207 92.29 132.638 97.4263C133.999 102.309 135.207 107.17 136.779 111.987C137.684 114.761 138.525 117.563 139.735 120.227C140.579 122.085 141.249 126.048 143.305 126.918C144.651 127.487 145.248 126.983 145.104 125.62C144.98 124.434 144.364 123.689 143.855 122.664C143.678 122.307 143.102 121.3 143.165 120.922C143.243 120.451 143.362 120.502 143.854 120.269C144.897 119.775 145.938 119.44 147.049 119.154C146.601 119.848 145.705 120.841 145.633 121.69C145.574 122.391 146.078 123.676 146.775 123.945C147.434 124.199 148.209 123.663 148.773 123.336C149.425 122.958 150.048 122.853 150.766 122.584C149.851 123.902 148.35 124.952 148.993 126.765C149.678 128.699 151.804 127.118 153.164 126.899C152.776 128.397 151.053 130.106 149.813 130.94C148.981 131.5 148.078 132.005 147.185 132.458C146.839 132.633 146.385 132.74 146.068 132.949C145.947 133.029 145.744 133.366 145.634 133.419C144.092 134.163 141.988 134.352 140.31 134.71C138.461 135.104 136.869 135.2 134.966 135.109C133.391 135.033 131.646 134.067 130.331 133.256C129.33 132.639 129.184 131.885 128.872 130.796C128.356 128.992 127.894 127.175 127.401 125.365C126.976 123.804 126.779 122.304 126.491 120.72C125.881 117.363 125.6 113.953 124.946 110.602C124.296 107.273 124.079 103.901 123.899 100.499C123.813 98.8602 123.546 97.1886 123.464 95.5817C123.398 94.2748 123.421 92.9594 123.428 91.6152C123.433 90.6704 123.098 89.7262 123.12 88.778C123.141 87.9396 123.218 87.1845 123.129 86.3376C122.94 84.5332 122.792 82.7501 122.65 80.943C122.373 77.4205 121.558 73.9445 121.232 70.437C121.092 68.92 122.759 67.4654 123.888 66.582C125.092 65.6405 126.058 64.3184 127.382 63.5772C127.873 69.6607 128.491 75.7129 129.792 81.6816ZM109.843 146.723C108.537 147.305 107.232 147.887 105.925 148.468C104.965 148.894 103.705 149.772 102.649 149.692C103.399 148.677 103.872 147.516 104.672 146.53C105.471 145.545 106.131 144.499 106.853 143.459C107.803 144.616 108.774 145.676 109.843 146.723ZM110.121 141.618C112.097 140.577 114.904 138.599 117.22 138.973C118.888 139.241 120.777 140.461 121.785 141.804C122.257 142.434 122.73 143.022 123.27 143.639C123.766 144.205 124.02 144.132 123.587 144.722C123.254 145.176 122.468 145.483 121.957 145.658C121.957 144.665 122.266 143.67 121.071 143.768C120.6 143.806 120.05 143.919 119.581 143.996C119.176 144.062 118.941 144.237 118.596 144.318C118.228 144.405 117.788 144.303 117.406 144.333C116.749 144.384 116.223 144.647 115.6 144.785C114.312 145.07 113.225 145.464 111.971 145.885C111.397 145.009 110.915 143.956 110.136 143.24C109.264 142.439 108.893 142.265 110.121 141.618ZM93.1716 10.4403C93.3612 10.4205 93.578 10.3026 93.7243 10.0571C93.4679 10.4869 93.3169 10.5063 93.1716 10.4403ZM87.249 11.1248C87.4787 11.1665 87.7057 11.2174 87.8957 11.3065C88.0828 11.394 88.1838 11.4939 88.2837 11.5814C88.237 11.5611 88.1865 11.5394 88.1297 11.5157C87.8828 11.4127 87.5669 11.2267 87.249 11.1248ZM83.2993 43.7171C83.2838 43.6962 83.2691 43.6769 83.2543 43.6579C83.2691 43.6769 83.2838 43.6962 83.2995 43.7171H83.2993ZM82.5314 43.8286C82.4593 43.8021 82.398 43.7586 82.3496 43.6951C82.398 43.7586 82.4593 43.8021 82.5314 43.8286C82.5793 43.8459 82.6324 43.8558 82.6894 43.8586C82.6324 43.8558 82.5793 43.8459 82.5314 43.8286ZM82.2243 43.2008C82.2241 43.292 82.2311 43.3721 82.2451 43.4425C82.2311 43.3721 82.2241 43.292 82.2243 43.2008ZM83.1542 43.5405C83.1355 43.5208 83.1173 43.5026 83.0988 43.4857C83.1173 43.5026 83.1355 43.521 83.1542 43.5405ZM82.9959 43.4028C82.9665 43.3829 82.937 43.3649 82.9064 43.3499C82.937 43.3649 82.9665 43.3829 82.9959 43.4028ZM115.84 11.981C115.883 11.9933 115.92 11.9986 115.954 12.0005C115.907 12.0051 115.87 11.9981 115.84 11.981ZM116.857 12.661C116.733 12.5466 116.66 12.4345 116.622 12.3222C116.641 12.334 116.662 12.3448 116.686 12.3541C116.723 12.3177 116.759 12.2813 116.796 12.2448C116.745 12.3395 116.728 12.4309 116.767 12.5129C116.956 12.9089 117.188 12.3069 117.474 12.6047C117.26 12.5785 116.998 12.661 116.857 12.661C116.527 13.1132 116.196 13.5656 115.867 14.0179C116.313 14.2406 116.453 13.9656 116.703 14.3715C116.715 14.3912 116.726 14.4394 116.735 14.5031C116.632 14.2072 116.361 14.2641 115.867 14.0179C116.196 13.5656 116.527 13.1132 116.857 12.661ZM117.712 13.6566C117.742 13.6337 117.761 13.6022 117.772 13.5606C117.78 13.5326 117.785 13.5003 117.788 13.4628C117.785 13.5003 117.78 13.5326 117.772 13.5606C117.761 13.6022 117.742 13.6337 117.712 13.6566C117.691 13.6718 117.665 13.6832 117.633 13.6911C117.665 13.6832 117.691 13.6718 117.712 13.6566ZM117.805 13.1758C117.801 13.2348 117.798 13.2879 117.796 13.3355C117.798 13.2879 117.801 13.2348 117.805 13.1758ZM117.317 14.3804C117.331 14.4066 117.347 14.4303 117.364 14.4523C117.347 14.4297 117.331 14.4066 117.317 14.3804ZM116.821 16.16C116.349 15.9077 116.759 15.59 116.778 15.2023C116.78 15.1678 116.78 15.1387 116.781 15.1069C116.785 15.2006 116.785 15.2774 116.783 15.3151C116.751 15.8629 116.362 16.0154 117.07 16.1814C117.119 16.1928 117.182 16.1988 117.253 16.2015C117.072 16.2146 116.914 16.21 116.821 16.16ZM124.136 20.2312C124.107 20.0072 125.156 19.5184 125.291 19.4584C125.125 19.5322 124.108 20.0189 124.136 20.2312ZM125.329 18.2477C125.322 18.2447 125.314 18.2439 125.307 18.2407C125.309 18.2242 125.307 18.2088 125.307 18.1927C125.312 18.213 125.319 18.2318 125.329 18.2477ZM125.888 20.0567C125.893 20.0324 125.905 19.9675 125.917 19.8901C125.935 19.9857 125.956 20.0753 125.975 20.1536C125.952 20.1231 125.925 20.0912 125.888 20.0567ZM125.073 20.043C125.072 19.6633 125.191 19.7443 125.265 19.7558C125.198 19.8575 125.072 19.8765 125.073 20.043ZM123.966 20.8768C124.076 20.8552 124.169 20.9184 124.254 20.9914C124.068 20.9421 123.915 20.8865 123.966 20.8768ZM123.066 23.0454C123.048 23.0513 123.033 23.0551 123.017 23.0598C123.033 23.0551 123.048 23.0513 123.066 23.0454ZM123.156 23.0128C123.144 23.0177 123.134 23.0211 123.122 23.0253C123.134 23.0211 123.144 23.0177 123.156 23.0128ZM122.986 23.0685C122.963 23.0742 122.942 23.0782 122.922 23.0809C122.942 23.0782 122.963 23.0742 122.986 23.0685ZM123.678 36.1923C123.725 36.1141 123.825 36.0883 123.938 36.0758C123.796 36.1302 123.686 36.2467 123.66 36.4155C123.632 36.3531 123.625 36.2822 123.678 36.1923ZM124.503 33.7648C124.496 33.7625 124.488 33.7593 124.48 33.7587C124.249 33.7407 124.149 33.89 124.124 34.1183C124.139 33.9192 124.206 33.7568 124.378 33.7039C124.369 33.6859 124.362 33.6692 124.353 33.6517C124.397 33.6916 124.448 33.7293 124.503 33.7648ZM124.23 34.9939C124.225 34.9668 124.219 34.9372 124.213 34.9066C124.239 35.0151 124.268 35.1232 124.298 35.227C124.268 35.1435 124.243 35.0637 124.23 34.9939ZM124.431 31.2146C124.412 31.2233 124.391 31.2309 124.368 31.2375C124.391 31.2309 124.412 31.2235 124.431 31.2146ZM124.487 31.1812C124.474 31.1909 124.459 31.1994 124.443 31.2074C124.459 31.1994 124.474 31.1907 124.487 31.1812ZM124.357 31.2411C124.331 31.2483 124.302 31.2542 124.269 31.2582C124.301 31.2542 124.331 31.2485 124.357 31.2411ZM124.595 28.4821C124.598 28.584 124.598 28.6858 124.601 28.782C124.585 28.6875 124.583 28.5942 124.595 28.4821ZM170.377 164.555C169.747 163.988 167.633 163.951 166.794 163.792C168.61 162.057 169.974 157.671 166.506 157.108C165.738 156.983 165.521 157.279 165.345 156.41C165.237 155.878 165.457 155.388 165.193 154.858C164.565 153.599 162.18 153.74 160.988 153.559C161.273 152.559 161.971 150.774 160.919 149.963C160.09 149.322 158.362 150.177 157.481 150.451C155.098 151.191 152.678 152.037 150.669 153.528C149.768 152.314 148.826 151.116 148.071 149.803C147.35 148.551 146.904 147.166 146.226 145.891C145.547 144.612 144.826 143.104 143.878 142.005C143.075 141.075 141.973 140.983 140.913 140.539C138.225 139.412 135.896 139.477 133.087 139.893C130.279 140.31 127.845 141.949 125.467 143.38C124.534 140.237 122.375 136.822 119.029 135.852C117.527 135.417 115.946 135.837 114.573 136.521C112.872 137.369 111.534 138.81 109.87 139.613C111.767 136.369 114.163 133.318 116.248 130.254C117.391 128.574 118.836 127.074 119.953 125.362C121.092 123.617 121.931 121.677 122.757 119.772C123.455 121.55 123.573 123.42 124.213 125.204C124.802 126.842 125.205 128.522 125.874 130.133C126.572 131.814 127.189 133.473 128.133 135.038C128.672 135.931 129.999 138.711 130.977 136.928C133.155 138.396 135.256 139.283 137.979 139.219C139.226 139.189 140.614 139.15 141.807 138.871C143.019 138.588 144.177 138.207 145.382 137.936C146.334 137.721 147.205 137.14 148.072 136.71C149.069 136.215 150.056 135.325 150.826 134.545C151.779 133.578 152.764 132.648 153.722 131.688C154.67 130.738 154.602 129.768 155.109 128.587C155.638 127.355 155.865 126.266 155.165 125.023C154.652 124.112 153.745 124.237 153.532 123.315C153.331 122.44 153.527 121.615 152.976 120.812C152.559 120.203 151.056 119.796 151.051 119.174C151.046 118.66 151.581 118.205 151.56 117.588C151.541 117.037 151.271 116.152 150.975 115.686C150.418 114.81 149.57 114.78 148.613 115.048C146.303 115.695 144.037 117.358 142.448 119.105C140.269 113.145 138.554 107.055 136.96 100.959C136.256 98.2662 135.704 95.5382 135.257 92.7925C134.814 90.0742 134.142 87.3357 133.843 84.6032C133.663 82.9644 133.158 81.4309 132.922 79.812C132.727 78.4717 132.597 77.121 132.404 75.78C131.979 72.8087 131.388 69.8828 130.928 66.9187C130.675 65.2805 130.101 63.8473 129.66 62.2699C129.282 60.917 129.056 59.7603 128.424 58.4823C127.217 56.0449 125.977 53.0592 123.633 51.5102C121.548 50.1327 119.527 48.9814 116.986 48.6993C115.496 48.5336 114.295 48.8835 112.838 49.044C111.548 49.1864 110.443 49.8985 109.184 50.1551C109.184 48.9607 109.067 48.9283 110.159 48.5034C110.788 48.2587 111.401 47.9898 112.041 47.7771C112.716 47.5529 113.227 47.3339 113.803 46.9219C114.482 46.4352 114.054 46.5898 114.868 46.758C116.151 47.0232 115.772 46.7155 116.616 46.0771C117.108 45.7055 117.609 45.9323 118.183 46.0065C118.72 46.0757 119.602 46.3123 120.011 45.8303C120.322 45.4638 119.983 44.8347 120.212 44.4362C120.574 43.8072 121.612 43.836 122.166 43.4134C122.772 42.9512 122.827 42.4303 122.695 41.7196C122.604 41.2276 121.828 40.1347 121.872 39.7115C121.901 39.4295 122.049 39.347 122.241 39.324C123.759 39.4006 123.686 39.1721 123.316 37.8292C123.294 38.0281 123.281 38.1973 123.266 38.343C123.261 38.1344 123.263 37.9396 123.316 37.8292C123.355 37.7459 123.497 37.6922 123.625 37.6251C123.592 37.6588 123.556 37.693 123.514 37.7315C123.579 38.0168 123.598 38.7628 123.873 38.9657C124.069 39.111 124.758 39.0962 124.897 38.8534C125.187 38.3462 124.188 38.0585 124.149 37.682C125.296 37.5862 124.905 37.0274 124.305 36.4572C124.281 36.3006 124.372 36.2266 124.578 36.2351C124.476 36.128 124.349 36.0673 124.222 36.0477C124.312 36.0329 124.39 36.0066 124.43 35.9432C124.466 35.8873 124.469 35.8104 124.455 35.7238C124.478 35.7905 124.497 35.8476 124.511 35.8916C125.502 36.2907 124.993 34.1726 124.582 33.8116C124.614 33.224 124.645 32.6364 124.676 32.0488C124.394 32.235 124.179 32.5251 124.105 32.828C124.115 32.5484 124.279 32.3109 124.676 32.0488C124.04 31.769 123.977 31.7349 124.661 31.6753C125.227 32.1912 125.148 31.7629 125.499 31.4477C125.478 31.4665 126.03 30.8671 125.993 30.9587C126.256 30.3106 125.966 28.943 124.909 29.3884C125.483 29.9016 124.907 29.9961 124.707 30.4373C124.7 30.4521 124.695 30.4678 124.689 30.4832C124.7 30.4303 124.714 30.3794 124.736 30.3324C125.09 29.5724 125.174 30.156 124.784 29.2913C124.784 29.2907 124.783 29.2901 124.783 29.2892C124.886 29.3413 125.047 29.3303 125.303 29.2226C125.622 28.8336 125.719 28.9927 125.89 28.4916C126.039 28.0532 125.97 27.7541 125.671 27.591C125.705 27.5999 125.739 27.6098 125.774 27.6185C125.906 27.2813 125.722 26.9601 125.416 26.805C125.293 27.0068 125.169 27.2088 125.046 27.4108C125.102 27.4288 125.158 27.4448 125.214 27.4618C125.214 27.4618 125.213 27.4618 125.212 27.4616C124.821 27.4163 124.662 27.4865 124.603 27.6671C124.584 27.5861 124.578 27.5064 124.623 27.4341C124.671 27.3569 125.01 27.4713 125.046 27.4108C125.653 26.4171 125.012 25.5899 124.035 25.0837C123.664 24.8915 122.933 24.8849 122.802 24.435C122.709 24.1171 123.17 23.3479 123.259 22.9707C123.94 22.6585 122.682 22.4758 122.674 22.4745C122.636 22.9193 122.66 23.1163 122.917 23.0818C122.658 23.1169 122.636 22.9179 122.674 22.4745C123.043 22.5312 124.135 22.4295 124.67 22.0661C125.556 22.0913 126.012 22.2446 126.549 21.4775C126.024 21.2598 125.406 21.377 124.934 21.0428C124.956 21.1433 124.974 21.2344 124.985 21.3186C124.944 21.1942 124.856 21.0872 124.737 20.9857C124.814 21.0517 124.774 21.0728 124.682 21.0699C124.7 21.0464 124.718 21.0193 124.737 20.9857C124.769 20.6134 125.043 20.7651 125.32 20.7884C125.313 20.6686 125.265 20.568 125.214 20.4681C125.265 20.5639 125.312 20.6621 125.32 20.7884C125.496 20.6767 125.672 20.565 125.848 20.4531C125.943 20.4254 126 20.3867 126.023 20.338C126.023 20.3389 126.023 20.3399 126.024 20.3408C126.864 20.5912 126.608 18.8133 126.222 18.8223C126.118 18.8249 126.043 18.863 125.987 18.9232C125.999 18.7593 126.027 18.5859 126.095 18.3431H126.094H126.095C126.134 18.2386 126.173 18.1341 126.213 18.0296C126.001 18.0431 125.315 17.6343 125.303 18.122C125.29 18.034 125.255 17.952 125.195 17.8773C125.256 17.3377 124.938 17.3836 124.446 17.2328C124.263 17.1768 124.061 16.8267 123.855 16.9737C123.545 17.1946 123.731 17.4025 123.93 17.5598C123.901 17.7432 123.813 17.8898 123.667 17.9994C123.644 17.9784 123.623 17.9623 123.602 17.9461C123.739 17.8659 123.854 17.7384 123.93 17.5598C123.297 17.0592 123.029 17.3868 122.542 17.7895C122.736 17.9509 122.961 18.0379 123.176 18.0467C123.165 18.0704 123.155 18.0943 123.145 18.1227C122.9 18.0922 122.699 17.9812 122.542 17.7895C123.06 17.3616 123.013 17.0994 122.383 16.8456C122.17 16.7599 122.036 16.9507 121.772 16.8498C121.642 16.7997 121.547 16.5721 121.42 16.4968C120.467 15.9335 119.323 16.2542 118.308 16.1207C118.435 16.1044 118.549 16.0886 118.635 16.0771C118.534 15.7277 118.262 15.5765 117.975 15.4701C117.976 15.2711 117.976 15.0718 117.976 14.8728C117.935 14.8637 117.896 14.8595 117.859 14.8584C117.925 14.8059 117.964 14.7347 117.955 14.6133C117.71 14.7017 117.503 14.6365 117.369 14.4595C117.635 14.7994 118.154 14.6215 118.313 14.1856C118.479 13.7287 118.123 13.4218 117.813 13.0828C117.82 12.757 117.682 12.6399 117.503 12.6086C117.826 11.9749 117.898 12.2892 117.551 11.4966C117.523 10.9626 117.069 11.1565 116.763 11.4996C116.795 11.4209 116.828 11.3401 116.86 11.2559C116.619 11.2396 116.378 11.2234 116.138 11.2067C116.199 11.4017 116.334 11.749 116.157 11.9146C116.275 11.7452 116.191 11.375 116.138 11.2067C115.843 11.0425 115.548 10.8784 115.253 10.7138C115.278 10.7665 115.346 10.9647 115.43 11.1891C115.203 10.8737 115.018 10.6783 114.709 10.3536C114.559 10.1952 113.968 9.43481 113.804 9.38744C112.803 9.09766 112.046 11.0527 110.825 10.7851C110.105 10.6273 110.441 10.4412 109.761 10.5732C109.388 10.0899 106.957 10.8498 106.864 11.3097C106.909 11.2974 106.944 11.2923 106.972 11.2915C106.698 11.3896 106.46 11.5406 106.195 11.6428C105.529 11.8991 105.925 11.966 105.169 11.5345C104.912 11.3873 104.816 11.4334 104.716 11.4199C105.042 11.2739 105.198 10.2637 105.203 9.90353C105.215 9.04288 105.101 9.1939 105.437 8.57671C105.126 8.57185 104.907 8.54541 104.744 8.61922C104.79 8.47286 104.824 8.32924 104.823 8.19028C104.991 7.7351 104.843 7.19892 104.322 7.07223C103.535 6.88038 103.381 8.00922 103.951 8.19409C103.406 8.01726 103.624 7.3032 102.881 7.20654C103.154 7.19258 103.323 7.24397 103.577 7.55574C103.661 7.38653 103.745 7.21753 103.829 7.04833C103.238 6.98656 102.964 6.93644 102.487 7.21394C102.019 7.29727 101.69 7.63548 101.337 7.96565C100.376 8.86479 99.5128 9.74235 98.6281 10.7178C98.1736 9.78529 97.6717 9.10634 96.9342 10.1499C96.2682 11.0918 95.7292 12.3937 95.383 13.4889C94.6913 13.1718 94.983 13.0684 94.6928 12.5548C94.9944 13.0551 94.6877 13.1701 95.383 13.4889C95.452 13.2704 95.5213 13.0517 95.5905 12.8332C94.9847 12.1439 95.0104 11.459 94.3545 10.724C94.282 10.9596 94.4909 11.2953 94.5274 11.5076C94.5681 11.743 94.3068 11.9065 94.3662 12.1597C94.6112 12.0703 94.668 12.1242 94.6759 12.2221C94.6674 12.1244 94.6097 12.0709 94.3662 12.1597C94.269 11.7462 94.5104 11.5265 94.3757 11.0647C94.3212 10.8782 94.2421 10.7417 94.1466 10.6098C94.5639 9.91283 93.2144 9.42995 92.9003 9.84472C92.8608 9.89697 92.8341 9.94562 92.8131 9.99257C92.2862 9.75589 92.1235 10.2595 91.8777 10.6377C91.8193 10.7559 91.7608 10.8744 91.7023 10.9928C91.3922 11.2473 91.1043 11.7796 90.8708 12.128C90.3713 12.8727 90.1619 13.9627 89.5504 14.5832C89.571 14.1835 89.7892 13.2972 89.0704 13.6547C89.3077 13.5367 89.3419 13.3933 89.2897 13.227C89.3345 13.2522 89.3828 13.275 89.439 13.2936C89.54 13.3036 89.6414 13.3133 89.7426 13.323C89.7298 12.757 89.3582 12.385 88.9194 12.084C88.9194 12.2318 88.9147 12.3839 88.9242 12.5297C88.9219 12.5244 88.9194 12.5193 88.917 12.514C88.7244 12.0531 88.8061 11.9173 88.6392 11.776C88.7047 11.7917 88.7798 11.8029 88.8721 11.8073C88.335 10.9006 87.6212 10.7557 86.6343 11.0112C86.7015 11.0271 86.7719 11.0406 86.8436 11.0539C86.7321 11.0541 86.6237 11.074 86.5225 11.1233C86.1392 11.3097 85.5722 12.3808 85.3063 12.7522C84.3702 14.0593 83.9343 15.6609 83.4443 17.1717C83.3067 17.5968 83.0977 18.5933 82.5656 18.7358C81.947 18.9017 81.2918 17.8953 80.7473 17.559C79.0053 16.4826 78.1388 18.4152 77.8705 19.9484C77.4702 20.6268 77.5625 21.1496 78.1399 21.4709C77.9782 21.2376 77.9038 20.9891 77.8732 20.7327C77.9498 21.1684 78.3138 21.3195 78.3793 21.506C78.4154 21.6084 78.4654 22.2294 78.4644 22.3542C78.762 22.5761 78.7842 22.74 78.5314 22.8459C78.3768 22.9515 78.2319 23.0695 78.0968 23.1998C77.6794 23.6393 77.6834 24.2487 77.3014 24.6762C76.8697 25.1597 76.4733 24.946 76.2695 25.7409C75.9203 27.1026 76.7804 29.1587 78.3284 29.289C78.1447 29.8252 77.907 30.369 77.7697 30.9189C77.5875 31.6505 77.6002 31.7246 77.9456 32.4245C75.3709 32.0423 75.5722 34.7642 77.0396 36.1012C77.3873 36.418 77.768 36.6154 78.2168 36.7558C78.5414 36.8575 79.5215 36.8009 79.7551 37.1084C80.247 37.7569 79.1489 38.6 79.0517 39.3236C79.0418 39.3976 79.0377 39.5247 79.0409 39.6723C78.6356 40.1679 78.6555 40.209 79.2348 40.6724C79.5521 41.0806 80.5327 40.9829 80.8309 41.3733C81.2895 41.9742 80.2667 42.9415 80.7794 43.6435C81.187 44.2015 81.6123 43.8537 82.265 44.0902C82.581 44.2342 82.8969 44.3787 83.2123 44.5238C83.3601 44.4212 83.5218 44.3567 83.6976 44.3307C84.0663 44.516 83.7144 44.8423 84.1791 44.9515C84.4205 45.0276 84.9783 45.3165 85.2223 45.1668C84.8763 45.3792 84.644 45.9045 84.4455 46.482C84.2565 46.7908 84.0819 47.1307 84.1515 47.3858C84.0351 47.7394 83.9159 48.062 83.7735 48.2866C84.577 48.4089 84.4824 49.1646 85.0386 49.5796C85.7899 50.2219 85.915 49.6257 85.7375 49.3124C85.8126 49.3505 85.8898 49.4 85.9695 49.4565C85.9846 49.467 85.8232 49.8486 85.9816 49.9377C86.2035 50.0627 86.2033 49.9372 86.434 49.9347C86.6513 49.9322 86.9662 49.6066 87.2316 49.5794C87.3729 49.565 87.7903 49.7579 87.8768 49.7006C88.1174 49.5413 88.0987 49.3666 88.0052 49.1553L88.1127 49.37C88.3717 50.0453 88.5019 49.8932 88.8945 49.6997C88.7885 49.7519 89.2023 49.4436 89.2874 49.4683C89.0939 48.933 88.3271 48.9892 87.8548 48.8554C88.1541 48.9402 88.64 48.9433 88.9153 49.0618C89.3762 49.26 89.2305 49.4615 89.7763 49.5233C90.006 49.5493 90.9431 49.2951 91.1084 49.1284C91.124 49.1125 91.1351 49.0933 91.1436 49.0719C91.2286 48.9364 91.3137 48.8006 91.3983 48.6648C91.7447 48.705 91.3697 49.2367 91.9133 49.0252C92.3193 48.8668 92.1216 48.6466 91.9924 48.4063C91.9502 48.3276 91.9025 48.2716 91.8524 48.2312C92.4135 48.3653 93.0806 49.1195 93.8465 48.9082C94.2786 48.7891 94.3025 48.4947 94.6192 48.2193C95.0424 47.8515 95.1735 47.9082 95.6859 47.7303C95.9963 47.6224 96.3267 47.3845 96.6392 47.3291C97.1478 47.2388 97.0074 47.2948 97.4289 47.5089C97.6808 47.6368 97.8242 47.8769 98.1424 47.9234C98.433 47.9657 98.8892 47.632 99.1245 47.7238C99.7644 47.9736 99.6015 48.8706 99.6378 49.462C96.3984 48.4323 92.612 50.0781 90.2279 52.3381C89.5814 52.9509 89.1584 53.6774 88.584 54.3437C87.9606 55.0666 87.3729 55.3951 87.2853 56.4252C87.2097 57.3133 87.6108 57.8465 87.2942 58.6998C86.9904 59.5177 86.6591 60.2495 86.437 61.1021C85.376 65.1739 85.3432 69.4023 84.5569 73.5303C83.8293 77.35 82.7904 80.7528 81.0784 84.2542C80.2847 85.8773 79.6193 86.871 77.8785 87.5557C76.4703 88.1092 75.4395 87.3835 74.7512 86.1208C72.899 82.7224 72.6356 79.2276 72.658 75.4371C72.6686 73.6162 72.8767 71.7951 73.0524 69.9848C73.2346 68.1084 73.098 66.3554 72.9673 64.4819C72.7051 60.7254 71.8469 57.5037 70.5556 53.9708C69.9434 52.2952 69.4269 50.6617 67.9523 49.5715C67.1264 48.9611 66.2968 48.1976 65.3285 47.6696C64.5539 47.2472 64.0928 46.8657 63.2093 46.6766C62.6283 46.5522 62.0989 46.3601 61.5379 46.1797C60.2141 45.7546 58.6829 45.623 57.2942 45.6277C54.0518 45.6387 50.4934 46.7288 47.5748 48.1267C46.1216 48.8228 44.5435 49.8592 43.5862 51.1797C43.1913 51.7247 42.9223 52.329 42.654 52.9422C42.3329 53.6751 42.4338 53.8092 41.7538 53.7836C41.3279 53.7675 40.8515 53.3739 40.3636 53.3529C39.8295 53.3301 39.4386 53.5158 38.9414 53.6535C38.3104 53.8282 37.7171 53.9847 37.1561 54.3468C35.7945 55.2248 34.643 56.6242 33.6026 57.845C31.6978 60.0797 29.9746 62.584 28.1927 64.86C26.4379 67.101 24.3061 69.0899 21.5805 70.1057C20.5407 70.4934 19.3894 70.5717 18.3278 70.8852C17.862 71.0227 17.2978 71.3877 16.8097 71.3814C16.0427 71.3716 16.1017 70.9964 15.8361 70.3885C15.5205 69.6664 15.0638 69.1042 14.4932 68.5649C11.9617 66.1712 8.81331 69.7178 9.00866 72.4499C9.12299 74.0462 10.321 75.0991 10.2788 76.6658C10.2391 78.1316 10.3265 79.6183 10.85 81.0094C11.4376 82.5695 12.8825 84.1876 14.1566 85.2489C15.337 86.2323 16.8154 86.441 18.3023 86.6052C18.9838 86.6802 19.691 86.8827 20.3501 86.8708C20.9147 86.8605 21.4282 86.6322 22.0047 86.6555C22.9826 86.6948 23.5067 86.6885 24.423 86.3418C25.1026 86.0848 25.7158 85.9421 26.4559 85.9588C26.4559 87.5164 26.5547 89.0397 26.6888 90.5919C26.7064 90.7969 26.8483 91.3293 26.7539 91.512C26.6375 91.7375 26.4992 91.5888 26.3541 91.751C26.0079 92.1379 25.757 92.3278 25.4978 92.8308C24.7868 94.2096 24.5692 95.752 24.8462 97.2895C25.0636 98.4949 25.7733 98.9915 25.6055 100.272C25.4083 101.777 25.0413 103.312 24.9705 104.827C24.9365 105.549 24.9281 106.095 24.7749 106.796C24.6865 107.202 24.3889 107.935 24.4128 108.346C24.4279 108.6 24.6975 108.713 24.6979 108.945C24.6986 109.148 24.4637 109.121 24.4476 109.295C24.3984 109.82 24.3698 110.295 24.381 110.822C24.3959 111.536 24.3261 112.245 24.3528 112.958C24.3732 113.502 24.2465 114.788 24.8572 114.576C24.6943 114.96 24.651 115.33 24.6349 115.698C24.6266 115.663 24.623 115.626 24.6262 115.589C24.6636 115.163 24.6761 115.003 24.8572 114.576L24.5087 114.697C24.2955 115.246 24.5573 115.784 24.6158 116.331C24.6139 116.386 24.612 116.44 24.6086 116.496C24.5594 117.29 24.6194 118.067 24.6788 118.859C24.8144 120.668 24.8782 122.684 25.368 124.309C25.9048 126.09 25.7332 128.33 25.9403 130.292C26.1772 132.538 26.5613 134.747 26.8475 136.984C27.1031 138.982 27.2263 141.149 27.6647 143.095C28.0243 144.688 28.3284 146.24 28.5212 147.915C28.7881 150.237 29.6367 152.006 30.5707 154.116C30.9656 155.009 30.9928 154.995 30.2678 155.647C29.964 155.921 29.7065 156.24 29.397 156.507C28.7775 157.042 28.1006 157.354 27.287 157.45C25.284 157.687 23.2604 158.398 22.1352 160.122C21.0477 161.79 21.7523 163.743 22.5662 165.442C21.4921 165.533 18.5872 165.467 19.2668 167.421C19.7313 168.757 22.2084 168.31 23.3024 168.324C24.9011 168.346 26.511 168.268 28.0957 168.246C28.8171 168.236 28.8907 168.161 29.5932 168.436C30.2552 168.695 30.7605 168.723 31.4768 168.676C32.2395 168.626 33.0019 168.738 33.7411 168.629C34.6729 168.491 35.2526 168.374 36.1886 168.54C36.8653 168.659 37.4076 168.601 38.0828 168.512C38.8311 168.413 39.5398 168.472 40.3119 168.452C42.1152 168.403 43.9048 168.437 45.7095 168.457C47.4636 168.477 49.2191 168.238 50.9611 168.316C53.9992 168.453 57.0914 168.328 60.1435 168.399C61.5512 168.432 62.6387 169.25 64.0499 169.166C65.484 169.08 66.9378 169.067 68.3609 168.867C70.8112 168.522 73.1722 168.035 75.6615 167.908C77.235 167.827 78.6179 168.504 80.0983 168.929C80.6347 169.083 81.1173 169.01 81.6187 169.125C82.0919 169.232 82.5772 169.541 83.077 169.669C84.2601 169.972 85.3909 170.087 86.4307 170.115C86.5653 170.364 86.7206 170.394 86.8967 170.206C86.9681 170.166 87.0396 170.125 87.1111 170.085C87.4426 170.041 87.6791 169.891 88.0272 169.869C88.5634 169.835 89.1124 169.908 89.61 169.86C90.6521 169.76 91.6304 169.694 92.7828 169.812C93.4662 169.883 94.0643 169.783 94.7372 169.796C94.7295 169.796 95.6603 169.977 95.6813 169.969C95.7638 169.937 95.894 169.708 95.9477 169.697C95.9284 169.478 95.9946 169.378 96.1466 169.4C96.2686 169.373 96.349 169.437 96.3878 169.591C96.3513 169.595 96.6778 169.76 96.7009 169.763C96.7198 169.766 97.5606 169.667 97.6197 169.645C97.8609 169.554 97.9636 169.292 98.156 169.253C98.3838 169.206 98.5197 169.458 98.7172 169.447C99.1527 169.424 99.1014 169.23 99.4359 169.169C100.611 168.958 102.049 169.233 103.263 169.235C104.472 169.237 105.675 169.126 106.839 169.075C108.271 169.012 109.673 169.284 111.116 169.091C112.488 168.908 113.86 168.828 115.242 168.77C118.131 168.648 121.096 168.777 123.957 168.437C126.938 168.084 129.967 168.437 132.952 168.384C136.099 168.328 139.263 168.3 142.409 168.171C145.54 168.043 148.658 167.67 151.777 167.595C152.57 167.576 153.349 167.387 154.139 167.33C154.863 167.278 155.575 167.393 156.304 167.329C157.633 167.213 158.841 167.302 160.177 167.282C161.67 167.259 163.12 167.031 164.606 166.94C166.107 166.847 167.594 167.059 169.084 166.763C169.898 166.601 171.416 165.488 170.377 164.555Z" fill="#323232"/>
<path fill-rule="evenodd" clip-rule="evenodd" d="M111.421 31.8887C111.419 31.8887 111.417 31.8889 111.416 31.8887C111.408 31.8977 111.399 31.9074 111.392 31.9159L111.421 31.8887Z" fill="#323232"/>
<path fill-rule="evenodd" clip-rule="evenodd" d="M123.857 25.0211C124.046 24.3662 123.568 23.8971 123.248 23.3884C123.06 24.5425 122.481 24.4925 123.857 25.0211Z" fill="#323232"/>
<path fill-rule="evenodd" clip-rule="evenodd" d="M89.2104 49.6082C89.2155 49.6217 89.2219 49.6337 89.226 49.648C89.2315 49.6244 89.225 49.6122 89.2104 49.6082Z" fill="#323232"/>
<path fill-rule="evenodd" clip-rule="evenodd" d="M83.9987 48.7437C84.0416 48.8401 84.1357 49.5071 84.2035 49.5104C84.8086 49.539 84.0713 48.4107 83.6844 48.3447C83.1252 48.7053 84.012 48.7735 83.9987 48.7437Z" fill="#323232"/>
<path fill-rule="evenodd" clip-rule="evenodd" d="M83.9654 44.8464C83.9254 44.3367 83.7537 44.2721 83.2648 44.5199C83.4109 44.8404 83.5849 44.7943 83.9654 44.8464Z" fill="#323232"/>
<path fill-rule="evenodd" clip-rule="evenodd" d="M77.1928 32.3683C77.4263 32.4072 77.6601 32.4461 77.8934 32.4847C77.7563 32.174 77.619 31.8627 77.482 31.5518C77.3855 31.8241 77.2893 32.0962 77.1928 32.3683Z" fill="#323232"/>
<path fill-rule="evenodd" clip-rule="evenodd" d="M81.9885 134.758C81.9888 134.757 81.9888 134.757 81.9893 134.756C81.9699 134.764 81.967 134.765 81.9885 134.758Z" fill="#323232"/>
<path fill-rule="evenodd" clip-rule="evenodd" d="M34.3425 71.2365C34.8371 70.4104 35.775 69.3901 36.8427 69.7334C37.8401 70.0545 38.1162 71.3603 38.5461 72.1817C39.3822 73.7787 39.6425 72.064 39.8278 71.0947C39.6768 69.1535 38.9206 65.9937 36.3624 66.3286C34.4166 66.5836 32.7363 69.7053 33.1068 71.551C33.4181 73.1025 33.9436 71.9027 34.3425 71.2365Z" fill="#323232"/>
<path fill-rule="evenodd" clip-rule="evenodd" d="M108.082 34.6507C107.127 34.3101 107.128 35.3412 107.091 36.1162C107.057 36.8282 107.167 38.4986 108.067 38.7529C108.964 39.0067 109.048 37.5315 109.187 36.935C108.978 36.227 108.863 34.929 108.082 34.6507Z" fill="#323232"/>
<path fill-rule="evenodd" clip-rule="evenodd" d="M109.188 33.1036C108.487 32.4845 108.019 32.2949 107.123 32.6948C106.662 32.9005 106.004 33.3481 105.931 33.9125C105.706 35.6691 108.57 33.464 109.188 33.1036Z" fill="#323232"/>
<path fill-rule="evenodd" clip-rule="evenodd" d="M109.334 43.6271C110.968 44.0487 111.072 41.8179 109.255 41.8142C108.039 41.8119 108.421 43.3917 109.334 43.6271Z" fill="#323232"/>
<path fill-rule="evenodd" clip-rule="evenodd" d="M96.8415 36.6918C96.2317 36.7809 96.0161 37.1632 96.1469 37.7733C96.2979 38.4772 96.68 38.483 97.3639 38.5487C99.0126 38.5539 97.9366 36.5321 96.8415 36.6918Z" fill="#323232"/>
<path fill-rule="evenodd" clip-rule="evenodd" d="M111.311 32.9143C111.462 33.3321 112.282 33.5208 112.71 33.3615C113.219 33.172 113.325 32.7114 112.865 32.2883C112.472 31.926 111.929 32.0215 111.436 32.0551C111.452 32.2132 111.217 32.6544 111.311 32.9143Z" fill="#323232"/>
<path fill-rule="evenodd" clip-rule="evenodd" d="M60.0421 80.5315C60.8215 80.5304 60.086 79.2139 59.444 79.1321C59.4575 79.5394 59.4307 80.5326 60.0421 80.5315Z" fill="#323232"/>
<path fill-rule="evenodd" clip-rule="evenodd" d="M165.847 121.87C172.579 121.334 179.001 123.843 184.382 127.753C191.317 132.793 197.195 140 201.173 147.594C201.596 147.92 202.013 148.254 202.427 148.592C204.641 150.396 206.805 152.301 208.722 154.421C209.793 155.605 212.601 158.484 211.382 160.299C211.123 160.685 210.698 160.906 210.273 161.059C209.08 161.486 207.836 161.702 206.659 162.202C205.207 162.819 203.7 163.682 202.77 164.999C202.505 165.374 202.436 165.816 202.08 165.981C201.703 166.156 200.992 166.088 200.579 166.128C199.75 166.209 198.921 166.291 198.092 166.372C196.144 166.563 194.108 166.584 192.203 167.054L183.437 169.219C181.644 169.661 179.583 169.905 177.883 170.633C175.346 171.719 172.925 173.309 170.498 174.619C169.324 175.252 168.15 175.886 166.976 176.519C166.403 176.829 166.01 176.833 165.338 176.885L160.49 177.258C159.708 177.318 159.332 177.633 159.23 176.85L158.103 168.246L157.507 163.696C157.472 163.425 157.482 162.084 157.26 161.923C157.121 161.821 156.305 162.04 156.154 162.058L153.953 162.328C152.368 162.522 150.784 162.716 149.199 162.91C149.07 162.925 148.358 162.917 148.278 163.023C148.184 163.146 148.362 163.853 148.378 164.006C148.546 165.603 148.714 167.201 148.883 168.799C148.902 168.984 149.127 169.843 149.009 169.995C148.926 170.101 148.329 170.114 148.208 170.134C146.679 170.383 145.15 170.633 143.621 170.882C142.526 171.061 141.095 171.052 140.06 171.464C139.466 171.7 138.878 172.305 138.364 172.682L130.908 178.169C129.777 179.001 128.253 178.789 126.875 178.894L110.989 180.105C111.002 179.61 111.015 179.115 111.028 178.62C111.098 176 111.168 173.379 111.238 170.759L111.329 167.331C111.335 167.114 111.248 166.479 111.39 166.319C111.579 166.106 112.421 166.014 112.682 165.937C113.559 165.677 114.436 165.417 115.313 165.158C117.885 164.397 120.457 163.635 123.029 162.874C125.571 162.122 128.113 161.369 130.655 160.617C131.525 160.359 132.395 160.102 133.264 159.844C133.465 159.785 134.167 159.706 134.307 159.536C134.483 159.322 134.404 158.408 134.432 158.137C134.57 156.813 134.767 155.495 135.006 154.186C136.735 144.741 140.774 135.148 148.263 128.848C153.214 124.683 159.424 122.381 165.847 121.87ZM167.034 140.809C166.368 140.026 165.248 138.75 164.071 138.962C163.114 139.134 162.592 140.32 162.259 141.109C160.918 144.278 160.502 147.911 160.085 151.299C159.824 153.424 159.613 155.559 159.479 157.696C164.254 157.329 169.03 156.962 173.806 156.594C173.58 155.073 173.399 153.537 173.128 152.022C172.992 151.263 172.616 150.58 172.294 149.879C170.856 146.742 169.286 143.452 167.034 140.809Z" fill="#6951FF"/>
<path fill-rule="evenodd" clip-rule="evenodd" d="M233.327 79.0195L233.443 79.0216C236.613 79.1059 239.407 81.1452 241.575 83.3035C242.647 84.3706 243.624 85.6259 244.084 87.0865C244.615 88.7738 244.441 90.6298 244.037 92.3232C243.144 96.0655 242.053 99.8271 240.826 103.474C240.222 105.268 239.347 107.028 238.891 108.864C238.515 110.377 240.097 111.479 240.158 113.033C240.219 114.602 239.164 116.075 237.713 116.636C237.096 116.874 236.349 116.675 235.779 116.92C235.259 117.143 235.076 117.803 234.976 118.31C234.84 119.001 234.865 119.691 234.903 120.388C234.927 120.815 234.821 121.511 235.029 121.891C235.172 122.152 235.432 122.238 235.656 122.416C235.963 122.66 236.167 122.964 236.435 123.244C236.878 123.707 237.303 123.958 237.423 124.633C237.487 124.479 237.551 124.326 237.615 124.173C237.945 124.776 238.19 125.066 237.876 125.638C238.849 125.543 239.425 127.308 239.681 127.978C240.148 129.203 240.469 130.476 240.937 131.702C241.579 133.383 242.422 135.041 242.831 136.8C243.175 138.278 243.448 139.796 243.753 141.284C243.926 142.122 244.076 142.974 244.391 143.773C244.513 144.083 244.741 144.292 244.882 144.568C245.074 144.947 244.999 145.147 245.008 145.562C245.024 146.301 245.491 146.78 245.637 147.498C245.794 148.265 245.922 149.041 246.08 149.81C246.398 151.358 246.988 152.904 247.13 154.472C247.295 156.293 247.648 158.092 247.826 159.913C247.982 161.505 247.717 163.214 248.05 164.753C248.344 166.12 247.979 167.37 247.849 168.726C247.816 169.071 248.347 171.122 247.494 170.728C247.654 171.212 247.879 171.442 247.891 171.973C247.902 172.469 247.774 172.979 247.669 173.46C247.468 174.39 247.333 175.403 246.938 176.274C246.491 177.259 245.81 177.377 244.884 177.715C244.257 177.944 243.128 178.76 242.634 177.887C242.339 178.784 241.764 178.164 241.119 178.114C241.124 178.114 240.75 178.252 240.68 178.261C240.454 178.292 240.186 178.185 239.96 178.166C239.398 178.12 238.846 178.195 238.296 178.309C237.029 178.571 235.802 178.934 234.516 179.118C232.004 179.475 229.542 179.306 227.025 179.463C222.101 179.769 217.096 179.512 212.168 179.379C211.639 179.365 211.069 179.439 210.547 179.358C209.984 179.27 209.862 179.004 209.423 178.737C208.695 178.294 207.886 178.725 207.13 178.887C204.91 179.362 202.592 179.397 200.355 179.857C195.809 180.79 191.621 182.632 187.267 184.186C185.379 184.86 183.163 185.951 181.128 185.999C178.661 186.052 179.244 183.622 179.697 182.06C178.272 182.438 176.033 184.167 174.585 183.164C172.858 181.968 175.055 179.981 175.158 178.575C172.073 179.216 168.572 180.621 165.44 179.479C164.837 179.259 164.313 178.795 163.666 178.719C162.993 178.64 162.282 178.878 161.602 178.874C160.053 178.864 158.549 178.658 157.001 178.849C153.548 179.274 150.144 179.507 146.664 179.598C143.16 179.691 139.656 179.898 136.15 179.89C134.371 179.885 132.558 179.674 130.783 179.769C130.085 179.806 128.585 180.312 128.095 179.604C127.603 180.193 127.185 179.799 126.554 179.865C126.671 179.853 126.226 180.11 126.159 180.135C125.827 180.258 125.517 180.221 125.171 180.217C124.248 180.208 123.386 180.64 122.469 180.598C122.237 180.587 122.061 180.52 121.864 180.44C121.817 180.421 121.829 180.221 121.754 180.204C121.305 180.103 121.421 180.378 121.136 180.517C120.82 180.67 120.352 180.422 120.532 180.894C119.675 180.857 118.862 181.146 118.082 180.637C118.451 181.452 117.163 180.775 116.826 180.762C116.266 180.739 115.776 181.019 115.218 181.084C114.549 181.161 113.876 180.85 113.221 181.04C112.708 181.188 112.532 181.545 111.998 181.363C111.545 181.208 111.261 180.871 111.041 180.503C110.737 179.995 110.698 179.768 109.966 179.759C109.423 179.753 108.877 179.87 108.328 179.869C107.7 179.867 107.009 179.801 106.435 180.099C105.817 180.421 105.454 180.911 104.769 181.163C101.687 182.296 98.3038 181.996 95.0881 181.977C93.7314 181.969 92.7358 182.094 92.3549 180.546C92.0331 179.239 91.9041 177.871 91.5971 176.553C91.2209 174.938 90.8074 173.439 89.9727 171.995C89.163 170.595 88.4818 169.148 87.7768 167.693C86.3106 164.668 84.2696 162.094 81.994 159.635C81.1296 158.701 80.1388 157.66 80.0974 156.315C80.0691 155.153 80.5808 153.95 81.2519 153.025C81.8512 152.199 82.8385 151.267 83.9554 151.46C84.6279 151.576 85.0688 152.118 85.5708 152.525C86.1194 152.97 86.717 153.273 87.3782 153.516C88.9201 154.081 90.2132 154.7 91.5485 155.676C92.8996 156.664 94.1626 157.77 95.331 158.968C97.5739 161.268 99.8722 163.657 101.161 166.635C101.669 167.809 101.993 168.94 102.34 170.157C102.68 171.351 103.606 171.022 104.647 170.85C105.916 170.641 107.192 170.529 108.469 170.396C108.95 170.346 109.628 170.331 109.918 169.877C110.237 169.376 109.871 168.727 109.842 168.207C109.827 167.929 109.919 167.725 109.942 167.454C109.968 167.146 109.877 166.865 109.877 166.558C109.877 165.899 110.185 165.311 110.698 164.912C111.658 164.164 113.058 163.718 114.194 163.307C115.746 162.745 117.408 162.469 119.006 162.068C120.805 161.617 122.615 161.21 124.423 160.8C126.201 160.397 127.975 159.983 129.771 159.672C130.825 159.491 131.968 159.557 132.989 159.224C134.075 158.871 133.895 157.779 133.892 156.811C133.887 155.213 134.084 153.568 134.318 151.988C134.816 148.629 136.003 145.342 137.081 142.132C138.12 139.041 139.407 136.074 141.531 133.565C143.6 131.123 146.138 128.913 148.771 127.098C151.515 125.207 154.568 123.841 157.432 122.152C156.806 121.674 156.059 121.265 155.7 120.528C155.293 119.696 155.466 118.701 155.483 117.811C155.502 116.807 155.533 115.926 155.891 114.97C156.088 114.446 156.846 113.452 156.73 112.883C156.535 111.927 154.443 111.228 153.673 110.835C152.464 110.217 151.254 109.59 150.14 108.811C149.072 108.064 148.066 107.164 147.419 106.016C147.236 105.691 147.084 105.349 146.967 104.994C146.836 104.598 146.928 104.463 146.532 104.434C145.9 104.387 144.953 105.022 144.42 105.302C141.675 106.746 138.661 108.69 135.422 108.561C134.247 108.514 132.926 108.145 132.511 106.92C131.964 105.306 133.106 103.639 134.108 102.474C132.153 102.781 128.549 103.741 127.006 101.997C125.978 100.835 126.754 98.9907 127.616 97.983C128.754 96.6519 130.378 95.8415 131.878 94.9946C130.037 94.293 128 93.8444 126.382 92.6704C124.834 91.5477 125.025 89.8229 126.248 88.4987C127.555 87.0831 129.84 86.3581 131.637 85.8325C133.842 85.1879 136.032 85.2396 138.304 85.2828C142.381 85.3603 145.884 86.8633 149.228 89.1356C150.996 90.3372 152.739 91.6338 154.307 93.0891C155.778 94.4539 157.347 95.723 158.796 97.1026C160.2 98.4392 161.305 100.095 162.787 101.344C164.047 102.406 165.429 103.911 167.03 104.382C168.728 104.882 170.256 105.709 171.968 106.201C173.91 106.759 175.579 107.692 177.379 108.582C184.932 112.318 193.041 114.749 201.005 117.432C205.078 118.803 209.178 119.77 213.337 120.818C215.425 121.344 217.365 121.625 219.52 121.53C220.016 121.508 220.491 121.495 220.981 121.564C221.34 121.614 221.613 121.75 221.935 121.535C222.396 121.227 222.57 120.424 222.845 119.967C221.311 119.492 219.81 118.977 219.11 117.406C218.669 116.415 218.44 115.26 218.247 114.197C218.143 113.626 218.141 113.049 218.052 112.476C218.004 112.16 217.853 111.83 217.865 111.507C217.831 111.687 216.688 111.096 216.522 110.986C215.883 110.563 215.766 109.709 215.771 108.988C215.778 108.174 216.023 107.279 216.576 106.662C216.838 106.37 217.149 106.151 217.529 106.041C217.799 105.963 218.155 106.065 218.393 105.986C219.449 105.637 219.567 103.025 219.717 102.073C220.047 99.9777 220.376 97.9769 221.088 95.968C222.387 92.3055 224.059 88.7461 226.05 85.4115C227.756 82.5541 229.46 79.0603 233.211 79.0195H233.327ZM200.9 167C199.382 167.263 197.927 167.8 196.461 168.255C195.091 168.681 193.703 168.951 192.298 169.228C189.501 169.778 186.643 170.282 183.888 170.999C183.112 171.201 182.703 171.657 182.026 171.974C181.524 172.209 181.053 171.971 180.531 171.951C179.394 171.907 178.133 172.278 177.04 172.554C174.459 173.206 172.169 174.339 169.833 175.591C169.624 175.703 168.211 176.349 168.278 176.617C168.333 176.836 170.129 176.249 170.415 176.205C171.861 175.985 173.274 175.529 174.71 175.246C175.888 175.013 177.08 174.856 178.254 174.598C179.56 174.31 182.341 173.312 182.452 175.468C182.571 177.799 179.997 178.516 178.45 179.604C178.622 179.901 181.105 178.92 181.413 178.821C182.468 178.481 183.447 177.867 184.522 177.606C186.392 177.152 186.165 179.217 185.133 180.135C183.986 181.156 182.089 181.464 181.454 183.035C182.288 183.336 183.379 182.771 184.145 182.49C185.151 182.121 186.161 181.758 187.173 181.406C189.445 180.617 191.603 179.529 193.887 178.777C198.574 177.234 203.528 176.791 208.427 176.517C207.99 174.824 207.513 173.14 207.121 171.435C206.953 170.706 206.799 169.973 206.672 169.235C206.583 168.722 206.659 167.494 206.305 167.09C205.875 166.597 204.754 167.289 204.144 167.276C203.546 167.263 203.11 166.954 202.558 166.857C202.034 166.765 201.413 166.912 200.9 167ZM112.841 176.803C112.841 177.612 112.701 178.594 113.765 178.689C114.627 178.765 116.311 178.864 116.998 178.251C116.34 177.93 115.592 177.874 114.893 177.689C114.164 177.496 113.491 177.18 112.841 176.803ZM130.416 162.053C130.092 162.055 129.546 162.415 129.25 162.516C128.709 162.7 128.16 162.855 127.608 163.001C125.949 163.44 123.814 163.509 123.052 165.289C122.672 166.178 122.408 168.463 121.087 168.455C119.913 168.447 119.21 166.752 118.372 166.149C117.507 165.526 116.134 165.95 115.2 166.221C114.252 166.496 112.779 166.848 112.886 168.051C112.962 168.915 113.118 169.702 113.111 170.585C113.102 171.709 113.007 172.831 113.007 173.955C113.673 173.042 114.254 171.208 115.434 170.841C116.626 170.47 117.301 172.553 117.611 173.351C117.995 174.34 118.478 175.462 118.507 176.534C118.517 176.871 118.312 177.795 118.546 178.072C118.754 178.318 119.553 178.14 119.811 178.113C121.409 177.946 122.999 177.739 124.602 177.601C125.425 177.53 125.649 177.349 125.568 176.463C125.505 175.768 125.486 175.105 125.573 174.407C125.962 171.29 127.881 168.438 131.127 167.897C133.083 167.571 135.367 167.809 137.319 168.123C138.072 168.243 138.889 168.608 139.654 168.576C140.218 168.553 140.036 168.521 140.152 167.989C140.233 167.617 140.406 167.3 140.689 167.043C140.912 166.839 141.196 166.954 141.406 166.688C141.559 166.495 141.536 166.233 141.608 166.011C141.748 165.579 142.002 164.996 142.507 164.887C143.32 164.711 144.184 165.8 144.594 166.361C145.018 166.941 145.146 168.674 145.827 168.901C146.614 169.162 147.549 168.131 147.713 167.482C147.934 166.608 147.656 165.664 147.523 164.799C147.514 164.737 147.475 164.162 147.432 164.124C147.318 164.023 146.453 164.052 146.3 164.044C145.547 164.008 144.792 164.006 144.038 164.004C141.082 163.997 138.186 163.706 135.25 163.396C135.676 164.092 136.407 165.233 135.657 165.967C135.102 166.511 134.099 166.238 133.402 166.35C132.416 166.509 130.755 167.444 129.815 166.76C128.492 165.796 129.989 164.14 130.481 163.229C130.586 163.034 130.976 162.347 130.811 162.118C130.667 161.919 130.626 162.051 130.416 162.053ZM108.373 172.766C107.697 172.972 107.016 173.17 106.326 173.323C105.516 173.502 104.26 173.328 103.866 174.219C103.566 174.896 103.715 175.989 103.959 176.664C104.238 177.437 104.892 177.635 105.665 177.694C106.566 177.763 107.48 177.618 108.371 177.495C108.722 177.446 109.096 177.358 109.453 177.358C109.665 177.357 110.092 177.551 110.28 177.392C110.524 177.187 110.363 176.021 110.344 175.742C110.297 175.05 110.166 174.367 110.13 173.674C110.104 173.176 110.292 172.5 109.708 172.394C109.345 172.327 108.689 172.669 108.373 172.766ZM162.947 159.066C162.442 159.153 161.939 159.216 161.426 159.208C161.11 159.203 160.732 159.096 160.44 159.269C159.901 159.589 159.981 160.433 159.999 160.959C160.022 161.598 160.078 162.246 160.146 162.881C160.211 163.488 160.544 164.489 160.073 165.009C159.741 164.646 159.578 163.458 158.937 163.501C158.232 163.549 158.558 164.675 158.62 165.078C158.966 167.307 159.359 169.537 159.668 171.773C159.815 172.835 160.004 173.89 160.102 174.958C160.168 175.675 160.19 176.32 160.991 176.468C161.734 176.606 162.568 176.371 163.318 176.353C164.091 176.335 164.533 176.282 164.978 175.584C163.914 175.351 162.228 175.493 161.628 174.368C160.929 173.054 162.404 171.873 163.129 170.975C163.686 170.286 164.825 167.994 165.858 169.355C166.231 169.845 166.298 170.593 166.486 171.163C166.792 172.09 167.165 173.003 167.532 173.906C170.884 172.175 174.325 170.615 177.981 169.643C177.049 168.068 175.895 166.649 175.197 164.941C174.415 163.027 173.768 161.061 172.968 159.153C171.701 159.893 170.346 158.099 169.084 158.027C167.09 157.913 164.901 158.727 162.947 159.066ZM143.086 171.969C142.391 172.383 141.368 173.188 141.202 174.021C140.913 175.46 142.556 174.498 143.063 174.183C144.124 173.524 145.164 173.313 146.383 173.719C147.946 174.24 149.386 175.12 151.064 174.451C151.899 174.119 153.75 173.408 153.251 172.133C152.906 171.254 151.898 172.008 151.366 172.323C149.971 173.148 148.816 172.626 147.422 172.03C146.028 171.435 144.458 171.152 143.086 171.969ZM93.5833 164.584C93.0253 165.375 94.1597 165.205 94.6577 165.282C95.6991 165.443 96.7716 166.273 96.4846 167.448C96.2048 168.594 95.1085 169.31 94.8996 170.513C94.7202 171.545 94.8932 172.852 95.8904 173.419C96.4505 173.738 97.6748 173.869 98.2386 173.503C99.0994 172.945 98.0303 172.113 97.4608 171.837C96.706 171.47 96.0965 171.271 96.47 170.308C96.9253 169.134 97.8096 168.233 97.731 166.889C97.6662 165.776 97.0786 164.511 96.0082 164.049C95.2418 163.718 94.106 163.843 93.5833 164.584ZM169.771 161.172C170.736 161.131 170.774 162.297 170.726 162.87C170.659 163.654 170.802 164.489 170.818 165.276C170.84 166.317 171.058 169.728 169.216 169.222C168.031 168.896 167.057 167.761 166.105 167.032C165.229 166.36 163.002 165.555 162.858 164.282C162.695 162.845 164.451 162.576 165.457 162.347C166.893 162.021 168.287 161.236 169.771 161.172ZM165.072 123.284C163.543 123.432 162.021 123.659 160.566 124.167C159.581 124.511 158.068 124.757 157.37 125.601C156.766 126.33 157.028 127.37 156.831 128.232C156.566 129.398 155.761 129.239 154.98 128.511C154.046 127.639 153.776 127.008 152.475 127.826C149.782 129.519 147.648 132.019 145.512 134.335C147.163 134.835 150.403 134.956 150.952 137.02C151.252 138.148 150.348 138.969 149.536 139.584C148.487 140.379 147.392 141.115 146.366 141.942C145.409 142.713 143.262 145.786 142.655 143.084C142.279 141.412 142.984 139.684 142.685 138.032C141.386 140.126 140.067 142.215 138.877 144.373C137.863 146.211 137.274 148.176 136.788 150.207C137.546 150.256 138.334 149.872 139.084 150.099C139.805 150.318 140.143 151 140.193 151.707C140.279 152.906 139.726 154.126 139.447 155.277C139.256 156.068 139.037 157.862 138.074 158.119C136.976 158.412 136.287 156.724 135.798 156.038C135.332 156.754 135.34 157.802 135.272 158.623C135.225 159.187 134.91 160.243 135.545 160.555C136.139 160.847 137.392 160.481 138.028 160.454C139.207 160.404 140.409 160.308 141.588 160.343C142.702 160.376 144.342 160.972 144.777 159.602C145.073 158.67 145.335 155.319 146.915 157.137C147.618 157.944 148.167 158.865 148.845 159.687C149.529 160.517 150.152 160.571 151.174 160.529C153.196 160.446 155.172 160.835 157.151 161.149C158.888 161.424 158.66 159.95 158.634 158.637C158.595 156.603 158.998 154.476 159.218 152.453C159.742 147.642 160.815 142.889 162.467 138.339C161.085 137.868 158.608 139.767 157.586 138.325C156.746 137.14 157.825 135.507 158.265 134.399C158.813 133.016 159.09 131.572 159.983 130.347C160.265 129.96 160.667 129.442 161.212 129.572C161.681 129.684 161.868 130.281 162.131 130.619C162.968 131.688 164.037 132.491 164.78 133.658C165.235 134.372 165.589 135.134 165.737 135.973C165.778 136.203 165.726 136.675 165.888 136.868C166.391 137.467 167.975 137.458 168.679 137.826C171.083 139.08 171.928 142.732 172.862 145.035C173.125 145.683 173.385 146.333 173.525 147.02C173.618 147.48 173.614 148.064 173.863 148.476C174.407 149.376 176.097 148.572 176.926 148.433C178.316 148.199 179.7 147.977 181.095 147.781C181.947 147.661 183.186 147.353 183.835 148.107C184.507 148.889 184.121 150.121 183.783 150.96C183.232 152.329 182.528 153.638 181.946 154.995C181.482 156.077 181.251 157.472 180.36 158.306C179.587 159.029 178.31 159.236 177.4 158.648C176.881 158.312 175.549 155.065 175.198 155.21C175.832 157.718 176.763 160.275 177.746 162.669C178.048 163.404 178.566 164.903 179.329 165.302C179.961 165.633 181.395 165.008 182.042 164.887C182.655 164.772 183.866 164.274 184.453 164.639C185.163 165.081 185.25 166.261 185.33 166.994C185.389 167.537 185.282 167.943 185.942 167.916C186.408 167.897 186.878 167.67 187.325 167.555C188.362 167.291 189.438 167.116 190.494 166.945C192.937 166.551 195.378 166.158 197.819 165.753C199.918 165.406 201.989 165.408 203.885 164.412C204.846 163.908 205.948 163.754 206.972 163.416C207.987 163.082 208.999 162.865 210.061 162.739C212.384 162.464 214.643 162.195 216.938 161.725C218.194 161.467 219.448 161.198 220.697 160.909C221.809 160.652 222.884 160.245 223.991 159.993C224.911 159.783 225.668 159.941 226.062 158.896C226.345 158.146 226.279 157.307 226.352 156.522C226.684 152.939 225.429 149.335 225.172 145.771C225.089 144.617 225.063 143.459 224.977 142.306C224.937 141.778 224.961 140.239 224.344 139.954C224.288 140.377 224.332 141.088 223.852 141.297C224.086 141.195 223.779 142.444 223.762 142.569C223.696 143.067 223.86 143.601 223.774 144.09C223.842 144.262 223.812 144.391 223.684 144.478C223.597 144.549 223.534 144.638 223.494 144.746C223.488 145.095 223.59 144.89 223.595 145.01C223.643 146.209 223.44 147.452 223.527 148.681C223.619 149.979 223.909 151.253 224.129 152.534C224.326 153.683 224.539 154.835 224.704 155.99C224.82 156.8 224.906 157.73 224.47 158.468C223.642 159.868 221.245 159.716 219.849 159.945C217.529 160.326 215.205 160.67 212.877 160.993C211.983 161.117 211.078 161.401 210.173 161.415C209.207 161.43 208.69 161.04 208.081 160.327C206.854 158.89 206.062 157.259 205.04 155.696C204.466 154.818 203.988 154.587 203.021 154.319C202.124 154.07 201.403 153.415 200.673 152.87C199.138 151.726 197.157 150.481 196.15 148.796C195.091 147.022 196.584 146.434 198.013 145.95C197.665 145.025 196.983 144.282 196.421 143.487C195.782 142.582 195.202 141.643 194.514 140.773C193.112 138.998 191.711 137.234 190.35 135.426C189.187 133.882 188.011 132.418 186.526 131.167C185.035 129.91 183.375 128.88 181.737 127.828C180.882 127.278 179.38 125.874 178.299 126.018C177.25 126.157 176.835 128.11 176.573 128.931C176.273 129.874 176.166 131.187 175.466 131.929C174.436 133.019 173.367 131.302 172.876 130.511C171.977 129.061 171.056 127.625 170.158 126.174C169.748 125.513 169.157 124.883 168.914 124.133C168.911 124.124 168.797 123.48 168.912 123.57L168.92 123.577L168.912 123.568C168.655 123.314 167.706 123.261 167.351 123.23L167.319 123.227C166.572 123.157 165.817 123.212 165.072 123.284ZM155.045 163.928C154.185 163.923 153.327 164.023 152.471 164.093C151.72 164.154 151.03 164.039 150.28 163.994C149.351 163.938 148.892 164.035 149.106 164.995C149.261 165.692 149.448 166.622 150.165 166.917C151.133 167.315 152.436 167.262 153.468 167.413C154.225 167.523 154.98 167.623 155.734 167.75C156.234 167.834 156.491 167.921 156.726 167.354C156.922 166.879 156.796 166.243 156.729 165.752C156.677 165.375 156.708 164.712 156.53 164.377C156.264 163.877 155.568 163.931 155.045 163.928ZM195.135 154.365C196.399 155.52 197.249 156.996 198.203 158.396C198.786 159.251 199.925 160.614 199.098 161.651C198.393 162.534 196.753 162.332 195.767 162.375C194.217 162.442 192.951 163.142 191.476 163.503C187.762 164.413 190.847 158.169 191.361 156.866C191.722 155.952 192.095 155.042 192.532 154.161C192.729 153.763 193.122 152.605 193.611 152.453C194.321 152.233 194.686 153.954 195.135 154.365ZM163.22 141.237C162.629 142.365 162.534 143.928 162.254 145.16C161.398 148.929 160.898 152.767 160.504 156.608C162.461 155.833 164.526 155.779 166.592 155.589C168.088 155.451 169.463 155.294 170.96 155.358C171.215 155.368 171.949 155.498 172.159 155.281C172.441 154.99 172.099 154.177 172.016 153.871C171.562 152.208 171.363 150.489 170.847 148.835C170.321 147.149 169.682 145.466 169.002 143.836C168.505 142.643 167.822 141.481 166.617 140.896C165.562 140.385 163.875 139.985 163.22 141.237ZM155.162 148.572C155.969 149.787 156.99 150.85 157.777 152.077C158.335 152.947 158.989 154.556 157.648 155.109C157.177 155.303 156.622 155.219 156.129 155.228C155.366 155.241 154.611 155.307 153.847 155.289C153.124 155.271 152.409 155.184 151.688 155.146C151.234 155.122 150.663 155.157 150.263 154.896C149.19 154.197 149.966 152.768 150.311 151.854C150.678 150.883 151.174 149.965 151.652 149.045C151.983 148.407 152.478 147.107 153.232 146.846C154.125 146.538 154.791 148.011 155.162 148.572ZM194.25 134.803C196.022 136.863 197.56 139.11 199.009 141.405C199.716 142.525 200.402 143.658 201.088 144.791C201.536 145.533 201.873 146.481 202.419 147.153C203.665 148.685 204.012 145.342 204.195 144.616C204.873 141.937 205.712 139.279 206.459 136.616L205.694 136.616C202.644 136.615 199.721 136.569 196.752 135.671C195.911 135.417 195.145 134.865 194.25 134.803ZM187.809 135.322C188.774 136.035 194.949 140.217 192.351 141.831C191.814 142.165 190.935 142.014 190.328 142.062C189.55 142.123 188.759 142.198 187.99 142.336C186.995 142.515 186.028 142.827 185.028 142.984C184.232 143.11 183.179 143.256 182.468 142.761C181.297 141.944 182.008 140.34 182.395 139.302C182.945 137.826 183.466 135.851 184.83 134.972C185.148 134.767 185.537 134.037 185.878 133.97C186.413 133.865 187.418 135.033 187.809 135.322ZM221.875 100.627C221.41 100.983 221.388 101.723 221.268 102.245C220.862 104.001 220.295 105.711 219.958 107.486C219.631 109.217 219.527 110.922 219.688 112.676C219.796 113.847 219.808 115.286 220.519 116.283C221.371 117.475 223.056 117.414 224.331 117.767C225.558 118.107 226.774 119.16 225.436 120.254C224.961 120.642 224.336 120.705 223.866 121.08C223.287 121.542 222.954 122.37 222.707 123.047C222.504 123.605 222.51 123.711 223.116 123.908C223.393 123.998 223.673 124.055 223.964 124.031C224.627 123.976 225.218 123.538 225.773 123.209C227.189 122.37 228.824 121.25 230.515 121.123C231.055 121.083 231.669 121.304 232.195 121.128C232.684 120.964 232.534 120.864 232.619 120.409C232.956 118.604 233.092 116.833 234.013 115.201C234.467 114.395 235.667 112.747 236.472 114.001C236.808 114.525 236.93 114.781 237.675 114.62C238.282 114.49 238.949 114.01 238.828 113.309C238.715 112.648 237.846 112.198 237.319 111.908C236.617 111.523 236.125 111.567 235.361 111.476C233.261 111.225 234.733 108.154 235.036 107.002C235.226 106.278 235.449 105.342 234.949 104.688C234.189 103.694 232.533 104.021 231.49 104.162C230.047 104.357 228.473 104.461 227.122 103.806C225.694 103.114 225.085 101.551 223.746 100.792C223.251 100.511 222.384 100.238 221.875 100.627ZM228.144 113.312C229.136 113.299 228.654 114.714 228.382 115.19C227.81 116.194 226.583 116.582 225.506 116.212C224.655 115.919 223.733 114.626 225.067 114.411C225.707 114.308 226.34 114.35 226.947 114.046C227.292 113.873 227.739 113.318 228.144 113.312ZM225.654 105.787C226.271 106.161 225.218 108.552 225.041 109.036C224.752 109.826 224.495 110.336 225.23 110.945C225.74 111.368 226.747 111.734 226.266 112.577C225.821 113.358 224.294 113.031 223.674 112.649C222.771 112.093 223.037 111.029 223.236 110.156C223.366 109.584 224.556 105.12 225.654 105.787ZM128.542 90.0862C130.444 90.8986 132.389 91.6324 134.401 92.1219C136.16 92.5498 137.889 93.0112 139.702 92.9107C141.379 92.8179 141.579 94.4652 140.621 95.6061C140.1 96.2258 139.497 96.2103 138.738 96.2343C137.851 96.2624 137.044 96.5087 136.188 96.7292C134.884 97.0651 133.564 97.3503 132.301 97.8243C131.649 98.069 131.005 98.3567 130.424 98.7434C130.058 98.9866 129.242 99.4248 129.674 99.7646C130.298 100.256 132.149 99.583 132.891 99.5386C134.62 99.4356 136.345 99.2796 138.063 99.0632C138.905 98.957 139.809 98.8522 140.606 98.5464C141.128 98.3464 141.705 97.8499 142.296 97.976C143.542 98.2421 142.924 100.11 142.358 100.718C141.518 101.62 140.243 102.019 139.158 102.532C138.399 102.89 137.645 103.27 136.909 103.671C136.561 103.861 134.939 104.571 134.991 105.11C135.045 105.676 136.325 105.391 136.641 105.339C138.754 104.995 140.66 104.179 142.612 103.343C143.467 102.977 144.333 102.625 145.17 102.22C145.754 101.936 146.328 101.504 146.974 101.375C148.496 101.071 148.429 102.771 149.028 103.69C150.81 106.419 154.251 107.583 156.929 109.16C157.942 109.757 158.908 110.444 159.837 111.163C160.501 111.676 160.767 112.382 161.508 111.705C162.126 111.141 162.424 110.314 162.82 109.596C163.281 108.761 163.897 108.024 164.369 107.195C165.068 105.971 165.277 104.804 163.743 104.354C162.133 103.881 160.859 103.176 159.491 102.17C156.133 99.7012 153.346 96.5487 149.998 94.0611C146.895 91.7564 143.606 89.5936 139.717 88.9747C136.031 88.3879 131.987 88.5324 128.542 90.0862ZM229.152 107.814C229.073 108.493 228.906 109.943 227.962 109.997C226.815 110.063 227.585 106.579 228.235 106.187C229.275 105.56 229.218 107.238 229.152 107.814ZM218.483 107.536C217.051 107.655 216.643 109.222 218.074 109.778L218.483 107.536ZM223.79 106.16C223.606 106.872 223.671 108.014 223.1 108.56C222.295 109.329 221.945 108.2 221.951 107.556C221.957 106.919 222.272 105.326 223.125 105.242C223.853 105.17 223.247 106.015 223.79 106.16ZM239.236 90.3308C238.713 91.4196 239.275 92.4942 239.588 93.5644C238.946 93.7714 238.08 93.6148 237.688 94.2937C237.441 94.7216 237.484 95.3659 237.558 95.8293C237.619 96.2094 237.931 96.7213 237.671 97.0741C237.332 97.5359 236.489 97.3224 236.114 97.836C235.545 98.6172 235.864 100.402 236.663 100.99C237.786 101.816 237.116 99.7885 237.047 99.4194C236.875 98.4945 237.833 98.6203 238.487 98.2468C238.838 98.0465 238.901 98.0077 238.982 97.58C239.056 97.186 239.017 96.8734 238.923 96.4487C238.604 95.0079 239.161 95.2432 240.306 94.9257C241.293 94.6517 241.214 93.8627 240.963 93.0334C240.766 92.3833 240.18 91.3169 240.815 90.7627C241.067 90.5427 241.45 90.6818 241.505 90.2227C241.541 89.9129 241.126 89.4048 240.907 89.2266C240.155 88.6122 239.542 89.6941 239.236 90.3308Z" fill="#323232"/>
</svg>
