<svg width="445" height="634" viewBox="0 0 445 634" fill="none" xmlns="http://www.w3.org/2000/svg">
<path fill-rule="evenodd" clip-rule="evenodd" d="M238.251 315.694L238.385 315.71C240.334 316.087 243.565 321.662 244.888 323.247C249.152 328.358 253.418 333.468 257.683 338.579C259.39 340.624 261.852 342.772 263.068 345.139C264.004 346.961 264.324 349.472 264.883 351.424C271.819 375.67 278.602 400.072 283.654 424.791C284.741 430.112 285.773 435.469 286.378 440.87C286.676 443.54 287.46 447.462 286.297 450.042C284.987 452.95 280.769 454.158 278.029 455.06C272.698 456.814 267.117 457.858 261.595 458.796C248.29 461.054 234.819 462.366 221.372 463.427C217.264 463.752 213.035 463.746 208.953 464.299C207.003 464.562 207.588 464.038 206.973 465.348C206.118 467.169 206.685 470.969 206.584 472.954C206.344 477.624 206.105 482.294 205.866 486.964L203.909 525.178C203.247 538.093 202.587 551.007 201.924 563.922C201.674 568.815 201.424 573.708 201.174 578.602C201.04 581.217 201.438 584.594 200.737 587.127C200.206 589.042 201.079 588.477 198.73 588.591C193.292 588.853 187.657 588.195 182.218 588C176.048 587.78 169.878 587.559 163.706 587.339C161.944 587.275 159.975 587.775 159.265 586.511C158.4 584.973 159.059 580.743 158.998 579.025C158.826 574.238 158.655 569.45 158.484 564.663C158.014 551.521 157.544 538.379 157.074 525.237C156.433 507.314 155.791 489.39 155.15 471.466C148.288 472.847 141.426 474.228 134.564 475.609C124.426 477.649 114.286 479.69 104.147 481.73C99.4964 482.666 93.9737 484.801 89.1718 484.112C84.4023 483.428 82.4307 481.391 82.1629 476.864C81.8755 472.01 81.9876 467.119 82.0525 462.262C82.1596 454.317 82.3877 446.373 82.688 438.433C96.235 437.213 109.783 435.993 123.33 434.772C130.543 434.122 137.758 433.473 144.97 432.823C146.607 432.675 150.643 432.992 151.374 431.757C152.51 429.838 151.245 423.531 151.211 421.361L150.888 400.848L149.704 325.374C152.947 325.48 156.191 325.577 159.434 325.668C173.546 326.066 187.726 326.643 201.842 326.209C208.92 325.992 215.627 324.082 222.31 321.829C225.863 320.631 229.38 319.327 232.87 317.955C233.968 317.524 237.2 315.481 238.385 315.71L238.251 315.694ZM219.253 385.925L212.044 421.185L236.713 419.55L219.253 385.925Z" fill="#6951FF"/>
<path fill-rule="evenodd" clip-rule="evenodd" d="M425.302 99.9663C424.798 103.888 425.157 108.164 420.729 109.198C416.632 110.155 412.137 109.886 407.96 110.222C403.265 110.599 398.585 111.114 393.9 111.578C387.994 112.163 388.837 109.894 387.545 104.85C386.365 100.244 384.482 95.6468 382.916 91.1545C382.188 89.0666 381.319 87.1459 380.326 85.1781C379.427 83.3969 379.855 80.9738 378.886 79.4767C375.579 74.3685 359.453 88.3371 357.954 85.5838C360.683 83.4594 365.406 81.0826 366.242 77.4472C367.227 73.1748 364.512 71.8992 361.101 73.4613C352.706 77.3068 343.019 80.3125 333.864 81.7139C336.825 79.7347 363.604 64.1359 354.617 59.5089C352.591 58.4661 349.886 60.4291 348.059 61.1716C345.16 62.3506 342.132 63.141 339.106 63.9135C335.917 64.7274 332.72 65.5105 329.513 66.2505C327.264 66.7699 323.255 68.6144 321.064 68.1591C318.839 67.6966 322.78 66.3155 323.425 65.9901C326.239 64.5724 329.008 63.0493 331.754 61.5067C336.628 58.7696 341.129 55.5992 344.836 51.3674C347.632 48.1743 352.25 41.2013 350.303 36.7861C349.175 34.2267 346.702 31.8613 345.249 29.4366C343.553 26.6046 342.184 23.5859 340.711 20.6354C343.177 21.7195 345.944 21.9971 348.461 22.97C350.978 23.9438 353.533 24.7317 356.152 25.4556C361.404 26.9073 366.642 27.1653 371.847 28.3428C377.74 29.6752 383.879 31.165 389.866 31.9351C395.078 32.6046 399.765 34.0312 404.231 36.8729C413.351 42.6782 419.678 51.0176 422.878 61.3306C424.753 67.372 425.209 73.6755 425.429 79.9611C425.662 86.5884 426.151 93.3682 425.302 99.9663ZM374.118 100.454C367.75 105.096 360.325 108.724 353.49 112.674C349.579 114.933 345.585 117.044 341.596 119.162C338.766 120.665 335.326 123.431 332.21 124.202C330.239 124.689 330.386 124.727 329.138 122.929C327.946 121.213 326.905 119.365 325.789 117.598C323.731 114.339 321.654 111.092 319.578 107.846C314.921 100.568 310.274 93.2911 305.382 86.1681C300.474 79.0206 295.766 71.7418 291.012 64.4929C288.802 61.1229 286.605 57.7399 284.261 54.4623C282.469 51.9598 277.879 48.1426 280.059 45.1962C282.084 42.4591 286.697 40.1853 289.426 38.1137C292.76 35.5843 296.114 33.0809 299.439 30.5386C306.588 25.0733 313.549 19.3703 320.691 13.8978C326.752 24.5289 333.883 34.4953 341.075 44.379C334.571 48.5297 328 52.475 321.146 56.0285C316.084 58.6528 308.34 62.1989 305.142 67.1772C301.993 72.0793 305.086 77.7353 310.701 77.8253C314.059 77.8789 317.406 76.9895 320.698 76.4816C323.074 76.1148 327.413 74.4018 329.555 75.6092C325.704 78.0663 311.733 85.2276 319.264 91.5059C324.648 95.9941 333.749 89.4448 339.564 90.7926C337.792 94.1943 335.949 99.6206 340.869 101.471C344.964 103.011 350.323 100.141 354.007 98.6184C356.67 97.5189 359.316 96.382 361.934 95.1819C364.016 94.2268 366.509 92.2922 368.734 91.88C371.33 91.3988 376.615 98.633 374.118 100.454ZM255.724 351.175C259.368 350.511 261.239 349.004 262.386 353.428C263.415 357.391 264.433 361.208 265.758 365.098C260.066 365.589 255.045 368.307 250.895 372.13C247.939 374.854 242.06 381.355 243.518 385.917C247.058 397.001 264.94 372.135 267.065 369.477C269.666 373.279 270.623 378.256 271.916 382.604C272.836 385.698 276.252 391.63 271.737 392.382C265.399 393.439 253.508 395.799 254.26 404.775C255.148 415.371 268.626 415.311 276.188 415.787C280.451 416.055 280.47 419.471 281.077 423.294C281.349 425.004 282.198 427.314 280.746 428.566C279.457 429.677 275.509 429.708 273.831 430.067C268.941 431.117 264.053 432.187 259.163 433.237C253.612 434.428 250.676 432.76 245.487 431.239C243.565 430.676 241.635 430.913 241.494 428.762C241.407 427.442 242.699 425.401 243.122 424.095C244.797 418.93 246.223 413.612 246.704 408.187C247.405 400.306 246.53 388.488 236.825 386.95C232.208 386.219 231.32 385.98 229.235 381.647C226.981 376.961 223.402 372.622 224.267 367.224C224.893 363.312 223.837 355.911 226.333 352.667C227.487 351.167 229.737 350.272 231.273 349.172C233.229 347.768 235.114 346.265 236.938 344.693C238.472 343.372 240.341 340.789 242.081 339.835C244.205 338.668 244.27 339.463 245.796 341.286C248.048 343.977 251.629 351.923 255.724 351.175ZM266.023 368.686C264.76 371.235 261.842 373.604 259.983 375.732C258.113 377.872 256.344 380.133 254.258 382.073C251.963 384.208 243.81 389.364 245.606 382.423C247.004 377.025 252.234 372.652 256.837 369.958C257.728 369.436 268.16 364.374 266.023 368.686ZM274.942 394.387C275.75 398 276.185 401.725 276.875 405.364C277.229 407.225 279.186 411.72 278.388 413.509C277.037 416.542 264.873 412.952 262.351 411.908C256.35 409.423 253.594 403.045 259.129 398.503C261.228 396.781 274.133 390.775 274.942 394.387ZM282.916 437.784C283.593 441.234 285.575 444.432 282.299 447.04C279.578 449.205 275.121 450.682 271.769 451.453C267.2 452.503 265.731 449.943 263.312 446.65C260.712 443.109 257.944 439.688 255.071 436.363C264.091 434.344 273.111 432.325 282.132 430.306C282.126 432.819 282.431 435.321 282.916 437.784ZM261.303 453.794C256.599 453.55 251.538 454.966 246.767 455.339C240.809 455.804 234.868 456.48 228.905 456.88C230.433 452.006 233.177 447.659 235.323 443.055C237.476 438.434 238.988 437.934 243.943 437.578C248.533 437.248 251.77 435.668 255.158 439.562C258.683 443.612 261.875 448.014 265.093 452.307C263.998 453.04 262.69 453.866 261.303 453.794ZM227.678 454.789C226.517 455.634 222.938 453.23 221.732 452.765C219.386 451.858 218.866 451.566 217.641 449.278C216.589 447.31 214.915 445.074 214.586 442.827C214.151 439.867 215.461 435.969 215.938 433.027C217.208 436.09 221.377 436.445 224.195 436.946C226.325 437.326 232.638 436.721 234.244 438.239C236.019 439.915 232.751 444.59 231.9 446.351C230.884 448.453 229.629 453.368 227.678 454.789ZM225.404 457.217C224.007 457.444 219.987 458.833 220.068 456.282C220.158 453.368 225.689 456.511 225.404 457.217ZM218.32 457.065C218.065 459.519 212.785 459.315 212.664 457.156C212.459 453.509 218.726 453.146 218.32 457.065ZM212.283 390.892C210.933 394.737 202.711 396.112 199.553 397.296C196.669 398.377 188.054 403.367 185.08 401.557C195.146 394.639 205.46 387.86 213.989 379.027C214.338 381.209 213.806 383.032 213.162 385.097C212.582 386.961 212.881 389.189 212.283 390.892ZM209.78 404.912C208.331 414.33 206.91 423.872 204.95 433.196C201.215 432.055 198.135 429.742 194.211 428.936C190.63 428.201 186.931 428.183 183.321 428.72C175.627 429.864 168.768 433.67 162.055 437.378C161.435 430.92 160.151 424.008 160.303 417.527C160.428 412.143 169.642 410.549 173.821 408.325C176.349 406.979 178.635 405.087 181.516 404.618C184.48 404.134 187.34 404.149 190.268 403.246C197.19 401.11 203.705 397.724 210.487 395.2C211.041 398.433 210.271 401.727 209.78 404.912ZM203.311 444.771C203.004 446.912 203.392 450.732 201.76 452.364C200.224 453.901 196.943 453.951 194.917 454.367C188.745 455.637 182.58 456.919 176.417 458.229C173.66 458.815 170.902 459.375 168.134 459.898C166.813 460.147 163.501 461.414 162.389 460.363C161.334 459.365 162.12 456.178 162.177 454.84C162.29 452.169 162.441 449.49 162.273 446.817C161.952 441.691 162.237 439.728 167.008 437.077C172.077 434.258 177.311 432.329 183.016 431.285C188.792 430.228 194.295 430.806 199.793 433.023C201.323 433.64 203.617 434.4 204.33 436.05C205.298 438.295 203.637 442.496 203.311 444.771ZM196.363 527.396C194.101 528.815 189.179 528.573 186.58 528.861C182.384 529.324 178.161 529.06 173.993 528.412C170.855 527.925 166.172 527.251 163.767 525.048C160.351 521.918 164.293 521.774 166.908 521.994C174.511 522.634 182.209 522.187 189.804 521.638C191.282 521.531 195.257 520.233 196.683 520.84C198.506 521.617 197.947 526.403 196.363 527.396ZM192.053 577.98C177.888 576.604 169.677 564.875 164.54 552.885C161.783 546.447 162.777 539.693 162.505 532.885C162.456 531.642 161.675 528.556 162.953 527.628C164.155 526.754 169.014 529.453 170.328 529.775C177.065 531.426 184.515 531.584 191.267 529.98C194.192 529.285 195.83 527.994 196.759 530.892C197.507 533.227 196.279 537.528 196.146 539.975C195.914 544.207 196.577 578.419 192.053 577.98ZM163.758 577.993C163.703 575.938 162.667 555.177 163.672 555.115C166.661 561.561 169.73 567.327 175.17 572.069C177.949 574.493 181.074 576.677 184.549 577.978C185.855 578.466 193.254 578.837 193.617 580.457C194.25 583.292 189.2 582.148 187.702 581.917C186.5 581.732 185.418 581.219 184.238 581.005C181.992 580.598 179.869 581.146 177.613 581.191C174.184 581.261 170.818 580.901 167.388 581.198C164.253 581.469 163.841 581.108 163.758 577.993ZM165.848 484.87C177.974 480.951 188.107 488.374 194.507 498.088C198.156 503.628 198.972 507.502 198.334 514.062C198.105 516.411 198.527 518 196.368 518.957C194.231 519.905 189.376 519.202 187.064 519.31C180.414 519.621 173.79 520.034 167.14 519.639C162.821 519.384 162.211 518.652 162.285 514.459C162.375 509.412 161.955 504.387 161.669 499.332C161.36 493.862 159.482 486.928 165.848 484.87ZM161.88 477.601C161.888 473.892 161.665 470.087 161.892 466.384C162.117 462.713 163.68 462.895 167.145 462.269C174.65 460.912 182.145 459.394 189.549 457.554C192.477 456.827 195.786 455.431 198.837 455.42C202.038 455.408 201.868 457.053 201.655 459.888C201.18 466.166 200.03 472.352 199.68 478.597C199.303 485.337 199.105 492.164 199.135 498.911C199.145 501.189 199.699 502.876 197.757 500.744C195.813 498.609 194.862 495.207 193.126 492.807C189.57 487.894 184.286 483.941 178.421 482.277C175.179 481.357 171.768 481.197 168.463 481.863C167.459 482.065 162.436 484.463 161.796 483.989C161.363 483.669 161.88 477.751 161.88 477.601ZM206.239 606.132C211.049 609.575 216.375 612.358 221.766 614.774C224.8 616.133 236.809 618.993 237.192 622.053C237.396 623.684 235.406 625.514 234.103 625.707C232.449 625.952 229.725 624.872 228.041 624.667C221.916 623.924 215.804 623.919 209.828 622.214C197.898 618.809 185.528 617.85 173.473 614.882C170.605 614.176 167.73 613.513 164.848 612.874C162.109 612.266 160.882 612.37 160.786 609.444C160.572 603.021 162.414 596.441 162.429 589.939C172.181 591.052 181.967 591.037 191.746 591.954C195.936 592.346 195.839 593.14 197.675 596.801C199.581 600.6 202.823 603.686 206.239 606.132ZM158.69 397.466C158.567 395.089 158.47 392.705 158.255 390.333C158.11 388.741 156.655 384.288 157.476 383.047C158.451 381.574 159.433 382.474 161.177 382.432C163.476 382.378 165.401 381.454 167.297 380.244C170.888 377.954 173.557 374.939 175.887 371.421C177.937 368.324 177.556 364.094 177.531 360.386C177.466 350.799 178.164 341.447 177.579 331.818C177.311 327.394 181.086 330.107 184.135 330.68C189.123 331.616 194.543 330.968 199.612 330.98C199.424 332.159 189.059 335.086 187.384 336.2C183.097 339.051 180.598 343.612 180.989 348.812C181.775 359.274 193.297 361.022 201.716 361.043C194.731 367.219 187.871 373.107 182.382 380.726C178.334 386.343 171.205 397.419 177.822 403.634C171.973 406.956 166.175 410.652 159.56 412.25C159.264 407.323 158.946 402.396 158.69 397.466ZM156.034 206.5C158.416 208.03 159.417 205.867 161.229 204.747C163.782 203.169 164.627 203.324 164.951 199.8C165.55 193.263 162.8 187.347 159.347 181.998C157.779 179.567 156.213 176.671 153.998 174.771C151.979 173.038 149.938 173.635 148.067 171.844C147.332 171.139 147.49 170.145 146.276 170.174C145.476 170.192 143.533 172.669 142.873 173.216C140.787 174.943 138.235 176.257 135.502 174.833C131.522 172.761 132.8 165.238 135.891 162.802C138.272 160.925 141.085 161.215 143.795 160.912C145.827 160.686 146.25 160.775 145.414 158.449C144.828 156.82 143.477 155.549 142.81 153.957C141.528 150.898 141.807 147.181 141.253 143.944C140.756 141.044 139.593 137.907 139.635 134.961C139.69 131.21 140.916 130.236 144.166 129.184C147.314 128.166 149.921 125.92 152.602 124.034C155.638 121.898 158.962 120.488 162.081 118.538C164.198 117.213 165.565 114.536 167.894 115.787C170.66 117.272 173.586 121.574 175.939 123.772C172.496 125.958 171.696 126.914 172.17 131.192C172.606 135.113 173.404 138.608 176.402 141.341C177.554 142.391 179.702 143.231 180.595 144.442C181.636 145.852 180.96 144.609 180.828 146.201C180.758 147.06 180.079 147.621 180.227 148.614C180.887 153.022 185.951 150.42 188.038 148.889C195.493 143.418 181.572 139.073 178.266 137.08C175.983 135.703 174.854 131.308 178.471 132.476C180.878 133.253 186.314 139.837 186.866 133.835C192.833 137.301 196.515 144.665 201.518 149.321C205.126 152.679 209.973 156.404 207.109 161.767C203.46 168.603 196.223 171.706 189.616 174.656C183.208 177.516 184.539 185.611 187.964 190.566C189.944 193.43 192.539 195.109 195.66 196.5C198.849 197.923 199.511 199.594 200.208 202.893C200.981 206.553 200.16 208.028 196.99 209.919C193.897 211.766 190.662 213.554 187.358 214.999C180.215 218.125 172.805 218.322 165.208 219.388C162.545 219.761 159.992 220.538 158.539 217.899C156.905 214.928 156.785 209.812 156.034 206.5ZM154.886 192.283C153.098 191.341 148.782 194.471 146.522 194.608C142.865 194.829 140.465 194.746 137.219 196.685C131.083 200.352 125.992 205.072 121.072 210.191C115.53 215.956 110.021 221.752 104.498 227.534C101.995 230.154 99.4786 232.759 96.9358 235.339C94.932 237.372 92.9727 240.232 90.4925 241.683C90.6215 239.959 91.6782 238.74 92.0532 237.142C92.2715 236.208 91.8901 235.415 92.0313 234.521C92.0776 234.23 92.8575 233.221 92.976 232.89C93.2925 232.016 93.6797 231.152 94.0554 230.245C94.406 229.398 94.3549 228.52 94.7104 227.636C95.0764 226.723 96.0779 226.12 96.4253 225.221C97.4439 222.592 95.7582 221.373 93.062 221.435C94.1171 216.174 94.5781 213.601 100.078 211.746C105.333 209.974 110.467 207.984 115.294 205.215C119.58 202.756 123.156 199.212 127.277 196.472C130.966 194.018 135.558 191.447 135.519 186.415C137.611 187.834 139.571 189.027 141.964 187.616C143.983 186.423 144.251 185.463 146.585 185.238C148.491 185.055 149.671 185.007 151.372 185.845C153.373 186.83 153.647 187.516 154.812 184.614C156.137 185.729 159.485 190.373 159.373 192.211C159.312 193.224 159.159 193.68 157.904 193.947C156.124 194.326 156.193 192.972 154.886 192.283ZM146.548 467.123C145.678 468.456 142.011 468.21 140.594 468.192C136.277 468.136 134.767 464.512 132.873 461.011C129.886 455.49 125.422 444.023 130.322 438.229C134.189 433.656 141.722 439.418 144.36 442.871C146.638 445.855 145.962 450.33 146.173 453.91C146.352 456.928 148.267 464.491 146.548 467.123ZM134.753 469.122C133.026 470.848 127.424 470.483 125.137 470.854C121.054 471.515 116.995 472.309 113.034 473.515C110.085 474.412 107.171 476.827 106.393 472.717C105.741 469.262 106.066 465.117 106.128 461.629C106.195 457.866 106.589 454.151 106.916 450.406C107.138 447.872 106.583 443.212 108.651 441.268C110.434 439.592 114.767 439.431 117.081 438.876C120.88 437.964 124.849 436.767 128.799 437.176C126.494 443.43 126.299 449.988 128.769 456.22C129.474 457.999 135.819 468.056 134.753 469.122ZM105.718 444.208C104.756 453.615 103.787 463.082 104.714 472.536C104.77 473.1 105.444 475.683 105.151 476.087C104.848 476.506 102.451 476.723 101.906 476.851C99.744 477.364 97.5851 477.907 95.4092 478.362C91.1742 479.248 90.6215 476.572 89.7904 472.647C88.0106 464.238 91.4615 455.12 93.5522 447.044C94.5708 443.111 95.3256 442.658 99.1929 442.332C101.884 442.105 106.127 440.21 105.718 444.208ZM89.3644 479.305C87.746 480.777 86.1285 473.831 85.9856 473.124C85.42 470.313 85.7349 467.462 85.743 464.607C85.7568 460.148 85.4159 455.71 85.4094 451.272C85.4053 448.871 83.6068 443.963 86.4474 442.694C87.281 442.321 90.5923 442.476 91.3439 442.966C92.9046 443.985 92.2894 444.646 91.8268 446.419C90.7912 450.398 89.896 454.397 88.9943 458.41C88.1096 462.344 87.2371 466.13 87.6584 470.193C87.7971 471.536 90.3959 478.367 89.3644 479.305ZM140.978 435.472C144.923 434.361 145.134 437.383 145.127 440.276C144.526 439.815 138.919 436.052 140.978 435.472ZM88.2054 223.123C87.2388 224.716 81.116 225.151 79.3662 225.57C75.9242 226.395 72.4805 227.214 69.0475 228.072C62.6155 229.68 56.3418 231.495 49.7483 232.336C53.3689 226.539 54.4954 221.533 53.8218 214.299C52.972 205.165 51.8918 196.124 49.7889 187.183C47.7161 178.366 45.3161 169.609 43.0047 160.852C41.8693 156.549 40.6413 152.329 39.1309 148.142C37.92 144.787 36.029 140.563 38.0839 137.123C43.2993 140.928 47.4823 145.028 50.4569 150.808C53.644 157.004 56.4262 163.366 60.1247 169.293C61.8161 172.004 63.7907 174.475 65.5998 177.099C66.676 178.66 67.46 180.912 68.8308 182.229C70.411 183.746 72.0958 184.462 72.9992 181.901C73.9682 179.153 70.8768 173.714 69.9646 171.133C67.7611 164.902 65.5762 158.683 63.8767 152.291C62.5019 147.125 60.2294 140.878 61.0337 135.427C61.8299 130.03 65.4918 133.892 67.3447 136.401C71.1649 141.574 73.452 147.604 75.9615 153.469C78.2681 158.857 80.9586 163.994 83.5111 169.257C84.399 171.088 85.5693 175.819 87.8954 176.364C91.2765 177.156 90.99 172.395 90.667 170.463C88.5243 157.655 82.9308 145.392 81.7702 132.362C81.7142 131.739 80.9058 126.898 81.5559 126.494C82.8163 125.71 84.5166 130.621 85.0604 131.825C87.8889 138.083 89.8586 144.681 91.6661 151.293C93.2032 156.916 94.5935 162.582 96.319 168.151C97.2669 171.212 98.3537 174.223 99.425 177.242C100.394 179.978 101.378 184.653 103.905 186.455C107.491 189.012 120.322 182.933 121.622 188.368C122.548 192.231 110.649 195.342 108.116 196.516C104.78 198.06 101.508 199.751 98.1703 201.297C95.6437 202.466 92.0126 202.946 90.1849 205.146C88.2484 207.478 87.9384 210.751 87.8807 213.643C87.8361 215.832 89.353 221.234 88.2054 223.123ZM80.0966 265.309C79.927 266.523 78.962 268.13 78.5278 269.286C77.644 271.64 76.8924 274.452 75.6628 276.652C74.6053 278.545 73.0446 280.239 72.0228 282.161C71.0537 283.986 70.9247 286.089 69.7925 287.916C68.4972 290.003 66.3562 291.504 65.0698 293.578C64.4359 294.601 63.781 295.77 62.885 296.86C59.7124 300.72 56.5626 304.362 54.0109 308.497C53.3583 309.556 50.1712 314.177 48.9026 314.427C46.2511 314.948 49.3376 311.179 49.8563 310.399C53.6132 304.761 56.9497 298.825 60.5759 293.099C64.0886 287.555 67.6832 282.054 71.0635 276.427C73.8205 271.839 75.727 265.252 80.2078 262.02C80.2249 263.119 80.1884 264.215 80.0966 265.309ZM202.601 213.491C204.783 222.462 207.394 231.156 209.854 240.048C212.137 248.298 215.174 257.127 216.121 265.632C217.058 274.057 219.212 282.582 222.109 290.579C223.448 294.279 224.825 297.993 226.279 301.65C227.077 303.66 227.97 305.623 228.877 307.586C229.58 309.11 231.44 311.579 231.511 313.194C231.568 314.488 232.018 313.971 230.741 314.943C229.419 315.95 227.129 315.584 225.589 315.762C221.573 316.226 217.657 317.737 213.742 318.716C206.192 320.602 197.192 322.1 189.455 320.787C186.2 320.235 182.82 319.756 179.602 319.036C175.642 318.15 174.828 316.512 174.016 312.62C172.238 304.112 170.707 295.625 169.24 287.06C167.495 276.872 165.606 266.696 164.26 256.444C162.9 246.074 161.923 235.693 159.791 225.435C168.389 226.873 176.485 228.497 185.108 226.141C192.743 224.055 198.256 219.977 202.601 213.491ZM236.256 324.564C238.178 328.525 233.545 332.087 231.3 335.138C228.339 339.16 225.574 343.362 222.131 346.999C221.097 342.866 220.191 338.214 217.435 334.819C213.914 330.484 209.805 332.255 205.492 330.204C210.015 328.004 215.79 328.844 220.589 326.881C225.322 324.946 230.101 323.427 234.504 320.913C235.09 322.13 235.667 323.349 236.256 324.564ZM219.482 416.989C216.591 417.149 218.525 411.053 218.712 409.538C219.228 405.373 219.75 401.21 220.202 397.038C222.588 403.328 224.972 409.617 227.356 415.906C224.735 416.28 222.131 416.842 219.482 416.989ZM214.779 447.14C215.174 448.016 217.013 450.937 215.561 451.476C213.571 452.214 213.331 447.376 214.779 447.14ZM211.33 379.382C202.121 386.735 192.975 394.106 183.011 400.436C180.828 401.823 178.629 402.403 177.182 399.653C176.045 397.491 177.247 395.055 177.976 392.937C179.836 387.54 183.077 382.848 186.668 378.456C193.841 369.684 202.379 362.192 213.272 358.733C215.054 358.167 217.806 356.46 218.43 358.818C218.797 360.204 217.242 363.668 216.926 364.969C215.625 370.345 215.909 375.728 211.33 379.382ZM237.839 433.005C238.042 439.248 220.975 434.212 218.849 433.096C221.08 432.348 237.748 430.198 237.839 433.005ZM244.177 433.044C245.191 433.314 249.08 433.657 247.627 434.986C246.327 436.176 240.439 435.699 238.878 435.845C239.927 432.4 240.723 432.124 244.177 433.044ZM241.015 424.681C240.634 426.07 240.479 428.189 239.234 429.14C237.683 430.327 234.387 429.606 232.631 429.616C229.649 429.631 226.671 429.784 223.704 430.08C222.568 430.193 217.97 431.579 216.906 430.633C216.124 429.939 216.415 426.681 216.984 425.949C218.153 424.444 220.844 424.965 222.531 424.905C228.702 424.684 234.84 424.666 241.015 424.681ZM237.053 401.603C236.182 400.309 236.026 400.323 235.654 398.367C235.258 396.274 234.247 394.484 233.653 392.462C232.346 388.012 236.522 388.407 239.585 390.039C247.531 394.272 245.613 409.064 243.648 415.989C240.791 413.889 239.737 412.936 238.754 409.547C238.381 408.26 237.962 406.995 237.573 405.714C237.287 404.771 237.486 402.248 237.053 401.603ZM237.741 329.611C239.959 329.343 241.989 336.226 241.355 337.716C240.058 340.763 235.102 343.485 232.578 345.43C230.897 346.724 229.227 348.209 227.431 349.338C225.763 350.386 224.804 349.798 223.253 350.301C221.009 351.028 220.465 353.402 218.168 354.423C214.937 355.859 211.02 356.261 207.644 357.557C203.549 359.131 199.795 359.174 195.501 358.428C189.326 357.356 182.087 354.292 182.644 346.788C183.625 333.548 209.918 326.765 217.089 337.99C218.956 340.913 218.926 344.318 220.138 347.457C221.451 350.854 222.723 349.519 224.697 347.017C227.279 343.744 229.679 340.295 232.16 336.944C232.962 335.86 236.14 329.806 237.741 329.611ZM76.6043 458.519C76.4785 460.771 76.6132 463.054 75.83 465.203C75.0412 467.37 73.4415 469.121 72.5203 471.227C70.6528 475.495 70.6666 480.658 70.7413 485.231C70.915 495.87 73.4342 506.203 74.7668 516.715C70.3314 516.704 65.7467 516.755 61.4476 515.486C57.6079 514.354 56.9951 511.548 55.9092 508.011C52.86 498.079 49.5665 488.189 48.582 477.788C48.1137 472.832 47.9165 467.835 47.6925 462.862C47.4969 458.499 48.4765 456.596 52.4144 454.437C60.9736 449.742 69.8461 445.833 78.3176 440.915C77.4516 446.75 76.9338 452.631 76.6043 458.519ZM442.001 109.934C439.917 109.551 437.813 109.312 435.71 109.061C434.613 108.93 431.193 109.112 430.372 108.397C429.395 107.546 431.087 101.11 431.174 99.7293C431.703 91.4239 431.088 82.8621 430.326 74.5884C428.948 59.6103 424.237 45.7342 413.369 34.9489C407.96 29.5802 401.878 25.3208 394.49 23.2654C390.186 22.0677 385.751 21.429 381.437 20.2678C377.958 19.3298 374.711 18.2562 371.096 17.8845C363.886 17.1429 357.295 14.4188 350.259 12.8429C345.083 11.6833 336.758 8.93323 333.402 14.7782C330.76 11.6801 328.103 9.35357 324.771 7.0425C321.58 4.82882 321.058 2.61756 317.15 5.17369C309.557 10.1407 302.446 16.1999 295.354 21.851C288.731 27.1288 282.322 32.6557 275.381 37.5091C268.301 42.4599 269.644 50.861 272.973 57.8259C279.237 70.9352 288.898 82.1424 297.355 93.3796C302.652 100.419 307.967 107.467 313.243 114.521C318.287 121.262 322.649 129.065 328.543 135.122C332.26 138.94 336.695 133.947 340.049 131.64C344.211 128.774 348.301 125.803 352.469 122.945C361.147 116.994 370.433 111.42 379.596 106.24C380.262 108.129 380.928 110.018 381.595 111.907C379.583 112.058 376.864 111.608 375.84 113.772C374.377 116.862 377.967 117.268 378.596 119.039C379.158 120.621 376.853 124.8 376.172 126.226C374.638 129.439 372.497 132.208 370.139 134.853C360.809 145.318 349.001 152.804 337.021 159.94C324.2 167.574 310.46 172.235 296.425 177.155C289.288 179.656 281.88 180.818 274.516 182.42C267.419 183.963 260.329 185.99 253.077 186.573C238.241 187.763 222.498 188.656 207.841 185.456C206.236 185.106 204.538 184.348 202.906 184.203C201.598 184.087 200.629 184.636 199.394 184.706C196.741 184.858 195.221 182.486 193.114 184.69C192.06 185.792 192.041 187.643 190.572 185.586C188.703 182.969 193.48 182.463 195.25 181.717C201.211 179.206 206.002 174.152 209.789 169.043C213.573 163.938 214.117 158.486 211.813 152.509C209.509 146.534 204.27 142.484 200.337 137.632C198.435 135.283 196.684 132.798 194.595 130.604C193.48 129.432 191.683 128.311 191.614 127.129C191.532 125.756 192.355 125.074 191.863 123.405C191.735 122.971 191.19 122.724 191.074 122.247C190.89 121.486 191.174 120.834 191.079 120.093C190.858 118.394 190.192 117.327 189.249 115.934C188.661 115.064 187.801 113.323 186.993 112.671C185.576 111.529 183.644 111.995 182.203 110.837C179.923 109.005 179.121 105.146 177.104 102.922C174.265 99.7934 173.66 102.955 170.652 101.958C168.08 101.104 168.11 97.2341 166.032 95.9252C163.104 94.0815 160.639 97.4734 158.039 98.2289C154.619 99.223 155.933 95.3644 152.885 95.0131C150.132 94.695 146.319 100.28 144.945 102.263C143.547 100.632 142.017 97.8548 139.5 98.8497C136.859 99.8949 136.389 104.757 134.458 106.492C133.785 107.095 133.927 107.541 133.099 107.818C132.03 108.176 130.606 106.624 129.224 107.097C126.436 108.052 126.776 111.772 126.77 114.182C123.481 113.702 121.187 113.457 120.085 117.002C119.007 120.472 118.598 118.941 115.13 120.068C112.14 121.039 111.722 123.879 111.229 126.656C110.924 128.382 111.206 129.087 111.67 130.662C112.256 132.645 112.256 132.62 111.301 134.513C109.637 137.816 109.537 141.454 109.271 145.089C108.988 148.968 108.31 152.498 109.412 156.286C110.094 158.631 110.145 161.821 112.442 163.133C113.352 163.654 114.899 163.369 115.674 163.885C117.154 164.87 116.703 166.37 117.689 167.808C118.427 168.885 119.618 168.989 120.445 169.862C121.344 170.812 121.398 171.97 121.91 173.13C123.426 176.564 124.852 178.225 119.91 178.422C116.862 178.542 113.609 179.457 110.573 179.176C106.99 178.846 106.099 176.843 104.959 173.794C99.2107 158.426 96.1218 141.769 88.5519 127.155C86.8898 123.947 80.0674 110.838 77.1838 120.389C74.7522 128.445 77.9426 138.276 79.1657 146.294C75.3277 142.835 73.9082 136.604 70.9937 132.38C68.8413 129.26 62.1009 121.598 58.1501 125.988C55.0359 129.449 55.8143 136.788 56.3889 140.925C57.2971 147.47 59.3886 153.779 60.8827 160.198C59.0014 157.738 58.0738 154.733 56.7687 151.963C55.1317 148.489 53.0889 145.192 50.7612 142.139C48.7273 139.471 46.4532 136.991 43.9876 134.717C42.103 132.977 38.7275 129.169 36.0509 128.963C29.1628 128.435 31.329 141.07 32.3784 144.683C34.5527 152.171 36.9104 159.451 38.5985 167.089C41.8985 182.012 45.8956 196.59 48.3264 211.703C48.8645 215.055 49.513 217.729 48.1876 220.95C47.0197 223.788 45.808 227.181 43.6532 229.363C38.7754 234.304 34.7255 239.58 31.0798 245.534C27.1744 251.911 23.1545 258.361 19.9665 265.13C18.5007 268.245 17.302 271.613 15.6171 274.609C14.0962 277.313 12.2676 279.449 11.1866 282.443C6.0207 296.747 2.19561 310.801 0.444166 325.947C-0.993997 338.382 0.345963 354.923 15.3598 357.833C22.2568 359.169 28.4494 356.111 34.6687 353.586C41.1015 350.976 45.7528 346.732 50.9998 342.221C57.5194 336.617 64.2882 331.359 70.8768 325.848C77.4687 320.335 83.5573 314.22 90.1135 308.647C96.5893 303.141 102.447 297.294 108.047 290.9C113.603 284.558 118.115 277.531 123.494 271.1C123.474 279.427 122.238 287.677 121.891 295.992C121.574 303.616 121.566 311.232 121.874 318.852C122.182 326.468 120.17 333.716 120.153 341.316C120.136 348.729 119.843 356.098 119.68 363.503C119.607 366.825 118.956 370.551 120.197 373.756C121.124 376.149 124.037 376.897 126.522 377.542C130.363 378.539 141.917 376.62 143.632 380.722C144.569 382.961 143.626 387.037 143.699 389.511C143.821 393.588 143.97 397.664 144.11 401.74C144.254 405.95 144.394 410.16 144.548 414.369C144.684 418.078 145.406 422.21 144.958 425.882C144.576 429.028 142.741 428.617 139.833 428.778C135.444 429.021 131.053 429.216 126.662 429.407C120.22 429.69 113.497 429.561 107.322 430.321C104.728 430.64 101.894 430.504 99.158 431.025C95.7265 431.677 92.5572 431.843 89.077 432.015C86.2713 432.154 82.6646 431.95 80.4602 434.025C79.6957 434.744 79.5245 435.602 78.9823 436.403C77.967 437.903 78.5319 437.509 76.8656 437.847C70.3582 439.164 64.1778 440.652 57.814 442.87C54.6285 443.98 51.6726 445.47 48.4725 446.515C45.6676 447.43 43.6118 448.557 42.2256 451.311C39.7485 456.228 40.3759 463.342 40.5553 468.642C40.8377 476.91 42.6744 484.781 44.6555 492.777C46.7162 501.096 48.3321 509.637 52.3406 517.28C53.6578 519.791 55.0797 522.995 57.7702 524.304C61.2439 525.993 66.5859 524.969 70.3769 524.976C72.9212 524.98 79.7363 525.854 81.6379 523.72C83.4794 521.654 81.6265 515.828 81.3668 513.265C80.4554 504.28 78.8151 495.213 78.837 486.167C80.9123 489.234 84.511 494.527 88.112 489.829C88.9983 488.672 88.6526 488.135 90.2263 487.465C91.0971 487.094 92.9322 486.867 93.8801 486.931C95.1698 487.018 95.647 487.536 96.8319 487.282C97.8805 487.057 99.0598 486.119 100.263 485.833C115.169 482.29 129.99 478.471 144.961 475.315C148.919 474.48 148.357 477.519 148.618 480.941C148.907 484.725 148.356 488.548 148.881 492.291C149.338 495.547 149.693 498.721 149.05 501.997C148.291 505.86 148.779 509.084 149.535 512.91C152.447 527.665 151.927 543.668 152.583 558.664C152.925 566.474 152.191 574.449 152.926 582.217C153.204 585.151 154.841 586.772 155.505 589.441C156.267 592.506 154.189 596.409 153.557 599.378C152.286 605.337 150.055 613.867 154.137 619.053C156.341 621.854 159.231 622.26 162.495 623.207C166.4 624.34 170.25 625.661 174.174 626.735C188.511 630.659 204.003 631.427 218.698 633.589C222.295 634.118 225.633 634.069 229.254 633.818C231.486 633.663 236.984 634.397 238.84 633.062C239.834 632.347 239.33 631.452 239.836 630.578C240.553 629.336 241.423 628.832 242.646 628.059C244.67 626.78 247.01 626.033 247.352 623.392C248.187 616.924 240.104 613.497 235.783 610.701C230.26 607.126 223.588 605.745 217.727 602.827C214.493 601.217 211.373 599.393 208.257 597.567C206.906 596.775 204.167 595.878 203.225 594.631C202.264 593.358 203.205 591.542 203.603 589.724C205.245 582.21 204.69 574.527 205.54 566.934C206.39 559.329 206.158 551.677 206.438 544.033C206.727 536.161 207.377 528.308 207.876 520.448C208.336 513.188 208.799 505.81 208.876 498.543C208.949 491.804 209.867 485.192 210.085 478.409C210.159 476.107 209.746 471.931 211.274 469.981C212.615 468.27 217.053 468.485 219.124 468.185C224.704 467.375 230.015 466.665 235.533 466.177C248.661 465.015 263.271 464.159 275.685 459.584C280.805 457.697 287.617 455.119 289.316 449.24C291.27 442.482 288.72 434.176 288.635 427.266C288.545 419.889 286.406 412.691 284.803 405.543C283.076 397.848 281.988 390.02 280.122 382.354C278.41 375.32 275.632 369.09 273.007 362.412C271.941 359.703 265.875 350.369 267.757 348.067C268.77 346.827 272.422 346.513 273.903 345.946C277.096 344.725 280.294 343.336 283.239 341.596C287.169 339.273 295.776 335.429 296.173 330.268C296.551 325.334 291.703 320.348 289.239 316.474C285.269 310.231 280.261 304.773 276.48 298.406C268.838 285.54 262.76 271.447 257.189 257.581C254.274 250.327 253.322 243.496 252.843 235.753C261.306 235.773 269.92 236.814 278.33 235.631C287.483 234.342 296.647 232.173 305.719 230.386C322.24 227.129 338.103 223.452 353.408 216.12C367.74 209.254 382.282 201.739 394.149 190.84C400.284 185.205 406.543 179.461 411.842 173.016C417.285 166.396 421.38 158.875 425.579 151.443C430.214 143.24 433.903 134.618 436.82 125.645C437.407 123.841 437.41 121.544 438.161 119.84C439.008 117.916 440.55 117.866 442.159 116.852C444.423 115.426 445.93 110.655 442.001 109.934Z" fill="#323232"/>
<path fill-rule="evenodd" clip-rule="evenodd" d="M244.958 18.104C246.893 19.766 255.232 25.6207 257.925 24.1972C261.248 22.4397 255.987 17.1459 254.57 15.8407C252.768 14.1803 246.326 9.15701 243.86 9.62332C238.93 10.5559 243.217 16.608 244.958 18.104Z" fill="#323232"/>
<path fill-rule="evenodd" clip-rule="evenodd" d="M249.077 78.1922C250.17 76.0408 253.078 75.2499 254.422 73.168C256.04 70.6651 256.783 68.4749 256.186 65.4058C252.046 66.7994 247.336 71.0174 244.566 74.316C242.251 77.0725 238.962 82.8328 245.004 82.8473C244.951 82.0273 244.899 81.2065 244.845 80.3873C246.657 80.6506 248.254 79.8137 249.077 78.1922Z" fill="#323232"/>
<path fill-rule="evenodd" clip-rule="evenodd" d="M229.355 42.3983C232.023 43.1655 234.226 43.0569 236.953 43.1169C238.932 43.1609 241.636 44.2486 243.24 43.0227C241.817 42.1986 243.615 42.153 243.263 41.3494C242.967 40.6795 242.405 40.899 241.949 40.3566C240.319 38.4243 238.903 38.4479 236.32 38.0461C234.318 37.7331 231.374 37.0116 229.451 38.0066C227.427 39.054 226.644 41.619 229.355 42.3983Z" fill="#323232"/>
<path fill-rule="evenodd" clip-rule="evenodd" d="M267.346 101.666C269.073 100.218 270.954 96.0267 271.303 93.8642C271.44 93.0169 270.829 92.3677 270.902 91.744C271.042 90.5557 273.484 88.2583 270.926 87.2832C268.688 86.4295 266.585 93.0608 266.016 94.5078C265.432 95.9876 263.843 98.8704 264.331 100.302C264.736 101.49 266.181 102.643 267.346 101.666Z" fill="#323232"/>
<path fill-rule="evenodd" clip-rule="evenodd" d="M287.996 11.9147C289.558 10.4651 290.546 8.82123 290.384 6.82793C290.256 5.25775 289.08 -0.155757 287.756 0.00343878C283.362 0.533814 285.338 14.383 287.996 11.9147Z" fill="#323232"/>
<path fill-rule="evenodd" clip-rule="evenodd" d="M195.227 253.946C194.865 252.622 193.551 244.529 191.278 245.08C189.551 245.5 191.345 252.622 191.425 253.559C191.593 255.519 187.825 255.455 186.074 255.19C183.296 254.77 183.519 253.143 183.104 250.618C182.948 249.664 182.346 245.352 180.356 246.931C179.012 247.998 179.973 253.316 180.085 254.529C180.473 258.731 180.928 265.906 183.427 269.722C184.423 271.244 185.319 271.995 186.365 270.044C187.424 268.069 185.027 262.049 184.608 260.029C186.585 260.222 192.276 259.58 193.467 261.634C194.555 263.508 192.815 268.864 196.304 269.298C198.374 269.557 197.999 267.159 197.8 265.315C197.382 261.447 196.247 257.682 195.227 253.946Z" fill="#323232"/>
<path fill-rule="evenodd" clip-rule="evenodd" d="M200.529 252.074C198.237 253.109 201.115 268.203 204.468 267.716C208.381 267.147 202.713 251.087 200.529 252.074Z" fill="#323232"/>
<path fill-rule="evenodd" clip-rule="evenodd" d="M197.975 247.076C197.693 250.474 202.109 251.741 202.318 248.048C202.479 245.198 198.272 243.503 197.975 247.076Z" fill="#323232"/>
<path fill-rule="evenodd" clip-rule="evenodd" d="M173.732 156.97C175.749 164.484 194.1 167.68 191.628 157.547C190.389 152.473 185.219 156.981 181.608 156.39C179.272 156.009 172.312 151.672 173.732 156.97Z" fill="#323232"/>
<path fill-rule="evenodd" clip-rule="evenodd" d="M169.123 143.568C169.986 139.547 161.192 135.109 158 136.216C153.332 137.836 153.352 148.192 156.913 150.945C157.382 151.307 158.818 152.171 159.522 151.483C160.632 150.393 159.419 150.691 159.16 149.603C158.749 147.873 157.403 145.653 158.743 143.685C161.276 139.968 167.888 149.328 169.123 143.568Z" fill="#323232"/>
<path fill-rule="evenodd" clip-rule="evenodd" d="M142.306 163.083C139.135 162.905 136.535 167.827 141.201 167.414C142.094 167.335 144.014 167.11 144.532 166.172C145.39 164.616 143.701 163.161 142.306 163.083Z" fill="#323232"/>
<path fill-rule="evenodd" clip-rule="evenodd" d="M296.14 45.7513C295.055 44.1814 292.78 41.6548 290.822 43.2295C289.086 44.626 289.389 48.0726 290.055 49.7852C291.846 54.3961 296.078 58.5037 300.866 55.8472C299.203 52.5147 298.265 48.8247 296.14 45.7513Z" fill="#323232"/>
</svg>
