<svg width="265" height="199" viewBox="0 0 265 199" fill="none" xmlns="http://www.w3.org/2000/svg">
<path fill-rule="evenodd" clip-rule="evenodd" d="M74.8724 110.005C76.1685 119.738 77.4644 129.47 78.7605 139.202L79.807 147.061C79.9392 148.053 79.8144 150.009 80.3177 150.897C80.4955 151.21 80.9628 151.359 81.3063 151.544C82.4888 152.179 83.6716 152.815 84.8541 153.451C94.8576 158.828 104.861 164.206 114.864 169.583C124.464 174.744 134.065 179.905 143.665 185.065C144.659 185.6 146.265 186.993 147.338 186.626C148.357 186.277 149.399 185.416 150.325 184.873C152.101 183.831 153.878 182.788 155.655 181.746C166.405 175.437 177.156 169.129 187.907 162.821C192.342 160.218 196.777 157.616 201.213 155.013C202.426 154.301 203.64 153.589 204.854 152.876C205.489 152.504 205.571 152.517 205.821 151.885C206.755 149.521 207.188 146.814 207.849 144.362C208.577 141.659 209.305 138.957 210.034 136.255C210.358 135.049 210.206 134.893 209.676 133.729C208.628 131.425 207.58 129.121 206.532 126.818C204.205 121.704 201.879 116.591 199.552 111.478C198.611 109.41 196.345 107.955 194.714 106.434L169.382 82.8203C168.739 82.2203 168.095 81.6207 167.452 81.0208C167.346 84.6258 166.635 88.5012 167.678 91.9838C169.391 97.6989 171.103 103.414 172.815 109.129C173.643 111.892 174.47 114.654 175.298 117.416C175.452 117.93 176.388 119.965 176.138 120.416C175.999 120.666 174.817 120.92 174.561 121.017C173.46 121.436 172.36 121.855 171.259 122.275C168.194 123.442 165.128 124.61 162.062 125.778C159.305 126.828 156.547 127.879 153.79 128.929C152.855 129.285 151.757 129.945 150.769 129.89C149.886 129.841 148.881 129.403 148.026 129.182C146.523 128.795 145.02 128.407 143.518 128.02C140.565 127.258 137.613 126.497 134.661 125.735C131.339 124.879 128.534 122.363 125.694 120.501C120.812 117.3 115.929 114.099 111.047 110.898C109.929 110.166 109.925 109.747 109.48 108.41C108.479 105.403 107.478 102.396 106.477 99.3893C105.942 97.784 105.285 96.1718 104.881 94.5281C104.215 91.8156 103.821 89.0076 103.293 86.265C103.134 85.4376 102.975 84.6099 102.816 83.7825C100.771 84.6132 98.7268 85.4442 96.6819 86.2752C96.3856 86.3955 94.9414 86.7545 94.8131 87.0495C94.7317 87.236 95.1613 88.0823 95.2227 88.2642C96.9181 93.2919 98.6135 98.3193 100.309 103.347C100.842 104.928 101.376 106.51 101.909 108.091C100.635 106.086 99.3601 104.081 98.0856 102.076C97.0844 105.448 96.083 108.821 95.0815 112.193C92.7149 109.458 90.348 106.724 87.981 103.99C87.1617 106.724 86.3425 109.458 85.5232 112.193C82.9744 108.821 80.4256 105.448 77.8765 102.076C77.5736 103.835 77.2705 105.595 76.9674 107.355C76.8759 107.886 76.8942 109.41 76.5411 109.831C76.2502 110.177 75.4129 110.005 74.8724 110.005Z" fill="#6951FF"/>
<path fill-rule="evenodd" clip-rule="evenodd" d="M236.255 131.042C236.111 135.624 236.211 141.571 233.707 145.599C233.303 146.249 231.934 148.274 231.781 146.492C231.631 144.743 232.061 143.011 231.635 141.242C231.407 140.296 230.641 138.228 229.332 139.083C228.664 139.519 228.489 140.595 228.227 141.274C227.841 142.279 227.409 143.268 227.002 144.265C225.582 147.746 224.111 151.901 220.954 154.204C221.367 151.203 222.493 147.997 221.736 144.963C221.478 143.929 220.697 142.04 219.351 142.646C218.04 143.237 217.19 145.871 216.571 147.044C214.694 150.601 212.775 154.09 210.663 157.514C209.6 159.236 208.453 160.81 207.063 162.283C206.193 163.205 205.109 164.762 203.739 164.899C203.739 162.273 204.602 159.736 205.39 157.264C206.238 154.605 207.01 151.923 207.842 149.259C208.563 146.948 209.156 144.655 209.636 142.286C209.835 141.306 209.993 140.291 210.827 139.658C211.577 139.089 212.761 138.818 213.598 138.4C215.793 137.302 218.052 136.117 220.091 134.752C220.929 134.191 221.65 133.467 222.527 132.964C223.526 132.391 224.459 131.909 225.383 131.211C229.372 128.199 232.968 124.493 235.391 120.082C235.784 121.854 236.305 123.586 236.363 125.413C236.422 127.286 236.314 129.17 236.255 131.042ZM203.426 152.1C202.788 151.021 201.816 151.463 200.96 151.983C199.631 152.79 198.299 153.591 196.963 154.388C194.245 156.009 191.577 157.716 188.921 159.437C183.515 162.941 177.921 165.808 172.222 168.774C166.713 171.64 161.423 175.051 156.262 178.498C155.021 179.327 153.79 180.175 152.599 181.073C151.542 181.871 150.696 182.991 149.583 183.701C148.424 184.44 147.628 183.84 146.519 183.295C145.133 182.613 143.688 182.042 142.271 181.427C136.553 178.944 130.818 176.368 125.255 173.55C119.726 170.75 114.487 167.524 109.19 164.319C106.666 162.793 104.186 161.17 101.698 159.588C99.0493 157.905 96.3071 156.643 93.5289 155.212C92.2997 154.578 91.2109 153.718 89.9483 153.143C88.6211 152.537 87.219 152.103 86.0305 151.23C85.4977 150.839 85.0482 150.371 84.4392 150.094C83.9391 149.867 83.3716 149.828 82.8779 149.587C81.8734 149.096 81.5859 148.099 81.3914 147.062C80.1404 140.408 79.4754 133.569 78.7503 126.84C78.3428 123.056 77.8881 119.287 77.325 115.523C77.071 113.826 77.5817 112.511 77.8499 110.861C78.1629 108.933 78.2866 106.964 78.4963 105.023C79.486 106.859 80.3419 108.786 81.6012 110.461C82.5294 111.695 84.115 113.446 85.8243 113.405C88.481 113.341 88.3595 108.778 88.4665 106.967C89.6766 108.049 90.0436 109.811 91.0481 111.067C91.9651 112.214 93.2132 113.637 94.6215 114.15C97.5868 115.232 97.3014 109.72 97.1384 108.157C97.0565 107.374 96.6143 106.133 97.6633 106.491C98.6292 106.82 99.5692 108.185 100.381 108.81C101.785 109.893 103.324 110.792 104.764 111.825C106.55 113.107 108.478 114.033 110.299 115.227C111.438 115.974 112.681 116.142 113.922 116.691C115.742 117.495 117.349 118.695 119.081 119.659C122.51 121.569 126.314 123.281 130.065 124.432C131.279 124.805 132.896 125.855 133.817 124.776C134.384 124.112 134.756 123.098 135.237 122.353C135.846 121.411 136.492 120.494 137.164 119.595C139.55 116.401 142.198 113.385 145.139 110.691C148.561 107.557 152.302 104.737 156.304 102.388C158.024 101.379 165.203 96.8551 166.781 100.039C165.484 99.9578 164.36 100.433 163.251 101.028C162.981 101.173 161.585 102.171 161.912 101.291C161.506 101.367 161.15 101.897 160.843 102.132C160.313 102.539 159.508 103.009 158.894 103.345C158.286 103.678 157.536 103.76 156.982 104.163C156.78 104.311 156.657 104.55 156.465 104.709L155.912 104.713C155.829 105.02 155.746 105.326 155.664 105.633C155.351 104.63 154.906 105.934 154.384 106.358C154.07 106.612 153.573 106.874 153.204 107.039C152.928 107.162 152.885 106.876 152.617 107.093C152.379 107.286 152.227 107.711 151.971 107.952C151.656 108.248 151.254 108.478 150.904 108.731C150.232 109.215 149.522 109.595 148.842 110.054C147.927 110.671 147.448 111.733 146.559 112.379C146.139 112.684 145.485 112.72 145.257 112.916C144.686 113.407 144.874 114.152 143.809 114.185C143.906 114.34 143.965 114.509 143.984 114.691C143.731 114.647 143.505 114.542 143.308 114.375C143.352 115.438 142.307 115.818 141.681 116.473C141.32 116.85 140.87 117.381 140.616 117.835C140.573 117.911 140.493 118.518 140.475 118.526C140.379 118.572 139.79 118.055 139.846 118.098C139.682 119.081 138.732 120.01 138.316 120.919C138.097 121.399 137.874 122.169 137.442 122.506C137.325 122.598 136.964 122.502 136.665 122.821C136.446 123.054 136.194 123.486 136.105 123.796C136.045 124.003 136.117 124.538 136.031 124.663C135.875 124.889 135.632 124.661 135.387 124.829C134.935 125.139 134.924 125.624 134.262 125.688C134.718 126.797 137.472 127.139 138.473 127.455C141.303 128.347 144.273 129.238 146.919 130.604C147.604 130.957 148.251 131.248 148.372 132.062C148.541 133.195 147.965 134.701 147.855 135.845C147.557 138.935 147.496 142.115 147.558 145.218C147.617 148.157 147.712 151.124 147.849 154.059C147.976 156.78 148.524 159.448 148.82 162.151C148.901 162.892 148.847 166.237 150.12 166.069C151.184 165.928 150.512 163.644 150.492 162.989C150.448 161.539 150.753 160.059 150.74 158.597C150.734 157.894 151.041 157.288 151.07 156.616C151.099 155.951 150.77 155.426 150.868 154.737C150.963 154.075 152.916 150.272 151.041 150.718C151.15 150.174 151.247 149.626 151.392 149.09C151.592 149.271 151.754 149.482 151.876 149.722C152.042 148.554 151.987 147.388 152.09 146.219C152.137 145.69 152.351 145.11 152.278 144.576C152.292 144.355 152.264 144.138 152.194 143.925C152.078 143.803 151.936 143.738 151.766 143.732C151.677 143.44 151.654 143.359 151.812 143.073C151.88 142.878 152.015 142.757 152.217 142.709C152.601 142.663 152.645 142.442 152.349 142.045C152.503 141.262 152.523 140.768 152.412 139.986C152.318 139.33 152.663 138.058 152.311 137.474C151.9 136.79 151.696 137.453 151.619 136.506C151.603 136.306 151.59 135.888 151.67 135.688C151.759 135.47 152.024 135.559 152.058 135.482C152.288 134.956 152.303 133.919 151.489 134.009C151.521 133.633 151.552 133.257 151.584 132.881C152.173 133.56 151.967 132.985 152.301 132.608C152.75 132.1 153.19 132.013 153.833 131.812C155.545 131.277 157.195 130.472 158.869 129.819C162.412 128.437 166.022 127.202 169.462 125.568C176.697 122.13 183.788 118.4 191.068 115.053C190.548 114.087 190.871 114.04 191.251 113.133C191.759 113.485 191.652 113.239 192.013 113.218C191.98 112.915 192.074 112.824 192.295 112.944C192.47 112.998 192.65 113.017 192.835 113.001C193.286 113.078 193.654 113.327 194.063 113.421C194.198 113.52 194.346 113.595 194.507 113.645C194.651 113.611 194.775 113.54 194.877 113.429C195.54 113.552 195.763 114.053 195.793 114.777C195.798 114.903 195.413 115.032 195.523 115.201C195.715 115.497 196.234 115.426 196.53 115.464C196.465 115.771 196.4 116.078 196.336 116.386C197.637 115.784 197.297 117.666 197.692 118.285C197.802 118.457 198.047 118.319 198.175 118.519C198.341 118.78 198.291 119.149 198.432 119.409C198.753 119.997 199.073 119.925 199.393 120.598C201.061 124.112 203.28 127.385 204.882 130.974C205.644 132.682 206.332 134.42 207.128 136.113C207.861 137.671 208.279 138.996 207.757 140.698C206.546 144.645 205.251 148.665 203.664 152.478C203.585 152.352 203.506 152.226 203.426 152.1ZM118.96 181.566C118.846 181.76 118.732 181.953 118.619 182.147C118.366 180.694 119.039 181.368 118.96 181.566ZM113.618 178.845C113.254 178.736 113.412 178.14 113.423 177.886C113.654 178.173 113.879 178.466 114.071 178.782C113.92 178.803 113.769 178.824 113.618 178.845ZM98.9796 173.258C99.3619 173.043 99.637 172.889 100.07 172.646C99.6299 173.505 99.6299 173.505 98.9796 173.258ZM75.9497 97.5324C75.3656 98.968 77.1467 107.832 75.4884 108.121C75.2506 107.343 75.2208 105.201 74.2363 104.945C73.0147 104.628 73.1352 106.833 72.9683 107.515C70.4605 105.768 69.3465 102.394 68.1484 99.7208C66.6213 96.3129 65.4197 92.7683 64.2721 89.2174C63.2909 86.1814 62.4795 83.0918 61.4879 80.0607C60.865 78.1571 60.1934 76.2487 59.7745 74.2865C59.6836 73.8602 59.3255 72.7793 59.6298 72.3741C60.0719 71.7848 61.6635 72.4597 62.1764 72.6144C65.5035 73.6169 68.9549 74.0484 72.3732 74.6308C76.1712 75.2775 79.9607 75.946 83.7816 76.4475C84.7363 76.5728 85.6916 76.6914 86.6474 76.8068C87.2673 76.8817 88.2057 76.8068 88.7945 77.0852C89.9863 77.6482 90.24 79.8029 90.6827 80.9207C92.3341 85.0912 94.2777 89.1299 96.0165 93.2627C97.583 96.9855 98.7704 100.946 101.022 104.336C99.3428 103.591 97.2146 99.6499 95.3382 101.921C94.5314 102.898 94.7349 104.185 94.7993 105.354C94.8927 107.044 94.922 108.746 94.922 110.439C93.0857 109.961 91.8518 107.874 90.8878 106.395C89.5709 104.376 88.7415 102.473 88.1585 100.158C87.9058 99.1558 87.2362 99.131 86.6411 98.531C86.2588 98.1455 86.0665 97.6259 85.5182 98.1868C84.8289 98.8917 85.2874 100.844 85.4065 101.676C85.6891 103.657 86.6163 106.705 85.7151 108.566C84.4987 111.077 81.2393 104.758 80.8575 103.845C80.6633 103.38 77.1956 94.4704 75.9497 97.5324ZM73.6726 54.4903C73.878 54.5218 74.0831 54.5532 74.2885 54.5847C74.123 54.731 73.7786 55.2439 73.4973 55.1083C73.5557 54.9024 73.6142 54.6965 73.6726 54.4903ZM84.55 52.1532C84.4859 52.2241 84.4211 52.2946 84.3567 52.3654C84.0623 51.9968 84.1666 51.4595 84.1666 51.0332C84.5558 51.2687 84.6508 51.7395 84.55 52.1532ZM85.4291 56.2428V57.4476C84.6137 57.0937 84.5976 56.9111 85.4291 56.2428ZM86.4194 57.7746C85.8481 57.6177 85.7798 57.4911 85.8601 56.6119C86.0969 57.1044 86.2528 57.429 86.4194 57.7746ZM89.708 66.6969C89.4685 67.3138 88.0689 65.8438 88.1202 65.4038C88.1691 64.9841 88.384 64.8589 88.6806 65.1288C88.7787 65.2182 88.6331 65.5411 88.6956 65.6532C88.9215 66.059 89.3767 66.391 89.708 66.6969ZM89.7236 70.4135C89.3729 71.2902 88.7478 69.9096 89.664 69.8718C89.7241 70.0482 89.7441 70.2287 89.7236 70.4135ZM89.0433 69.0313C88.9076 68.85 88.7757 68.6663 88.6476 68.4792C89.1195 68.5747 89.4942 69.2632 89.992 68.8038C89.933 69.5043 89.436 69.5238 89.0433 69.0313ZM58.5262 57.6442C57.7673 56.8148 62.716 56.2327 63.313 56.0902C67.6454 55.0558 71.7358 53.559 75.7867 51.7223C77.7191 50.8462 79.6417 49.9594 81.5288 48.9882C82.3437 48.569 83.4607 48.2135 84.1412 47.5841C84.6271 47.1348 84.6077 46.7949 85.2391 46.5272C85.7752 46.3005 85.8019 46.5146 86.0474 46.1045C86.1949 45.8584 86.3618 44.9566 86.2755 44.6897C86.0403 43.9615 85.6927 44.5519 85.2047 44.0501C84.8532 43.6884 84.9384 42.6597 85.0342 42.2337C85.1588 42.4366 85.2303 42.657 85.2494 42.8943C85.779 42.6329 85.5654 41.7352 86.1447 41.5881C86.755 41.4333 86.6919 41.9094 86.8511 42.3961C87.3124 41.718 86.9426 41.1397 86.693 40.4774C87.9621 40.2395 89.3257 40.009 90.5836 40.4317C91.4932 40.7372 92.2718 41.4883 93.2323 41.6335C94.1729 41.7754 94.3536 41.3289 95.047 40.8758C95.6099 40.508 96.0933 40.9411 96.383 40.6633C96.2044 41.6012 94.6688 41.473 94.8578 42.6449C94.943 43.1724 95.5886 43.6463 95.8824 44.0567C96.2514 44.5719 96.5455 45.1414 96.7968 45.722C97.7742 47.98 98.192 50.6004 98.6022 53.0151C99.6143 58.9756 99.7424 65.0536 100.694 71.0331C101.148 73.8813 101.603 76.7311 101.838 79.6071C101.897 80.3263 102.336 81.9573 101.977 82.6491C101.674 83.2332 100.999 83.2348 100.406 83.3762C99.2464 83.6521 98.1576 84.027 97.0453 84.4423C96.0482 84.8145 95.7584 85.0428 95.1183 84.1035C94.4992 83.1946 94.1931 82.1113 93.7501 81.1149C93.1859 79.8453 92.5042 78.6203 91.8499 77.3955C93.1354 77.3955 93.8752 76.7007 93.841 75.3929C93.8039 73.9442 92.614 73.6005 92.1235 72.4099C91.6464 73.0303 91.6063 73.0478 91.2663 72.4589C90.8774 71.7854 90.615 70.553 90.3771 69.789C90.5472 69.9708 90.7174 70.1527 90.8875 70.3342C91.3165 69.7431 90.6445 68.8112 90.4197 68.2545C90.0729 67.3948 90.0117 66.4653 89.6826 65.6081C89.5032 65.1403 89.0875 64.7719 88.9857 64.2838C88.9177 63.9571 89.1902 63.6462 89.1255 63.3145C89.013 62.737 88.3606 62.1174 88.1576 61.53C87.8455 60.6266 87.5066 59.8311 87.1193 58.9509C86.5953 57.7596 86.7171 56.5094 86.6212 55.2415C86.5218 53.9268 86.1012 52.669 85.9527 51.36C85.85 50.4557 86.1714 49.3171 85.4881 48.5928C85.4081 49.7967 85.7528 49.7782 84.623 49.9947C83.3367 50.2411 82.4038 51.2006 81.1877 51.4869C80.937 51.5459 80.7543 50.4494 80.8521 51.9452C80.2687 51.5139 79.0237 52.0493 79.4882 52.3053C79.1362 52.6823 78.4428 52.4215 78.327 52.9864C77.1306 51.8218 75.2121 55.7859 73.7873 53.7181C73.5522 55.1195 72.5387 55.948 71.1782 56.1334C70.4941 56.2264 70.0724 56.4547 69.4653 56.6601C69.3421 56.7014 69.2968 56.8788 69.151 56.9267C68.9281 56.9994 68.601 56.7798 68.4404 56.8225C68.1135 56.9095 67.75 57.3401 67.2937 57.4257C66.7704 57.5239 66.1996 57.4787 65.6758 57.418C65.021 57.342 64.7328 57.2644 64.0916 57.4804C63.5148 57.6748 62.8971 58.2192 62.3618 57.6264C61.521 59.083 59.5162 58.727 58.5262 57.6442ZM97.3998 40.0667C96.7634 39.9904 97.2053 39.4424 97.5 39.2778C98.3007 38.831 98.0869 40.1493 97.3998 40.0667ZM62.1649 45.2937C65.8998 39.8988 72.288 36.192 77.9089 33.0732C80.979 31.3697 84.1128 29.7184 87.3364 28.3241C88.9392 27.6312 90.5606 26.9651 92.1973 26.3564C93.0712 26.0313 93.9557 25.7357 94.8408 25.4415C95.0855 25.3603 95.5307 25.1109 95.7869 25.1352C95.7426 25.1309 96.4234 25.3163 96.2896 25.3745C96.7282 25.1834 96.9369 24.6849 97.4525 24.4856C98.032 24.2613 98.7702 24.1686 99.3909 24.1484C99.9401 24.1304 100.416 24.3576 100.939 24.3754C101.283 24.3868 101.575 24.2233 101.912 24.1993C102.084 24.1872 102.069 24.4454 102.172 24.4604C102.217 24.467 102.676 24.2944 102.681 24.2974C102.848 24.4049 102.996 24.8243 103.147 24.9881C103.58 25.4579 104.216 25.7852 104.793 26.0324C105.496 26.3332 107.211 26.6356 106.416 27.7485C106.981 27.6673 107.243 28.1781 106.537 28.3074C106.154 28.3777 105.99 28.0266 105.706 27.7871C105.049 27.2347 103.455 26.4483 102.509 26.4838C101.977 26.5038 101.565 26.9082 101.075 27.0551C100.591 27.1994 100.352 26.9755 99.9283 27.011C99.433 27.0523 99.114 27.4721 98.6418 27.5467C98.1997 27.6167 97.9533 27.3148 97.5582 27.3359C97.0884 27.3608 96.6334 27.7693 96.185 27.9066C95.4717 28.1248 94.9479 28.2735 94.2515 28.6353C92.9019 29.3366 91.3946 29.603 90.0038 30.2067C88.8917 30.6893 87.6308 30.9434 86.6018 31.4771C85.4575 32.0702 84.3081 32.6611 83.1876 33.3056C82.3781 33.7713 80.7324 33.9315 79.84 33.8131C79.8271 35.4587 79.0182 34.305 78.203 35.0258C78.3958 35.1962 78.6149 35.3214 78.8593 35.4015C77.9758 35.7548 77.1592 36.1945 76.3034 36.6006C75.4188 37.0206 74.475 37.113 73.8938 37.9073C73.3586 38.6393 73.5399 38.2617 72.7411 38.5499C72.3746 38.6823 72.0559 39.0858 71.7918 39.3568C71.3379 39.8228 71.2374 40.5282 70.9783 39.5707C70.9026 39.6874 70.6049 40.4309 70.547 40.4498C70.2223 40.1047 70.1756 40.5137 69.994 40.66C70.0896 40.978 69.9531 41.1864 69.5844 41.2851C69.3979 41.424 69.2089 41.5602 69.018 41.6934C68.3254 42.1743 67.4439 42.587 66.9561 43.3037C66.5964 43.0912 66.4632 42.7245 66.6822 42.3502C65.9948 42.9845 65.1747 43.6362 64.9887 44.6126C64.9032 44.53 64.8036 44.4704 64.6905 44.4338C64.4114 44.6225 64.7749 45.1846 64.9519 45.3112C65.7236 45.011 64.7591 45.1198 65.2777 45.1682C65.4254 45.1819 65.5772 45.2927 65.7403 45.2946C66.2185 45.3009 66.6677 45.2779 67.1418 45.2049C68.1872 45.0435 69.2146 44.743 70.2267 44.4417C71.3289 44.1136 72.4314 43.786 73.5093 43.3835C74.3969 43.0521 75.2697 42.6827 76.1422 42.3146C76.4907 42.1675 76.8389 42.0185 77.1879 41.8725C77.8507 41.5952 78.2003 41.1397 78.1077 41.92C78.6356 41.8323 79.093 41.0852 79.4983 40.7804C80.0685 40.3519 80.7098 40.0322 81.3854 39.8135C81.6591 39.7249 81.8601 39.6122 82.143 39.6114C82.2817 39.6111 82.3647 40.0027 82.4521 39.9814C83.0584 39.8343 82.782 39.4979 83.0546 39.0134C83.6507 37.9544 85.2565 37.3686 86.2427 36.7671C86.8686 36.3851 87.313 35.8713 87.8908 35.4483C88.1612 35.2506 88.3575 35.1631 88.6407 35.0794C88.8576 35.0152 89.1236 35.5139 89.2642 35.0127C88.7598 34.8062 88.3439 34.5517 87.8586 34.401C87.5153 34.2941 87.9271 33.9285 87.3831 34.1462C87.1647 34.2337 87.0896 34.657 87.0093 34.8341C86.4016 34.2908 84.6931 34.8538 83.9722 35.0813C83.9225 35.0969 83.6999 34.9793 83.595 34.9864C83.1788 35.0143 82.8891 35.5752 82.6152 35.8169C81.8868 36.4592 81.0967 36.7277 80.1999 37.0944C80.4386 35.7887 82.1927 35.2539 83.2165 34.7537C84.7131 34.0226 86.1064 33.0893 87.745 32.6961C88.8363 32.4339 90.2823 32.2231 90.7537 33.4935C91.0358 34.255 91.0713 36.1469 90.1168 36.4983C90.0161 36.1428 90.3389 35.839 90.4361 35.5306C89.486 35.8937 89.3295 37.0364 88.608 37.6328C88.2024 37.9678 88.0574 38.0752 87.8613 38.399C87.6666 38.7205 87.5732 39.0205 87.1169 39.3626C86.371 37.7763 86.4972 39.9491 86.119 40.2217C86.2711 40.1121 85.5026 40.4323 85.5944 40.3984C85.5589 40.4115 85.224 39.8684 85.0069 39.8799C84.6118 39.9007 84.6877 40.3363 84.4973 40.5556C83.852 41.2977 83.0182 41.7844 81.9797 41.6677C81.9554 42.1957 82.1181 42.8265 81.398 42.8746L81.3035 41.704C80.9116 42.1011 80.3957 42.4781 80.0767 42.9378C79.7138 43.4609 79.7526 43.783 79.1504 44.1316C78.5212 44.4961 77.1825 45.2142 76.4336 45.2762C76.6188 45.0132 76.586 44.7756 76.3359 44.5639C75.9593 44.9528 75.4032 44.991 75.0023 45.3421C76.394 45.9243 73.9332 45.8942 73.621 45.9601C73.4121 46.0044 73.2297 46.195 73.018 46.2379C72.737 46.2951 72.7007 45.9992 72.4587 46.093C72.1048 46.2303 72.2484 46.6177 71.8781 46.8124C71.6121 46.9524 71.161 46.9505 70.8608 47.0834C70.1456 47.4006 68.622 48.1031 68.1386 47.251C67.8936 48.7128 65.3918 47.8231 64.4658 47.7246C63.1975 47.5898 60.9884 46.9937 62.1649 45.2937ZM67.4919 30.3372C67.6713 30.1838 67.851 30.195 68.0307 30.3711C67.7806 29.0482 69.7155 28.4059 70.5596 27.8434C71.6793 27.0974 72.9973 25.6501 74.4624 25.7647C74.2125 25.9501 73.9632 26.1355 73.7136 26.3209C74.07 26.3671 74.4261 26.4133 74.7819 26.4595C74.5812 26.7548 74.3802 27.0499 74.179 27.3449C73.8501 25.5304 72.1346 27.8212 71.6381 28.1551C71.138 28.4912 70.6394 28.7416 70.195 29.1515C69.7548 29.5576 69.3574 30.2888 68.6296 29.9234C68.5633 30.9598 67.7312 30.6787 67.1557 31.2526C67.1317 30.8925 67.3376 30.6379 67.4919 30.3372ZM75.0933 25.164C76.8643 24.4998 78.4062 23.2718 80.0751 22.3946C81.6692 21.5565 83.2954 20.804 84.916 20.0222C85.738 19.6254 87.2439 18.5995 88.1836 19.1223C89.4516 19.8283 87.7059 20.0561 87.2526 20.3006C87.0849 19.2134 86.4975 20.1983 86.8484 20.8031C85.8808 20.3848 83.7706 22.0216 82.8476 22.473C82.6386 22.5753 82.7323 22.6344 82.4947 22.7547C82.4363 22.7842 81.8306 22.9223 81.6571 22.9805C80.7881 23.2718 80.2155 23.0404 79.8411 24.0907C79.7627 23.8435 79.6843 23.5961 79.6059 23.3486C79.0619 24.5717 77.4083 25.1071 76.3509 25.8303C76.0783 26.0168 75.3 26.7401 74.9543 26.5905C74.4731 26.3821 74.6662 25.3239 75.0933 25.164ZM107.042 28.8516C107.79 28.9011 107.069 29.2502 107.274 29.481C107.251 29.455 107.724 29.8595 107.662 29.7484C107.746 29.8977 107.947 29.8923 108.049 30.1958C108.403 31.2395 106.859 32.318 106.338 32.9102C105.325 34.0622 104.74 35.521 103.685 36.6361C103.208 37.1398 102.734 37.4876 102.074 37.6754C101.611 37.807 101.122 37.6662 100.697 38.1113C100.355 38.4698 100.432 38.6735 100.054 38.8641C99.3879 39.2001 99.0943 38.9054 98.446 39.6316C97.8881 38.113 99.4911 38.1154 100.328 37.2667C101.482 36.095 102.748 34.9129 103.83 33.6594C104.792 32.5457 105.178 31.5693 105.634 30.2163C105.778 29.7897 105.935 28.8751 106.332 28.6074C106.95 28.1907 106.579 28.8207 107.042 28.8516ZM110.719 68.3034C112.68 66.1071 115.113 64.1351 117.75 62.8122C118.692 62.3391 120.034 61.7184 121.011 62.4466C121.969 63.1603 121.763 64.5841 121.376 65.5526C121.006 65.4071 121.356 64.0459 121.164 63.7096C120.745 62.9757 119.841 63.3654 119.226 63.6115C118.505 63.8997 117.863 64.2179 117.292 64.741C117.06 64.9529 116.617 65.143 116.469 65.2887C116.246 65.196 116.115 65.2636 116.075 65.4911C116.121 65.6305 116.116 65.7678 116.059 65.9029C116.026 65.9458 115.737 65.7697 115.695 65.805C115.507 65.966 115.332 66.1555 115.147 66.3051C114.775 66.6056 114.46 66.7478 114.118 67.1667C113.458 67.9764 112.586 68.4508 111.923 69.2222C111.773 69.3966 111.594 69.8437 111.56 69.8828C111.225 70.2743 110.728 70.5842 110.35 70.9987C109.697 71.7148 108.999 72.1955 108.245 72.8097C107.92 73.0738 107.541 73.3585 107.325 73.726C107.227 73.8936 107.172 74.8124 107.168 74.8162C106.429 75.6277 106.573 73.9964 106.628 73.7919C107.229 71.591 109.259 69.9386 110.719 68.3034ZM106.682 83.1859C106.774 83.5315 106.85 83.8173 106.943 84.1681C106.357 83.6865 106.357 83.6865 106.682 83.1859ZM106.049 84.3179C105.834 84.5353 105.617 84.7513 105.399 84.966C104.919 84.4582 106.137 84.231 106.049 84.3179ZM105.744 75.5783C105.515 76.5074 104.675 77.6337 104.098 78.3671C104.162 78.2861 103.605 78.4488 103.542 78.4857C103.336 78.605 103.829 79.3777 103.116 79.0323C102.863 79.1756 103.361 79.7591 103.018 80.0203C102.025 77.7548 104.736 75.7921 105.786 74.1104C106.299 74.5824 105.873 75.0573 105.744 75.5783ZM99.2948 87.8267C100.019 88.0132 100.395 87.8959 100.884 87.1838C101.178 86.7562 101.285 85.9988 101.957 86.6386L102.076 85.8158C103.035 86.2098 102.955 87.6339 103.374 88.4231C103.578 87.5303 104.061 85.0362 105.54 85.4363C107.201 85.8855 104.437 88.7452 104.18 89.4457C103.616 88.5685 103.838 89.3845 103.407 89.5081C103.038 89.6144 102.46 89.3421 102.012 89.3667C100.646 89.4411 99.4455 90.0563 98.1977 90.5772C97.8818 89.7244 97.5661 88.8715 97.2501 88.0186C97.9847 88.0752 99.5037 86.1174 99.7194 87.5404C99.1746 87.4455 99.0211 87.4696 98.7557 87.9662C98.9253 87.88 99.105 87.8335 99.2948 87.8267ZM102.361 98.9587C102.359 98.9518 103.774 99.0394 103.9 98.9931C104.869 98.639 104.511 97.5393 104.709 96.7619C105.108 97.1294 104.896 97.8001 105.019 98.2756C105.164 98.8345 105.582 99.3109 105.621 99.9086C105.709 101.259 104.602 100.959 103.763 101.396C103.047 101.77 102.967 102.24 102.362 101.233C102.198 100.961 101.845 100.251 101.882 99.9029C101.917 99.5578 102.463 99.271 102.361 98.9587ZM103.502 104.803L103.11 104.364C104.276 104.721 103.589 104.184 103.857 103.449C104.752 104.046 105.482 104.659 106.19 103.464L107.413 108.405C106.592 108.599 105.531 107.328 104.968 106.891C104.642 106.639 102.836 105.667 103.92 105.383C103.781 105.19 103.641 104.996 103.502 104.803ZM111.488 89.2871C110.809 89.9338 110.125 90.2959 109.385 90.8042C108.737 91.2504 108.96 91.7626 108.398 92.2602C108.024 92.5911 107.149 92.928 106.688 93.1804C105.866 93.6299 105.13 93.7155 104.285 93.2124C104.515 95.0666 103.246 95.2117 101.668 95.579C100.915 95.7543 100.469 96.022 99.9264 95.3315C99.5548 94.859 99.4092 94.0034 99.8715 93.5711C100.606 92.8842 102.562 93.1213 103.505 92.6893C104.22 92.3617 104.948 90.5157 105.83 91.1875C105.375 90.4616 105.905 90.266 106.3 89.7484C106.734 89.181 107 88.5177 107.449 87.9549C108.301 86.8852 109.609 85.8093 110.819 85.1642C111.884 84.5968 112.443 84.9985 112.602 86.1902C112.682 86.7893 112.679 87.6818 112.344 88.2133C112.238 88.3829 111.885 88.3848 111.778 88.5439C111.592 88.822 111.763 89.0252 111.488 89.2871ZM123.983 74.9061C124.833 75.5646 124.75 76.9482 124.884 77.8905C125.072 79.2186 124.935 80.5037 124.915 81.8564C124.894 83.2737 124.199 84.1968 123.873 85.5252C123.509 87.0028 123.04 87.7854 122.226 89.0255C123.109 89.1646 121.794 91.8072 121.577 92.1492C121.342 92.5206 119.444 94.2317 120.257 94.2317C119.808 94.8246 119.32 95.433 118.872 96.0094C118.696 96.2363 118.387 96.3255 118.248 96.4857C117.966 96.8114 117.949 97.1018 117.746 97.4818C117.439 98.0585 117.338 97.9046 116.934 98.3229C116.655 98.612 116.472 98.9934 116.198 99.2704C115.316 100.163 115.203 99.4317 114.71 98.7446C114.634 98.9286 114.5 99.044 114.307 99.0908C114.152 98.3131 115.216 97.5275 115.663 97.055C116.396 96.2806 117.066 95.4275 117.713 94.5807C119.101 92.7661 120.347 90.8384 121.331 88.7733C122.378 86.5757 123.214 84.1973 123.648 81.7998C123.979 79.9724 124.293 76.8377 121.855 76.3729C120.081 76.0349 118.126 77.1139 116.663 77.9875C115.772 78.5196 114.876 79.0487 114.027 79.6473C113.106 80.2965 112.31 81.2152 111.31 81.7361C111.857 81.4512 110.052 82.3087 110.328 82.0675C110.199 82.1802 110.31 82.5244 110.225 82.6797C110.113 82.8818 109.726 83.0814 109.553 83.2121C109.094 83.5572 108.361 83.9102 108.152 84.4801C105.242 82.4014 111.029 78.711 112.513 77.7712C115.455 75.9072 120.575 72.265 123.983 74.9061ZM131.833 54.6899C131.805 53.1931 133.022 51.1497 133.845 49.9291C134.247 49.3316 134.89 49.3554 135.125 48.6508C135.261 48.245 135.083 47.8195 135.123 47.4121C135.178 46.8611 135.417 46.4192 135.692 45.9456C138.181 41.6644 141.204 37.8751 144.425 34.1399C146.013 32.2985 147.519 30.3864 149.231 28.6566C149.947 27.9342 151.87 25.337 152.97 25.5968C153.552 25.7343 153.891 26.6244 154.154 27.0786C154.589 27.8297 155.067 28.5333 155.595 29.224C156.99 31.0476 158.599 32.6483 160.499 33.9408C161.685 34.7486 162.884 35.5336 164.044 36.3799C164.999 37.0763 166.443 37.8726 167.125 38.8504C167.807 39.8285 166.805 40.6568 166.258 41.4689C165.407 42.7319 164.624 44.0406 163.769 45.3022C163.43 45.0578 163.518 44.5612 163.285 44.2481C163.079 43.9706 162.787 43.8576 162.501 43.6862C161.955 43.3583 161.419 42.9575 160.925 43.5068C160.061 44.4682 161.249 46.7408 162.529 46.4914C162.68 47.4402 160.124 49.003 159.483 49.5252C157.517 51.127 155.488 52.5197 152.891 52.6646C151.84 52.7231 150.746 52.6432 149.747 52.2911C149.269 52.1223 148.74 51.8907 148.373 51.523C147.934 51.0827 147.822 50.4276 147.396 49.9917C147.026 49.6135 146.519 49.5553 146.15 49.1758C145.78 48.796 145.597 48.196 145.447 47.7041C145.154 46.743 145.099 45.7293 144.817 44.766C144.647 44.1866 144.508 43.4119 143.955 43.9687C143.152 44.7775 143.555 47.3208 143.761 48.2898C144.055 49.6723 144.744 50.7869 145.467 51.9763C146.25 53.2667 146.539 54.4635 146.68 55.9565C146.942 58.7513 147.743 61.4332 148.99 63.9478C149.514 65.0065 150.143 66.0021 150.709 67.0366C150.974 67.5192 151.567 69.1658 152.286 69.1571C153.436 69.1429 151.798 65.7858 151.571 65.2223C150.312 62.101 149.109 58.8202 148.839 55.4405C150.644 55.9062 152.612 56.3481 154.482 56.053C153.275 58.7552 154.536 61.4455 154.381 64.227C154.304 65.6218 154.248 66.9086 154.277 68.2993C154.303 69.5188 153.753 70.7378 153.277 71.8406C152.333 74.0306 151.144 76.7322 149.39 78.4097C147.924 79.8122 145.962 79.9218 144.047 79.5989C139.689 78.8639 136.825 75.5096 134.996 71.7001C133.821 69.2528 132.923 66.6403 132.365 63.9825C131.72 60.9066 131.89 57.8099 131.833 54.6899ZM137.492 33.9602C133.425 31.0139 139.335 27.6681 142.343 28.1237C143.049 28.2303 144.347 28.5223 144.281 29.4444C144.227 30.198 142.972 31.038 142.49 31.5031C141.115 32.8304 139.717 35.5711 137.492 33.9602ZM167.078 99.4263C166.938 99.301 165.8 99.6084 166.251 98.9341C166.626 98.3738 167.665 99.076 168.042 99.2201C167.731 99.4353 167.46 99.7686 167.078 99.4263ZM150.144 135.061C149.794 135.104 149.429 134.16 150.689 134.865C150.507 134.93 150.325 134.996 150.144 135.061ZM150.108 150.445C150.151 150.868 150.28 151.147 149.98 151.454C149.726 151.141 149.694 150.699 150.108 150.445ZM150.619 156.801C150.582 157.031 150.545 157.261 150.508 157.491C150.217 157.344 149.926 157.197 149.635 157.049C149.963 156.966 150.291 156.884 150.619 156.801ZM150.975 151.441C151.409 151.603 151.207 151.084 151.522 151.011C151.635 151.552 151.496 152.015 151.186 152.461C151.156 152.355 150.997 151.449 150.975 151.441ZM162.058 113.084C161.45 113.007 161.358 113.65 160.904 113.9C160.612 114.061 159.72 113.94 159.554 114.249C159.774 114.312 159.993 114.376 160.213 114.439C159.71 114.711 159.207 114.982 158.705 115.253C159.914 115.253 161.174 114.675 162.375 114.845C162.883 114.917 163.255 115.089 163.573 115.502C163.767 115.753 163.937 116.157 163.968 116.464C164.001 116.797 163.742 117.026 163.788 117.185C164.33 117.2 164.266 118.089 164.144 118.451C163.881 119.237 162.834 120.467 161.896 119.969C162.288 120.526 162.188 120.845 161.608 121.168C161.661 120.984 161.699 120.661 161.403 120.693C161.327 121.002 161.356 121.492 161.104 121.725C160.822 121.986 160.57 121.681 160.3 121.851C159.98 122.052 160.076 122.368 159.825 122.586C159.492 122.874 159.445 122.669 159.047 122.725C158.445 122.811 158.829 122.436 158.347 122.925C158.18 123.093 158.208 123.531 157.938 123.778C157.418 124.251 156.032 124.745 155.535 124.138C154.338 126.036 150.752 126.492 149.083 124.993C146.421 122.603 151.385 117.742 153.024 116.201C154.669 114.655 156.496 113.32 158.344 112.031C159.394 111.298 160.472 110.634 161.573 109.981C162.252 109.579 163.104 108.843 163.939 108.914C164.687 108.977 165.326 109.559 166.114 109.674C166.684 109.757 167.791 109.894 167.072 110.668C166.736 111.029 165.416 111.614 164.966 111.702C164.702 111.754 164.424 111.655 164.162 111.708C163.719 111.799 163.415 112.174 162.933 112.126C163.086 112.842 162.807 113.179 162.058 113.084ZM169.937 86.4978C169.937 87.0581 168.916 86.9183 168.703 86.728C168.351 86.4149 168.339 85.4787 168.209 85.0529C168.803 85.2025 169.936 85.7499 169.937 86.4978ZM161.709 68.0138C163.855 66.2482 166.11 64.6295 168.495 63.2038C169.349 62.6932 170.555 61.6635 171.615 61.792C172.06 61.8461 172.98 62.3577 172.645 62.9218C172.583 63.0274 172.087 63.0698 171.934 63.1463C171.761 63.233 171.625 63.472 171.464 63.5901C170.35 64.4085 169.011 64.9114 167.893 65.7495C166.975 66.4377 166.118 67.2077 165.129 67.7984C164.18 68.3646 163.189 68.7231 162.288 69.3504C162.306 69.3378 161.117 69.766 161.35 69.844C160.306 69.4942 161.409 68.2613 161.709 68.0138ZM176.013 67.3562C177.288 66.8476 178.535 66.2305 179.869 65.8887C180.535 65.718 181.219 65.5898 181.908 65.6666C182.025 65.4613 182.181 65.4159 182.376 65.5305C182.528 65.7645 182.729 65.9442 182.978 66.0697C183.358 66.3623 184.757 66.7448 184.478 67.3909C184.293 67.8183 182.889 67.8539 182.504 67.9498C181.343 68.2394 180.261 68.8907 179.065 69.0507C178.953 69.0657 178.586 68.9296 178.582 68.9304C178.115 69.0324 177.727 69.5172 177.326 69.7496C176.463 70.2497 175.223 70.3337 174.604 71.1969C176.61 72.5589 178.351 71.2081 180.116 70.1797C181.172 69.564 182.307 69.1196 183.462 68.7248C184.065 68.5186 184.674 68.3042 185.286 68.1232C185.539 68.0308 185.8 67.9643 186.067 67.9236C186.315 67.8741 186.493 67.9646 186.6 68.1954C187.34 68.1708 187.403 67.7062 187.848 68.5727C188.476 69.7945 187.516 69.7324 186.613 69.8825C185.362 70.0903 184.089 70.5585 182.856 70.8688C182.572 70.9404 180.078 71.5193 180.075 71.5398C179.962 72.3279 187.119 71.5981 187.734 71.4799C188.818 71.271 189.981 70.6779 191.103 70.821C191.965 70.9306 193.928 72.1966 192.553 73.0377C192.283 71.7405 191.354 72.8119 190.869 73.2496C190.223 73.8323 189.297 73.7763 188.411 74.0046C187.199 74.3163 184.096 75.4861 183.235 73.9948C183.507 75.3018 178.562 74.6376 177.882 74.5944C177.219 74.552 176.363 74.6931 175.723 74.5039C175.305 74.3806 175.072 74.1085 174.679 74.0473C174.583 74.1512 174.467 74.222 174.333 74.2595C174.133 74.1586 173.953 74.03 173.793 73.8745C172.468 73.265 170.419 72.9281 171.155 70.9864C171.849 69.1552 174.33 68.0283 176.013 67.3562ZM188.428 68.488C188.461 68.3739 188.494 68.2599 188.527 68.1456C188.531 68.4954 189.364 68.6446 189.268 69.0977C189.055 70.101 188.093 68.5935 188.011 68.4292C188.15 68.4489 188.289 68.4683 188.428 68.488ZM193.514 70.1549C193.61 70.5658 194.718 71.4408 194.443 71.6426C194.007 71.0482 192.8 71.3181 193.514 70.1549ZM174.829 107.654C175.235 106.849 176.461 108.22 176.331 106.845C176.998 106.906 176.582 107.414 177.381 107.191C177.68 107.107 177.882 106.775 178.247 106.698C178.344 106.678 178.765 106.711 178.91 106.707C179.39 106.692 181.273 106.638 179.977 106.007C180.702 105.527 180.792 105.771 181.446 106.211C181.278 105.301 182.241 105.818 182.69 105.931C182.37 105.412 183.164 104.861 183.421 104.51C183.329 105.05 183.377 105.655 184.158 105.309C184.352 105.223 184.309 104.842 184.463 104.779C184.745 104.665 184.903 104.873 185.005 104.861C185.104 104.85 185.314 104.906 185.524 104.827C185.796 104.724 185.665 104.359 186.01 104.304C186.235 104.269 186.399 104.6 186.673 104.602C186.814 104.604 187.049 104.461 187.156 104.468C187.175 104.47 187.309 104.146 187.474 104.138C187.715 104.126 187.813 104.772 187.901 104.898C188.322 105.497 188.883 105.887 189.53 106.206C188.36 107.281 186 107.167 184.529 107.529C183.732 107.725 183.052 108.008 182.323 108.373C182.147 108.488 181.995 108.628 181.869 108.795C181.765 108.726 181.662 108.657 181.559 108.589C181.159 108.613 180.781 108.415 180.331 108.491C178.942 108.726 177.854 109.768 176.442 110C175.808 110.105 175.287 110.25 174.874 109.7C174.511 109.217 174.571 108.168 174.829 107.654ZM172.924 101.236C173.239 101.502 172.861 102.37 173.47 102.276C173.903 102.209 173.816 101.537 174.156 101.395C174.602 101.208 174.872 101.651 175.291 101.61C176.073 101.533 176.028 100.85 175.368 100.549C176.054 100.368 176.275 101.181 176.883 101.174C177.682 101.164 177.491 100.22 178.171 100.064C178.465 99.9961 178.367 100.429 178.558 100.483C178.94 100.59 179.206 100.406 179.544 100.243C179.847 100.098 180.062 99.8176 180.393 99.7224C180.544 99.6789 180.926 99.7585 181.036 99.6778C181.259 99.5154 181.458 98.8827 181.677 98.799C181.632 98.816 182.351 99.1763 182.454 99.2103C182.39 99.4774 182.244 99.5091 182.015 99.3057C182.015 99.9086 183.689 100.096 183.345 99.3513C184.25 99.7265 183.576 99.9196 183.486 100.443C183.45 100.654 183.327 100.648 183.364 100.871C183.38 100.973 183.855 100.885 183.849 101.025C183.809 101.924 180.944 102.201 180.402 102.28C179.278 102.445 178.215 102.721 177.132 103.062C176.326 103.315 174.936 104.041 174.077 103.996C172.843 103.931 172.682 102.319 172.924 101.236ZM170.167 92.0532C169.866 91.0522 170.831 88.9844 172.089 89.2428C172.398 89.3063 172.474 89.5628 172.714 89.6765C173.049 89.8357 173.593 89.752 173.884 89.9163C174.534 90.2852 174.206 91.225 174.858 91.5646C173.829 91.8145 170.645 93.6444 170.167 92.0532ZM171.359 95.9426C171.802 95.7039 172.521 95.6733 172.823 95.2142C172.974 95.3187 173.259 95.9528 173.529 95.8557C173.655 95.8106 173.786 95.4669 173.776 95.4671C174.017 95.4603 174.065 95.1341 174.433 95.1707C174.77 95.2046 175.148 95.611 175.449 95.7625C175.397 94.7551 175.655 94.6589 176.471 94.1196C176.65 94.0015 176.799 93.558 176.964 93.3786C176.806 94.4357 177.204 94.4415 178.047 94.6003C179.104 94.7994 179.762 95.3676 180.186 96.39C179.285 96.2142 178.124 96.4258 177.769 97.3952C177.05 96.0802 174.437 97.8947 173.592 98.2663C172.965 98.5422 172.235 98.913 171.709 98.2702C171.339 97.8173 171.551 97.2727 171.559 96.8704C171.561 96.7441 171.691 96.7367 171.679 96.5486C171.664 96.3085 171.352 96.2125 171.359 95.9426ZM180.974 116.62C180.736 116.711 179.512 116.761 179.504 116.355C179.498 115.996 181.665 116.358 180.974 116.62ZM178.986 115.307C178.059 115.879 177.023 113.864 176.682 113.284C177.654 113.408 178.128 112.594 178.701 111.976C179.245 113.17 180.072 112.539 180.942 112.14C181.968 111.67 183.092 111.666 184.143 111.288C184.471 111.17 184.773 110.995 185.093 110.86C185.351 110.764 185.608 110.665 185.864 110.563C186.045 110.399 186.11 110.197 186.057 109.958C185.971 109.757 186.03 109.629 186.233 109.577C186.475 109.649 186.722 109.691 186.974 109.702C187.379 109.622 187.961 109.239 187.473 108.827C187.996 108.351 188.521 108.824 189.025 109.033C188.905 108.691 188.786 108.349 188.666 108.007C188.916 108.113 189.659 109.152 189.735 109.146C190.215 109.11 190.165 108.465 190.441 108.205C190.6 108.402 190.646 109.868 191.272 109.374C191.539 109.163 190.963 108.443 190.821 108.28C191.537 108.442 192.162 109.297 192.356 109.962C192.016 110.011 191.701 109.943 191.413 109.756C191.228 110.682 192.939 110.307 193.216 110.79C193.758 111.737 190.23 112.394 189.771 112.482C188.851 112.657 187.765 112.723 186.922 113.131C186.114 113.522 185.923 113.633 184.979 113.707C183.902 113.79 182.851 114.146 181.809 114.423C180.904 114.663 179.788 114.812 178.986 115.307ZM198.676 81.4301C199.526 81.1236 202.392 79.533 203.121 80.2404C203.044 80.1655 203.647 81.4129 203.641 81.3344C203.693 81.9833 203.677 82.2444 202.879 82.5553C202.308 82.7779 201.81 82.3049 201.296 82.4927C200.732 82.6992 201.127 83.0645 200.836 83.3196C200.518 83.5993 199.904 83.7202 199.508 83.8427C198.538 84.1426 197.56 84.3934 196.594 84.7166C194.63 85.3742 192.55 85.9862 190.531 86.4513C189.023 86.7988 186.462 87.6626 185.072 86.6424C184.936 87.2224 184.605 87.1431 184.144 87.2276C183.783 87.2938 183.13 87.4729 182.809 87.4822C182.274 87.4977 180.788 87.3575 180.993 86.6069C180.937 86.8136 182.149 86.1059 181.939 86.0619C182.454 86.1705 182.287 85.911 182.708 85.7666C183.259 85.5782 183.835 85.5883 184.397 85.3887C185.815 84.8856 187.004 84.2326 188.5 83.9173C191.918 83.1974 195.378 82.6182 198.676 81.4301ZM61.6643 158.975C61.3874 158.983 61.1719 158.195 62.0144 158.757C61.8978 158.83 61.7812 158.903 61.6643 158.975ZM55.009 157.956C54.6324 158.052 54.4822 157.842 54.5589 157.325C55.0841 157.117 55.234 157.327 55.009 157.956ZM49.871 156.901C49.7746 156.44 50.1159 156.336 50.4253 156.129C50.3942 156.74 50.3942 156.74 49.871 156.901ZM36.9431 153.107C36.4223 152.992 35.7284 152.483 35.6091 153.339C35.522 153.14 35.0774 152.208 35.2682 151.992C35.3679 151.879 35.7453 152.402 35.7052 152.35C36.161 151.427 36.9467 152.541 37.3858 152.87C37.2384 152.949 37.0906 153.028 36.9431 153.107ZM172.348 51.0879C172.528 50.7073 172.74 50.5864 172.984 50.7256C172.601 51.6159 171.304 52.0986 172.348 51.0879ZM181.358 42.7305C181.679 43.3335 181.196 43.5883 180.851 44.0895C181.053 43.5489 181.193 43.1743 181.358 42.7305ZM220.514 101.587C221.673 101.586 224.14 100.974 224.839 102.3C225.301 101.399 225.827 103.089 226.228 103.36C226.273 103.39 226.562 103.169 226.696 103.251C226.899 103.373 227.074 103.708 227.19 103.907C227.54 104.506 227.69 105.219 227.884 105.878C225.861 105.878 223.786 105.406 221.764 105.235C220.437 105.122 219.136 105.119 217.807 105.191C217.543 105.205 217.019 105.118 216.793 105.167C216.564 105.218 216.148 105.686 215.895 105.611C216.288 106.349 221.321 108.137 221.705 107.319C221.25 107.044 220.239 106.832 220.24 106.166C220.241 105.42 221.188 105.421 221.69 105.443C222.788 105.491 224.626 105.857 225.076 107C225.269 107.49 225.328 108.724 225.116 109.197C224.98 109.502 224.748 109.869 224.381 109.932C224.23 109.957 224.014 109.757 223.991 109.761C223.237 109.921 221.843 110.527 221.022 109.673C220.429 110.441 217.576 109.602 216.703 109.313C215.175 108.806 213.071 108.111 212.143 106.684C211.012 104.944 213.312 103.474 214.632 102.767C216.437 101.8 218.499 101.588 220.514 101.587ZM228.224 105.609C228.579 105.709 228.934 105.81 229.289 105.91C229.194 106.534 227.793 106.04 228.224 105.609ZM238.959 128.271C239.068 125.773 238.347 123.573 237.931 121.157C237.827 120.558 237.933 119.511 237.478 119.019C237.044 118.548 236.076 118.931 236.037 118.099C235.61 118.6 235.653 118.705 235.126 118.128C235.222 118.375 235.236 118.627 235.168 118.883C234.841 118.695 233.656 118.072 233.756 118.924C232.782 118.708 233.064 118.098 232.508 117.632C232.429 117.566 232.112 117.801 231.989 117.701C231.765 117.52 231.655 117.355 231.466 117.122C231.227 117.411 230.901 117.621 230.608 117.85C230.438 117.479 230.106 117.207 229.708 117.116C230.08 117.896 231.001 118.906 229.738 119.35C228.985 119.615 227.751 119.29 226.953 119.352C223.995 119.582 220.756 118.936 217.896 118.231C214.959 117.506 211.988 116.483 209.346 114.988C208.783 114.669 208.428 114.292 207.943 113.896C207.472 113.512 207.129 113.451 206.562 113.205C205.542 112.763 204.609 112.053 203.833 111.263C202.165 109.562 200.615 107.338 201.08 104.849C201.543 102.367 203.246 100.428 205.069 98.7938C207.222 96.8639 209.653 95.2525 212.233 93.9534C213.386 93.3729 216.337 91.1914 217.476 92.4678C218.205 93.2832 217.795 94.3236 216.8 94.5049C216.554 94.5497 216.298 94.3849 216.05 94.4978C215.692 94.6608 215.818 94.8533 215.67 94.9892C215.414 95.2251 215.141 95.5932 214.758 95.7977C213.42 96.5117 212.128 97.0774 210.849 97.947C210.26 98.3475 209.693 98.5198 209.173 98.8695C208.657 99.2171 208.539 99.7924 207.844 99.4375C208.092 100.449 206.606 101.533 206.024 102.152C205.122 103.112 204.04 104.337 204.461 105.757C205.285 108.537 209.008 110.648 211.39 111.87C214.363 113.395 217.641 114.609 220.952 115.111C222.597 115.361 224.298 115.515 225.956 115.673C227.247 115.797 229.228 115.345 230.157 116.509C230.186 115.152 234.42 115.272 235.321 115.098C233.514 108.914 229.966 103.416 226.173 98.2792C224.312 95.7575 222.484 93.1642 220.362 90.8526C218.039 88.3219 215.385 86.0603 212.864 83.7317C207.918 79.1644 202.325 75.0882 196.633 71.4974C190.954 67.9151 185.073 64.3894 178.851 61.8352C171.746 58.9181 164.265 56.9994 156.776 55.3653C157.792 54.0692 159.444 53.437 160.745 52.4888C161.2 52.1568 161.816 51.36 162.408 51.2512C163.048 51.133 163.553 51.8232 164.009 52.1697C165.318 53.1639 166.223 52.7417 167.722 52.6818C168.619 52.646 170.744 53.1461 171.122 51.9312C171.625 52.6017 170.896 53.1393 170.522 53.6309C170.794 54.0104 171.013 53.6167 171.281 53.5574C171.364 53.4887 171.447 53.4198 171.529 53.3512C171.663 53.1581 171.783 53.157 171.89 53.3474C172.05 53.5885 172.211 53.5352 172.373 53.1871C172.418 53.1592 172.462 53.1311 172.506 53.1032C172.7 52.9998 172.887 52.8363 173.068 52.7075C174.43 51.7327 175.644 50.9023 177.148 50.1842C178.411 49.5815 177.732 48.4285 178.565 47.6142C178.753 47.4299 179.07 47.5223 179.272 47.3661C179.469 47.2127 179.499 47.0388 179.643 46.8745C179.989 46.4794 179.577 46.0208 180.459 46.5045L180.141 44.7105C181.872 46.3916 181.865 41.5539 182.101 40.838C182.07 40.9327 182.257 40.2001 182.256 40.2064C182.307 38.7547 182.505 37.7025 180.807 37.6183C181.45 37.2133 181.647 38.0041 181.943 37.1854C182.092 36.7753 181.628 36.0704 182.368 36.3348C182.523 35.4631 182.369 34.7576 182.176 33.9105C181.977 33.0434 182.094 32.4648 182.103 31.5977C182.113 30.6141 181.653 29.6257 181.506 28.6571C181.39 27.8986 181.509 26.7023 180.53 26.981C180.392 26.7652 180.876 26.1016 180.856 25.7735C180.826 25.2638 180.273 24.7459 180.117 24.2564C179.886 24.4943 179.562 24.5736 179.249 24.4661C179.543 23.8011 179.267 23.5777 178.985 23.0043C178.824 22.6759 178.921 22.3133 178.576 22.0779C178.378 21.9428 178.04 22.1703 177.885 22.012C177.553 21.673 177.675 21.2231 177.447 20.7763C177.16 20.2161 176.504 19.7881 176.052 19.3676C173.512 17.0037 170.753 15.1971 167.375 14.2734C163.966 13.3415 159.992 13.0077 156.595 14.0826C155.237 14.5121 154.032 14.4681 152.81 15.2704C152.414 15.5307 152.371 15.461 152.17 15.8949C152.123 15.9961 152.545 16.2654 152.287 16.4308C152.006 16.6105 151.696 16.2452 151.553 15.9419C149.785 17.2233 148.128 18.9315 147.122 20.8901C146.121 22.8364 146.029 25.1229 145.647 27.238C143.885 25.2222 141.501 24.2559 138.91 25.2249C136.651 26.0693 134.901 27.9254 134.459 30.33C134.189 31.796 134.484 33.2805 135.149 34.6031C135.436 35.1746 135.784 35.8073 136.313 36.192C136.731 36.4961 137.447 36.4534 137.644 37.002C137.946 37.8422 136.203 39.6571 135.751 40.3926C134.932 41.7237 134.172 43.0983 133.593 44.5522C131.517 41.6163 129.53 38.4096 127.169 35.7026C124.942 33.1476 122.286 30.8561 119.682 28.6965C114.276 24.2143 108.655 20.0033 102.608 16.4325C96.9778 13.1075 90.1766 11.2615 83.6147 11.9142C77.2032 12.5521 72.2946 16.6121 68.164 21.2948C60.2218 30.2983 55.3575 43.1311 54.8823 55.1162C54.7394 58.7166 55.0134 62.27 55.9015 65.7621C56.3245 67.4248 56.263 69.0603 56.5088 70.7444C56.7863 72.6442 57.2661 74.5373 57.7301 76.3983C59.4976 83.4878 61.7495 90.5718 64.2765 97.4263C65.5904 100.991 67.1801 104.476 69.3307 107.619C70.3239 109.071 71.6108 110.207 72.6797 111.585C73.7166 112.922 73.9905 114.564 74.2186 116.204C74.7653 120.138 75.128 124.089 75.4568 128.046C75.5963 129.723 75.7594 131.385 75.9811 133.05C76.1745 134.502 75.6881 134.431 74.4682 134.924C74.7156 133.619 68.8872 134.507 68.3369 134.596C67.738 134.693 67.1039 134.694 66.6322 134.771C66.1049 134.857 65.5887 134.982 64.9814 134.964C64.0886 134.938 62.417 134.71 62.0762 135.851C61.8416 134.528 60.292 135.975 61.4385 135.729C60.2617 135.861 59.0609 135.642 57.8699 135.753C56.505 135.88 55.1283 136 53.773 136.206C52.8294 136.349 51.929 136.713 50.9838 136.819C49.7743 136.954 48.512 136.941 47.2907 137.049C42.786 137.447 38.1169 138.431 33.7381 139.557C32.7462 139.812 31.6066 139.994 30.6589 140.403C30.4052 140.513 30.1769 140.758 29.9339 140.852C29.5264 141.009 29.5821 140.9 29.2203 140.973C27.0522 141.407 24.8155 142.115 22.6477 142.672C21.4452 142.98 19.4893 143.259 18.5083 144.099C18.0687 144.475 17.6844 145.143 18.389 145.57C18.9519 145.912 19.7553 145.367 20.2108 145.072C19.805 146.131 19.0395 146.659 19.453 147.863C19.7793 148.815 20.5161 149.989 21.6498 149.375C21.8016 149.728 21.8631 150.431 22.3101 150.561C22.7118 150.678 23.0027 150.168 23.3962 150.288C23.5371 150.331 23.4836 150.598 23.6098 150.668C23.8272 150.787 24.0476 150.838 24.2966 150.923C24.5107 150.996 24.8554 151.145 25.0788 151.161C25.2205 151.171 25.5545 150.928 25.5534 150.928C25.8789 150.978 26.054 151.601 26.2883 151.781C26.5925 152.016 26.8438 152.069 27.2247 152.154C28.0167 152.33 29.0376 152.632 29.5603 151.82C29.4407 152.399 30.228 152.343 30.5754 152.416C30.5369 152.111 30.3684 151.831 30.1084 151.663C30.8851 151.715 30.5702 152.488 31.1442 152.692C31.5533 152.837 31.5069 152.468 31.8199 152.427C32.2322 152.373 32.5452 152.673 33.1892 152.396C33.3287 153.017 33.3798 153.644 34.1415 153.736C34.5885 153.791 35.6309 152.982 35.5719 153.655C36.5706 153.362 36.9497 153.56 37.4716 154.441C37.5598 153.9 37.9866 154.057 38.3783 154.024C38.999 153.971 39.0148 154.021 39.496 153.669C39.54 153.637 39.9185 152.769 40.0867 153.308C40.1624 153.55 39.6624 154.119 39.4772 154.263C39.7071 154.38 40.4606 154.788 40.7504 154.713C41.0011 154.648 41.0019 154.219 41.3031 154.197C41.2294 154.443 41.1559 154.69 41.0819 154.937C41.668 155.022 42.1576 154.63 42.6205 154.342C43.0619 155.459 44.3233 154.83 45.0093 155.671C45.3722 156.115 45.3892 156.453 46.0807 156.57C46.7882 156.689 47.4063 156.378 48.0076 156.962C47.817 156.599 47.3421 156.299 47.814 155.909C48.1352 156.365 48.3009 156.915 48.6712 157.339C48.7223 157.124 48.7734 156.908 48.8245 156.692C49.7898 157.726 51.0051 157.735 52.2417 158.308V157.551C53.1271 158.904 53.1743 158.048 54.232 157.495C54.1602 157.893 54.0881 158.291 54.0163 158.689C54.7774 158.631 55.4885 159.534 56.1134 158.767C56.4908 159.401 56.9482 159.089 57.5668 159.29C57.9185 159.405 58.1804 159.752 58.5226 159.877C59.0358 160.065 59.189 160.057 59.6721 160.22C60.1017 160.366 60.3458 160.649 60.8836 160.74C61.2328 160.799 61.5496 160.795 61.8839 160.778C62.0131 160.772 61.9705 160.481 62.2575 160.549C62.7013 160.654 63.0317 161.212 63.3512 161.497C63.8319 160.288 65.1777 161.908 65.8282 162.124C65.8905 161.814 65.8793 161.44 66.1035 161.185C66.3668 161.763 66.4673 162.248 67.0137 162.62C67.3292 162.834 67.7923 162.988 68.1566 163.067C68.3869 163.116 68.8052 163.057 68.95 163.128C69.1969 163.249 69.2878 163.572 69.5371 163.603C69.6838 163.621 69.9012 163.234 70.011 163.264C70.5135 163.402 70.7926 164.013 71.3 164.343C72.8099 165.327 74.7101 165.422 76.3924 165.638C76.8146 165.692 76.8758 165.576 77.2188 165.824C77.4018 165.957 77.3187 166.36 77.5438 166.473C78.3917 166.899 78.3923 165.991 78.5701 165.427C78.8505 165.797 78.8989 166.286 79.2826 166.581C79.492 166.575 79.7018 166.58 79.911 166.595C80.0289 166.73 80.1065 166.886 80.1425 167.062C80.6505 167.405 81.2259 167.286 81.7505 167.544C81.9226 167.628 82.2274 168.139 82.4393 168.286C82.8186 168.549 83.4052 168.69 83.8386 168.804C84.7475 169.044 86.0507 168.725 86.5914 169.676C87.3094 168.905 87.0317 169.825 87.5191 170.018C87.807 170.133 88.2398 169.679 88.5591 169.724C89.134 169.805 89.341 170.428 89.525 170.881C89.8751 170.803 89.6348 169.811 89.625 169.594C90.06 169.542 90.1567 170.689 90.2318 170.942C90.9186 170.61 89.7913 169.58 90.5298 169.249C90.462 170.127 91.1609 170.85 89.9128 170.976C90.0852 171.505 94.1106 172.092 94.3902 171.625C94.4522 172.488 95.0312 171.682 95.2448 171.387C95.2688 171.89 95.0976 172.605 95.6618 172.839C96.0452 172.998 96.9098 172.587 97.0603 172.211C97.2321 172.785 97.5199 172.767 97.8777 173.132C98.1235 173.383 98.2854 173.817 98.5432 174.027C99.0176 174.414 99.8999 174.355 100.453 174.268C101.534 174.099 101.406 173.892 101.792 175.017C101.879 174.59 102.152 173.697 102.628 174.361C102.931 174.783 102.286 175.713 102.099 176.083C102.516 175.854 102.93 175.582 103.404 175.484C103.431 175.63 103.455 175.94 103.385 176.076C103.399 176.048 103.905 176.388 104.093 176.482C104.047 176.459 104.241 175.614 104.235 175.641C104.903 176.054 104.44 176.842 105.031 177.249C105.183 177.354 105.542 177.231 105.726 177.295C106.048 177.407 106.326 177.708 106.611 177.885C106.383 177.579 106.416 177.064 106.432 176.711C106.577 176.791 106.681 177.092 106.827 177.116C106.883 177.125 107.458 177.201 107.454 177.198C108.052 177.618 107.929 177.671 107.415 178.175C107.599 178.464 108.366 177.962 108.573 177.879C108.617 177.992 108.628 178.402 108.71 178.475C108.759 178.597 108.809 178.718 108.859 178.839C109.012 178.725 109.176 178.687 109.352 178.725C109.462 178.763 110.328 179.116 110.387 178.995C110.197 178.934 110.026 178.84 109.872 178.713C110.372 178.264 110.7 178.025 111.16 178.674C111.218 178.756 111.019 179.049 111.078 179.156C111.298 179.553 111.75 179.869 112.056 180.192C112.183 179.746 111.888 178.628 112.593 178.668C113.156 178.701 113.585 180.067 113.39 180.492C113.614 180.247 114.951 180.003 115.203 180.08C115.917 180.297 115.717 180.957 116.595 179.989C117.193 180.403 116.666 180.56 116.773 181.064C116.932 181.097 117.081 181.058 117.223 180.946C117.117 183.089 118.696 181.452 119.722 181.779C120.124 181.908 120.227 182.365 120.659 182.499C120.888 182.57 121.142 182.403 121.364 182.443C121.543 182.418 121.719 182.386 121.895 182.349C122.118 182.237 122.223 182.362 122.209 182.724C122.567 182.91 122.432 182.983 122.851 183.019C123.121 183.042 123.369 182.761 123.676 182.809C124.205 182.892 124.135 183.299 124.473 183.511C124.777 183.703 125.12 183.696 125.495 183.66C125.686 183.641 126.222 183.394 126.286 183.393C126.687 183.388 126.469 183.303 126.95 183.647C127.324 183.915 127.481 184.089 127.941 184.213C128.467 184.354 129.402 184.664 129.756 184.282C130.235 185.001 130.61 184.474 131.242 184.521C131.565 184.546 131.617 184.672 131.905 184.722C132.371 184.804 132.953 184.733 133.449 184.892C134.231 185.144 134.319 185.27 135.118 185.304C135.263 185.248 135.407 185.191 135.551 185.135C135.594 185.376 135.707 185.573 135.891 185.725C136.338 185.819 136.632 185.593 137 185.345C137.275 186.202 138.166 186.277 138.929 186.39C140.159 186.571 141.336 186.671 142.522 187.076C143.524 187.417 144.528 187.801 145.492 188.239C146.34 188.624 147.14 189.201 148.1 188.93C150.274 188.317 152.382 186.082 154.201 184.799C156.355 183.279 158.679 182.027 160.931 180.66C169.894 175.221 179.363 170.619 188.2 164.977C193.025 161.896 197.502 158.237 202.683 155.744C201.946 158.796 200.69 161.894 200.917 165.089C201.008 166.377 201.387 167.898 202.384 168.797C203.617 169.909 204.991 169.201 206.17 168.407C208.697 166.706 210.382 164.223 212.273 161.893C214.51 159.135 216.245 156.173 217.887 153.03C218.281 153.583 217.982 154.51 217.987 155.123C217.995 155.906 218.206 156.66 218.568 157.359C219.504 159.162 221.285 159.599 222.893 158.364C225.99 155.986 227.787 151.752 229.446 148.342C230.392 150.105 231.735 152.323 234.008 151.064C235.883 150.026 236.984 147.704 237.558 145.738C239.232 139.999 238.702 134.154 238.959 128.271Z" fill="#323232"/>
<path fill-rule="evenodd" clip-rule="evenodd" d="M236.114 93.7991C235.9 93.279 235.806 93.3641 236.199 92.8598C236.506 93.162 236.26 93.4116 236.114 93.7991ZM245.59 125.276C244.989 123.564 245.36 121.705 244.995 119.949C244.827 119.144 244.563 118.362 244.468 117.542C244.425 117.178 244.102 115.54 244.322 115.282C243.644 114.871 243.641 114.567 243.485 113.76C243.726 113.503 243.696 113.284 243.393 113.103C243.196 112.863 242.998 112.623 242.8 112.384C243.665 112.807 243.153 111.723 243.065 111.098C242.995 110.604 242.948 110.089 242.784 109.616C242.581 109.034 242.131 108.74 243.067 108.74C242.759 108.389 242.299 108.027 242.145 107.597C241.924 106.979 242.289 106.162 241.838 105.616C241.588 105.311 240.294 105.192 240.521 104.534C240.636 104.199 241.161 104.449 241.323 104.214C241.961 103.291 240.078 102.909 239.986 102.516C239.866 102.007 240.546 101.893 240.588 101.417C240.628 100.951 239.905 100.186 239.714 99.7688C239.453 99.8323 239.168 100.245 238.869 100.048C238.813 100.011 238.898 98.3975 238.83 98.1834C238.763 97.9729 238.627 97.4145 238.579 97.3112C238.385 96.9007 237.833 96.7008 237.745 96.216C237.693 95.9267 238.825 95.4887 237.527 95.475C237.993 94.652 237.139 94.1518 236.827 93.4486C236.428 92.5443 236.192 91.5676 235.781 90.6587C235.382 89.7752 234.935 88.9368 234.36 88.1556C233.839 87.4482 233.613 86.7679 233.197 86.0208C233.114 85.9552 233.03 85.8896 232.947 85.824C232.6 85.8743 232.488 85.716 232.613 85.3487C232.347 84.9547 232.15 84.5342 231.915 84.1226C231.643 83.6444 231.276 83.2545 230.994 82.7893C230.621 82.1727 230.511 81.4774 230.089 80.8589C229.57 80.0979 228.987 79.4269 228.506 78.6374C227.904 77.6484 227.236 77.0337 226.478 76.2678C226.117 75.903 226.074 74.9919 225.632 74.474C225.15 73.9099 224.675 73.7571 224.341 73.0166C223.907 72.0533 223.27 71.5934 222.65 70.7607C222.138 70.0739 221.888 69.2844 221.324 68.62C220.84 68.0493 220.289 67.5279 219.772 66.9867C219.119 66.3034 218.636 65.473 217.956 64.8233C218.054 64.9171 217.364 64.3696 217.399 64.3871C217.247 64.3092 216.754 64.2466 216.826 64.289C215.799 63.6849 214.513 61.4742 212.969 62.6456C212.157 63.2617 212.546 64.3915 213.113 65.0051C213.357 65.2687 214.623 66.5681 214.896 66.0201C215.191 66.439 216.101 68.4641 216.857 67.8839C216.78 68.576 217.18 68.3463 217.444 68.8141C217.618 69.1228 217.534 69.2743 217.661 69.7561C218.009 71.0807 219.34 72.3743 220.048 73.5293C221.812 76.404 223.758 79.1304 225.524 82.0084C227.206 84.7513 229.091 87.3539 230.705 90.1336C232.541 93.2946 234.828 96.2784 236.212 99.686C236.258 99.8006 236.643 99.9818 236.738 100.154C236.904 100.453 236.868 100.97 236.975 101.308C237.347 102.482 237.948 103.637 238.634 104.609C239.235 105.462 239.279 106.621 239.692 107.621C240.276 109.032 240.892 110.427 241.459 111.844C242.342 114.05 242.94 116.164 243.549 118.467C243.945 119.96 244.259 121.451 244.385 122.992C244.501 124.41 244.529 125.886 245.053 127.228C245.41 126.675 245.831 125.96 245.59 125.276Z" fill="#323232"/>
<path fill-rule="evenodd" clip-rule="evenodd" d="M43.7371 155.644C43.103 155.516 42.5063 155.345 42.3719 154.616C42.2799 154.959 42.1881 155.303 42.0961 155.647C42.8681 155.822 43.6404 155.997 44.4125 156.172C44.2322 155.854 44.1006 155.718 43.7371 155.644Z" fill="#323232"/>
<path fill-rule="evenodd" clip-rule="evenodd" d="M45.4378 36.003C45.4859 35.7974 45.5481 35.5959 45.6249 35.3993C45.677 35.591 45.9326 36.0055 45.7838 36.1862C45.5943 36.4157 45.4026 36.2858 45.4378 36.003ZM48.5464 30.0809C48.7545 30.1728 49.2049 30.1905 49.4632 30.2682C48.793 30.8454 48.6751 30.6756 47.8085 30.6086C47.77 30.0246 48.0071 29.8433 48.5464 30.0809ZM42.7374 44.5398C42.8273 44.5423 42.9174 44.5445 43.0078 44.5467C43.0132 44.2924 43.0067 44.0383 42.9876 43.7846C43.9014 43.9845 43.3841 42.3857 43.0971 42.0543C43.9885 42.0841 44.4227 39.2583 44.7051 38.7139C44.9558 38.2305 45.2398 38.0434 45.423 37.4539C45.5834 36.9379 45.7568 36.4736 45.9881 35.9855C46.5195 34.8633 47.2167 33.8442 47.0881 32.5364C47.5384 33.5178 47.9344 32.538 48.2201 32.0688C48.6803 31.3127 49.803 30.348 49.9223 29.4501C50.0277 28.6596 49.4411 28.6177 49.7874 27.8846C50.1375 27.1425 50.4253 27.2169 51.0387 26.9795C51.4467 26.8215 51.5278 27.0135 51.8157 26.4977C52.0022 26.1639 51.9364 25.915 52.1753 25.6413C52.2739 25.7272 52.3862 25.7627 52.5118 25.748C52.7057 25.4918 52.833 25.2063 52.8933 24.8916C53.0514 24.4666 53.1279 24.0764 53.366 23.6718C53.5919 23.2884 53.9928 22.2627 54.2053 22.0779C54.4308 21.8815 55.7103 21.9813 55.7048 21.9885C56.2333 21.3229 55.2635 20.6598 56.6063 20.8001C56.3411 20.3057 57.2727 19.6921 57.543 19.417C58.2184 18.7304 58.2722 18.4127 58.4148 17.5492C58.4871 17.1089 58.0147 17.1598 58.648 17.0594C58.9099 17.0182 59.1611 17.3534 59.3501 17.3042C60.1844 17.0876 59.3116 17.1289 59.5418 16.7885C59.6145 16.6805 59.9856 16.2446 59.9821 16.2492C59.964 16.2711 60.0656 15.87 60.1497 15.7669C60.3092 15.7532 60.4663 15.7253 60.6206 15.6832C60.6989 15.5246 60.7683 15.3622 60.8284 15.196C61.4322 14.6917 62.3356 14.4661 62.7532 13.9122C63.0232 13.5539 62.9424 13.2031 63.2914 12.846C63.6238 12.5059 64.0635 12.7522 64.1293 11.9839C64.2131 11.0063 63.1644 10.5713 62.7354 11.5578C61.572 10.1231 56.7093 15.3871 56.1475 16.0748C53.7074 19.0602 51.3091 22.1194 49.3076 25.4207C47.3574 28.6374 45.7568 32.022 44.5057 35.5699C43.9024 37.2806 43.5351 38.9835 43.1667 40.753C43.043 41.3455 42.1186 43.9861 42.5034 44.577C42.5812 44.5647 42.6593 44.5521 42.7374 44.5398Z" fill="#323232"/>
<path fill-rule="evenodd" clip-rule="evenodd" d="M234.807 117.751C235.218 117.476 235.218 117.476 235.29 116.957C234.739 117.058 234.739 117.058 234.807 117.751Z" fill="#323232"/>
<path fill-rule="evenodd" clip-rule="evenodd" d="M32.2137 152.649C32.219 152.648 32.2229 152.649 32.226 152.653C32.2171 152.641 32.1847 152.607 32.2137 152.649Z" fill="#323232"/>
<path fill-rule="evenodd" clip-rule="evenodd" d="M31.9375 152.926C32.0645 153.201 32.2685 153.27 32.5498 153.131C32.6607 153.29 31.588 152.141 31.9375 152.926Z" fill="#323232"/>
<path fill-rule="evenodd" clip-rule="evenodd" d="M50.4894 27.5012C49.8457 28.7648 50.6519 27.8458 50.6106 28.2562C50.6377 27.9866 50.7494 27.6024 50.4894 27.5012Z" fill="#323232"/>
<path fill-rule="evenodd" clip-rule="evenodd" d="M155.138 47.0579C155.417 49.3236 158.512 48.252 159.209 46.8815C159.716 45.8838 160.996 41.941 159.619 41.1081C158.597 40.4907 158.379 43.1518 158.127 43.7463C157.705 44.7419 157.376 44.0364 156.438 44.2918C155.402 44.5737 155.023 46.1184 155.138 47.0579Z" fill="#323232"/>
<path fill-rule="evenodd" clip-rule="evenodd" d="M151.755 42.9108C152.861 43.1569 153.946 43.0301 154.732 42.1551C155.167 41.6705 155.747 40.7094 154.963 40.2404C154.253 39.8158 153.447 40.8103 152.699 40.6047C151.682 40.3249 152.206 39.2328 151.857 38.5115C150.574 39.2509 149.859 42.4892 151.755 42.9108Z" fill="#323232"/>
<path fill-rule="evenodd" clip-rule="evenodd" d="M152.899 48.6318C151.833 48.6297 151.824 49.9433 152.381 50.5063C152.914 51.045 154.261 51.5902 154.983 51.1713C156.408 50.3444 153.763 48.7172 152.899 48.6318Z" fill="#323232"/>
<path fill-rule="evenodd" clip-rule="evenodd" d="M90.8342 100.869C91.0619 100.98 91.7332 101.549 92.0161 101.292C91.6168 100.889 91.2173 100.487 90.818 100.084C90.5974 100.326 90.4461 100.68 90.8342 100.869Z" fill="#323232"/>
<path fill-rule="evenodd" clip-rule="evenodd" d="M85.7949 43.2385C85.6815 43.3233 85.5679 43.4078 85.4546 43.4923C85.8372 43.8114 85.8276 43.9063 86.2132 43.6041C86.0988 43.4532 85.9595 43.3315 85.7949 43.2385Z" fill="#323232"/>
<path fill-rule="evenodd" clip-rule="evenodd" d="M158.091 118.411C157.877 118.026 157.472 118.736 157.198 118.852C156.752 119.04 156.387 118.045 156.514 119.238C155.507 118.776 154.896 119.835 154.246 120.387C153.328 121.167 152.205 121.59 151.593 122.697C154.475 123.373 157.642 120.885 159.791 119.251C160.141 118.984 161.894 117.638 160.706 117.508C160.22 117.455 158.452 119.059 158.091 118.411Z" fill="#323232"/>
<path fill-rule="evenodd" clip-rule="evenodd" d="M157.235 116.075C157.8 115.63 156.582 115.589 156.39 115.543C156.406 115.897 156.422 116.251 156.439 116.605C156.712 116.439 156.977 116.263 157.235 116.075Z" fill="#323232"/>
<path fill-rule="evenodd" clip-rule="evenodd" d="M155.117 117.56C155.286 117.455 155.756 117.125 155.436 116.88C155.147 117.064 154.94 117.365 154.895 117.708C154.969 117.659 155.043 117.609 155.117 117.56Z" fill="#323232"/>
<path fill-rule="evenodd" clip-rule="evenodd" d="M108.44 88.8467C108.079 88.9883 107.918 89.2123 107.955 89.519C108.51 89.4056 108.404 88.8814 108.44 88.8467Z" fill="#323232"/>
</svg>
